<?xml version="1.0" encoding="UTF-8" standalone="no"?>
<!-- Created with Inkscape (http://www.inkscape.org/) -->

<svg
   xmlns:dc="http://purl.org/dc/elements/1.1/"
   xmlns:cc="http://creativecommons.org/ns#"
   xmlns:rdf="http://www.w3.org/1999/02/22-rdf-syntax-ns#"
   xmlns:svg="http://www.w3.org/2000/svg"
   xmlns="http://www.w3.org/2000/svg"
   xmlns:sodipodi="http://sodipodi.sourceforge.net/DTD/sodipodi-0.dtd"
   xmlns:inkscape="http://www.inkscape.org/namespaces/inkscape"
   width="150"
   height="150"
   id="svg7496"
   version="1.1"
   inkscape:version="0.48.4 r9939"
   sodipodi:docname="oignon.svg">
  <defs
     id="defs7498">
    <clipPath
       id="clipPath11459"
       clipPathUnits="userSpaceOnUse">
      <path
         id="path11461"
         d="m 850.859,6831.69 c 0,0 -187.066,-1.97 -265.832,-137.84 -78.761,-135.87 -106.332,-393.82 92.551,-484.4 198.883,-90.58 226.449,-66.96 226.449,-66.96 0,0 -21.66,-49.22 0,-86.64 21.661,-37.41 47.258,-179.19 112.243,-200.85 64.98,-21.66 82.7,19.69 84.67,31.51 1.97,11.81 -33.47,-5.91 -49.23,-1.97 -15.75,3.94 -25.6,43.32 -37.41,68.92 -11.82,25.6 -21.663,47.26 -13.79,70.89 7.88,23.63 49.23,84.67 45.29,102.39 0,0 269.78,66.95 326.88,194.95 57.1,127.99 66.95,295.36 -27.57,391.85 -94.52,96.49 -218.57,137.84 -277.64,135.87 0,0 15.75,39.38 27.56,53.17 0,0 -76.79,-23.63 -102.393,-49.23 0,0 -5.907,39.38 -1.969,61.04 0,0 -68.918,-39.38 -68.918,-74.82 0,0 -63.012,78.76 -131.934,53.16 0,0 51.2,-33.47 61.043,-61.04 z"
         inkscape:connector-curvature="0" />
    </clipPath>
    <clipPath
       id="clipPath11797"
       clipPathUnits="userSpaceOnUse">
      <path
         id="path11799"
         d="m 2281.39,7271.13 c 0,0 29.48,32.66 57.68,43.52 28.2,10.87 17.33,55.36 97.76,52.68 80.42,-2.69 48.04,-78.76 48.04,-78.76 0,0 44.96,18.84 99.53,5.07 54.57,-13.76 65.44,-64.46 43.7,-116.27 -21.74,-51.82 -71.21,-140.02 -160.59,-127.44 -89.37,12.59 -206.79,158.11 -186.12,221.2 z"
         inkscape:connector-curvature="0" />
    </clipPath>
    <clipPath
       id="clipPath11811"
       clipPathUnits="userSpaceOnUse">
      <path
         id="path11813"
         d="m 2467.51,7049.93 c 0,0 19.31,95.19 73.65,101.71 54.34,6.52 89.11,32.6 86.94,69.55 -2.17,36.95 2.46,67.38 -53.11,73.9 0,0 -9.92,8.7 20.51,21.74 30.43,13.04 71.38,22 94.34,-3.41 22.95,-25.41 62.15,-67.81 49.11,-114.8 -13.04,-46.98 -119.33,-119.69 -163.96,-148.69 -44.63,-28.99 -78.75,-99.24 -107.48,0 z"
         inkscape:connector-curvature="0" />
    </clipPath>
    <clipPath
       id="clipPath11825"
       clipPathUnits="userSpaceOnUse">
      <path
         id="path11827"
         d="m 2467.51,6783.07 c 0,0 67.13,155.56 45.39,246.85 -21.73,91.29 -65.21,119.54 -158.67,171.71 -93.46,52.16 -150.46,126.07 -257.81,0 -107.35,-126.07 -20.41,-219.53 38.28,-278.22 58.69,-58.69 220.05,-152.45 332.81,-140.34 z"
         inkscape:connector-curvature="0" />
    </clipPath>
    <clipPath
       id="clipPath11843"
       clipPathUnits="userSpaceOnUse">
      <path
         id="path11845"
         d="m 2793.29,7198.62 c 0,0 23.91,-131.75 63.04,-188.26 39.12,-56.52 139.1,-343.43 0,-462.98 -139.11,-119.54 -354.74,-160.75 -433.19,-143.45 -78.45,17.3 -26.52,365.23 13.15,473.87 39.66,108.64 217.89,296.08 357,320.82 z"
         inkscape:connector-curvature="0" />
    </clipPath>
    <clipPath
       id="clipPath11859"
       clipPathUnits="userSpaceOnUse">
      <path
         id="path11861"
         d="m 2384.66,6393.06 c 0,0 65.21,-21.74 128.24,32.6 63.03,54.34 93.46,123.9 93.46,178.24 0,54.34 -32.6,215.18 -110.85,267.35 -78.25,52.16 -443.41,239.09 -473.84,289.08 -30.43,49.99 -45.64,-21.74 -56.51,-65.2 -10.87,-43.48 -37.59,-164.69 -67.7,-218.2 -30.11,-53.5 -85.09,-129.58 0,-251.3 85.09,-121.72 263.32,-234.74 487.2,-232.57 z"
         inkscape:connector-curvature="0" />
    </clipPath>
    <clipPath
       id="clipPath11493"
       clipPathUnits="userSpaceOnUse">
      <path
         id="path11495"
         d="m 4003.03,7499.29 c -169.8,4.36 -332.79,-105.57 -362.63,-190.49 -29.84,-84.92 -94.1,-330.5 -117.05,-381 -22.95,-50.49 -169.84,-234.1 -183.61,-348.86 -13.77,-114.75 34.42,-410.82 403.94,-456.73 369.52,-45.9 599.03,71.15 647.23,289.19 48.2,218.04 -89.51,507.22 -100.99,562.31 -11.47,55.08 71.15,516.4 -286.89,525.58 z"
         inkscape:connector-curvature="0" />
    </clipPath>
    <clipPath
       id="clipPath11565"
       clipPathUnits="userSpaceOnUse">
      <path
         id="path11567"
         d="m 5470.49,6976.77 c -107.65,26.44 -398.48,47.21 -500.46,-234.18 -101.98,-281.39 136.59,-508.95 258.73,-559.01 153.6,-62.95 394.7,-98.2 638.32,37.77 243.62,135.98 288.95,460.81 166.19,602.45 -122.75,141.64 -251.17,228.51 -562.78,152.97 z"
         inkscape:connector-curvature="0" />
    </clipPath>
    <clipPath
       id="clipPath11889"
       clipPathUnits="userSpaceOnUse">
      <path
         id="path11891"
         d="m 7358.51,6565.15 c -1.91,-11.65 -4.42,-23.57 -7.91,-35.55 -22.63,-77.81 -64.54,-5.94 -109.7,-23.7 -45.16,-17.76 -18.64,-74.88 -95.02,-100.19 -76.37,-25.32 -106.85,88.06 -189.34,55.24 -73.74,-29.34 -74.39,34.08 -120.61,32.38 -46.21,-1.69 -56.22,-28.94 -84.26,-61.72 -28.04,-32.78 -92.32,5.1 -134.92,38.19 -27.53,21.38 -32.3,63.5 -32.25,90.71 -15.21,-99.32 25.77,-275.33 160.49,-347.35 153.45,-82.04 190.11,-73.56 190.11,-73.56 0,0 57.04,-88.35 43.61,-118.08 -13.44,-29.74 -65.56,-138.33 -13.81,-192.28 51.75,-53.95 96.66,-14.93 96.66,-14.93 0,0 -69.06,-12.31 -74.86,41.61 -5.81,53.92 14.24,57.89 14.24,57.89 0,0 53.5,-31.24 73.96,-13.2 0,0 -48.46,18.09 -53.35,43.59 -4.9,25.5 -0.1,56.57 6.68,66.13 6.78,9.56 62.05,46.97 41.39,142.06 0,0 176.48,39.37 250.01,131.03 55.11,68.71 62.13,190.21 38.88,281.73 z"
         inkscape:connector-curvature="0" />
    </clipPath>
    <clipPath
       id="clipPath11763"
       clipPathUnits="userSpaceOnUse">
      <path
         id="path11765"
         d="m 925.598,5230.68 c -82.36,-2.22 -420.496,-128.97 -420.684,-442.94 -0.168,-281.56 200.324,-469.65 471.875,-489.68 271.551,-20.03 581.621,194.31 583.171,505.26 1.69,340.56 -378.39,420.69 -438.49,427.36 0,0 28.93,75.68 82.35,117.97 0,0 -55.64,6.68 -93.48,-11.13 0,0 -2.23,55.65 -24.48,120.2 0,0 -91.262,-62.33 -106.844,-84.58 0,0 -51.196,35.61 -84.582,51.19 0,0 42.293,-155.81 31.164,-193.65 z"
         inkscape:connector-curvature="0" />
    </clipPath>
    <clipPath
       id="clipPath11597"
       clipPathUnits="userSpaceOnUse">
      <path
         id="path11599"
         d="m 4172.82,5122.8 c -27.71,-1.85 -61.7,30.85 -64.07,47.46 -2.37,16.61 21.36,80.68 47.46,111.53 26.1,30.85 116.28,90.18 116.28,102.04 0,11.87 -40.34,42.71 -59.33,36.78 -18.98,-5.93 -54.58,-36.78 -54.58,-36.78 0,0 35.6,66.44 47.46,78.31 11.87,11.86 -64.4,49.83 -97.45,47.46 0,0 -113.74,-106.79 -137.47,-168.48 -23.73,-61.7 -23.73,-144.16 -40.35,-156.33 -16.61,-12.16 -73.56,-50.13 -116.27,-61.99 -42.72,-11.87 -154.25,-27.29 -237.3,-77.72 -83.06,-50.42 -161.37,-131.52 -170.86,-200.13 -9.49,-68.61 23.73,-213.36 121.02,-296.42 97.3,-83.06 277.64,-147.13 353.58,-144.75 75.94,2.37 123.4,37.96 123.4,37.96 0,0 80.68,-35.59 144.75,-4.74 0,0 59.33,-23.73 140.01,14.24 80.68,37.96 287.13,189.84 246.79,439 -40.34,249.17 -161.36,261.41 -187.47,263.6 -26.1,2.18 -140,-28.67 -175.6,-31.04 z"
         inkscape:connector-curvature="0" />
    </clipPath>
  </defs>
  <sodipodi:namedview
     id="base"
     pagecolor="#ffffff"
     bordercolor="#666666"
     borderopacity="1.0"
     inkscape:pageopacity="0.0"
     inkscape:pageshadow="2"
     inkscape:zoom="1.9445436"
     inkscape:cx="27.293245"
     inkscape:cy="81.981215"
     inkscape:current-layer="layer1"
     showgrid="true"
     inkscape:document-units="px"
     inkscape:grid-bbox="true"
     inkscape:window-width="1280"
     inkscape:window-height="748"
     inkscape:window-x="0"
     inkscape:window-y="0"
     inkscape:window-maximized="1" />
  <metadata
     id="metadata7501">
    <rdf:RDF>
      <cc:Work
         rdf:about="">
        <dc:format>image/svg+xml</dc:format>
        <dc:type
           rdf:resource="http://purl.org/dc/dcmitype/StillImage" />
        <dc:title></dc:title>
      </cc:Work>
    </rdf:RDF>
  </metadata>
  <g
     id="layer1"
     inkscape:label="Layer 1"
     inkscape:groupmode="layer"
     transform="translate(0,86)">
    <g
       id="g25525"
       transform="matrix(0.90053933,0,0,0.90053933,165.75578,668.55197)">
      <path
         inkscape:connector-curvature="0"
         d="m -114.55888,-691.53387 c 0,0 6.8225,10.085 19.873801,9.7888 13.0512,-0.2963 22.5437,-13.645 22.5437,-13.645 0,0 -29.960001,-2.67 -42.417501,3.8562"
         style="fill:#cc95b1;fill-opacity:1;fill-rule:nonzero;stroke:none"
         id="path11589" />
      <path
         inkscape:connector-curvature="0"
         d="m -75.701379,-778.14887 c -3.4637,0.2313 -7.7125,-3.8562 -8.0088,-5.9325 -0.2962,-2.0762 2.6701,-10.085 5.9325,-13.9412 3.2626,-3.8563 14.5351,-11.2725 14.5351,-12.755 0,-1.4838 -5.0426,-5.3388 -7.4163,-4.5975 -2.3725,0.7412 -6.8225,4.5975 -6.8225,4.5975 0,0 4.45,-8.305 5.9325,-9.7888 1.4837,-1.4825 -8.05,-6.2287 -12.1813,-5.9325 0,0 -14.2174,13.3488 -17.183701,21.06 -2.9663,7.7125 -2.9663,18.02 -5.0438,19.5413 -2.0762,1.52 -9.195,6.2662 -14.5337,7.7487 -5.34,1.4838 -19.2813,3.4113 -29.6625,9.715 -10.3825,6.3025 -20.1712,16.44 -21.3575,25.0163 -1.1862,8.5762 2.9662,26.67 15.1275,37.0525 12.1625,10.3825 34.705,18.3912 44.1975,18.0937 9.4925,-0.2962 15.425001,-4.745 15.425001,-4.745 0,0 10.085,4.4488 18.0937,0.5925 0,0 7.4163,2.9663 17.5013,-1.78 10.085,-4.745 35.8912,-23.73 30.8487,-54.875 -5.0425,-31.1462 -20.1699,-32.6762 -23.4337,-32.95 -3.2625,-0.2725 -17.5,3.5838 -21.95,3.88"
         style="fill:#f9c6dd;fill-opacity:1;fill-rule:nonzero;stroke:none"
         id="path11591" />
      <g
         transform="matrix(0.125,0,0,-0.125,-597.30388,-137.79883)"
         id="g11593">
        <g
           id="g11595"
           clip-path="url(#clipPath11597)">
          <path
             inkscape:connector-curvature="0"
             d="m 3429.71,4694.17 c 0,0 84.46,-135.45 169.46,-157.51 85,-22.05 6.88,119.13 6.88,119.13 0,0 144.65,-178.45 198.58,-45.47 0,0 187.22,-176.43 333.61,31.34 0,0 90.93,-150.83 238.43,52.51 0,0 87.95,-121.76 163.98,115.79 0,0 53.52,-113.94 -83.98,-250.7 -137.5,-136.76 -242.45,-167.13 -304.95,-150.97 0,0 -97.12,-32.84 -138.58,3.18 0,0 -66.92,-83.48 -194.19,-37.48 -127.28,46.01 -358.71,125.94 -389.24,320.18"
             style="fill:#de99be;fill-opacity:1;fill-rule:nonzero;stroke:none"
             id="path11601" />
        </g>
      </g>
      <path
         inkscape:connector-curvature="0"
         d="m -128.46638,-768.43387 c 0,0 -23.73,9.1288 -25.2137,27.215 -1.4825,18.0875 20.4674,36.3375 20.4674,36.3375 0,0 -20.9825,-23.8487 -17.98,-37.2875 3.8438,-17.205 22.7263,-26.265 22.7263,-26.265"
         style="fill:#a13870;fill-opacity:1;fill-rule:nonzero;stroke:none"
         id="path11603" />
      <path
         inkscape:connector-curvature="0"
         d="m -90.236379,-763.91007 c 0,0 18.095,13.6437 16.6112,33.2212 -1.4825,19.5775 -16.6112,31.1463 -16.6112,31.1463 0,0 14.1763,-21.2138 13.9425,-32.1838 -0.3712,-17.3525 -13.9425,-32.1837 -13.9425,-32.1837"
         style="fill:#a13870;fill-opacity:1;fill-rule:nonzero;stroke:none"
         id="path11605" />
      <path
         inkscape:connector-curvature="0"
         d="m -75.552679,-770.21387 c 0,0 16.5538,1.5888 22.0238,9.1213 6.7863,9.3437 17.8725,35.7437 -13.57,58.88 0,0 19.5787,-19.6175 18.6875,-35.8838 -0.6675,-12.18 -4.6388,-19.4662 -9.4925,-24.3312 -4.7587,-4.7688 -17.6488,-7.7863 -17.6488,-7.7863"
         style="fill:#a13870;fill-opacity:1;fill-rule:nonzero;stroke:none"
         id="path11607" />
      <path
         inkscape:connector-curvature="0"
         d="m -113.59508,-768.43387 c 0,0 -19.3575,15.795 -19.3551,31.7763 0,12.4975 12.2363,30.96 26.0288,39.1912 0,0 -24.1038,-21.2037 -23.5813,-39.1912 0.4451,-15.3138 16.9076,-31.7763 16.9076,-31.7763"
         style="fill:#a13870;fill-opacity:1;fill-rule:nonzero;stroke:none"
         id="path11609" />
      <path
         inkscape:connector-curvature="0"
         d="m -82.523879,-776.83387 c -3.9463,-3.1525 -4.8988,-10.0075 -3.9463,-14.07 0.9526,-4.0625 5.8025,-14.07 5.8025,-14.07 0,0 -9.45,13.2188 -8.8762,17.6975 0.5737,4.4775 7.02,10.4425 7.02,10.4425"
         style="fill:#de99be;fill-opacity:1;fill-rule:nonzero;stroke:none"
         id="path11611" />
      <path
         inkscape:connector-curvature="0"
         d="m -93.771379,-788.42387 c 0,0 3.7538,-19.375 8.6525,-23.4375 0,0 -8.7662,7.1875 -8.6525,23.4375"
         style="fill:#de99be;fill-opacity:1;fill-rule:nonzero;stroke:none"
         id="path11613" />
      <path
         inkscape:connector-curvature="0"
         d="m -89.543879,-747.38507 c 0,1.5975 -0.9463,2.8925 -2.1137,2.8925 -1.1676,0 -2.1138,-1.295 -2.1138,-2.8925 0,-1.5963 0.9463,-2.8913 2.1138,-2.8913 1.1674,0 2.1137,1.295 2.1137,2.8913"
         style="fill:#040606;fill-opacity:1;fill-rule:nonzero;stroke:none"
         id="path11615" />
      <path
         inkscape:connector-curvature="0"
         d="m -110.33268,-747.38507 c 0,1.5975 -0.9462,2.8925 -2.1137,2.8925 -1.1663,0 -2.1125,-1.295 -2.1125,-2.8925 0,-1.5963 0.9462,-2.8913 2.1125,-2.8913 1.1675,0 2.1137,1.295 2.1137,2.8913"
         style="fill:#040606;fill-opacity:1;fill-rule:nonzero;stroke:none"
         id="path11617" />
      <path
         inkscape:connector-curvature="0"
         d="m -109.01018,-741.97137 c 0,0 10.975101,-0.445 13.348801,0 0,0 -0.5488,11.2363 -6.675001,11.2725 -5.635,0.033 -6.6738,-11.2725 -6.6738,-11.2725"
         style="fill:#5b1637;fill-opacity:1;fill-rule:nonzero;stroke:none"
         id="path11619" />
    </g>
  </g>
</svg>
