<?xml version="1.0" encoding="UTF-8" standalone="no"?>
<!-- Created with Inkscape (http://www.inkscape.org/) -->

<svg
   xmlns:dc="http://purl.org/dc/elements/1.1/"
   xmlns:cc="http://creativecommons.org/ns#"
   xmlns:rdf="http://www.w3.org/1999/02/22-rdf-syntax-ns#"
   xmlns:svg="http://www.w3.org/2000/svg"
   xmlns="http://www.w3.org/2000/svg"
   xmlns:sodipodi="http://sodipodi.sourceforge.net/DTD/sodipodi-0.dtd"
   xmlns:inkscape="http://www.inkscape.org/namespaces/inkscape"
   width="150"
   height="150"
   id="svg7496"
   version="1.1"
   inkscape:version="0.48.4 r9939"
   sodipodi:docname="raifort.svg">
  <defs
     id="defs7498">
    <clipPath
       id="clipPath11459"
       clipPathUnits="userSpaceOnUse">
      <path
         id="path11461"
         d="m 850.859,6831.69 c 0,0 -187.066,-1.97 -265.832,-137.84 -78.761,-135.87 -106.332,-393.82 92.551,-484.4 198.883,-90.58 226.449,-66.96 226.449,-66.96 0,0 -21.66,-49.22 0,-86.64 21.661,-37.41 47.258,-179.19 112.243,-200.85 64.98,-21.66 82.7,19.69 84.67,31.51 1.97,11.81 -33.47,-5.91 -49.23,-1.97 -15.75,3.94 -25.6,43.32 -37.41,68.92 -11.82,25.6 -21.663,47.26 -13.79,70.89 7.88,23.63 49.23,84.67 45.29,102.39 0,0 269.78,66.95 326.88,194.95 57.1,127.99 66.95,295.36 -27.57,391.85 -94.52,96.49 -218.57,137.84 -277.64,135.87 0,0 15.75,39.38 27.56,53.17 0,0 -76.79,-23.63 -102.393,-49.23 0,0 -5.907,39.38 -1.969,61.04 0,0 -68.918,-39.38 -68.918,-74.82 0,0 -63.012,78.76 -131.934,53.16 0,0 51.2,-33.47 61.043,-61.04 z"
         inkscape:connector-curvature="0" />
    </clipPath>
    <clipPath
       id="clipPath11797"
       clipPathUnits="userSpaceOnUse">
      <path
         id="path11799"
         d="m 2281.39,7271.13 c 0,0 29.48,32.66 57.68,43.52 28.2,10.87 17.33,55.36 97.76,52.68 80.42,-2.69 48.04,-78.76 48.04,-78.76 0,0 44.96,18.84 99.53,5.07 54.57,-13.76 65.44,-64.46 43.7,-116.27 -21.74,-51.82 -71.21,-140.02 -160.59,-127.44 -89.37,12.59 -206.79,158.11 -186.12,221.2 z"
         inkscape:connector-curvature="0" />
    </clipPath>
    <clipPath
       id="clipPath11811"
       clipPathUnits="userSpaceOnUse">
      <path
         id="path11813"
         d="m 2467.51,7049.93 c 0,0 19.31,95.19 73.65,101.71 54.34,6.52 89.11,32.6 86.94,69.55 -2.17,36.95 2.46,67.38 -53.11,73.9 0,0 -9.92,8.7 20.51,21.74 30.43,13.04 71.38,22 94.34,-3.41 22.95,-25.41 62.15,-67.81 49.11,-114.8 -13.04,-46.98 -119.33,-119.69 -163.96,-148.69 -44.63,-28.99 -78.75,-99.24 -107.48,0 z"
         inkscape:connector-curvature="0" />
    </clipPath>
    <clipPath
       id="clipPath11825"
       clipPathUnits="userSpaceOnUse">
      <path
         id="path11827"
         d="m 2467.51,6783.07 c 0,0 67.13,155.56 45.39,246.85 -21.73,91.29 -65.21,119.54 -158.67,171.71 -93.46,52.16 -150.46,126.07 -257.81,0 -107.35,-126.07 -20.41,-219.53 38.28,-278.22 58.69,-58.69 220.05,-152.45 332.81,-140.34 z"
         inkscape:connector-curvature="0" />
    </clipPath>
    <clipPath
       id="clipPath11843"
       clipPathUnits="userSpaceOnUse">
      <path
         id="path11845"
         d="m 2793.29,7198.62 c 0,0 23.91,-131.75 63.04,-188.26 39.12,-56.52 139.1,-343.43 0,-462.98 -139.11,-119.54 -354.74,-160.75 -433.19,-143.45 -78.45,17.3 -26.52,365.23 13.15,473.87 39.66,108.64 217.89,296.08 357,320.82 z"
         inkscape:connector-curvature="0" />
    </clipPath>
    <clipPath
       id="clipPath11859"
       clipPathUnits="userSpaceOnUse">
      <path
         id="path11861"
         d="m 2384.66,6393.06 c 0,0 65.21,-21.74 128.24,32.6 63.03,54.34 93.46,123.9 93.46,178.24 0,54.34 -32.6,215.18 -110.85,267.35 -78.25,52.16 -443.41,239.09 -473.84,289.08 -30.43,49.99 -45.64,-21.74 -56.51,-65.2 -10.87,-43.48 -37.59,-164.69 -67.7,-218.2 -30.11,-53.5 -85.09,-129.58 0,-251.3 85.09,-121.72 263.32,-234.74 487.2,-232.57 z"
         inkscape:connector-curvature="0" />
    </clipPath>
    <clipPath
       id="clipPath11493"
       clipPathUnits="userSpaceOnUse">
      <path
         id="path11495"
         d="m 4003.03,7499.29 c -169.8,4.36 -332.79,-105.57 -362.63,-190.49 -29.84,-84.92 -94.1,-330.5 -117.05,-381 -22.95,-50.49 -169.84,-234.1 -183.61,-348.86 -13.77,-114.75 34.42,-410.82 403.94,-456.73 369.52,-45.9 599.03,71.15 647.23,289.19 48.2,218.04 -89.51,507.22 -100.99,562.31 -11.47,55.08 71.15,516.4 -286.89,525.58 z"
         inkscape:connector-curvature="0" />
    </clipPath>
    <clipPath
       id="clipPath11565"
       clipPathUnits="userSpaceOnUse">
      <path
         id="path11567"
         d="m 5470.49,6976.77 c -107.65,26.44 -398.48,47.21 -500.46,-234.18 -101.98,-281.39 136.59,-508.95 258.73,-559.01 153.6,-62.95 394.7,-98.2 638.32,37.77 243.62,135.98 288.95,460.81 166.19,602.45 -122.75,141.64 -251.17,228.51 -562.78,152.97 z"
         inkscape:connector-curvature="0" />
    </clipPath>
    <clipPath
       id="clipPath11667-2"
       clipPathUnits="userSpaceOnUse">
      <path
         id="path11669-3"
         d="m 6976.1,1570.56 c -99.83,-11.09 -161.95,-119.8 -175.26,-170.82 -13.31,-51.03 -8.87,-228.5 87.63,-334.99 0,0 -9.98,-130.891 29.95,-177.48 0,0 -8.87,-84.301 28.84,-139.758 0,0 -6.66,-108.711 37.71,-119.801 44.37,-11.09 62.12,31.059 68.78,110.93 0,0 42.15,39.929 24.4,126.449 0,0 62.12,109.172 46.59,233.17 0,0 88.35,137.27 63.95,316.97 -24.4,179.69 -212.59,155.33 -212.59,155.33 z"
         inkscape:connector-curvature="0" />
    </clipPath>
  </defs>
  <sodipodi:namedview
     id="base"
     pagecolor="#ffffff"
     bordercolor="#666666"
     borderopacity="1.0"
     inkscape:pageopacity="0.0"
     inkscape:pageshadow="2"
     inkscape:zoom="1.9445436"
     inkscape:cx="10.005721"
     inkscape:cy="62.598445"
     inkscape:current-layer="layer1"
     showgrid="true"
     inkscape:document-units="px"
     inkscape:grid-bbox="true"
     inkscape:window-width="1280"
     inkscape:window-height="748"
     inkscape:window-x="0"
     inkscape:window-y="0"
     inkscape:window-maximized="1" />
  <metadata
     id="metadata7501">
    <rdf:RDF>
      <cc:Work
         rdf:about="">
        <dc:format>image/svg+xml</dc:format>
        <dc:type
           rdf:resource="http://purl.org/dc/dcmitype/StillImage" />
        <dc:title></dc:title>
      </cc:Work>
    </rdf:RDF>
  </metadata>
  <g
     id="layer1"
     inkscape:label="Layer 1"
     inkscape:groupmode="layer"
     transform="translate(0,86)">
    <g
       transform="translate(2677.075,1159.3004)"
       id="g12920">
      <path
         inkscape:connector-curvature="0"
         id="path12916"
         d="m -2659.2264,-1122.6225 c 0,0 -5.8084,-8.5863 46.2144,-67.6802 0,0 3.0305,-6.3135 -1.1364,-12.2481 -4.1669,-5.9347 2.3991,1.6415 3.5355,0.3788 1.1365,-1.2627 -1.0101,-8.3338 -2.2728,-8.7757 0,0 5.177,1.9572 4.6719,0.063 -0.505,-1.894 -7.3236,-12.6269 -14.0158,-16.5412 -6.6923,-3.9144 6.566,2.5253 8.5863,0.7576 2.0203,-1.7678 -1.5153,-2.7779 1.6415,-4.672 3.1567,-1.894 2.0203,2.6517 2.7779,1.0102 0.7576,-1.6415 -0.1263,-3.0305 2.1466,-2.9042 2.2728,0.1263 3.788,9.4702 5.6821,9.2176 1.894,-0.2525 3.0304,-3.1567 3.4092,-7.4498 0.3788,-4.2932 4.7983,-1.7678 7.955,-2.778 3.1567,-1.0101 3.4092,-1.1364 7.071,0.8839 3.6618,2.0203 4.672,-2.1466 6.566,-2.0203 1.8941,0.1263 1.1365,5.5559 3.4093,5.4296 2.2728,-0.1263 7.4499,4.1669 11.3642,1.5152 3.9144,-2.6516 9.2177,1.8941 10.7329,5.0508 1.5152,3.1567 -8.0812,6.566 -7.955,11.2379 0.1263,4.672 4.0406,-2.5254 10.3541,-1.7677 6.3135,0.7576 10.7329,6.5659 8.46,7.071 -2.2728,0.5051 -9.9752,5.4296 -14.1421,8.3338 -4.1669,2.9042 -5.4296,-5.3033 -13.0057,0.1263 0,0 6.2783,4.4957 3.3319,6.6386 -2.9465,2.1428 -12.4108,1.5178 -10.4465,5.8035 1.9643,4.2857 -2.3214,5.8036 -9.8214,6.9643 0,0 -11.6071,11.25 -20.7143,34.1072 -9.1071,22.8571 -36.0908,33.8014 -36.0908,33.8014 0,0 -15.7837,4.3563 -18.309,-11.5536 z"
         style="fill:#6b9d2b;fill-opacity:1;stroke:none"
         sodipodi:nodetypes="ccscccsscsscssssssscsssccscscc" />
    </g>
    <path
       style="fill:#d8caad;fill-opacity:1;stroke:none"
       d="m 34.515993,49.566876 c 0,0 -1.0101,-12.8794 -16.6675,-10.1015 0,0 4.0406,13.6371 16.6675,10.1015 z"
       id="path13899-6"
       inkscape:connector-curvature="0" />
    <path
       id="path12093-2"
       style="fill:#ffffff;fill-opacity:1;fill-rule:nonzero;stroke:none"
       d="m 73.501993,-4.9882228 c 0.3887,2.9558 -5.9836,3.3709 -9.7204,1.216 -3.7371,-2.1565 -7.1033,-6.3368002 -4.3092,-8.1645002 3.1247,-2.0429 2.4187,2.8074002 6.1557,4.9639002 3.7369,2.1548 7.4373,-1.3243 7.8739,1.9846"
       inkscape:connector-curvature="0" />
    <path
       id="path12095-0"
       style="fill:none;stroke:#171717;stroke-width:1.25;stroke-linecap:butt;stroke-linejoin:miter;stroke-miterlimit:10;stroke-opacity:1;stroke-dasharray:none"
       d="m 73.501993,-4.9882228 c 0.3887,2.9558 -5.9836,3.3709 -9.7204,1.216 -3.7371,-2.1565 -7.1033,-6.3368002 -4.3092,-8.1645002 3.1247,-2.0429 2.4187,2.8074002 6.1557,4.9639002 3.7369,2.1548 7.4373,-1.3243 7.8739,1.9846 z"
       inkscape:connector-curvature="0" />
    <path
       id="path12097-4"
       style="fill:none;stroke:#171717;stroke-width:1.25;stroke-linecap:butt;stroke-linejoin:miter;stroke-miterlimit:10;stroke-opacity:1;stroke-dasharray:none"
       d="m 62.685093,-10.356923 -2.919,3.5505002"
       inkscape:connector-curvature="0" />
    <path
       id="path12099-6"
       style="fill:none;stroke:#171717;stroke-width:1.25;stroke-linecap:butt;stroke-linejoin:miter;stroke-miterlimit:10;stroke-opacity:1;stroke-dasharray:none"
       d="m 65.294193,-7.1906228 -1.5126,3.4184"
       inkscape:connector-curvature="0" />
    <path
       id="path12101-7"
       style="fill:none;stroke:#171717;stroke-width:1.25;stroke-linecap:butt;stroke-linejoin:miter;stroke-miterlimit:10;stroke-opacity:1;stroke-dasharray:none"
       d="m 69.869893,-6.2961228 -0.2273,3.8667"
       inkscape:connector-curvature="0" />
    <path
       id="path12103-5"
       style="fill:#171717;fill-opacity:1;fill-rule:nonzero;stroke:none"
       d="m 76.005093,-13.144423 c -0.5349,1.0861 -1.6144,1.6487 -2.4074,1.2571 -0.7941,-0.3921 -1.0024,-1.5895 -0.4664,-2.6764 0.5371,-1.0861 1.6144,-1.6488 2.4085,-1.2564 0.7929,0.3917 1.0024,1.5896 0.4655,2.6757"
       inkscape:connector-curvature="0" />
    <path
       id="path12105-4"
       style="fill:#171717;fill-opacity:1;fill-rule:nonzero;stroke:none"
       d="m 66.149893,-17.795223 c -0.5363,1.0868 -1.6144,1.6487 -2.4074,1.2571 -0.7942,-0.3921 -1.0033,-1.5903 -0.4663,-2.6764 0.5357,-1.0853 1.6142,-1.6487 2.4085,-1.2563 0.7929,0.3916 1.0014,1.5904 0.4652,2.6756"
       inkscape:connector-curvature="0" />
  </g>
</svg>
