<?xml version="1.0" encoding="UTF-8" standalone="no"?>
<!-- Created with Inkscape (http://www.inkscape.org/) -->

<svg
   xmlns:dc="http://purl.org/dc/elements/1.1/"
   xmlns:cc="http://creativecommons.org/ns#"
   xmlns:rdf="http://www.w3.org/1999/02/22-rdf-syntax-ns#"
   xmlns:svg="http://www.w3.org/2000/svg"
   xmlns="http://www.w3.org/2000/svg"
   xmlns:sodipodi="http://sodipodi.sourceforge.net/DTD/sodipodi-0.dtd"
   xmlns:inkscape="http://www.inkscape.org/namespaces/inkscape"
   width="150"
   height="150"
   id="svg7496"
   version="1.1"
   inkscape:version="0.48.4 r9939"
   sodipodi:docname="fenouille.svg">
  <defs
     id="defs7498">
    <clipPath
       id="clipPath11459"
       clipPathUnits="userSpaceOnUse">
      <path
         id="path11461"
         d="m 850.859,6831.69 c 0,0 -187.066,-1.97 -265.832,-137.84 -78.761,-135.87 -106.332,-393.82 92.551,-484.4 198.883,-90.58 226.449,-66.96 226.449,-66.96 0,0 -21.66,-49.22 0,-86.64 21.661,-37.41 47.258,-179.19 112.243,-200.85 64.98,-21.66 82.7,19.69 84.67,31.51 1.97,11.81 -33.47,-5.91 -49.23,-1.97 -15.75,3.94 -25.6,43.32 -37.41,68.92 -11.82,25.6 -21.663,47.26 -13.79,70.89 7.88,23.63 49.23,84.67 45.29,102.39 0,0 269.78,66.95 326.88,194.95 57.1,127.99 66.95,295.36 -27.57,391.85 -94.52,96.49 -218.57,137.84 -277.64,135.87 0,0 15.75,39.38 27.56,53.17 0,0 -76.79,-23.63 -102.393,-49.23 0,0 -5.907,39.38 -1.969,61.04 0,0 -68.918,-39.38 -68.918,-74.82 0,0 -63.012,78.76 -131.934,53.16 0,0 51.2,-33.47 61.043,-61.04 z"
         inkscape:connector-curvature="0" />
    </clipPath>
    <clipPath
       id="clipPath11797"
       clipPathUnits="userSpaceOnUse">
      <path
         id="path11799"
         d="m 2281.39,7271.13 c 0,0 29.48,32.66 57.68,43.52 28.2,10.87 17.33,55.36 97.76,52.68 80.42,-2.69 48.04,-78.76 48.04,-78.76 0,0 44.96,18.84 99.53,5.07 54.57,-13.76 65.44,-64.46 43.7,-116.27 -21.74,-51.82 -71.21,-140.02 -160.59,-127.44 -89.37,12.59 -206.79,158.11 -186.12,221.2 z"
         inkscape:connector-curvature="0" />
    </clipPath>
    <clipPath
       id="clipPath11811"
       clipPathUnits="userSpaceOnUse">
      <path
         id="path11813"
         d="m 2467.51,7049.93 c 0,0 19.31,95.19 73.65,101.71 54.34,6.52 89.11,32.6 86.94,69.55 -2.17,36.95 2.46,67.38 -53.11,73.9 0,0 -9.92,8.7 20.51,21.74 30.43,13.04 71.38,22 94.34,-3.41 22.95,-25.41 62.15,-67.81 49.11,-114.8 -13.04,-46.98 -119.33,-119.69 -163.96,-148.69 -44.63,-28.99 -78.75,-99.24 -107.48,0 z"
         inkscape:connector-curvature="0" />
    </clipPath>
    <clipPath
       id="clipPath11825"
       clipPathUnits="userSpaceOnUse">
      <path
         id="path11827"
         d="m 2467.51,6783.07 c 0,0 67.13,155.56 45.39,246.85 -21.73,91.29 -65.21,119.54 -158.67,171.71 -93.46,52.16 -150.46,126.07 -257.81,0 -107.35,-126.07 -20.41,-219.53 38.28,-278.22 58.69,-58.69 220.05,-152.45 332.81,-140.34 z"
         inkscape:connector-curvature="0" />
    </clipPath>
    <clipPath
       id="clipPath11843"
       clipPathUnits="userSpaceOnUse">
      <path
         id="path11845"
         d="m 2793.29,7198.62 c 0,0 23.91,-131.75 63.04,-188.26 39.12,-56.52 139.1,-343.43 0,-462.98 -139.11,-119.54 -354.74,-160.75 -433.19,-143.45 -78.45,17.3 -26.52,365.23 13.15,473.87 39.66,108.64 217.89,296.08 357,320.82 z"
         inkscape:connector-curvature="0" />
    </clipPath>
    <clipPath
       id="clipPath11859"
       clipPathUnits="userSpaceOnUse">
      <path
         id="path11861"
         d="m 2384.66,6393.06 c 0,0 65.21,-21.74 128.24,32.6 63.03,54.34 93.46,123.9 93.46,178.24 0,54.34 -32.6,215.18 -110.85,267.35 -78.25,52.16 -443.41,239.09 -473.84,289.08 -30.43,49.99 -45.64,-21.74 -56.51,-65.2 -10.87,-43.48 -37.59,-164.69 -67.7,-218.2 -30.11,-53.5 -85.09,-129.58 0,-251.3 85.09,-121.72 263.32,-234.74 487.2,-232.57 z"
         inkscape:connector-curvature="0" />
    </clipPath>
    <clipPath
       id="clipPath11493"
       clipPathUnits="userSpaceOnUse">
      <path
         id="path11495"
         d="m 4003.03,7499.29 c -169.8,4.36 -332.79,-105.57 -362.63,-190.49 -29.84,-84.92 -94.1,-330.5 -117.05,-381 -22.95,-50.49 -169.84,-234.1 -183.61,-348.86 -13.77,-114.75 34.42,-410.82 403.94,-456.73 369.52,-45.9 599.03,71.15 647.23,289.19 48.2,218.04 -89.51,507.22 -100.99,562.31 -11.47,55.08 71.15,516.4 -286.89,525.58 z"
         inkscape:connector-curvature="0" />
    </clipPath>
    <clipPath
       id="clipPath11565"
       clipPathUnits="userSpaceOnUse">
      <path
         id="path11567"
         d="m 5470.49,6976.77 c -107.65,26.44 -398.48,47.21 -500.46,-234.18 -101.98,-281.39 136.59,-508.95 258.73,-559.01 153.6,-62.95 394.7,-98.2 638.32,37.77 243.62,135.98 288.95,460.81 166.19,602.45 -122.75,141.64 -251.17,228.51 -562.78,152.97 z"
         inkscape:connector-curvature="0" />
    </clipPath>
  </defs>
  <sodipodi:namedview
     id="base"
     pagecolor="#ffffff"
     bordercolor="#666666"
     borderopacity="1.0"
     inkscape:pageopacity="0.0"
     inkscape:pageshadow="2"
     inkscape:zoom="1.9445436"
     inkscape:cx="15.496944"
     inkscape:cy="73.281982"
     inkscape:current-layer="layer1"
     showgrid="true"
     inkscape:document-units="px"
     inkscape:grid-bbox="true"
     inkscape:window-width="1280"
     inkscape:window-height="748"
     inkscape:window-x="0"
     inkscape:window-y="0"
     inkscape:window-maximized="1" />
  <metadata
     id="metadata7501">
    <rdf:RDF>
      <cc:Work
         rdf:about="">
        <dc:format>image/svg+xml</dc:format>
        <dc:type
           rdf:resource="http://purl.org/dc/dcmitype/StillImage" />
        <dc:title></dc:title>
      </cc:Work>
    </rdf:RDF>
  </metadata>
  <g
     id="layer1"
     inkscape:label="Layer 1"
     inkscape:groupmode="layer"
     transform="translate(0,86)">
    <path
       style="fill:#f1eacf;fill-opacity:1;stroke:none"
       d="m 68.673512,59.674953 c 0,0 24.009502,7.7951 41.470998,-16.838002 17.4615,-24.633096 2.1827,-46.4598962 8.4189,-57.685196 6.2362,-11.2253 24.3214,-50.5137 24.3214,-50.5137 0,0 -5.3008,-6.2361 -14.9669,-5.6126 l -24.9452,45.8364 12.1607,-52.0726 c 0,0 -5.6126,-7.1716 -16.526096,-2.1827 0,0 -8.107,59.2444 -13.7196,59.8679 -5.612602,0.6237 -11.848902,-14.9669 -24.321402,-11.8488 0,0 -13.7197,-28.0631 -15.9024,-46.7718 l -15.2787,7.4835 c 0,0 13.096,27.7513 12.1606,50.8252 l -19.3324,-47.0834 -11.8489,8.7307 c 0,0 14.0315,23.074 13.408,58.93249984 -0.6235,35.85839616 7.7954,67.35139816 44.901,58.93259816 z"
       id="path12685-0"
       inkscape:connector-curvature="0" />
    <g
       id="g107986-7-1"
       transform="matrix(0.59582726,0,0,0.59582726,1120.9685,-52.557145)">
      <path
         inkscape:connector-curvature="0"
         d="m -1787.7563,107.93801 c -0.6775,0 -1.2338,-0.54 -1.25,-1.22 -0.06,-2.5425 -1.8,-3.4463 -3.4275,-3.4463 -0.016,0 -0.034,0 -0.051,0 -1.8463,0.021 -3.7138,1.2025 -3.7138,3.4163 0,0.6912 -0.5587,1.25 -1.25,1.25 -0.6913,0 -1.25,-0.5588 -1.25,-1.25 0,-3.795 3.1862,-5.88 6.1837,-5.9163 0.026,0 0.051,0 0.077,0 2.8038,0 5.835,1.8313 5.9313,5.8863 0.015,0.6912 -0.53,1.2637 -1.2213,1.28 -0.01,0 -0.019,0 -0.029,0"
         style="fill:#171717;fill-opacity:1;fill-rule:nonzero;stroke:none"
         id="path11579-5-6-2" />
      <path
         inkscape:connector-curvature="0"
         d="m -1781.5275,121.09421 c -0.024,0 -0.049,0 -0.073,0 -2.8037,-0.034 -5.7812,-1.9863 -5.7812,-5.5363 0,-0.6912 0.5613,-1.25 1.25,-1.25 l 0,0 c 0.6912,0 1.25,0.5588 1.25,1.25 0,1.9675 1.6663,3.0175 3.3113,3.0375 0.016,0 0.031,0 0.047,0 1.4463,0 2.9938,-0.8037 3.0475,-3.0675 0.016,-0.69 0.57,-1.2937 1.2788,-1.22 0.6912,0.016 1.2362,0.5888 1.2212,1.2788 -0.092,3.795 -2.9274,5.5087 -5.5524,5.5087"
         style="fill:#171717;fill-opacity:1;fill-rule:nonzero;stroke:none"
         id="path11581-9-4-7" />
      <path
         inkscape:connector-curvature="0"
         d="m -1765.4088,107.93801 c -0.6775,0 -1.2338,-0.54 -1.25,-1.22 -0.06,-2.57 -1.7913,-3.4538 -3.48,-3.4463 -1.845,0.021 -3.7125,1.2025 -3.7125,3.4163 0,0.6912 -0.56,1.25 -1.25,1.25 -0.6913,0 -1.25,-0.5588 -1.25,-1.25 0,-3.795 3.1862,-5.88 6.1837,-5.9163 2.7938,0 5.9113,1.7938 6.0088,5.8863 0.015,0.6912 -0.53,1.2637 -1.2213,1.28 -0.01,0 -0.019,0 -0.029,0"
         style="fill:#171717;fill-opacity:1;fill-rule:nonzero;stroke:none"
         id="path11583-3-7-8" />
    </g>
  </g>
</svg>
