<?xml version="1.0" encoding="UTF-8" standalone="no"?>
<!-- Created with Inkscape (http://www.inkscape.org/) -->

<svg
   xmlns:dc="http://purl.org/dc/elements/1.1/"
   xmlns:cc="http://creativecommons.org/ns#"
   xmlns:rdf="http://www.w3.org/1999/02/22-rdf-syntax-ns#"
   xmlns:svg="http://www.w3.org/2000/svg"
   xmlns="http://www.w3.org/2000/svg"
   xmlns:xlink="http://www.w3.org/1999/xlink"
   xmlns:sodipodi="http://sodipodi.sourceforge.net/DTD/sodipodi-0.dtd"
   xmlns:inkscape="http://www.inkscape.org/namespaces/inkscape"
   width="280"
   height="250"
   id="svg10747"
   version="1.1"
   inkscape:version="0.48.4 r9939"
   sodipodi:docname="New document 3">
  <defs
     id="defs10749">
    <clipPath
       id="clipPath21139"
       clipPathUnits="userSpaceOnUse">
      <path
         id="path21141"
         d="m 2457.64,5685.94 c -99.22,0 -193.21,31.97 -262.05,92.57 -21.16,-15.95 -44.34,-28.91 -69.75,-38.66 -13.93,-3.25 -27.86,-6.51 -41.79,-9.77 -9.93,-2.32 -19.86,-4.64 -29.78,-6.95 -8.9,-0.81 -17.73,-1.21 -26.49,-1.21 -42.21,0 -82.82,9.31 -121.82,27.91 -20.55,13.57 -41.1,27.14 -61.66,40.72 -17.63,15.3 -33.01,32.95 -46.41,52.01 -40.29,-44.9 -88.47,-78.31 -144.74,-99.91 -26.3,-6.16 -52.61,-12.31 -78.92,-18.45 -4.83,-1.12 -9.66,-2.25 -14.5,-3.38 -11.61,-1.04 -23.14,-1.57 -34.57,-1.57 -55.08,0 -108.07,12.14 -158.96,36.41 -26.84,17.72 -53.65,35.43 -80.47,53.15 -48.77,42.33 -85.84,97.27 -107.8,158.13 -40.6,-42.97 -88.6,-75.12 -144.05,-96.42 l -97.485,-22.77 c -12.129,-1.09 -24.157,-1.64 -36.094,-1.64 -57.485,0 -112.781,12.68 -165.875,38.01 l -83.988,55.46 c -76.157,66.08 -125.165,161.6 -134.551,263.27 -1.114,12.1 -1.664,24.22 -1.668,36.32 -0.012,92.91 32.422,184.65 91.578,255.72 43.828,52.22 97.262,90.43 160.305,114.65 18.214,4.26 36.429,8.5 54.656,12.74 l 0,0 0,0 c -6.442,17.81 -10.715,36.41 -12.508,55.42 -0.668,7.09 -0.992,14.21 -0.98,21.31 0.074,53.48 19.175,106.26 53.957,147.19 25.839,30.12 57.324,52.17 94.468,66.13 19.153,4.39 38.293,8.76 57.445,13.15 7.14,0.63 14.22,0.94 21.25,0.94 33.87,0 66.46,-7.31 97.77,-21.94 13.05,-8.43 26.1,-16.86 39.16,-25.3 13.41,79.39 47.15,154.89 98.66,216.8 50.45,60.09 111.97,104.08 184.53,131.95 37.4,8.73 74.83,17.48 112.23,26.21 13.95,1.25 27.79,1.88 41.52,1.88 66.17,0 129.82,-14.57 190.96,-43.75 32.22,-21.27 64.46,-42.54 96.68,-63.82 37.25,-32.34 68.8,-70.82 93.66,-113.34 1.84,2.3 3.49,4.74 5.37,7 48.55,57.82 107.73,100.14 177.55,126.96 35.99,8.4 71.99,16.81 107.98,25.21 13.43,1.21 26.76,1.81 39.98,1.81 63.66,0 124.9,-14.03 183.7,-42.09 l 93.03,-61.41 c 76.42,-66.34 128.07,-159.49 144.82,-260.17 171.63,-4.7 323.94,-110.37 341.27,-298.05 0.81,-8.85 1.22,-17.77 1.22,-26.74 0.03,-56.62 -15.78,-114.98 -43.59,-166.78 l 0,0 0,0 c 62.42,-48.7 105.61,-120.89 114.21,-214.07 0.79,-8.62 1.18,-17.32 1.18,-26.05 -0.01,-41.79 -8.95,-84.56 -25.2,-124.71 -43.62,-107.77 -139.87,-196.61 -257.24,-196.61 -63.89,0 -125.39,14.46 -178.21,42.34 -55.66,-79.19 -140.08,-135.81 -237.99,-135.81"
         inkscape:connector-curvature="0" />
    </clipPath>
    <radialGradient
       inkscape:collect="always"
       xlink:href="#radialGradient21143"
       id="radialGradient24139"
       gradientUnits="userSpaceOnUse"
       gradientTransform="matrix(108.66,0,0,-108.66,183.525,647.098)"
       spreadMethod="pad"
       cx="0"
       cy="0"
       fx="0"
       fy="0"
       r="1" />
    <radialGradient
       id="radialGradient21143"
       spreadMethod="pad"
       gradientTransform="matrix(108.66,0,0,-108.66,183.525,647.098)"
       gradientUnits="userSpaceOnUse"
       r="1"
       cy="0"
       cx="0"
       fy="0"
       fx="0">
      <stop
         id="stop21145"
         offset="0"
         style="stop-opacity:1;stop-color:#ffffff" />
      <stop
         id="stop21147"
         offset="1"
         style="stop-opacity:1;stop-color:#bce9ec" />
    </radialGradient>
    <clipPath
       id="clipPath21031"
       clipPathUnits="userSpaceOnUse">
      <path
         id="path21033"
         d="m 4321.53,4188.34 c -13.74,0 -27.32,0.85 -40.75,2.56 -16.79,2.14 -33.34,5.61 -49.65,10.42 -6.58,1.94 -13.12,4.09 -19.63,6.47 -9.2,3.36 -18.33,7.15 -27.39,11.38 -2.03,1.32 -4.07,2.63 -6.1,3.95 -4.81,3.11 -9.61,6.21 -14.42,9.32 -9.67,6.25 -19.34,12.5 -29.01,18.75 -4.85,3.13 -9.7,6.27 -14.54,9.4 -0.23,0.15 -0.45,0.29 -0.67,0.44 -13.1,-12.36 -28.13,-22.38 -44.62,-29.02 -5.25,-2.12 -10.65,-3.89 -16.18,-5.29 -9.37,-2.36 -19.13,-3.64 -29.19,-3.66 -0.11,0 -0.22,0 -0.33,0 -4.33,0 -8.64,0.12 -12.92,0.38 -9.34,0.55 -18.54,1.7 -27.52,3.44 -4.68,0.91 -9.29,1.97 -13.84,3.19 -11.01,2.96 -21.62,6.84 -31.66,11.61 -6.4,3.05 -12.57,6.45 -18.48,10.22 -8.64,5.5 -16.7,11.77 -24.06,18.78 -4.89,-3.06 -9.87,-5.99 -14.93,-8.79 -4.95,-2.74 -9.98,-5.35 -15.1,-7.83 -8.84,-4.3 -17.95,-8.22 -27.33,-11.75 -1.72,-0.39 -3.44,-0.78 -5.16,-1.18 -6.18,-1.41 -12.36,-2.82 -18.53,-4.23 -13.55,-3.1 -27.09,-6.19 -40.64,-9.29 -4.92,-1.12 -9.84,-2.25 -14.75,-3.37 -9.85,-0.87 -19.6,-1.3 -29.29,-1.3 -46.62,0 -91.47,10.06 -134.54,30.18 -22.71,14.68 -45.42,29.37 -68.13,44.05 -21.2,18.02 -39.74,38.84 -55.35,61.62 -8.79,-5.57 -17.83,-10.79 -27.06,-15.58 -35.81,-18.56 -74.46,-30.62 -112.03,-31.49 -1.44,-0.03 -2.88,-0.05 -4.32,-0.05 -94.06,0 -176.08,15.74 -250.07,78.62 -66.58,56.59 -109.44,138.38 -117.65,225.44 -0.97,10.36 -1.46,20.74 -1.46,31.1 -0.01,79.55 28.35,158.09 80.08,218.96 52.18,61.39 141.91,117.65 225.44,117.65 15.82,0 31.26,-0.5 46.42,-1.54 l 0,0 0,0 c -0.61,8.92 -0.92,17.84 -0.92,26.75 0,92.47 32.88,183.76 93.02,254.52 44.59,51.99 98.93,90.04 163.05,114.16 l 99.16,22.67 c 12.33,1.09 24.55,1.63 36.69,1.63 58.46,0 114.72,-12.62 168.73,-37.85 l 85.43,-55.22 c 26.11,-22.2 49,-47.78 68.35,-75.76 l 76.72,17.54 c 11.08,0.98 22.08,1.47 32.99,1.47 52.59,0 103.17,-11.34 151.75,-34.04 25.61,-16.56 51.22,-33.11 76.84,-49.66 56.58,-48.11 96.81,-113.62 114.49,-185.34 10.74,5.64 21.93,10.66 33.56,15.03 23.94,5.47 47.86,10.95 71.79,16.42 8.93,0.79 17.78,1.18 26.57,1.18 42.34,0 83.06,-9.14 122.16,-27.4 20.62,-13.33 41.23,-26.66 61.86,-39.98 56.05,-47.66 92.16,-116.53 99.07,-189.85 0.82,-8.72 1.23,-17.46 1.23,-26.19 0.01,-66.99 -23.88,-133.13 -67.44,-184.38 -32.29,-37.66 -71.63,-65.21 -118.05,-82.66 -23.93,-5.47 -47.86,-10.94 -71.79,-16.42 -2.14,-0.19 -4.25,-0.22 -6.4,-0.37 -10.31,-53.83 -34.22,-104.91 -70.02,-147.03 -36.32,-42.35 -80.59,-73.35 -132.81,-92.98 -26.92,-6.16 -53.84,-12.32 -80.76,-18.47 -10.05,-0.89 -20.02,-1.33 -29.91,-1.33"
         inkscape:connector-curvature="0" />
    </clipPath>
    <radialGradient
       inkscape:collect="always"
       xlink:href="#radialGradient21035"
       id="radialGradient24137"
       gradientUnits="userSpaceOnUse"
       gradientTransform="matrix(80.733,0,0,-80.733,393.147,479.499)"
       spreadMethod="pad"
       cx="0"
       cy="0"
       fx="0"
       fy="0"
       r="1" />
    <radialGradient
       id="radialGradient21035"
       spreadMethod="pad"
       gradientTransform="matrix(80.733,0,0,-80.733,393.147,479.499)"
       gradientUnits="userSpaceOnUse"
       r="1"
       cy="0"
       cx="0"
       fy="0"
       fx="0">
      <stop
         id="stop21037"
         offset="0"
         style="stop-opacity:1;stop-color:#ffffff" />
      <stop
         id="stop21039"
         offset="1"
         style="stop-opacity:1;stop-color:#bce9ec" />
    </radialGradient>
    <clipPath
       id="clipPath21085"
       clipPathUnits="userSpaceOnUse">
      <path
         id="path21087"
         d="m 4340.72,1553.36 c -50.62,0 -99.34,10.92 -146.12,32.77 -11.39,7.37 -22.77,14.72 -34.15,22.08 -4.81,-2.06 -9.61,-4.12 -14.56,-5.98 -27.37,-6.26 -54.75,-12.52 -82.12,-18.78 -0.52,-0.05 -1.03,-0.09 -1.55,-0.13 -9.69,-0.82 -19.3,-1.22 -28.86,-1.22 -42.21,0 -83.04,7.94 -122.45,23.83 -5.79,2.33 -11.56,4.84 -17.29,7.52 -23.58,15.24 -47.16,30.5 -70.74,45.74 -2.03,1.72 -3.97,3.54 -5.96,5.31 -33.94,-36.35 -74.35,-63.47 -121.37,-81.15 -24.06,-5.51 -48.11,-11.01 -72.17,-16.51 -2.5,-0.58 -5.01,-1.15 -7.52,-1.72 -9.91,-0.88 -19.73,-1.31 -29.48,-1.31 -40.37,0 -79.44,7.48 -117.17,22.46 -6.18,2.45 -12.33,5.1 -18.44,7.96 -22.88,14.79 -45.76,29.59 -68.64,44.37 -9.77,8.31 -18.94,17.26 -27.57,26.66 -9.56,-5.03 -19.51,-9.48 -29.85,-13.36 l -63.94,-14.63 c -7.95,-0.71 -15.85,-1.06 -23.68,-1.06 -17.79,0 -35.27,1.82 -52.42,5.44 -19.19,4.06 -37.97,10.38 -56.36,18.97 -18.37,11.87 -36.72,23.74 -55.08,35.61 -9.07,7.71 -17.56,16.05 -25.41,24.92 -35.35,39.94 -57.79,90.72 -62.83,144.14 -0.72,7.61 -1.05,15.23 -1.04,22.84 0,3.72 0.08,7.43 0.23,11.14 l 0,0 0,0 c -8.88,5.73 -17.75,11.47 -26.62,17.21 -55.4,47.08 -91.06,115.13 -97.88,187.55 -0.81,8.62 -1.22,17.26 -1.22,25.88 -0.02,66.18 23.58,131.52 66.63,182.17 31.88,37.19 70.75,64.4 116.62,81.66 23.63,5.4 47.28,10.81 70.93,16.21 8.52,0.76 16.97,1.13 25.37,1.13 14.1,0 28.02,-1.05 41.77,-3.06 2.86,71.71 29.57,141.78 76.3,196.75 36.68,42.79 81.41,74.11 134.15,93.95 27.21,6.22 54.42,12.44 81.61,18.66 16.09,0.46 32.36,0.96 48.64,0.96 25.19,0 50.37,-1.19 74.83,-5.52 39.95,-7.08 79.28,-20.68 116.3,-37.31 44.47,-19.98 81.77,-49.88 110.94,-85.99 34.38,39.99 76.26,69.3 125.64,87.86 25.53,5.84 51.06,11.68 76.59,17.51 9.53,0.84 18.98,1.26 28.36,1.26 45.15,0 88.59,-9.74 130.32,-29.23 21.98,-14.22 43.98,-28.43 65.98,-42.65 10.57,-9 20.44,-18.73 29.63,-29.03 26.42,20.83 55.8,37.39 88.23,49.6 27.39,6.24 54.76,12.5 82.14,18.77 10.21,0.9 20.32,1.35 30.37,1.35 48.43,0 95.03,-10.45 139.77,-31.36 23.58,-15.23 47.16,-30.49 70.75,-45.73 64.13,-54.51 105.43,-133.3 113.34,-217.17 0.93,-9.88 1.39,-19.78 1.4,-29.66 0,-11.57 -0.61,-23.1 -1.82,-34.56 l 0,0 0,0 c 60.04,-18.87 113.01,-57.23 149.38,-109.15 33.86,-48.37 51.81,-106.24 51.85,-164.76 0.01,-16.57 -1.41,-33.19 -4.31,-49.67 -9.16,-50.99 -30.39,-96.26 -63.74,-135.83 -15.89,-14.47 -31.77,-28.92 -47.66,-43.38 -2.2,-2.01 -4.41,-4.02 -6.61,-6.02 l -12.48,-9.55 c -35.66,-24.8 -74.6,-40.7 -116.84,-47.72 -6.48,-1.07 -13.04,-1.94 -19.68,-2.6 -25.44,1.05 -50.88,2.08 -76.33,3.13 -3.9,0.68 -7.75,1.5 -11.59,2.34 -12.24,-25.03 -27.53,-48.61 -45.73,-70.01 -28.33,-33.04 -61.22,-59.59 -98.66,-79.62 -13.57,-7.27 -27.75,-13.68 -42.52,-19.23 -28.61,-6.55 -57.25,-13.09 -85.86,-19.64 -7.37,-0.65 -14.7,-1.08 -21.99,-1.28 -3.26,-0.09 -6.51,-0.13 -9.76,-0.13"
         inkscape:connector-curvature="0" />
    </clipPath>
    <radialGradient
       inkscape:collect="always"
       xlink:href="#radialGradient21089"
       id="radialGradient24135"
       gradientUnits="userSpaceOnUse"
       gradientTransform="matrix(86.3319,0,0,-86.3319,393.147,213.585)"
       spreadMethod="pad"
       cx="0"
       cy="0"
       fx="0"
       fy="0"
       r="1" />
    <radialGradient
       id="radialGradient21089"
       spreadMethod="pad"
       gradientTransform="matrix(86.3319,0,0,-86.3319,393.147,213.585)"
       gradientUnits="userSpaceOnUse"
       r="1"
       cy="0"
       cx="0"
       fy="0"
       fx="0">
      <stop
         id="stop21091"
         offset="0"
         style="stop-opacity:1;stop-color:#ffffff" />
      <stop
         id="stop21093"
         offset="1"
         style="stop-opacity:1;stop-color:#bce9ec" />
    </radialGradient>
  </defs>
  <sodipodi:namedview
     id="base"
     pagecolor="#ffffff"
     bordercolor="#666666"
     borderopacity="1.0"
     inkscape:pageopacity="0.0"
     inkscape:pageshadow="2"
     inkscape:zoom="0.49497475"
     inkscape:cx="164.95303"
     inkscape:cy="46.722325"
     inkscape:document-units="px"
     inkscape:current-layer="layer1"
     showgrid="false"
     inkscape:window-width="454"
     inkscape:window-height="435"
     inkscape:window-x="1306"
     inkscape:window-y="26"
     inkscape:window-maximized="0" />
  <metadata
     id="metadata10752">
    <rdf:RDF>
      <cc:Work
         rdf:about="">
        <dc:format>image/svg+xml</dc:format>
        <dc:type
           rdf:resource="http://purl.org/dc/dcmitype/StillImage" />
        <dc:title></dc:title>
      </cc:Work>
    </rdf:RDF>
  </metadata>
  <g
     inkscape:label="Layer 1"
     inkscape:groupmode="layer"
     id="layer1"
     transform="translate(0,-802.36218)">
    <g
       id="g21081"
       transform="matrix(0.03085805,0,0,-0.03085805,-86.036622,1020.841)"
       style="opacity:0.26339291">
      <g
         clip-path="url(#clipPath21085)"
         id="g21083">
        <path
           id="path21095"
           style="fill:url(#radialGradient24135);fill-opacity:1;fill-rule:nonzero;stroke:none"
           d="m 4340.72,1553.36 c -50.62,0 -99.34,10.92 -146.12,32.77 -11.39,7.37 -22.77,14.72 -34.15,22.08 -4.81,-2.06 -9.61,-4.12 -14.56,-5.98 -27.37,-6.26 -54.75,-12.52 -82.12,-18.78 -0.52,-0.05 -1.03,-0.09 -1.55,-0.13 -9.69,-0.82 -19.3,-1.22 -28.86,-1.22 -42.21,0 -83.04,7.94 -122.45,23.83 -5.79,2.33 -11.56,4.84 -17.29,7.52 -23.58,15.24 -47.16,30.5 -70.74,45.74 -2.03,1.72 -3.97,3.54 -5.96,5.31 -33.94,-36.35 -74.35,-63.47 -121.37,-81.15 -24.06,-5.51 -48.11,-11.01 -72.17,-16.51 -2.5,-0.58 -5.01,-1.15 -7.52,-1.72 -9.91,-0.88 -19.73,-1.31 -29.48,-1.31 -40.37,0 -79.44,7.48 -117.17,22.46 -6.18,2.45 -12.33,5.1 -18.44,7.96 -22.88,14.79 -45.76,29.59 -68.64,44.37 -9.77,8.31 -18.94,17.26 -27.57,26.66 -9.56,-5.03 -19.51,-9.48 -29.85,-13.36 l -63.94,-14.63 c -7.95,-0.71 -15.85,-1.06 -23.68,-1.06 -17.79,0 -35.27,1.82 -52.42,5.44 -19.19,4.06 -37.97,10.38 -56.36,18.97 -18.37,11.87 -36.72,23.74 -55.08,35.61 -9.07,7.71 -17.56,16.05 -25.41,24.92 -35.35,39.94 -57.79,90.72 -62.83,144.14 -0.72,7.61 -1.05,15.23 -1.04,22.84 0,3.72 0.08,7.43 0.23,11.14 l 0,0 c -8.88,5.73 -17.75,11.47 -26.62,17.21 -55.4,47.08 -91.06,115.13 -97.88,187.55 -0.81,8.62 -1.22,17.26 -1.22,25.88 -0.02,66.18 23.58,131.52 66.63,182.17 31.88,37.19 70.75,64.4 116.62,81.66 23.63,5.4 47.28,10.81 70.93,16.21 8.52,0.76 16.97,1.13 25.37,1.13 14.1,0 28.02,-1.05 41.77,-3.06 2.86,71.71 29.57,141.78 76.3,196.75 36.68,42.79 81.41,74.11 134.15,93.95 27.21,6.22 54.42,12.44 81.61,18.66 16.09,0.46 32.36,0.96 48.64,0.96 25.19,0 50.37,-1.19 74.83,-5.52 39.95,-7.08 79.28,-20.68 116.3,-37.31 44.47,-19.98 81.77,-49.88 110.94,-85.99 34.38,39.99 76.26,69.3 125.64,87.86 25.53,5.84 51.06,11.68 76.59,17.51 9.53,0.84 18.98,1.26 28.36,1.26 45.15,0 88.59,-9.74 130.32,-29.23 21.98,-14.22 43.98,-28.43 65.98,-42.65 10.57,-9 20.44,-18.73 29.63,-29.03 26.42,20.83 55.8,37.39 88.23,49.6 27.39,6.24 54.76,12.5 82.14,18.77 10.21,0.9 20.32,1.35 30.37,1.35 48.43,0 95.03,-10.45 139.77,-31.36 23.58,-15.23 47.16,-30.49 70.75,-45.73 64.13,-54.51 105.43,-133.3 113.34,-217.17 0.93,-9.88 1.39,-19.78 1.4,-29.66 0,-11.57 -0.61,-23.1 -1.82,-34.56 l 0,0 c 60.04,-18.87 113.01,-57.23 149.38,-109.15 33.86,-48.37 51.81,-106.24 51.85,-164.76 0.01,-16.57 -1.41,-33.19 -4.31,-49.67 -9.16,-50.99 -30.39,-96.26 -63.74,-135.83 -15.89,-14.47 -31.77,-28.92 -47.66,-43.38 -2.2,-2.01 -4.41,-4.02 -6.61,-6.02 l -12.48,-9.55 c -35.66,-24.8 -74.6,-40.7 -116.84,-47.72 -6.48,-1.07 -13.04,-1.94 -19.68,-2.6 -25.44,1.05 -50.88,2.08 -76.33,3.13 -3.9,0.68 -7.75,1.5 -11.59,2.34 -12.24,-25.03 -27.53,-48.61 -45.73,-70.01 -28.33,-33.04 -61.22,-59.59 -98.66,-79.62 -13.57,-7.27 -27.75,-13.68 -42.52,-19.23 -28.61,-6.55 -57.25,-13.09 -85.86,-19.64 -7.37,-0.65 -14.7,-1.08 -21.99,-1.28 -3.26,-0.09 -6.51,-0.13 -9.76,-0.13"
           inkscape:connector-curvature="0" />
      </g>
    </g>
    <g
       id="g21027"
       transform="matrix(0.03859804,0,0,-0.03859804,47.619498,1018.0561)"
       style="opacity:0.47767861">
      <g
         clip-path="url(#clipPath21031)"
         id="g21029">
        <path
           id="path21041"
           style="fill:url(#radialGradient24137);fill-opacity:1;fill-rule:nonzero;stroke:none"
           d="m 4321.53,4188.34 c -13.74,0 -27.32,0.85 -40.75,2.56 -16.79,2.14 -33.34,5.61 -49.65,10.42 -6.58,1.94 -13.12,4.09 -19.63,6.47 -9.2,3.36 -18.33,7.15 -27.39,11.38 -2.03,1.32 -4.07,2.63 -6.1,3.95 -4.81,3.11 -9.61,6.21 -14.42,9.32 -9.67,6.25 -19.34,12.5 -29.01,18.75 -4.85,3.13 -9.7,6.27 -14.54,9.4 -0.23,0.15 -0.45,0.29 -0.67,0.44 -13.1,-12.36 -28.13,-22.38 -44.62,-29.02 -5.25,-2.12 -10.65,-3.89 -16.18,-5.29 -9.37,-2.36 -19.13,-3.64 -29.19,-3.66 -0.11,0 -0.22,0 -0.33,0 -4.33,0 -8.64,0.12 -12.92,0.38 -9.34,0.55 -18.54,1.7 -27.52,3.44 -4.68,0.91 -9.29,1.97 -13.84,3.19 -11.01,2.96 -21.62,6.84 -31.66,11.61 -6.4,3.05 -12.57,6.45 -18.48,10.22 -8.64,5.5 -16.7,11.77 -24.06,18.78 -4.89,-3.06 -9.87,-5.99 -14.93,-8.79 -4.95,-2.74 -9.98,-5.35 -15.1,-7.83 -8.84,-4.3 -17.95,-8.22 -27.33,-11.75 -1.72,-0.39 -3.44,-0.78 -5.16,-1.18 -6.18,-1.41 -12.36,-2.82 -18.53,-4.23 -13.55,-3.1 -27.09,-6.19 -40.64,-9.29 -4.92,-1.12 -9.84,-2.25 -14.75,-3.37 -9.85,-0.87 -19.6,-1.3 -29.29,-1.3 -46.62,0 -91.47,10.06 -134.54,30.18 -22.71,14.68 -45.42,29.37 -68.13,44.05 -21.2,18.02 -39.74,38.84 -55.35,61.62 -8.79,-5.57 -17.83,-10.79 -27.06,-15.58 -35.81,-18.56 -74.46,-30.62 -112.03,-31.49 -1.44,-0.03 -2.88,-0.05 -4.32,-0.05 -94.06,0 -176.08,15.74 -250.07,78.62 -66.58,56.59 -109.44,138.38 -117.65,225.44 -0.97,10.36 -1.46,20.74 -1.46,31.1 -0.01,79.55 28.35,158.09 80.08,218.96 52.18,61.39 141.91,117.65 225.44,117.65 15.82,0 31.26,-0.5 46.42,-1.54 l 0,0 c -0.61,8.92 -0.92,17.84 -0.92,26.75 0,92.47 32.88,183.76 93.02,254.52 44.59,51.99 98.93,90.04 163.05,114.16 l 99.16,22.67 c 12.33,1.09 24.55,1.63 36.69,1.63 58.46,0 114.72,-12.62 168.73,-37.85 l 85.43,-55.22 c 26.11,-22.2 49,-47.78 68.35,-75.76 l 76.72,17.54 c 11.08,0.98 22.08,1.47 32.99,1.47 52.59,0 103.17,-11.34 151.75,-34.04 25.61,-16.56 51.22,-33.11 76.84,-49.66 56.58,-48.11 96.81,-113.62 114.49,-185.34 10.74,5.64 21.93,10.66 33.56,15.03 23.94,5.47 47.86,10.95 71.79,16.42 8.93,0.79 17.78,1.18 26.57,1.18 42.34,0 83.06,-9.14 122.16,-27.4 20.62,-13.33 41.23,-26.66 61.86,-39.98 56.05,-47.66 92.16,-116.53 99.07,-189.85 0.82,-8.72 1.23,-17.46 1.23,-26.19 0.01,-66.99 -23.88,-133.13 -67.44,-184.38 -32.29,-37.66 -71.63,-65.21 -118.05,-82.66 -23.93,-5.47 -47.86,-10.94 -71.79,-16.42 -2.14,-0.19 -4.25,-0.22 -6.4,-0.37 -10.31,-53.83 -34.22,-104.91 -70.02,-147.03 -36.32,-42.35 -80.59,-73.35 -132.81,-92.98 -26.92,-6.16 -53.84,-12.32 -80.76,-18.47 -10.05,-0.89 -20.02,-1.33 -29.91,-1.33"
           inkscape:connector-curvature="0" />
      </g>
    </g>
    <g
       id="g21135"
       transform="matrix(0.01273514,0,0,-0.01273514,238.77731,1030.8155)"
       style="opacity:0.79017861">
      <g
         clip-path="url(#clipPath21139)"
         id="g21137">
        <path
           id="path21149"
           style="fill:url(#radialGradient24139);fill-opacity:1;fill-rule:nonzero;stroke:none"
           d="m 2457.64,5685.94 c -99.22,0 -193.21,31.97 -262.05,92.57 -21.16,-15.95 -44.34,-28.91 -69.75,-38.66 -13.93,-3.25 -27.86,-6.51 -41.79,-9.77 -9.93,-2.32 -19.86,-4.64 -29.78,-6.95 -8.9,-0.81 -17.73,-1.21 -26.49,-1.21 -42.21,0 -82.82,9.31 -121.82,27.91 -20.55,13.57 -41.1,27.14 -61.66,40.72 -17.63,15.3 -33.01,32.95 -46.41,52.01 -40.29,-44.9 -88.47,-78.31 -144.74,-99.91 -26.3,-6.16 -52.61,-12.31 -78.92,-18.45 -4.83,-1.12 -9.66,-2.25 -14.5,-3.38 -11.61,-1.04 -23.14,-1.57 -34.57,-1.57 -55.08,0 -108.07,12.14 -158.96,36.41 -26.84,17.72 -53.65,35.43 -80.47,53.15 -48.77,42.33 -85.84,97.27 -107.8,158.13 -40.6,-42.97 -88.6,-75.12 -144.05,-96.42 l -97.485,-22.77 c -12.129,-1.09 -24.157,-1.64 -36.094,-1.64 -57.485,0 -112.781,12.68 -165.875,38.01 l -83.988,55.46 c -76.157,66.08 -125.165,161.6 -134.551,263.27 -1.114,12.1 -1.664,24.22 -1.668,36.32 -0.012,92.91 32.422,184.65 91.578,255.72 43.828,52.22 97.262,90.43 160.305,114.65 18.214,4.26 36.429,8.5 54.656,12.74 l 0,0 c -6.442,17.81 -10.715,36.41 -12.508,55.42 -0.668,7.09 -0.992,14.21 -0.98,21.31 0.074,53.48 19.175,106.26 53.957,147.19 25.839,30.12 57.324,52.17 94.468,66.13 19.153,4.39 38.293,8.76 57.445,13.15 7.14,0.63 14.22,0.94 21.25,0.94 33.87,0 66.46,-7.31 97.77,-21.94 13.05,-8.43 26.1,-16.86 39.16,-25.3 13.41,79.39 47.15,154.89 98.66,216.8 50.45,60.09 111.97,104.08 184.53,131.95 37.4,8.73 74.83,17.48 112.23,26.21 13.95,1.25 27.79,1.88 41.52,1.88 66.17,0 129.82,-14.57 190.96,-43.75 32.22,-21.27 64.46,-42.54 96.68,-63.82 37.25,-32.34 68.8,-70.82 93.66,-113.34 1.84,2.3 3.49,4.74 5.37,7 48.55,57.82 107.73,100.14 177.55,126.96 35.99,8.4 71.99,16.81 107.98,25.21 13.43,1.21 26.76,1.81 39.98,1.81 63.66,0 124.9,-14.03 183.7,-42.09 l 93.03,-61.41 c 76.42,-66.34 128.07,-159.49 144.82,-260.17 171.63,-4.7 323.94,-110.37 341.27,-298.05 0.81,-8.85 1.22,-17.77 1.22,-26.74 0.03,-56.62 -15.78,-114.98 -43.59,-166.78 l 0,0 c 62.42,-48.7 105.61,-120.89 114.21,-214.07 0.79,-8.62 1.18,-17.32 1.18,-26.05 -0.01,-41.79 -8.95,-84.56 -25.2,-124.71 -43.62,-107.77 -139.87,-196.61 -257.24,-196.61 -63.89,0 -125.39,14.46 -178.21,42.34 -55.66,-79.19 -140.08,-135.81 -237.99,-135.81"
           inkscape:connector-curvature="0" />
      </g>
    </g>
    <g
       id="g19398"
       transform="matrix(-0.9994362,0.03357498,-0.03357498,-0.9994362,365.95917,947.88811)">
      <path
         inkscape:connector-curvature="0"
         d="m 208.23994,40.650573 c -0.35028,0.675741 -8.59789,12.327177 -10.99933,19.208815 -2.40128,6.881064 -2.25425,13.05143 -2.25425,13.05143 0,0 -7.22153,0.991561 -8.71229,0.313043 0,0 -0.0335,-12.03364 9.62259,-23.430009 9.65556,-11.396502 15.44509,-16.167957 15.99951,-18.269186 0.55419,-2.101291 -0.4845,3.008812 -3.65623,9.125907"
         style="fill:#2c612b;fill-opacity:1;fill-rule:nonzero;stroke:none"
         id="path11735-3" />
      <path
         inkscape:connector-curvature="0"
         d="m 216.98456,29.337616 c 0,0 -5.37791,9.149577 -7.14776,17.31489 -1.76969,8.164739 -3.75601,23.378542 -3.75601,23.378542 0,0 -7.37159,1.508267 -8.12615,1.72469 -0.75464,0.215788 3.79782,-21.974439 6.466,-27.251553 2.66812,-5.277126 9.78255,-16.747821 9.78255,-16.747821 l 2.78137,1.581252"
         style="fill:#408f36;fill-opacity:1;fill-rule:nonzero;stroke:none"
         id="path11737-0" />
      <path
         inkscape:connector-curvature="0"
         d="m 210.71304,33.483864 c 0,0 -8.59761,10.263106 -16.23195,17.69302 -7.63433,7.429915 -14.37349,23.739253 -14.02544,30.242555 0,0 -8.62776,0.474587 -9.56307,-0.194022 0,0 1.44067,-15.777996 6.46744,-21.537568 5.02733,-5.759424 17.6952,-15.576723 25.52411,-20.890354 7.82914,-5.31357 10.66915,-11.215275 10.66915,-11.215275 l 0.61799,1.789001 c 0,0 -1.91521,2.535096 -3.45823,4.112643"
         style="fill:#387d33;fill-opacity:1;fill-rule:nonzero;stroke:none"
         id="path11739-2" />
      <path
         inkscape:connector-curvature="0"
         d="m 177.60662,52.229439 c 0,0 -4.7467,-6.427937 -4.19913,-7.953189 0,0 7.67849,-4.213062 17.42734,-7.313843 9.74885,-3.10078 15.07772,-7.386505 19.23605,-11.985262 4.15856,-4.598695 2.26795,2.97673 -0.683,5.669503 -2.95105,2.692748 -22.71492,12.949439 -31.78126,21.582791"
         style="fill:#2c612b;fill-opacity:1;fill-rule:nonzero;stroke:none"
         id="path11741-7" />
      <path
         inkscape:connector-curvature="0"
         d="m 216.00898,26.986245 c 0,0 -1.51945,2.066399 -3.58626,4.525836 -2.06657,2.4595 -4.68093,5.312538 -6.8705,6.885269 -4.3795,3.146595 -22.85659,18.539628 -28.02519,26.909306 0,0 -8.43238,-3.374508 -9.99924,-5.326781 0,0 13.30894,-14.827409 25.32057,-20.527516 10.47058,-4.968465 15.88011,-8.424869 19.24233,-14.212465 3.36222,-5.787597 5.7238,0.976159 3.91829,1.746351"
         style="fill:#408f36;fill-opacity:1;fill-rule:nonzero;stroke:none"
         id="path11743-0" />
      <path
         id="path11747-6"
         d="m 218.59375,0.375 c -1.23891,5.0150441 -2.60229,10.531242 -3.375,13.21875 -1.53469,5.336797 -4.91636,9.766852 -7.3125,12.46875 -2.3962,2.702497 3.0625,-0.125 3.0625,-0.125 -1.70163,3.620093 1.75,2.625 1.75,2.625 -1.63697,4.159296 2.71875,1.40625 2.71875,1.40625 -0.66538,1.70268 0.48564,2.846917 1.75,0.46875 1.26443,-2.378766 5.70274,-7.265603 9.78125,-13.90625 2.75753,-4.489871 5.11846,-11.1321911 6.625,-16.15625 l -15,0 z"
         style="fill:#eff3dc;fill-opacity:1;fill-rule:nonzero;stroke:none"
         inkscape:connector-curvature="0" />
      <path
         inkscape:connector-curvature="0"
         d="m 219.62028,13.907488 c 0.14983,-0.55918 0.60231,-0.923547 1.01093,-0.814058 0.40862,0.10949 0.61839,0.651307 0.46856,1.210488 -0.14983,0.55918 -0.60241,0.923522 -1.01103,0.814033 -0.40862,-0.10949 -0.61829,-0.651282 -0.46846,-1.210463"
         style="fill:#171717;fill-opacity:1;fill-rule:nonzero;stroke:none"
         id="path11749-4" />
      <path
         inkscape:connector-curvature="0"
         d="m 223.01927,14.818245 c 0.14983,-0.55918 0.60231,-0.923547 1.01098,-0.814045 0.40839,0.109428 0.6183,0.651282 0.46847,1.210462 -0.14983,0.559181 -0.60255,0.923486 -1.01094,0.814058 -0.40866,-0.109502 -0.61834,-0.651294 -0.46851,-1.210475"
         style="fill:#171717;fill-opacity:1;fill-rule:nonzero;stroke:none"
         id="path11751-2" />
      <path
         inkscape:connector-curvature="0"
         d="m 225.25095,12.407289 c 0,0 -3.87185,-0.91575 -4.67211,-1.251888 0,0 0.96111,-2.8190226 3.10756,-2.253717 1.97512,0.5199876 1.56455,3.505605 1.56455,3.505605"
         style="fill:#171717;fill-opacity:1;fill-rule:nonzero;stroke:none"
         id="path11753-1" />
    </g>
    <g
       id="g18184"
       transform="translate(-246.24717,1058.0408)"
       style="fill:#275b71;fill-opacity:1">
      <path
         inkscape:connector-curvature="0"
         d="m 316.78429,-85.459985 c 0,2.10966 -1.7142,3.82566 -3.8274,3.82566 -2.1097,0 -3.8257,-1.716 -3.8257,-3.82566 0,-2.11145 1.716,-3.82566 3.8257,-3.82566 2.1132,0 3.8274,1.71421 3.8274,3.82566 z m 181.0746,0 c 0,2.10966 -1.7124,3.82566 -3.8239,3.82566 -2.1132,0 -3.8256,-1.716 -3.8256,-3.82566 0,-2.11145 1.7124,-3.82566 3.8256,-3.82566 2.1115,0 3.8239,1.71421 3.8239,3.82566 z m -32.128,32.12084 c -16.7968,16.78959 -39.1244,26.0406 -62.8711,26.0406 -23.7484,0 -46.0725,-9.25101 -62.871,-26.0406 -3.8346,-3.8346 -7.2541,-7.9734 -10.2835,-12.33586 l 146.3162,0 c -3.0365,4.36246 -6.456,8.50126 -10.2906,12.33586 z m -151.7827,-62.871045 c 0,-23.75199 9.2456,-46.07608 26.0406,-62.87641 16.7985,-16.78958 39.1226,-26.0388 62.871,-26.0388 23.7467,0 46.0743,9.24922 62.8711,26.0388 16.7914,16.80033 26.0406,39.12442 26.0406,62.87641 0,4.08512 -0.2989,8.1255 -0.8375,12.11041 l -176.1502,0 c -0.5404,-3.98491 -0.8356,-8.02529 -0.8356,-12.11041 z m 186.473,12.11041 -3.3622,0 c 0.5136,-3.96881 0.7999,-8.00561 0.7999,-12.11041 0,-52.38179 -42.6173,-94.99904 -94.9991,-94.99904 -52.38,0 -95.0008,42.61725 -95.0008,94.99904 0,4.1048 0.2917,8.1416 0.7981,12.11041 l -3.3462,0 c -5.9639,0 -10.8435,5.579235 -10.8435,12.403865 l 0,13.61168 c 0,6.82105 4.8796,12.40923 10.8435,12.40923 l 17.1654,0 c 16.8361,26.68655 46.5646,44.46566 80.3835,44.46566 33.8172,0 63.5492,-17.77911 80.3871,-44.46566 l 17.1743,0 c 5.9515,0 10.8257,-5.58818 10.8257,-12.40923 l 0,-13.61168 c 0,-6.82463 -4.8742,-12.403865 -10.8257,-12.403865"
         style="fill:#275b71;fill-opacity:1;fill-rule:nonzero;stroke:none"
         id="path112288-1" />
    </g>
    <text
       xml:space="preserve"
       style="font-size:9.49809742px;font-style:normal;font-weight:normal;line-height:125%;letter-spacing:0px;word-spacing:0px;fill:#ffffff;fill-opacity:1;stroke:none;font-family:Sans"
       x="158.07202"
       y="978.2312"
       id="text3097-7-9-5-1-2-5-8-2-77"
       sodipodi:linespacing="125%"><tspan
         sodipodi:role="line"
         x="158.07202"
         y="978.2312"
         id="tspan3143-7-3-1-6-2-6-1"
         style="font-size:19.98812866px;font-style:italic;font-weight:bold;text-align:center;text-anchor:middle;fill:#ffffff;fill-opacity:1;stroke:none;font-family:PT Serif;-inkscape-font-specification:PT Serif Bold Italic">Mon perm-tager</tspan></text>
  </g>
</svg>
