<?xml version="1.0" encoding="UTF-8" standalone="no"?>
<!-- Created with Inkscape (http://www.inkscape.org/) -->

<svg
   xmlns:dc="http://purl.org/dc/elements/1.1/"
   xmlns:cc="http://creativecommons.org/ns#"
   xmlns:rdf="http://www.w3.org/1999/02/22-rdf-syntax-ns#"
   xmlns:svg="http://www.w3.org/2000/svg"
   xmlns="http://www.w3.org/2000/svg"
   xmlns:sodipodi="http://sodipodi.sourceforge.net/DTD/sodipodi-0.dtd"
   xmlns:inkscape="http://www.inkscape.org/namespaces/inkscape"
   width="150"
   height="150"
   id="svg7496"
   version="1.1"
   inkscape:version="0.48.4 r9939"
   sodipodi:docname="mais.svg">
  <defs
     id="defs7498">
    <clipPath
       id="clipPath11459"
       clipPathUnits="userSpaceOnUse">
      <path
         id="path11461"
         d="m 850.859,6831.69 c 0,0 -187.066,-1.97 -265.832,-137.84 -78.761,-135.87 -106.332,-393.82 92.551,-484.4 198.883,-90.58 226.449,-66.96 226.449,-66.96 0,0 -21.66,-49.22 0,-86.64 21.661,-37.41 47.258,-179.19 112.243,-200.85 64.98,-21.66 82.7,19.69 84.67,31.51 1.97,11.81 -33.47,-5.91 -49.23,-1.97 -15.75,3.94 -25.6,43.32 -37.41,68.92 -11.82,25.6 -21.663,47.26 -13.79,70.89 7.88,23.63 49.23,84.67 45.29,102.39 0,0 269.78,66.95 326.88,194.95 57.1,127.99 66.95,295.36 -27.57,391.85 -94.52,96.49 -218.57,137.84 -277.64,135.87 0,0 15.75,39.38 27.56,53.17 0,0 -76.79,-23.63 -102.393,-49.23 0,0 -5.907,39.38 -1.969,61.04 0,0 -68.918,-39.38 -68.918,-74.82 0,0 -63.012,78.76 -131.934,53.16 0,0 51.2,-33.47 61.043,-61.04 z"
         inkscape:connector-curvature="0" />
    </clipPath>
    <clipPath
       id="clipPath11797"
       clipPathUnits="userSpaceOnUse">
      <path
         id="path11799"
         d="m 2281.39,7271.13 c 0,0 29.48,32.66 57.68,43.52 28.2,10.87 17.33,55.36 97.76,52.68 80.42,-2.69 48.04,-78.76 48.04,-78.76 0,0 44.96,18.84 99.53,5.07 54.57,-13.76 65.44,-64.46 43.7,-116.27 -21.74,-51.82 -71.21,-140.02 -160.59,-127.44 -89.37,12.59 -206.79,158.11 -186.12,221.2 z"
         inkscape:connector-curvature="0" />
    </clipPath>
    <clipPath
       id="clipPath11811"
       clipPathUnits="userSpaceOnUse">
      <path
         id="path11813"
         d="m 2467.51,7049.93 c 0,0 19.31,95.19 73.65,101.71 54.34,6.52 89.11,32.6 86.94,69.55 -2.17,36.95 2.46,67.38 -53.11,73.9 0,0 -9.92,8.7 20.51,21.74 30.43,13.04 71.38,22 94.34,-3.41 22.95,-25.41 62.15,-67.81 49.11,-114.8 -13.04,-46.98 -119.33,-119.69 -163.96,-148.69 -44.63,-28.99 -78.75,-99.24 -107.48,0 z"
         inkscape:connector-curvature="0" />
    </clipPath>
    <clipPath
       id="clipPath11825"
       clipPathUnits="userSpaceOnUse">
      <path
         id="path11827"
         d="m 2467.51,6783.07 c 0,0 67.13,155.56 45.39,246.85 -21.73,91.29 -65.21,119.54 -158.67,171.71 -93.46,52.16 -150.46,126.07 -257.81,0 -107.35,-126.07 -20.41,-219.53 38.28,-278.22 58.69,-58.69 220.05,-152.45 332.81,-140.34 z"
         inkscape:connector-curvature="0" />
    </clipPath>
    <clipPath
       id="clipPath11843"
       clipPathUnits="userSpaceOnUse">
      <path
         id="path11845"
         d="m 2793.29,7198.62 c 0,0 23.91,-131.75 63.04,-188.26 39.12,-56.52 139.1,-343.43 0,-462.98 -139.11,-119.54 -354.74,-160.75 -433.19,-143.45 -78.45,17.3 -26.52,365.23 13.15,473.87 39.66,108.64 217.89,296.08 357,320.82 z"
         inkscape:connector-curvature="0" />
    </clipPath>
    <clipPath
       id="clipPath11859"
       clipPathUnits="userSpaceOnUse">
      <path
         id="path11861"
         d="m 2384.66,6393.06 c 0,0 65.21,-21.74 128.24,32.6 63.03,54.34 93.46,123.9 93.46,178.24 0,54.34 -32.6,215.18 -110.85,267.35 -78.25,52.16 -443.41,239.09 -473.84,289.08 -30.43,49.99 -45.64,-21.74 -56.51,-65.2 -10.87,-43.48 -37.59,-164.69 -67.7,-218.2 -30.11,-53.5 -85.09,-129.58 0,-251.3 85.09,-121.72 263.32,-234.74 487.2,-232.57 z"
         inkscape:connector-curvature="0" />
    </clipPath>
    <clipPath
       id="clipPath11493"
       clipPathUnits="userSpaceOnUse">
      <path
         id="path11495"
         d="m 4003.03,7499.29 c -169.8,4.36 -332.79,-105.57 -362.63,-190.49 -29.84,-84.92 -94.1,-330.5 -117.05,-381 -22.95,-50.49 -169.84,-234.1 -183.61,-348.86 -13.77,-114.75 34.42,-410.82 403.94,-456.73 369.52,-45.9 599.03,71.15 647.23,289.19 48.2,218.04 -89.51,507.22 -100.99,562.31 -11.47,55.08 71.15,516.4 -286.89,525.58 z"
         inkscape:connector-curvature="0" />
    </clipPath>
    <clipPath
       id="clipPath11565"
       clipPathUnits="userSpaceOnUse">
      <path
         id="path11567"
         d="m 5470.49,6976.77 c -107.65,26.44 -398.48,47.21 -500.46,-234.18 -101.98,-281.39 136.59,-508.95 258.73,-559.01 153.6,-62.95 394.7,-98.2 638.32,37.77 243.62,135.98 288.95,460.81 166.19,602.45 -122.75,141.64 -251.17,228.51 -562.78,152.97 z"
         inkscape:connector-curvature="0" />
    </clipPath>
    <clipPath
       id="clipPath11889"
       clipPathUnits="userSpaceOnUse">
      <path
         id="path11891"
         d="m 7358.51,6565.15 c -1.91,-11.65 -4.42,-23.57 -7.91,-35.55 -22.63,-77.81 -64.54,-5.94 -109.7,-23.7 -45.16,-17.76 -18.64,-74.88 -95.02,-100.19 -76.37,-25.32 -106.85,88.06 -189.34,55.24 -73.74,-29.34 -74.39,34.08 -120.61,32.38 -46.21,-1.69 -56.22,-28.94 -84.26,-61.72 -28.04,-32.78 -92.32,5.1 -134.92,38.19 -27.53,21.38 -32.3,63.5 -32.25,90.71 -15.21,-99.32 25.77,-275.33 160.49,-347.35 153.45,-82.04 190.11,-73.56 190.11,-73.56 0,0 57.04,-88.35 43.61,-118.08 -13.44,-29.74 -65.56,-138.33 -13.81,-192.28 51.75,-53.95 96.66,-14.93 96.66,-14.93 0,0 -69.06,-12.31 -74.86,41.61 -5.81,53.92 14.24,57.89 14.24,57.89 0,0 53.5,-31.24 73.96,-13.2 0,0 -48.46,18.09 -53.35,43.59 -4.9,25.5 -0.1,56.57 6.68,66.13 6.78,9.56 62.05,46.97 41.39,142.06 0,0 176.48,39.37 250.01,131.03 55.11,68.71 62.13,190.21 38.88,281.73 z"
         inkscape:connector-curvature="0" />
    </clipPath>
    <clipPath
       id="clipPath11763"
       clipPathUnits="userSpaceOnUse">
      <path
         id="path11765"
         d="m 925.598,5230.68 c -82.36,-2.22 -420.496,-128.97 -420.684,-442.94 -0.168,-281.56 200.324,-469.65 471.875,-489.68 271.551,-20.03 581.621,194.31 583.171,505.26 1.69,340.56 -378.39,420.69 -438.49,427.36 0,0 28.93,75.68 82.35,117.97 0,0 -55.64,6.68 -93.48,-11.13 0,0 -2.23,55.65 -24.48,120.2 0,0 -91.262,-62.33 -106.844,-84.58 0,0 -51.196,35.61 -84.582,51.19 0,0 42.293,-155.81 31.164,-193.65 z"
         inkscape:connector-curvature="0" />
    </clipPath>
    <clipPath
       id="clipPath11597"
       clipPathUnits="userSpaceOnUse">
      <path
         id="path11599"
         d="m 4172.82,5122.8 c -27.71,-1.85 -61.7,30.85 -64.07,47.46 -2.37,16.61 21.36,80.68 47.46,111.53 26.1,30.85 116.28,90.18 116.28,102.04 0,11.87 -40.34,42.71 -59.33,36.78 -18.98,-5.93 -54.58,-36.78 -54.58,-36.78 0,0 35.6,66.44 47.46,78.31 11.87,11.86 -64.4,49.83 -97.45,47.46 0,0 -113.74,-106.79 -137.47,-168.48 -23.73,-61.7 -23.73,-144.16 -40.35,-156.33 -16.61,-12.16 -73.56,-50.13 -116.27,-61.99 -42.72,-11.87 -154.25,-27.29 -237.3,-77.72 -83.06,-50.42 -161.37,-131.52 -170.86,-200.13 -9.49,-68.61 23.73,-213.36 121.02,-296.42 97.3,-83.06 277.64,-147.13 353.58,-144.75 75.94,2.37 123.4,37.96 123.4,37.96 0,0 80.68,-35.59 144.75,-4.74 0,0 59.33,-23.73 140.01,14.24 80.68,37.96 287.13,189.84 246.79,439 -40.34,249.17 -161.36,261.41 -187.47,263.6 -26.1,2.18 -140,-28.67 -175.6,-31.04 z"
         inkscape:connector-curvature="0" />
    </clipPath>
    <clipPath
       id="clipPath12061"
       clipPathUnits="userSpaceOnUse">
      <path
         id="path12063"
         d="m 5357,5573.74 c 0,0 -47.6,9.52 -55.21,-28.55 0,0 -38.08,-7.62 -30.46,-55.21 0,0 -11.54,-95.19 -1.01,-159.92 10.53,-64.73 52.41,-220.83 54.31,-258.91 0,0 -9.52,-34.27 1.91,-45.69 0,0 7.61,-108.52 -1.91,-190.38 -9.52,-81.86 -1.9,-197.99 5.71,-218.93 0,0 3.81,-43.79 26.66,-53.31 0,0 -26.66,-51.4 19.03,-60.92 0,0 38.08,-47.59 60.92,-53.3 22.85,-5.71 53.31,-36.17 66.64,-34.27 13.32,1.9 89.47,-11.42 127.55,36.17 38.07,47.6 62.82,62.83 60.92,83.77 -1.9,20.94 0,36.17 9.52,45.69 9.52,9.52 13.32,39.98 0,62.82 0,0 26.65,9.52 26.65,60.92 0,51.4 22.93,98.71 23.52,156.11 0.74,72.34 -16.39,138.37 -25.42,197.99 -13,85.72 -116.13,352.2 -194.19,441.68 -78.05,89.47 -114.22,62.82 -114.22,62.82 0,0 -32.37,36.17 -60.92,11.42 z"
         inkscape:connector-curvature="0" />
    </clipPath>
    <clipPath
       id="clipPath11933"
       clipPathUnits="userSpaceOnUse">
      <path
         id="path11935"
         d="m 6632.27,4588.65 c 0,0 -25.37,72.71 20.29,93 0,0 -20.29,43.97 16.91,67.64 0,0 -16.91,50.73 13.53,59.19 0,0 -23.68,32.13 8.45,52.42 0,0 -15.22,45.66 18.6,64.26 0,0 -18.6,52.42 18.6,64.26 0,0 -20.29,39.94 13.53,57.17 0,0 -16.91,42.6 15.22,57.81 0,0 -21.98,37.21 25.37,59.19 0,0 -11.84,33.82 21.98,50.73 0,0 -11.84,42.28 30.44,55.8 0,0 1.69,30.44 28.74,35.52 0,0 -10.14,55.8 45.66,69.33 0,0 -13.53,28.74 49.04,42.27 0,0 -27.05,32.13 -27.05,57.5 l 52.42,-43.97 c 0,0 6.76,23.67 13.53,43.97 0,0 13.52,-45.66 18.6,-49.04 5.07,-3.38 18.6,16.91 32.13,-1.69 0,0 32.12,40.58 42.27,50.73 0,0 -1.69,-45.66 -20.29,-62.57 0,0 38.89,-3.38 50.73,1.69 0,0 -21.98,-20.29 -32.13,-25.36 0,0 33.82,-8.46 11.84,-38.9 0,0 40.58,-25.36 11.83,-59.18 0,0 47.65,-38.9 10.3,-67.64 0,0 21.83,-38.9 -8.61,-64.26 0,0 28.75,-35.51 -1.69,-69.33 0,0 33.82,-30.44 0,-57.5 0,0 35.51,-45.66 -13.52,-84.55 0,0 27.05,-42.27 -13.53,-71.02 0,0 33.82,-32.13 -6.77,-60.88 0,0 23.68,-42.27 -15.22,-65.95 0,0 27.06,-50.73 -28.74,-67.64 0,0 49.04,-81.17 -13.53,-93 0,0 -20.29,-74.41 -79.48,-65.95 0,0 -19.64,-71.03 -60.55,-54.12 0,0 -56.13,-65.95 -95.02,-18.6 0,0 -86.24,-18.6 -101.46,50.73 0,0 -84.55,27.06 -52.42,87.94 z"
         inkscape:connector-curvature="0" />
    </clipPath>
    <clipPath
       id="clipPath11627"
       clipPathUnits="userSpaceOnUse">
      <path
         id="path11629"
         d="m 2223.84,3484.33 c 0,0 246.71,55.6 288.41,90.35 42.03,35.02 121.28,171.52 93.81,274.5 0,0 180.69,34.75 205.01,0 0,0 -79.92,-170.26 -132.04,-218.91 -52.12,-48.64 0,-90.74 48.65,-95.75 48.65,-5.01 114.67,-50.19 114.67,-50.19 0,0 -441.29,-215.43 -618.51,0 z"
         inkscape:connector-curvature="0" />
    </clipPath>
    <clipPath
       id="clipPath11639"
       clipPathUnits="userSpaceOnUse">
      <path
         id="path11641"
         d="m 2314.19,3484.33 c 0,0 -166.79,145.94 -406.55,-86.86 -239.75,-232.81 -236.28,-451.72 -208.48,-521.21 27.8,-69.5 180.69,-271.03 271.03,-208.49 0,0 277.98,-211.95 531.63,0 0,0 135.52,-113.5 333.58,37.07 0,0 170.26,-44.02 298.82,199.22 128.57,243.23 -52.12,531.63 -128.56,590.7 -76.45,59.07 -191.11,0 -205.01,-31.27 0,0 -104.24,138.98 -211.96,-17.38 0,0 -79.92,170.26 -274.5,38.22 z"
         inkscape:connector-curvature="0" />
    </clipPath>
  </defs>
  <sodipodi:namedview
     id="base"
     pagecolor="#ffffff"
     bordercolor="#666666"
     borderopacity="1.0"
     inkscape:pageopacity="0.0"
     inkscape:pageshadow="2"
     inkscape:zoom="1.9445436"
     inkscape:cx="27.293245"
     inkscape:cy="123.12197"
     inkscape:current-layer="layer1"
     showgrid="true"
     inkscape:document-units="px"
     inkscape:grid-bbox="true"
     inkscape:window-width="1280"
     inkscape:window-height="748"
     inkscape:window-x="0"
     inkscape:window-y="0"
     inkscape:window-maximized="1" />
  <metadata
     id="metadata7501">
    <rdf:RDF>
      <cc:Work
         rdf:about="">
        <dc:format>image/svg+xml</dc:format>
        <dc:type
           rdf:resource="http://purl.org/dc/dcmitype/StillImage" />
        <dc:title></dc:title>
      </cc:Work>
    </rdf:RDF>
  </metadata>
  <g
     id="layer1"
     inkscape:label="Layer 1"
     inkscape:groupmode="layer"
     transform="translate(0,86)">
    <g
       transform="matrix(0.71890603,0,0,0.71890603,814.5549,149.80196)"
       id="g8955">
      <path
         inkscape:connector-curvature="0"
         d="m -1054.7149,-258.17248 c 0,0 30.8387,-6.95 36.0512,-11.2938 5.2538,-4.3775 15.16,-21.44 11.7263,-34.3125 0,0 22.58617,-4.3437 25.62617,0 0,0 -9.99,21.2825 -16.505,27.3638 -6.51497,6.08 0,11.3425 6.0813,11.9687 6.0812,0.6263 14.3337,6.2738 14.3337,6.2738 0,0 -55.16117,26.9287 -77.31367,0"
         style="fill:#52be36;fill-opacity:1;fill-rule:nonzero;stroke:none"
         id="path11621" />
      <g
         transform="matrix(0.125,0,0,-0.125,-1332.6949,177.36876)"
         id="g11623">
        <g
           id="g11625"
           clip-path="url(#clipPath11627)">
          <path
             inkscape:connector-curvature="0"
             d="m 2666.67,3470.97 c 0,0 -81.3,48.07 -75.65,93.55 5.65,45.48 110.86,183.36 120.65,240.5 0,0 -5,-50.89 -27.5,-95.94 0,0 47.5,74.79 60,115.17 12.5,40.37 70.38,-21.16 70.38,-21.16 l 74.88,-322.25 c 0,0 -117.76,-113.89 -222.76,-9.87"
             style="fill:#49a638;fill-opacity:1;fill-rule:nonzero;stroke:none"
             id="path11631" />
        </g>
      </g>
      <path
         inkscape:connector-curvature="0"
         d="m -1043.4212,-258.17248 c 0,0 -20.8487,-18.2425 -50.8187,10.8575 -29.9688,29.1012 -29.535,56.465 -26.06,65.1512 3.475,8.6875 22.5862,33.8788 33.8787,26.0613 0,0 34.7476,26.4937 66.4538,0 0,0 16.94,14.1875 41.69747,-4.6338 0,0 21.2825,5.5025 37.3525,-24.9025 16.0713,-30.4037 -6.515,-66.4537 -16.07,-73.8375 -9.5563,-7.3837 -23.8888,0 -25.6262,3.9088 0,0 -13.0301,-17.3725 -26.49507,2.1725 0,0 -9.99,-21.2825 -34.3125,-4.7775"
         style="fill:#f9aa1e;fill-opacity:1;fill-rule:nonzero;stroke:none"
         id="path11633" />
      <g
         transform="matrix(0.125,0,0,-0.125,-1332.6949,177.36876)"
         id="g11635">
        <g
           id="g11637"
           clip-path="url(#clipPath11639)">
          <path
             inkscape:connector-curvature="0"
             d="m 1700.33,3065.02 c 0,0 -1.16,-142.92 91.34,-228.97 92.5,-86.05 173.91,114.48 173.91,114.48 0,0 25.44,-196.66 258.26,-224.84 232.83,-28.19 323.47,200.74 323.47,200.74 0,0 6.86,-178.99 151.86,-172.71 145,6.28 257.53,239.74 257.53,239.74 0,0 -47.99,-173.86 34.74,-157.41 82.73,16.45 167.63,174.54 187.68,218 20.05,43.45 12.55,-208.78 -109.95,-313.92 -122.5,-105.13 -147.5,-112.34 -157.5,-114.99 -10,-2.64 -595,-172.64 -737.5,-122.64 -142.5,50 -392.5,91.37 -450,223.19 -57.5,131.81 -105.19,216.84 -23.84,339.33"
             style="fill:#de8a18;fill-opacity:1;fill-rule:nonzero;stroke:none"
             id="path11643" />
        </g>
      </g>
      <path
         inkscape:connector-curvature="0"
         d="m -1046.0274,-256.00128 c 0,0 -55.5963,26.9288 -42.1312,90.7775 0,0 -7.3838,-57.3337 42.1312,-90.7775"
         style="fill:#b5731a;fill-opacity:1;fill-rule:nonzero;stroke:none"
         id="path11645" />
      <path
         inkscape:connector-curvature="0"
         d="m -1010.3799,-247.57878 c 0,0 0.8375,52.675 -9.5875,84.2363 0,0 16.1337,-26.7325 9.5875,-84.2363"
         style="fill:#b5731a;fill-opacity:1;fill-rule:nonzero;stroke:none"
         id="path11647" />
      <path
         inkscape:connector-curvature="0"
         d="m -980.87623,-250.35498 c 0,0 29.5351,35.1812 6.08,82.9587 0,0 32.1413,-45.1712 -6.08,-82.9587"
         style="fill:#b5731a;fill-opacity:1;fill-rule:nonzero;stroke:none"
         id="path11649" />
      <path
         inkscape:connector-curvature="0"
         d="m -1024.3312,-217.89128 c 0,1.5975 -0.9462,2.8925 -2.1137,2.8925 -1.1675,0 -2.1138,-1.295 -2.1138,-2.8925 0,-1.5975 0.9463,-2.8912 2.1138,-2.8912 1.1675,0 2.1137,1.2937 2.1137,2.8912"
         style="fill:#171717;fill-opacity:1;fill-rule:nonzero;stroke:none"
         id="path11651" />
      <path
         inkscape:connector-curvature="0"
         d="m -1048.6786,-217.89128 c 0,1.5975 -0.9463,2.8925 -2.1138,2.8925 -1.1675,0 -2.1137,-1.295 -2.1137,-2.8925 0,-1.5975 0.9462,-2.8912 2.1137,-2.8912 1.1675,0 2.1138,1.2937 2.1138,2.8912"
         style="fill:#171717;fill-opacity:1;fill-rule:nonzero;stroke:none"
         id="path11653" />
      <path
         inkscape:connector-curvature="0"
         d="m -1040.0599,-199.45998 c -10.4962,0 -12.2925,-6.635 -12.365,-6.9175 -0.084,-0.335 0.1188,-0.6738 0.4538,-0.7588 0.3337,-0.086 0.6725,0.1188 0.7587,0.45 l 0,0 c 0.062,0.2438 1.675,5.9763 11.1525,5.9763 11.3225,0 13.3413,-5.95 13.3613,-6.01 0.1037,-0.3275 0.4537,-0.5088 0.7837,-0.4063 0.33,0.105 0.5112,0.4563 0.4075,0.785 -0.09,0.2813 -2.325,6.8813 -14.5525,6.8813"
         style="fill:#171717;fill-opacity:1;fill-rule:nonzero;stroke:none"
         id="path11655" />
      <path
         inkscape:connector-curvature="0"
         d="m -1024.5049,-205.69628 c -0.9,0 -1.635,-0.2525 -2.195,-0.7562 -1.3575,-1.2188 -1.055,-3.4125 -1.0412,-3.505 0.05,-0.3425 0.3687,-0.5825 0.7062,-0.5275 0.3412,0.049 0.5787,0.365 0.5312,0.7062 0,0.016 -0.2187,1.6313 0.6413,2.4 0.5388,0.4788 1.4375,0.5613 2.6775,0.2425 0.3325,-0.084 0.675,0.115 0.7613,0.45 0.086,0.3338 -0.1151,0.675 -0.4501,0.7613 -0.5924,0.1525 -1.1374,0.2287 -1.6312,0.2287"
         style="fill:#171717;fill-opacity:1;fill-rule:nonzero;stroke:none"
         id="path11657" />
      <path
         inkscape:connector-curvature="0"
         d="m -1054.7062,-205.13378 c -0.034,0 -0.055,0 -0.064,0 -0.3438,-0.01 -0.6137,-0.2962 -0.605,-0.6412 0.01,-0.3438 0.2937,-0.6375 0.64,-0.6088 0.023,0 1.8387,0.031 2.6487,-1.04 0.48,-0.6362 0.5288,-1.5862 0.145,-2.8212 -0.1025,-0.3288 0.083,-0.68 0.4113,-0.7825 0.3325,-0.1038 0.6812,0.084 0.7825,0.4112 0.5112,1.6475 0.395,2.9763 -0.3462,3.9513 -1.1075,1.46 -3.2113,1.5312 -3.6126,1.5312"
         style="fill:#171717;fill-opacity:1;fill-rule:nonzero;stroke:none"
         id="path11659" />
      <path
         inkscape:connector-curvature="0"
         d="m -1010.8424,-344.97498 c 0.02,0.013 0.05,0.029 0.05,0.029 0,0 -0.018,-0.013 -0.05,-0.029"
         style="fill:#fabec7;fill-opacity:1;fill-rule:nonzero;stroke:none"
         id="path12307" />
    </g>
  </g>
</svg>
