<!--Created with Inkscape (http://www.inkscape.org/)--><svg xmlns="http://www.w3.org/2000/svg" width="150" height="150"><defs><clipPath id="a"><path d="M4172.82 5122.8c-27.71-1.85-61.7 30.85-64.07 47.46-2.37 16.61 21.36 80.68 47.46 111.53 26.1 30.85 116.28 90.18 116.28 102.04 0 11.87-40.34 42.71-59.33 36.78-18.98-5.93-54.58-36.78-54.58-36.78s35.6 66.44 47.46 78.31c11.87 11.86-64.4 49.83-97.45 47.46 0 0-113.74-106.79-137.47-168.48-23.73-61.7-23.73-144.16-40.35-156.33-16.61-12.16-73.56-50.13-116.27-61.99-42.72-11.87-154.25-27.29-237.3-77.72-83.06-50.42-161.37-131.52-170.86-200.13-9.49-68.61 23.73-213.36 121.02-296.42 97.3-83.06 277.64-147.13 353.58-144.75 75.94 2.37 123.4 37.96 123.4 37.96s80.68-35.59 144.75-4.74c0 0 59.33-23.73 140.01 14.24 80.68 37.96 287.13 189.84 246.79 439-40.34 249.17-161.36 261.41-187.47 263.6-26.1 2.18-140-28.67-175.6-31.04z"/></clipPath></defs><path d="M62.59 131.8s6.145 9.08 17.898 8.814c11.753-.267 20.302-12.288 20.302-12.288s-26.98-2.405-38.2 3.473" fill="#cc95b1"/><path d="M97.584 53.798c-3.12.21-6.946-3.472-7.213-5.342-.265-1.87 2.406-9.082 5.344-12.555 2.938-3.47 13.09-10.15 13.09-11.485 0-1.336-4.542-4.808-6.68-4.14-2.136.667-6.143 4.14-6.143 4.14s4.008-7.48 5.343-8.815c1.336-1.335-7.25-5.61-10.97-5.343 0 0-12.803 12.02-15.474 18.966-2.672 6.945-2.672 16.227-4.543 17.597-1.87 1.37-8.28 5.643-13.088 6.978-4.81 1.337-17.365 3.072-26.714 8.75-9.35 5.675-18.165 14.804-19.233 22.527-1.068 7.723 2.67 24.018 13.623 33.367 10.953 9.35 31.253 16.562 39.802 16.295 8.548-.267 13.89-4.274 13.89-4.274s9.082 4.007 16.294.534c0 0 6.68 2.67 15.76-1.603 9.083-4.273 32.322-21.37 27.782-49.417-4.54-28.048-18.164-29.426-21.103-29.673-2.937-.245-15.76 3.228-19.766 3.494" fill="#f9c6dd"/><g clip-path="url(#a)" transform="matrix(.11257 0 0 -.11257 -372.14 630.46)"><path d="M3429.71 4694.17s84.46-135.45 169.46-157.51c85-22.05 6.88 119.13 6.88 119.13s144.65-178.45 198.58-45.47c0 0 187.22-176.43 333.61 31.34 0 0 90.93-150.83 238.43 52.51 0 0 87.95-121.76 163.98 115.79 0 0 53.52-113.94-83.98-250.7s-242.45-167.13-304.95-150.97c0 0-97.12-32.84-138.58 3.18 0 0-66.92-83.48-194.19-37.48-127.28 46.01-358.71 125.94-389.24 320.18" fill="#de99be"/></g><path d="M50.067 62.547s-21.37 8.22-22.706 24.508c-1.334 16.29 18.433 32.724 18.433 32.724S26.897 98.3 29.6 86.2c3.462-15.494 20.467-23.653 20.467-23.653M84.494 66.62S100.79 78.91 99.454 96.54c-1.336 17.63-14.96 28.048-14.96 28.048S97.26 105.483 97.05 95.604C96.716 79.977 84.494 66.62 84.494 66.62M97.718 60.944s14.907 1.43 19.833 8.214c6.112 8.415 16.096 32.19-12.22 53.024 0 0 17.632-17.666 16.83-32.315-.602-10.968-4.178-17.53-8.55-21.91-4.284-4.296-15.892-7.013-15.892-7.013" fill="#a13870"/><path d="M63.46 62.547S46.026 76.77 46.03 91.163c0 11.254 11.018 27.88 23.44 35.293 0 0-21.708-19.095-21.237-35.293.4-13.79 15.226-28.616 15.226-28.616" fill="#a13870"/><path d="M91.44 54.983c-3.554-2.84-4.412-9.013-3.554-12.67.858-3.66 5.225-12.672 5.225-12.672S84.6 41.546 85.12 45.58c.517 4.03 6.322 9.403 6.322 9.403M81.31 44.545s3.38-17.448 7.793-21.106c0 0-7.894 6.472-7.792 21.105" fill="#de99be"/><path d="M85.118 81.502c0 1.44-.852 2.605-1.903 2.605-1.052 0-1.904-1.166-1.904-2.605 0-1.437.853-2.603 1.905-2.603 1.05 0 1.903 1.165 1.903 2.602M66.397 81.502c0 1.44-.852 2.605-1.904 2.605-1.05 0-1.902-1.166-1.902-2.605 0-1.437.853-2.603 1.903-2.603 1.052 0 1.904 1.165 1.904 2.602" fill="#040606"/><path d="M67.588 86.378s9.883-.4 12.02 0c0 0-.493 10.118-6.01 10.15-5.075.03-6.01-10.15-6.01-10.15" fill="#5b1637"/></svg>