<!--Created with Inkscape (http://www.inkscape.org/)--><svg xmlns="http://www.w3.org/2000/svg" width="150" height="150"><defs><clipPath id="a"><path d="M5673.69 2058.33c-139.36 85.04-272.8 14.07-384.55-88.72-111.75-102.8-374.7-516.94-276.09-756.87 98.6-239.94 266.23-302.388 285.95-308.96 19.72-6.58 78.88-65.74 128.18-55.882 49.31 9.864 95.32 65.743 95.32 65.743s207.07 115.04 213.64 256.37c6.58 141.33-72.31 395.47-52.59 472.18 19.73 76.71 162.15 311.19-9.86 416.14z"/></clipPath></defs><path d="M114.83 31.414c-10.64-13.09-26.085-10.78-40.515-4.625-14.43 6.157-54.327 37.42-53 64.19 1.326 26.77 15.498 38.636 17.192 39.957 1.693 1.32 5.414 9.124 10.556 9.864 5.143.74 11.552-3.114 11.552-3.114s24.136-4.06 29.65-17.6c5.518-13.537 6.6-41.01 11.168-47.8C106 65.493 127.96 47.57 114.83 31.413" fill="#395a88"/><g clip-path="url(#a)" transform="matrix(.0974 .0345 .0345 -.0974 -508.77 36.16)"><path d="M5041.32 1568.95s-74.65-239.18 42.85-372.81c117.5-133.64 300.67-117.61 424.09-66.88 123.41 50.74 175.91 225.46 143.41 360.6-32.5 135.14 122.5 316.05 122.5 316.05s95-536.16 25-711.03C5729.17 920 5520.11 727.5 5412.14 750c-107.97 22.5-678.68 402.9-370.82 818.95" fill="#2a486e"/></g><path d="M39.895 127.585s15.4-.31 20.202 7.156c0 0-2.852-4.372-20.202-7.155" fill="#101b2d"/><path d="M80.884 63.77c-.388.93-1.257 1.456-1.938 1.173-.68-.284-.918-1.27-.53-2.203.39-.932 1.257-1.458 1.938-1.174.682.284.92 1.27.53 2.203M67.487 57.694c-.39.93-1.257 1.458-1.94 1.173-.68-.284-.917-1.27-.528-2.202.387-.932 1.255-1.458 1.937-1.174.68.285.918 1.27.53 2.204" fill="#060707"/><path d="M69.166 69.432c-.108-.038-.216-.08-.327-.126-2.286-.953-2.644-3.143-2.515-4.17.036-.28.295-.482.577-.445.287.037.483.293.45.576-.012.09-.234 2.204 1.885 3.087 2.514 1.04 3.518-.66 3.56-.733.14-.248.463-.338.702-.195.248.14.336.456.195.704-.017.023-1.408 2.407-4.53 1.302" fill="#040606"/><path d="M74.804 69.677c-.824-.292-1.374-.744-1.64-1.35-.49-1.113.222-2.258.253-2.306.152-.24.462-.318.713-.158.24.152.31.47.16.71-.015.02-.445.744-.178 1.344.265.594 1.13.865 1.813.986.27.044.466.32.415.6-.05.282-.32.468-.6.417-.343-.063-.655-.143-.936-.243M63.758 65.765c-.22-.078-.367-.3-.342-.54.03-.285.283-.49.567-.462.027.004 2.685.258 2.894-1.312.04-.283.298-.48.58-.444.282.04.483.297.445.58-.274 2.052-2.753 2.34-4.027 2.205-.04-.003-.08-.012-.117-.025" fill="#040606"/><path d="M117.567 24.195s7.463-11.408 8.376-11.444c.914-.036 8.593 5.747 9.504 8.77 0 0-14.363 6.983-14.806 7.726 0 0 6.326 3.502 6.263 9.785-.064 6.283-3.373 10.457-7.89 14.14-4.517 3.682-5.832 10.363-4.5 13.718 0 0-6.004-3.39-5.328-10.894.677-7.507 6.78-15.072 6.78-15.072s-14.255-4.51-21.062.466c0 0-1.14-7.97 5.67-16.006 0 0-15.662 7.602-22.775-8.428 0 0 6.202 4.36 10.47 2.99 4.27-1.372 14.737-12.616 29.3 4.25" fill="#479235"/><path d="M115.45 27.49s-11.22-1.597-17.023 7.827c0 0 7.06-6.87 17.022-7.827" fill="#2d5d28"/></svg>