<!--Created with Inkscape (http://www.inkscape.org/)--><svg xmlns="http://www.w3.org/2000/svg" width="150" height="150"><defs><clipPath id="a"><path d="M6678.13 3172.89s92.8-126.71 139.2-137.42c46.4-10.71 73.17 39.26 78.53 78.53 5.35 39.26 57.11 64.25 64.25 37.48 7.14-26.77-14.28-122.52 33.91-117.48 48.18 5.04 101.73 101.41 105.29 110.34 3.57 8.92 112.44-17.73 91.02-40.99-21.41-23.26-58.89-51.82-53.54-78.59 5.36-26.77 73.18-24.98 139.21 33.91 66.03 58.9 15.75-45.63 0-50.51-15.75-4.87-139.21-58.35-153.48-108.33-14.28-49.97 55.32-160.62 48.18-176.68-7.14-16.06-94.59-73.17-192.75-76.74-98.15-3.57-192.74 33.91-198.1 64.25-5.35 30.34 44.62 149.67 19.63 198.87-24.98 49.2-139.2 175.91-194.53 193.76-55.32 17.85 46.4 66.03 73.18 69.6z"/></clipPath></defs><path d="M15.902 80.016s0 3.83 5.44 3.83c0 0 .605 6.045 6.046 5.24 0 0 7.657 3.497 9.873-4.498 0 0 6.65 4.698 9.673-4.572 0 0 2.216 6.046 7.254 3.83 0 0-.806 5.843 5.038 4.633 0 0 3.022 4.03 5.64-.807 0 0 7.457 9.433 12.696-2.637 0 0 2.218 7.757 7.658.563 0 0 1.41 4.895 7.455.865 0 0 0 6.612 7.455 4.716 0 0-.805 5.562 5.844 3.747 0 0 1.612 5.44 6.65 3.426 0 0 2.217 6.247 9.268 2.216 0 0 2.42 3.224 6.448.2 0 0 4.232.202 4.837-3.223 0 0 5.037-1.814 4.433-5.037 0 0 2.418-2.418 1.007-4.837 0 0 3.3-3.223.442-6.045 0 0 2.983-4.634-2.054-5.842 0 0 .605-8.666-7.656-7.254 0 0 2.014-5.24-4.03-6.65 0 0 5.44-5.038-2.016-10.68 0 0 3.628-6.448-1.207-8.06 0 0 .604-4.835-5.24-4.433 0 0 3.425-5.845-3.627-7.053 0 0 .202-5.844-8.06-3.627 0 0-1.21-7.26-9.67-3.83 0 0-1.21-2.246-4.435-.92 0 0 1.21-5.325-4.634-3.108 0 0-1.41-2.49-5.44-.54 0 0-2.62-8.73-8.866-3.088 0 0-4.23-4.232-7.657 0 0 0-6.246-4.836-9.268 1.41 0 0-7.86-2.624-10.68 6.245 0 0-5.037.203-5.037 4.838 0 0-7.053.805-3.023 7.858 0 0-6.85 2.216-4.03 8.463 0 0-6.045-3.023-8.462 3.022 0 0-7.254-3.225-8.06 6.045 0 0-6.045-.203-3.83 5.842 0 0-3.626-.202-5.44 3.022-1.813 3.224 0 8.06 0 8.06S4.82 72.762 7.64 76.39c2.822 3.626 8.262 3.626 8.262 3.626" fill="#5ba232"/><path d="M15.495 76.793s.877 2.906 6.317 2.906c0 0 1.146 6.64 6.587 5.833 0 0 5.873 1.27 8.09-6.725 0 0 6.61 6.594 9.632-2.676 0 0 5.088 5.972 10.125 3.755 0 0-1.447 4.032 4.397 2.823 0 0 2.76 5.024 5.38.187 0 0 5.683 9.06 10.923-3.01 0 0 3.403 8.512 8.844 1.317 0 0 1.39 3.655 7.434-.376 0 0 2.136 8.294 9.59 6.398 0 0-.4 5.2 6.25 3.387 0 0 1.21 6.36 6.248 4.345 0 0 .496 5.142 7.548 1.112 0 0 3.69 3.43 4.705-2.447 0 0 4.476 3.05 5.08-.376 0 0 3.992-.915 3.388-4.14 0 0 3.993.985 2.582-1.434 0 0 3.3-3.223.442-6.045 0 0 2.983-4.634-2.054-5.842 0 0 .605-8.666-7.656-7.254 0 0 2.014-5.24-4.03-6.65 0 0 5.44-5.038-2.016-10.68 0 0 3.628-6.448-1.207-8.06 0 0 .604-4.835-5.24-4.433 0 0 3.425-5.845-3.627-7.053 0 0 .202-5.844-8.06-3.627 0 0-1.21-7.26-9.67-3.83 0 0-1.21-2.246-4.435-.92 0 0 1.21-5.325-4.634-3.108 0 0-1.41-2.49-5.44-.54 0 0-2.62-8.73-8.866-3.088 0 0-4.23-4.232-7.657 0 0 0-6.246-4.836-9.268 1.41 0 0-7.86-2.624-10.68 6.245 0 0-5.037.203-5.037 4.838 0 0-7.053.805-3.023 7.858 0 0-6.85 2.216-4.03 8.463 0 0-6.045-3.023-8.462 3.022 0 0-7.254-3.225-8.06 6.045 0 0-6.045-.203-3.83 5.842 0 0-3.626-.202-5.44 3.022-1.813 3.224 0 8.06 0 8.06s-.343.487 2.477 4.113c2.822 3.628 6.385 1.328 6.385 1.328" fill="#42752d"/><path d="M15.495 76.793s-3.023 4.634-1.814 7.052c1.21 2.418 4.635 2.418 4.635 2.418s-3.022 6.045 2.42 7.254c0 0 2.014 5.24 7.857 3.023 0 0 3.224 8.952 11.284.546 0 0 6.63 6.958 12.09 1.872 0 0 3.83 3.223 7.052.604 0 0 7.657 3.022 9.873-3.426 0 0 2.62 4.635 8.263 2.42 0 0 4.412 8.706 11.485 3.508 0 0 3.21 5.603 8.664 0 0 0 3.024 6.475 8.666 2.49 0 0 3.828 4.243 5.842-2.49 0 0 6.045.723 6.65-6.128.604-6.85-8.463-9.47-10.88-8.464 0 0-1.636-6.417-6.247-5.44 0 0-9.27-4.836-14.306-1.008 0 0-3.066-7.302-11.083-2.216 0 0-4.03-3.425-6.65 0 0 0-6.82-6.02-10.68 0 0 0-6.084-6.36-12.492-2.676 0 0-4.432-4.98-9.47-.145 0 0-7.547-4.977-10.68 2.82 0 0-4.835-8.664-10.477-2.014" fill="#4e842f"/><path d="M15.495 76.793s-3.023 4.634-1.814 7.052c1.21 2.418 6.58 1.64 6.58 1.64s-3.182 4.295 2.257 5.504c0 0 1.073 4.897 6.916 2.68 0 0 2.61 8.97 10.67.565 0 0 6.312 5.81 11.77.723 0 0 3.922 7.223 7.145 4.604 0 0 7.657 3.022 9.873-3.426 0 0 2.62 4.635 8.263 2.42 0 0 4.412 8.706 11.485 3.508 0 0 3.08 3.038 8.537-2.564 0 0 3.282 6.138 8.925 2.154 0 0 3.315 4.578 5.33-2.154 0 0 6.425 3.287 7.03-3.564.604-6.85-8.463-9.47-10.88-8.464 0 0-1.636-6.417-6.247-5.44 0 0-9.27-4.836-14.306-1.008 0 0-3.066-7.302-11.083-2.216 0 0-4.03-3.425-6.65 0 0 0-6.82-6.02-10.68 0 0 0-6.084-6.36-12.492-2.676 0 0-4.432-4.98-9.47-.145 0 0-7.547-4.977-10.68 2.82 0 0-4.835-8.664-10.477-2.014" fill="#345623"/><path d="M42.3 78.808s10.477 14.306 15.715 15.515c5.24 1.21 8.262-4.432 8.867-8.866.604-4.433 6.448-7.254 7.254-4.232.806 3.023-1.613 13.833 3.828 13.264 5.44-.57 11.486-11.45 11.888-12.46.403-1.006 12.695 2.003 10.276 4.63-2.417 2.626-6.65 5.85-6.044 8.872.605 3.023 8.262 2.82 15.717-3.828 7.456-6.65 1.78 5.152 0 5.703-1.777.55-15.716 6.588-17.328 12.23s6.246 18.135 5.44 19.948c-.806 1.813-10.68 8.26-21.762 8.664-11.082.402-21.76-3.83-22.366-7.255-.604-3.425 5.038-16.898 2.216-22.453-2.82-5.555-15.716-19.86-21.963-21.876-6.246-2.015 5.24-7.455 8.262-7.858" fill="#80ce4e"/><g clip-path="url(#a)" transform="matrix(.1129 0 0 -.1129 -711.684 437.038)"><path d="M6728.74 3002.03s98.52-103.32 99.89-161.01c1.38-57.69-14.97-121.02 39.71-146.02 54.67-25 216.53-13.33 243.26 28.33 26.74 41.67-28.24 167.96 17.58 208.15 45.83 40.19 146.82 76.68 146.82 76.68s-2.66-16.05-69.33-67.94c-66.66-51.89-46.66-143.07-23.33-178.31 23.33-35.24 2.51-60.24-42.91-91.91-45.42-31.67-158.11-88.33-263.43-55-105.33 33.33-143.66 36.67-125.33 118.33 18.34 81.67 45 142.4 21.67 176.2-23.33 33.8-44.6 92.5-44.6 92.5" fill="#72b740"/></g><path d="M59.29 104.197s-2.416-.538-4.028.806c-1.613 1.343 2.552 1.746 4.03-.806M64.8 95.196s5.238-.537 7.12 0c1.88.537-2.072 4.173-4.3 4.3-2.226.125-3.09-2.42-2.82-4.3M83.875 102.064s6.18-.924 7.12 0c.94.923-.94 4.01-3.56 3.81-2.62-.2-3.56-3.81-3.56-3.81M89.92 117.9s6.313-1.882 6.582-.54c.27 1.345-1.478 4.03-3.29 4.03-1.814 0-3.292-3.49-3.292-3.49M54.897 123.54s6.006.538 5.738 2.15c-.27 1.61-6.844 2.162-5.738-2.15" fill="#cbe87c"/><path d="M81.854 116.277c0 1.073-.636 1.943-1.42 1.943-.784 0-1.42-.87-1.42-1.943 0-1.072.636-1.943 1.42-1.943.784 0 1.42.87 1.42 1.943M71.315 116.277c0 1.073-.635 1.943-1.42 1.943-.783 0-1.42-.87-1.42-1.943 0-1.072.637-1.943 1.42-1.943.785 0 1.42.87 1.42 1.943M74.888 123.836c-2.78 0-3.538-1.77-3.57-1.846-.118-.29.02-.62.308-.737.287-.116.613.017.734.3.03.063.555 1.154 2.528 1.154 2.286 0 2.572-1.022 2.574-1.03.054-.31.352-.51.655-.458.307.054.51.348.456.654-.015.08-.39 1.962-3.685 1.962" fill="#040606"/><path d="M49.35 69.136s.807-2.688 2.957-3.224c0 0-2.015-2.687.94-5.105 0 0-1.057-6.717 7.397-6.18 0 0 5.232-6.777 10.67-.03 0 0 5.575-1.448 5.172 2.986 0 0 6.18.94 6.045 3.895M73.025 47.24s-2.315-5.105 4-6.583c0 0-.55-4.567 4.83-4.298 0 0 3.608-5.374 5.703-.673 0 0 7.197-1.612 6.93 2.82M34.44 46.702s5.776-2.686 6.85 1.478c0 0 4.97-1.073 4.434 3.426M87.558 65.24s.973-2.687 3.68-3.224c2.71-.538 5.29 3.224 5.29 3.224s2.527-3.358 6.96 0M102.816 40.5s5.238-4.592 7.79 0c0 0 4.837-1.992 4.702 2.307M115.98 66.717s5.373-.134 5.24 4.03c0 0 7.253-1.074 4.835 5.777" fill="none" stroke="#263919" stroke-width="1.1290375" stroke-linecap="round" stroke-miterlimit="10"/></svg>