<!--Created with Inkscape (http://www.inkscape.org/)--><svg xmlns="http://www.w3.org/2000/svg" width="150" height="150"><defs><clipPath id="a"><path d="M6976.1 1570.56c-99.83-11.09-161.95-119.8-175.26-170.82-13.31-51.03-8.87-228.5 87.63-334.99 0 0-9.98-130.89 29.95-177.48 0 0-8.87-84.3 28.84-139.758 0 0-6.66-108.71 37.71-119.8 44.37-11.09 62.12 31.058 68.78 110.93 0 0 42.15 39.928 24.4 126.448 0 0 62.12 109.172 46.59 233.17 0 0 88.35 137.27 63.95 316.97-24.4 179.69-212.59 155.33-212.59 155.33z"/></clipPath></defs><path d="M85.548 68.542c-8.268-6.99-21.38-3.79-26.357-1.05-4.98 2.74-18.535 16.245-19.714 31.69 0 0-10.98 8.92-11.666 15.5 0 0-7.253 5.554-8.797 12.615 0 0-9 7.538-6.578 11.832 2.42 4.292 7.035 2.557 13.778-2.843 0 0 6.25.338 11.702-7.465 0 0 13.147-3.232 21.698-13.64 0 0 17.29-3.262 29.54-18.492S85.55 68.542 85.55 68.542" fill="#f7951b"/><g clip-path="url(#a)" transform="matrix(.07413 .07824 .07824 -.07413 -554.468 -360.86)"><path d="M7183.02 1443.77s4.3-263.24-94.89-316.74c-99.18-53.5-188.4-55.32-154.8-64.06 33.6-8.74 145.33 39.79 154.8-21.81 9.47-61.6 22.65-191.54-119.28-159.238 0 0-38.52 10.54-.62-13.113 37.9-23.65 86.32-14.322 80.78-59.12-5.54-44.8-32.81-79.452-80.78-67.73-47.97 11.73-38.13 13.59-42.11 17.33-3.99 3.73-22.07-14.65-3.69-87.59 18.37-72.95 156.51-115.598 177.04-45.74 20.53 69.86 163.36 675.33 83.55 817.81" fill="#c7771a"/></g><path d="M42.123 101.714s6.864 6.738 14.82 10.564c0 0-9.903-2.768-14.82-10.564M30.638 116.448s.867 5.348 5.898 9.355c0 0-7.556-4.326-5.898-9.355M20.133 129.35s-1.08 2.768 4.942 5.215c0 0-3.017-1.62-4.942-5.216" fill="#874a19"/><path d="M74.8 90.57c-.694.658-1.646.78-2.127.273-.48-.506-.306-1.45.387-2.106.694-.657 1.645-.78 2.124-.272.48.507.308 1.45-.385 2.106M68.347 83.762c-.693.657-1.644.78-2.124.273-.48-.506-.307-1.45.387-2.107.693-.657 1.644-.778 2.124-.272.48.507.306 1.45-.387 2.106M65.197 91.128c-1.414-1.493-.682-3.51-.098-4.37.167-.245.5-.308.747-.14.247.17.31.5.144.745-.047.073-1.18 1.79-.01 3.024 1.397 1.475 2.948.292 3.013.24.235-.183.58-.115.756.092.183.235.14.573-.092.756-.822.642-2.81 1.395-4.46-.348" fill="#040606"/><path d="M82.405 72.178c-4.402-3.306-3.783-10.25 3.362-5.49 7.144 4.76 7.063 13.32-3.362 5.49" fill="#39ab3e"/><path d="M82.506 68.048c-.52-.715 4.666-6.397 2.438-13.18-2.227-6.784 4.01-9.872 8.442-2.563 4.432 7.31-8.12 19.55-10.88 15.743" fill="#38973b"/><path d="M83.854 68.995s7.75-7.62 9.244-18.038c1.493-10.417.794-36.187 9.49-38.743 8.694-2.556 6.03 16.273 6.03 16.273s12.55-27.95 26.59-21.735c14.04 6.214-14.174 27.017-14.174 27.017s11.736-2.474 15.724 4.863c3.99 7.34-18.554 5.45-34.28 17.272-15.724 11.824-16.05 18.31-18.624 13.09" fill="#3bab3d"/><path d="M85.462 69.43s20.36-25.476 24.337-31.53c3.973-6.053 15.538-23.246 22.91-27.423 0 0-11.115 11.524-18.22 22.675-7.106 11.15-21.245 27.82-29.028 36.28" fill="#338b39"/><path d="M102.387 23.303s-3.535 17.182.053 26.82l1.45-2.384s-2.42-7.56-1.503-24.437" fill="#338b39"/><path d="M85.21 70.427s4.908-5.144 11.308-16.642c6.4-11.498 14.477-24.092 21.87-20.72 7.394 3.37-6.604 19.103-10.34 21.158 0 0 14.027-7.36 16.494-.062 2.467 7.298-26.726 8.037-29.64 10.175 0 0 8.88 2.33 6.392 5.182-2.487 2.85-11.92-.065-15.114 3.082 0 0-2.513.524-.97-2.173" fill="#44ba3b"/><path d="M86.104 71.37S95.644 60.736 101.17 52c5.43-8.584 14.432-14.75 14.432-14.75s-8.995 8.974-12.592 14.72c-3.597 5.748-13.66 16.846-16.906 19.4" fill="#3bab3d"/><path d="M117.138 55.475s-9.557 3.22-20.173 4.45l1.46-2.154s7.19 1.45 18.713-2.295M90.876 66.274s3.567-.372 6.762 1.638c0 0-4.17-1.382-7.41-.48l.648-1.158" fill="#3bab3d"/></svg>