<!--Created with Inkscape (http://www.inkscape.org/)--><svg xmlns="http://www.w3.org/2000/svg" width="150" height="150"><defs><clipPath id="a"><path d="M2198.71 1333.97s41.77-105.05 0-151.39c-41.77-46.34-196.25-308.96 222.67-308.96 352.34 0 228.12 256.44 182.67 302.78-45.46 46.35-10.16 145.21 0 176.11 10.15 30.9-406.82 216.27-405.34-18.54z"/></clipPath><clipPath id="b"><path d="M2424.19 1921c-310.65-8.05-557.68-239.11-548.41-394.53 9.27-155.42 92.81-260.47 322.93-238.84 230.12 21.63 591.6-58.16 705.92-2.82 114.31 55.34 234.81 654.73-480.44 636.19z"/></clipPath></defs><path d="M46.654 83.878s4.875 12.26 0 17.668c-4.875 5.408-22.903 36.057 25.987 36.057 41.12 0 26.623-29.928 21.32-35.336-5.306-5.41-1.187-16.947 0-20.553 1.184-3.606-47.48-25.24-47.306 2.164" fill="#f9dbde"/><g clip-path="url(#a)" transform="matrix(.1167 0 0 -.1167 -209.946 239.558)"><path d="M2211.35 1204.24s-42.18-83.54-42.18-126.74c0-31.09-6.59-73.51 86.48-121.45 118.52-61.05 268.52-23.55 316.02 16.45s54.23 151.98 32.38 203.9c-21.86 51.92 19.82 57 19.82 57s132.8-223.4 57.8-293.4c-75-70-109.32-132.5-282.16-97.5-172.84 35-265.34 45-290.34 122.5s29.35 215.98 102.18 239.24" fill="#dcb8bb"/></g><path d="M72.968 15.368c-36.254.94-65.083 27.906-64.002 46.044C10.048 79.55 19.798 91.81 46.654 89.286c26.856-2.525 69.043 6.787 82.384.33 13.34-6.46 27.404-76.41-56.07-74.248" fill="#d59ca3"/><g clip-path="url(#b)" transform="matrix(.1167 0 0 -.1167 -209.946 239.558)"><path d="M1885.68 1593.15s-25.88-92.41 48.81-146.53c74.68-54.12 240.58.97 340.13 13.43 99.55 12.45 369.55 14.13 497.05-16.71 127.5-30.84 241.99-3.39 199.74 200.38-42.24 203.78 86.08-48.63 61.92-183.67-24.16-135.05-82.74-223.25-163.45-226.65-80.71-3.4-258.41 20.44-389.56 18.52-131.15-1.92-371.55-20.12-442.6-18.52-71.05 1.6-277.49 189.39-152.04 359.75" fill="#b8767f"/></g><path d="M15.818 74.965s2.62 10.298 15.493 13.932c0 0-8.977-3.926-15.492-13.932M29.52 74.965S31.96 85.28 40.336 88.897c0 0-8.414-.25-10.818-13.932M45.144 77.627s2.608 7.876 8.155 11.27c0 0-6.954-1.414-8.156-11.27M79.52 88.897s9.614-3.337 14.422-12.71c0 0-3.606 9.797-14.423 12.71M91.598 90.824s16.286-3.582 27.825-18.485c0 0-7.572 15.814-27.825 18.484M109.8 91.9s8.902-2.278 14.43-10.32c0 0-2.178 8.488-14.43 10.32" fill="#86434c"/><path d="M73.958 104.224c-.01 1.072-.653 1.936-1.436 1.93-.785-.007-1.41-.883-1.402-1.956.01-1.072.652-1.936 1.437-1.93.783.01 1.41.883 1.4 1.956M58.35 103.604c-.008 1.073-.652 1.936-1.435 1.93-.785-.008-1.41-.883-1.402-1.955.01-1.074.652-1.938 1.437-1.93.783.007 1.41.882 1.4 1.954" fill="#040606"/><path d="M58.365 108.156s9.856.24 12.74 0c0 0-1.2 7.932-6.37 8.173-5.168.24-6.37-8.174-6.37-8.174" fill="#961829"/></svg>