<!--Created with Inkscape (http://www.inkscape.org/)--><svg xmlns="http://www.w3.org/2000/svg" width="150" height="150"><defs><clipPath id="a"><path d="M2223.84 3484.33s246.71 55.6 288.41 90.35c42.03 35.02 121.28 171.52 93.81 274.5 0 0 180.69 34.75 205.01 0 0 0-79.92-170.26-132.04-218.91-52.12-48.64 0-90.74 48.65-95.75 48.65-5.01 114.67-50.19 114.67-50.19s-441.29-215.43-618.51 0z"/></clipPath><clipPath id="b"><path d="M2314.19 3484.33s-166.79 145.94-406.55-86.86c-239.75-232.81-236.28-451.72-208.48-521.21 27.8-69.5 180.69-271.03 271.03-208.49 0 0 277.98-211.95 531.63 0 0 0 135.52-113.5 333.58 37.07 0 0 170.26-44.02 298.82 199.22 128.57 243.23-52.12 531.63-128.56 590.7-76.45 59.07-191.11 0-205.01-31.27 0 0-104.24 138.98-211.96-17.38 0 0-79.92 170.26-274.5 38.22z"/></clipPath></defs><path d="M56.314 50.2s22.17-4.996 25.917-8.12c3.778-3.146 10.9-15.412 8.432-24.666 0 0 16.237-3.123 18.422 0 0 0-7.182 15.3-11.865 19.672-4.685 4.37 0 8.154 4.37 8.604 4.372.45 10.305 4.51 10.305 4.51s-39.655 19.36-55.58 0" fill="#52be36"/><g clip-path="url(#a)" transform="matrix(.08986 0 0 -.08986 -143.527 363.313)"><path d="M2666.67 3470.97s-81.3 48.07-75.65 93.55c5.65 45.48 110.86 183.36 120.65 240.5 0 0-5-50.89-27.5-95.94 0 0 47.5 74.79 60 115.17 12.5 40.37 70.38-21.16 70.38-21.16l74.88-322.25s-117.76-113.89-222.76-9.87" fill="#49a638"/></g><path d="M64.433 50.2S49.445 37.086 27.9 58.006 6.665 98.6 9.164 104.843c2.498 6.246 16.237 24.356 24.355 18.736 0 0 24.98 19.045 47.774 0 0 0 12.178 10.198 29.977-3.332 0 0 15.3 3.955 26.854-17.903 11.553-21.857-4.684-47.774-11.553-53.082-6.87-5.308-17.173 0-18.422 2.81 0 0-9.367-12.49-19.047 1.562 0 0-7.18-15.3-24.667-3.435" fill="#f9aa1e"/><g clip-path="url(#b)" transform="matrix(.08986 0 0 -.08986 -143.527 363.313)"><path d="M1700.33 3065.02s-1.16-142.92 91.34-228.97c92.5-86.05 173.91 114.48 173.91 114.48s25.44-196.66 258.26-224.84c232.83-28.19 323.47 200.74 323.47 200.74s6.86-178.99 151.86-172.71c145 6.28 257.53 239.74 257.53 239.74s-47.99-173.86 34.74-157.41c82.73 16.45 167.63 174.54 187.68 218 20.05 43.45 12.55-208.78-109.95-313.92-122.5-105.13-147.5-112.34-157.5-114.99-10-2.64-595-172.64-737.5-122.64-142.5 50-392.5 91.37-450 223.19-57.5 131.81-105.19 216.84-23.84 339.33" fill="#de8a18"/></g><path d="M62.56 51.76s-39.97 19.36-30.29 65.262c0 0-5.307-41.218 30.29-65.26M88.187 57.816s.602 37.868-6.893 60.558c0 0 11.6-19.218 6.893-60.558M109.397 55.82s21.233 25.292 4.37 59.64c0 0 23.108-32.474-4.37-59.64" fill="#b5731a"/><path d="M78.157 79.16c0 1.147-.68 2.078-1.52 2.078s-1.52-.93-1.52-2.08c0-1.148.68-2.078 1.52-2.078s1.52.93 1.52 2.08M60.654 79.16c0 1.147-.68 2.078-1.52 2.078s-1.52-.93-1.52-2.08c0-1.148.68-2.078 1.52-2.078s1.52.93 1.52 2.08M66.85 92.41c-7.546 0-8.838-4.77-8.89-4.974-.06-.24.086-.484.327-.546.24-.06.483.086.545.324.045.175 1.204 4.296 8.018 4.296 8.14 0 9.59-4.277 9.605-4.32.075-.236.326-.366.563-.292.238.075.368.328.293.564-.063.202-1.67 4.947-10.46 4.947" fill="#171717"/><path d="M78.032 87.926c-.647 0-1.175-.182-1.578-.544-.976-.876-.758-2.453-.748-2.52.036-.246.265-.42.507-.38.246.036.416.263.382.51 0 .01-.157 1.17.46 1.724.39.344 1.035.404 1.926.174.24-.06.486.083.548.324.062.24-.082.485-.323.547-.426.11-.818.166-1.173.166M56.32 88.33h-.046c-.247-.007-.44-.213-.435-.46.006-.248.21-.46.46-.44.016 0 1.32.024 1.904-.746.345-.458.38-1.14.104-2.028-.074-.237.06-.49.295-.563.24-.075.49.06.563.296.368 1.183.284 2.138-.25 2.84-.795 1.05-2.307 1.1-2.596 1.1" fill="#171717"/><path d="M87.854-12.203c.015.01.036.02.036.02l-.036-.02" fill="#fabec7"/></svg>