<!--Created with Inkscape (http://www.inkscape.org/)--><svg xmlns="http://www.w3.org/2000/svg" width="64" height="64"><g fill="gray"><path d="M49.514 5.88l8.526 8.525-42.64 42.64-8.526-8.526z"/><path d="M15.4 6.88l42.65 42.65-8.518 8.517L6.882 15.4z"/><path d="M17.04 10.99c0 3.323-2.694 6.017-6.017 6.017-3.323 0-6.017-2.694-6.017-6.017 0-3.323 2.694-6.016 6.017-6.016 3.323 0 6.017 2.693 6.017 6.016zM59.79 10.146c0 3.323-2.693 6.017-6.016 6.017s-6.017-2.694-6.017-6.017c0-3.323 2.694-6.017 6.017-6.017 3.323 0 6.016 2.693 6.016 6.016zM59.422 53.367c0 3.323-2.694 6.017-6.017 6.017-3.323 0-6.016-2.694-6.016-6.017 0-3.323 2.692-6.017 6.015-6.017 3.323 0 6.017 2.694 6.017 6.017zM17.398 52.584c0 3.323-2.694 6.017-6.017 6.017-3.322 0-6.016-2.693-6.016-6.016s2.694-6.016 6.017-6.016c3.324 0 6.018 2.693 6.018 6.016z"/></g></svg>