<!--Created with Inkscape (http://www.inkscape.org/)--><svg xmlns="http://www.w3.org/2000/svg" width="150" height="150"><path d="M106.337 17.52c-5.05-2.93-7.962-2.448-11.45-1.077-3.488 1.37-17.14 18.788-25.392 26.852-8.252 8.065-29.662 34.638-35.19 50.215-5.53 15.577-7.016 30.907-4.526 35.282 2.488 4.374 7.783 9.192 11.685 11.058 3.903 1.866 17.436 4.633 21.087-1.028 3.65-5.66 14.884-47.117 20.322-56.04 5.438-8.92 35.044-44.957 34.88-49.15-.163-4.196-2.905-11.172-11.417-16.112" fill="#28622c"/><path d="M105.88 25.903c-4.674-3.955-9.735-1.994-20.702 8.75C74.21 45.398 50.993 78.114 48.86 83.82c-2.13 5.704-12.214 35.305-12.185 39.314.027 4.01 11.077 11.222 14.69 9.714 3.614-1.508 18.656-46.457 20.447-52.107 1.79-5.65 13.645-20.146 21.162-28.51 7.517-8.367 18.503-21.594 12.907-26.327" fill="#327331"/><path d="M46.764 136.523s9.368.487 10.975-2.176c1.605-2.662 16.134-45.32 20.74-54.128 4.608-8.81 23.312-30.44 25.798-33.95 2.486-3.507 8.564-9.476 8.714-12.714l-2.384-8.728s7.48 5.784 7.147 8.803c-.333 3.02-33.86 45.762-36.47 52.28-2.61 6.516-16.595 52.875-20.127 54.378-3.533 1.503-15.502 2.26-19.324-.272-3.823-2.534 4.93-3.493 4.93-3.493" fill="#244f24"/><path d="M43.55 137.366c-4.762-2.103-8.13-3.46-8.12-1.797 0 0-.023 3.125 2.58 3.48 0 0 1.285 3.082 6.063 2.255 0 0 3.407 3.124 5.084.567.994-1.52-2.65-3.2-5.608-4.506" fill="#9dda88"/><path d="M111.29 11.48s-4.683-3.937-6.1-3.346c-1.42.59-7.38 7.412-7.38 7.412s5.955 4.67 6.912 4.92c.957.25 3.122-.204 3.122-.204s1.03 2.616 1.85 3.613c.82 1 4.77 4.53 5.295 4.82.524.287 1.528-.234 1.528-.234s-.566 1.72-.27 2.43c.295.708 1.377 1.45 1.377 1.45s1.782-1.224 2.233-1.798c.45-.573 3.247-4.924 3.057-5.576-.19-.65-1.795-2.215-1.795-2.215s.502-1.913.253-2.46c-.247-.546-1.24-1.228-1.24-1.228s1.498-2.735 1.355-3.223c-.142-.49-5.053-5.508-6.01-5.76-.957-.25-4.188 1.4-4.188 1.4" fill="#77cb4a"/><path d="M111.92 12.645s1.323 1.957.91 3.235c-.412 1.28-3.382 3.722-3.382 3.722l-.555-1.912s2.595-4.186 3.027-5.045M120.823 23.54s-.16 2.79-3.497 4.382c-3.335 1.593-.808.54-.808.54l4.305-4.92" fill="#4a9435"/><path d="M110.214 27.17s1.242 5.47.126 8.005c-1.116 2.535-7.33 9.254-7.33 9.254s5.76-7.242 6.394-10.042c.634-2.8.81-7.218.81-7.218M104.356 21.634s-5.437-1.066-7.785-.027c-2.347 1.04-8.912 8.523-8.912 8.523s7.732-7.118 9.524-7.64c1.79-.523 7.174-.856 7.174-.856M93.872 55.358s-10.99 13.68-14.347 19.432c-3.36 5.752-10.258 22.083-10.258 22.083s5.912-17.898 8.91-22.617c2.996-4.72 15.695-18.898 15.695-18.898M40.415 95.217s-6.472 23.988-5.52 28.787c.605 3.036 7.25 8.49 7.25 8.49s-7.666-5.99-8.328-7.645c-1.472-3.68 3.865-21.28 6.598-29.633M47.342 135.34s5.183-.44 8.583-5.145c3.4-4.703 7.56-19.047 7.56-19.047s-2.578 12.953-6.77 19.48c-4.194 6.526-9.373 4.713-9.373 4.713M114.575 30.67s1.16 2.537.194 4.607c-.968 2.07-4.02 6.143-4.02 6.143s3.795-5.063 3.825-10.75" fill="#1f401e"/><path d="M92.377 48.082c-.556.783-1.47 1.087-2.04.68-.572-.405-.584-1.368-.03-2.15.557-.78 1.47-1.085 2.04-.68.572.407.585 1.37.03 2.15M85.257 43.21c-.556.78-1.47 1.086-2.04.68-.57-.407-.583-1.37-.03-2.15.558-.783 1.47-1.087 2.043-.68.57.405.582 1.368.027 2.15" fill="#040606"/><path d="M82.735 45.643s5.483 3.66 6.53 4.643c0 0-3.12 3.822-6.127 1.704-2.765-1.95-.403-6.347-.403-6.347" fill="#141e15"/></svg>