<!--Created with Inkscape (http://www.inkscape.org/)--><svg xmlns="http://www.w3.org/2000/svg" width="150" height="150"><path d="M69.788 118.96s42.13 8.76 60.483-37.542c18.355-46.3-28.78-50.472-28.78-50.472S90.227 25.94 73.96 49.3c-16.27 23.358-7.51-.835-23.36-6.258-15.85-5.422-28.78-2.502-33.787 4.172-5.005 6.674-17.936 68.408 52.975 71.745z" fill="#ecd536"/><g fill="#171717"><path d="M69.416 81.534c-.56 0-1.02-.446-1.032-1.008-.05-2.1-1.486-2.846-2.83-2.846h-.043c-1.523.017-3.066.993-3.066 2.82 0 .572-.46 1.034-1.032 1.034-.57 0-1.032-.462-1.032-1.033 0-3.133 2.63-4.855 5.106-4.885h.064c2.316 0 4.82 1.513 4.9 4.862.01.57-.44 1.043-1.01 1.057h-.024M74.56 92.4h-.06c-2.315-.03-4.774-1.64-4.774-4.573 0-.57.463-1.032 1.032-1.032.57 0 1.032.46 1.032 1.032 0 1.625 1.377 2.492 2.735 2.508h.04c1.193 0 2.47-.663 2.516-2.533.014-.57.472-1.068 1.057-1.007.57.013 1.02.486 1.008 1.056-.075 3.135-2.417 4.55-4.585 4.55M87.873 81.534c-.56 0-1.02-.446-1.033-1.008-.05-2.122-1.48-2.852-2.874-2.846-1.524.017-3.066.993-3.066 2.82 0 .572-.462 1.034-1.032 1.034-.57 0-1.033-.462-1.033-1.033 0-3.133 2.632-4.855 5.107-4.885 2.308 0 4.882 1.482 4.963 4.862.012.57-.438 1.043-1.01 1.057h-.023"/></g></svg>