<!--Created with Inkscape (http://www.inkscape.org/)--><svg xmlns="http://www.w3.org/2000/svg" width="64" height="64"><g fill-rule="evenodd"><path d="M37.423 61.753c-1.73-8.646-3.178-25.182 1.743-48.547.633-3.006-.65-3.17-1.414-.936-8.225 24.054-4.165 40.753-.33 49.483" fill="#82ba33"/><path d="M61.33 5.104c-2.856-.433-6.39 2.823-7.37 5.08-2.08 4.797-10.794 7.382-15.733 1.826l-.066-.143C40.734 4.77 47.9-2.735 61.33 5.104" fill="#568515"/><path d="M61.33 5.104c-2.856-.433-6.392 2.822-7.37 5.08-2.655 6.133-11.667 6.896-15.733 1.826C40.81 9.458 48.103 5.448 54.2 4.72c-5.93-.377-13.248 2.782-16.04 7.147C42.353.307 51.08-.88 61.33 5.104" fill="#82ba33"/><path d="M2.942 21.856c4.034-.61 9.023 3.986 10.405 7.176 2.935 6.77 15.242 10.42 22.215 2.576l.094-.2c-3.633-10.023-13.75-20.62-32.714-9.552" fill="#568515"/><path d="M2.942 21.856c4.034-.61 9.024 3.986 10.405 7.176 3.75 8.658 16.474 9.735 22.215 2.576-3.647-3.603-13.943-9.264-22.55-10.294 8.37-.53 18.702 3.928 22.644 10.093-5.918-16.324-18.24-17.998-32.714-9.55" fill="#82ba33"/><path d="M36.828 54.043c-2.25 0-4.247 1.11-5.503 2.792-.703-.244-1.48-.404-2.266-.404-2.885 0-5.335 1.804-6.353 4.33-.335-.05-.664-.08-1.012-.08-2.55 0-4.76 1.405-5.948 3.478h42.365c-1.188-2.073-3.398-3.48-5.948-3.48-.265 0-.513.013-.77.04-1.026-2.508-3.48-4.288-6.352-4.288-.933 0-1.817.227-2.63.566-1.245-1.775-3.26-2.954-5.584-2.954z" fill="#744c28"/></g></svg>