<!--Created with Inkscape (http://www.inkscape.org/)--><svg xmlns="http://www.w3.org/2000/svg" width="100" height="110"><path d="M56.292 54.748c-.466.898-11.432 16.39-14.624 25.54-3.193 9.147-2.997 17.35-2.997 17.35s-9.6 1.32-11.583.417c0 0-.044-16 12.794-31.15C52.72 51.75 60.417 45.407 61.154 42.614c.737-2.794-.644 4-4.86 12.133" fill="#2c612b"/><path d="M67.918 39.707s-7.15 12.165-9.503 23.02C56.062 73.584 53.42 93.81 53.42 93.81s-9.8 2.006-10.803 2.293c-1.003.287 5.05-29.215 8.597-36.232C54.76 52.856 64.22 37.605 64.22 37.605l3.698 2.103" fill="#408f36"/><path d="M59.58 45.22S48.15 58.864 38 68.742c-10.15 9.878-19.11 31.562-18.65 40.21 0 0-11.47.63-12.713-.26 0 0 1.915-20.977 8.6-28.634C21.92 72.4 38.76 59.35 49.17 52.283c10.41-7.065 14.186-14.91 14.186-14.91l.822 2.377s-2.547 3.372-4.598 5.47" fill="#387d33"/><path d="M15.563 70.142s-6.31-8.546-5.583-10.574c0 0 10.21-5.6 23.17-9.724 12.962-4.122 20.047-9.82 25.576-15.935 5.53-6.115 3.015 3.957-.908 7.537-3.924 3.58-30.2 17.217-42.255 28.695" fill="#2c612b"/><path d="M66.62 36.58s-2.02 2.748-4.767 6.018c-2.748 3.27-6.224 7.063-9.135 9.154-5.822 4.184-30.39 24.65-37.26 35.777 0 0-11.212-4.487-13.295-7.083 0 0 17.695-19.714 33.665-27.292 13.92-6.606 21.113-11.2 25.583-18.896 4.472-7.696 7.612 1.296 5.21 2.32" fill="#408f36"/><path d="M70.058 1.2c-1.648 6.667-3.46 14-4.488 17.575-2.04 7.095-6.536 12.985-9.722 16.577-3.186 3.593 4.072-.166 4.072-.166-2.263 4.813 2.327 3.49 2.327 3.49-2.177 5.53 3.614 1.87 3.614 1.87-.883 2.264.647 3.785 2.328.623 1.68-3.164 7.582-9.66 13.005-18.49C84.86 16.71 87.998 7.88 90 1.2H70.06z" fill="#eff3dc"/><path d="M71.422 19.192c.2-.744.8-1.228 1.344-1.083.544.145.823.865.623 1.61-.2.742-.8 1.227-1.345 1.08-.543-.144-.822-.865-.623-1.608M75.942 20.403c.2-.744.8-1.228 1.344-1.083.543.146.822.866.622 1.61-.2.743-.8 1.227-1.344 1.082-.543-.146-.822-.866-.622-1.61M78.91 17.197s-5.15-1.217-6.213-1.664c0 0 1.278-3.748 4.13-2.997 2.627.692 2.082 4.66 2.082 4.66" fill="#171717"/><path d="M96.938 19.298c.064 1.07-5.137 5.374-6.648 6.885-1.86 1.86-4.73-2.85-7.36-2.85-2.44 0 2.44 7.857 1.187 9.735-2.628 3.942-6.64 14.96-2.85 15.907" stroke="#acd1e3" fill="none" stroke-width="1.32954"/></svg>