<!--Created with Inkscape (http://www.inkscape.org/)--><svg xmlns="http://www.w3.org/2000/svg" width="150" height="150"><defs><clipPath id="a"><path d="M850.86 6831.69s-187.067-1.97-265.833-137.84c-78.76-135.87-106.332-393.82 92.55-484.4 198.884-90.58 226.45-66.96 226.45-66.96s-21.66-49.22 0-86.64c21.66-37.41 47.258-179.19 112.243-200.85 64.98-21.66 82.7 19.69 84.67 31.51 1.97 11.81-33.47-5.91-49.23-1.97-15.75 3.94-25.6 43.32-37.41 68.92-11.82 25.6-21.663 47.26-13.79 70.89 7.88 23.63 49.23 84.67 45.29 102.39 0 0 269.78 66.95 326.88 194.95 57.1 127.99 66.95 295.36-27.57 391.85-94.52 96.49-218.57 137.84-277.64 135.87 0 0 15.75 39.38 27.56 53.17 0 0-76.79-23.63-102.393-49.23 0 0-5.907 39.38-1.97 61.04 0 0-68.917-39.38-68.917-74.82 0 0-63.012 78.76-131.934 53.16 0 0 51.2-33.47 61.043-61.04z"/></clipPath></defs><path d="M78.482 67.163s13.136-23.908 16.44-28.88c3.303-4.97 26.192-18.752 26.192-18.752s6.375 2.773 5.1 3.697c-5.112 3.705-17.3 11.39-24.54 19.414-7.237 8.025-20.998 27.326-20.998 27.326l-2.194-2.803M76.414 57.978c.113-.527 9.275-38.534 18.17-54.374 0 0 4.44.215 5.387 1.092 0 0-7 20.1-9.723 26.318-2.723 6.218-14.133 33.89-15.896 38.155L73 68.716s2.43-6.154 3.414-10.74" fill="#7a1132"/><path d="M73.032 71.035s6.234-10.54 7.14-19.503c.905-8.962 5.354-33.038 7.618-39.788 0 0-8.142-3.248-10.56-3.076 0 0-4.282 14.924-3.556 21.282.726 6.358 3.3 25.71-2.25 38.906l1.608 2.18M77.168 71.66s21.905-27.73 28.084-32.34c6.18-4.61 16.777-8.393 16.777-8.393l5.31 11.685s-14.135 1.7-18.954 4.976c-4.82 3.275-27.867 26.44-27.867 26.44l-3.352-2.367" fill="#a9134d"/><path d="M73 68.717s10.532-25.54 15.157-35.63C92.782 22.995 106.553 7.05 108.233 6.15c0 0 8.673 6.337 10.925 8.762 0 0-18.984 19.778-22.41 24.036-3.426 4.26-18.695 31.46-18.695 31.46L73 68.718" fill="#c0105e"/><path d="M69.57 64.414s-13.325-9.206-25.682-3.534-27.193 22.533-17.656 38.873c9.537 16.34 12.666 16.048 12.666 16.048s-3.99 2.4-4.33 6.127c-.336 3.727-5.61 15.03-2.097 19.81 3.514 4.776 6.833 2.738 7.562 2 .73-.736-2.66-1.253-3.58-2.32-.916-1.065.355-4.34.8-6.74.442-2.402.828-4.425 2.566-5.703 1.737-1.277 7.71-3.527 8.317-4.977 0 0 22.42 8.744 32.852 2.547 10.43-6.197 19.49-17.54 17.627-29.084-1.863-11.544-8.568-20.665-12.843-23.477 0 0 3.082-1.998 4.606-2.383 0 0-6.61-2.165-9.7-1.634 0 0 1.55-3.08 2.91-4.415 0 0-6.84-.657-8.61 1.85 0 0-.52-8.718-6.673-10.35 0 0 1.948 4.923 1.267 7.364" fill="#a61444"/><g clip-path="url(#a)" transform="matrix(.0707 .04996 .04996 -.0707 -331.892 504.948)"><path d="M526.363 6490.81s10.203-177.28 68.91-190.75c58.71-13.47 181.387 6.04 220.145 14.24 38.754 8.2 96.254 10.39 121.254 6.8 25-3.6-63.914-37.17-129.457-51.64-65.543-14.46-124.676-37.99-67.61-34.97 57.067 3.01 203.7 47.75 310.385 29.13 106.68-18.62 211.31-9.49 255.25 22.19 43.93 31.69-53.57 18.61-86.07 22.65-32.5 4.04 91.39 15.41 130 33.28 38.62 17.88 66.78 95.47 66.78 95.47s-2.15-172.47-110.71-253.59c-108.57-81.12-218.57-71.29-218.57-71.29S1007.75 6005 1035.96 5960c28.21-45 95.71-45 88.21-75s-54.59-77.5-114.79-52.5c-60.208 25-92.638 130-111.423 165-18.785 35-14.027 114.83-14.027 114.83s-397.875 36.79-357.567 378.48" fill="#8c1432"/></g><path d="M73.296 89.016c-.53.75-1.404 1.044-1.952.657s-.562-1.31-.032-2.06c.53-.748 1.403-1.042 1.95-.655.55.387.563 1.31.034 2.058M63.538 82.122c-.53.75-1.403 1.044-1.95.656-.55-.386-.563-1.308-.034-2.058.53-.75 1.404-1.044 1.95-.657.55.388.564 1.31.034 2.06" fill="#040606"/><path d="M62.363 85.102s5.3 3.43 6.266 4.427c0 0-3.985 5.09-6.872 3.075-2.656-1.854.605-7.503.605-7.503" fill="#430a21"/><path d="M24.3 87.274s3.678 4.32 5.822 5.053c2.144.732 8.458 5.976 11.094 6.9 0 0-3.705-.74-6.942-3.027-3.237-2.288-5.78-2.676-6.99-3.844-1.21-1.167-2.887-3.448-2.984-5.082M27.158 96.964s3.826 4.113 8.9 5.35c0 0-6.26-.666-8.9-5.35M38.46 113.404s4.19-.328 7.14 2.07c2.95 2.398 3.86 6.797 3.938 7.167.08.37-2.178-4.36-4.98-6.65-2.804-2.29-6.097-2.586-6.097-2.586M53.17 115.397s8.565 4.198 12.742 7.15c4.177 2.95 9.695 4.67 10.324 4.443-1.672-.29-5.926-.476-10.94-4.017-5.01-3.542-12.127-7.576-12.127-7.576M37.094 65.473s2.392.75 4.956 2.144c2.563 1.394 7.29 3.273 8.952 5.647 0 0-2.714-2.068-6.845-4.05-4.13-1.982-5.724-3.42-7.063-3.74M94.777 111.9s-3.996-3.797-5.53-5.613c-1.536-1.815-5.136-4.254-7.798-5.51 0 0 5.137 3.365 7.305 5.76 2.17 2.398 6.022 5.364 6.022 5.364M96.947 105.727s-1.084-3.635-4.736-6.738c0 0 3.432 4.3 4.737 6.737M61.218 66.707s8.446 6.437 11.487 8.115c3.04 1.68 7.218 4.63 7.493 6.234 0 0-4.84-4.67-8.25-5.828-3.408-1.157-10.73-8.52-10.73-8.52" fill="#4e0b23"/></svg>