<!--Created with Inkscape (http://www.inkscape.org/)--><svg xmlns="http://www.w3.org/2000/svg" width="150" height="150"><defs><clipPath id="a"><path d="M925.598 5230.68c-82.36-2.22-420.496-128.97-420.684-442.94-.168-281.56 200.324-469.65 471.875-489.68 271.55-20.03 581.62 194.31 583.17 505.26 1.69 340.56-378.39 420.69-438.49 427.36 0 0 28.93 75.68 82.35 117.97 0 0-55.64 6.68-93.48-11.13 0 0-2.23 55.65-24.48 120.2 0 0-91.262-62.33-106.844-84.58 0 0-51.196 35.61-84.582 51.19 0 0 42.293-155.81 31.164-193.65z"/></clipPath></defs><path d="M53.866 134.005s-4.738 2.06-4.55 4.253c.19 2.19 7.204 0 7.204 0s.947 5.413 3.032 5.602c2.084.19 4.99-3.222 4.99-3.222s2.78 3.616 4.676 3.23c1.895-.387 4.36-3.23 4.36-3.23s2.287 4.67 4.548.947c0 0 3.41 3.98 4.548-.947 0 0 4.095 4.525 4.795-2.38 0 0 10.24 1.58 5.563-3.328-4.674-4.906-39.167-.925-39.167-.925" fill="#4f452b"/><path d="M64.038 32.23c-9.35.252-47.74 14.642-47.76 50.288-.02 31.965 22.742 53.32 53.57 55.593 30.83 2.275 66.033-22.06 66.21-57.36.19-38.665-42.96-47.762-49.783-48.52 0 0 3.284-8.592 9.35-13.393 0 0-6.318-.758-10.614 1.264 0 0-.252-6.317-2.778-13.646 0 0-10.36 7.077-12.13 9.603 0 0-5.812-4.043-9.602-5.812 0 0 4.8 17.69 3.537 21.985" fill="#f8dfe1"/><g clip-path="url(#a)" transform="matrix(.114 0 0 -.114 -41.046 626.073)"><path d="M525.723 4952.51S483.5 4702.86 667.73 4511.66c184.235-191.21 608.39-72.57 733.57 24.74 125.18 97.31 191.92 335.84 158.66 382.49 0 0 138.44-634.38-425.76-675.81-564.192-41.42-739.427 393.61-608.477 709.43" fill="#cab3b6"/></g><path d="M60.752 37.284s-29.818 13.14-32.85 41.696c-2.447 23.033 17.183 49.024 17.183 49.024s-19.117-29.16-15.668-50.288c4.044-24.764 31.335-40.432 31.335-40.432" fill="#ce9ea3"/><path d="M64.543 42.085S44.833 63.06 44.58 85.297c-.253 22.237 16.172 44.674 16.172 44.674S45.337 103.066 46.096 86.03c1.01-22.716 18.447-43.943 18.447-43.943M84 40.064s26.913 50.54-3.538 89.907c0 0 27.292-34.06 3.54-89.906" fill="#ce9ea3"/><path d="M95.877 40.064s25.523 17.183 24.765 42.58c-.76 25.396-25.523 46.875-25.523 46.875s23.248-24.007 24.006-46.876c.757-22.87-23.25-42.58-23.25-42.58M67.828 31.725s9.574-1.26 15.92 0c0 0-10.36.757-15.92 0M82.232 29.198s2.526-3.286 1.516-7.834l-1.516 7.834M77.178 29.198s1.515-14.657 3.284-18.7c0 0-5.81 12.382-3.284 18.7M73.81 38.93s-2.823 41.795-2.026 92.106c0 0 5.108-61.528 2.025-92.105" fill="#ce9ea3"/><path d="M83.833 66.336c0 1.394-.825 2.525-1.845 2.525-1.018 0-1.845-1.13-1.845-2.524 0-1.394.827-2.525 1.845-2.525 1.02 0 1.845 1.132 1.845 2.526M65.687 66.336c0 1.394-.826 2.525-1.845 2.525-1.02 0-1.845-1.13-1.845-2.524 0-1.394.826-2.525 1.845-2.525 1.02 0 1.845 1.132 1.845 2.526" fill="#171717"/><path d="M66.84 71.06s9.582-.387 11.652 0c0 0-.478 9.81-5.825 9.84-4.92.03-5.826-9.84-5.826-9.84" fill="#442c2f"/></svg>