<!--Created with Inkscape (http://www.inkscape.org/)--><svg xmlns="http://www.w3.org/2000/svg" width="150" height="150"><defs><clipPath id="a"><path d="M4003.03 7499.29c-169.8 4.36-332.79-105.57-362.63-190.49-29.84-84.92-94.1-330.5-117.05-381-22.95-50.49-169.84-234.1-183.61-348.86-13.77-114.75 34.42-410.82 403.94-456.73 369.52-45.9 599.03 71.15 647.23 289.19 48.2 218.04-89.51 507.22-100.99 562.31-11.47 55.08 71.15 516.4-286.89 525.58z"/></clipPath></defs><path d="M118.023 7.374C101.286.57 80.94 5.4 74.783 12.734c-6.154 7.332-21.762 29.365-25.94 33.53-4.178 4.165-25.686 16.93-31.36 27.837-5.676 10.906-11.985 42.183 23.073 60.613s62.293 15.387 75.27-4.507c12.975-19.895 10.115-53.844 11.04-59.758.923-5.912 26.45-48.73-8.843-63.074" fill="#c79651"/><g clip-path="url(#a)" transform="matrix(.1 .038 .038 -.1 -561.707 603.66)"><path d="M3513.34 6909.44s-140.73-242.96-140.7-292.41c.03-49.45 90.95-260.21 308.31-361.14 217.36-100.92 512.88 22.62 611.42 89.06 98.54 66.45 38.1 513.89 38.1 513.89s131.2-258.05 146.2-360.95c15-102.89 22.18-442.89-566.41-522.89-588.59-80-823.59 371.91-698.59 635.96 125 264.04 301.67 298.48 301.67 298.48" fill="#b58649"/></g><path d="M98.435 55.287c-.463 1.23-1.568 1.953-2.466 1.614-.9-.337-1.254-1.61-.79-2.84.463-1.23 1.568-1.95 2.467-1.613.9.34 1.252 1.61.788 2.84M79.684 48.22c-.464 1.23-1.568 1.954-2.468 1.615-.9-.34-1.25-1.61-.788-2.84.464-1.23 1.568-1.953 2.467-1.614.9.34 1.253 1.61.79 2.84" fill="#171717"/><path d="M81.616 65.194c-9.325-3.514-9.867-9.487-9.885-9.74-.02-.292.2-.547.492-.57.293-.02.548.2.57.49.02.235.56 5.57 9.2 8.825 10.19 3.84 12.93-.305 12.955-.347.156-.25.487-.326.733-.17.25.157.325.485.17.734-.128.203-3.236 4.922-14.234.777" fill="#040606"/><path d="M96.59 65.336c-.886-.334-1.496-.84-1.818-1.507-.654-1.36.183-2.818.22-2.88.147-.252.475-.334.726-.19.254.148.338.472.19.726-.02.032-.582 1.05-.175 1.886.314.645 1.18 1.09 2.507 1.28.295.04.492.312.45.6-.04.293-.31.494-.602.452-.563-.082-1.064-.205-1.497-.368M69.297 56.628c-.214-.08-.36-.294-.342-.535.02-.292.274-.513.567-.493.035.002 3.64.22 3.855-1.965.03-.292.29-.506.582-.477.293.03.505.29.475.582-.253 2.57-3.374 3.035-4.988 2.92-.052-.003-.102-.014-.15-.032" fill="#040606"/><path d="M113.994 29.662c-4.043-1.524-4.917 5.777-4.084 8.243.83 2.466 6.7 5.068 8.35 4.32 1.652-.746 2.245-10.11-4.266-12.563M133.567 20.608c-5.833-5.976-10.818-1.196-10.973 3.368-.154 4.564 2.552 13.997 6.708 14.39 4.157.392 9.715-12.176 4.265-17.758M39.622 63.464c-3.507-2.033-15.108 13.09-6.393 16.963 8.715 3.87 11.21-14.17 6.392-16.963M42.562 99.793c-4.886.656-6.94 11.668.51 16.823 7.45 5.155 14.394-6.12 11.077-10.5-3.318-4.38-6.228-7.043-11.588-6.323M111.975 111.863c-2.833-2.05-10.528 4.055-12.268 7.116-1.742 3.06.116 7.478 3.435 8.533 3.32 1.056 15.597-10.753 8.833-15.65" fill="#b08145"/><path d="M119.127 67.643c-1.433-3.116-4.216-4.433-7.54-4.565-.607-.025-.642.79-.14.987 1.38.546 2.805.718 4.103 1.484 1.165.687 1.57 2.172 2.645 2.987.576.438 1.182-.35.932-.894M126.15 55.21c-.042-.515-.71-.622-.89-.128-.237.66-.486 1.318-.963 1.848-.414.463-.905.802-1.274 1.31-.137.19.01.43.198.5 2.004.73 3.048-2 2.93-3.53M123.11 43.785c.005-.492-.45-.82-.917-.726-1.104.223-1.568.703-1.932 1.746-.064.196-.023.386.08.543.018.31.135.593.364.876.197.244.652.32.915.143.96-.654 1.482-1.395 1.49-2.585M107.228 89.23c.037-.625-.292-.963-.738-1.116-.126-.185-.345-.207-.525-.098-.478-.018-.99.104-1.34.32-.5.304-.915.845-.864 1.457.07.833.77 1.362 1.462 1.712.423.212.954.054 1.09-.434.044-.153.08-.306.12-.458.464-.206.77-.954.796-1.382M74.638 94.2c-.403-.638-.683-1.263-.337-1.992.35-.742 1.01-1.398 1.695-1.832.38-.24.17-.932-.3-.77-1.19.404-2.312 1.166-2.874 2.32-.632 1.304.073 2.654 1.527 2.758.238.017.42-.28.29-.483M93.736 107.163c-.07-.303-.048-.536 0-.84.062-.378-.367-.626-.63-.368-.082-.096-.173-.182-.28-.245-.1-.06-.27-.06-.35.038-.448.54-.116 1.283.137 1.854.288.65 1.27.214 1.123-.44M25.364 102.46c-.987-3.248-4.864-4.808-6.788-7.53-2.024-2.864-1.862-6.33-2.88-9.508-.112-.355-.622-.07-.383.21l.267.377c.005.01.012.003.016.014-.136.527-.172 1.87-.168 1.902.108.986.183 1.95.195 2.944.017 1.475.296 3.045.905 4.392 1.394 3.086 4.726 6.95 7.94 8.072.504.175 1.048-.366.895-.87M94.577 124.098c-.05-.65-1.03-.69-1.03-.013 0 .917-.124 1.786-.36 2.67-.237.884-.942 1.615-1.078 2.506-.04.267.15.535.447.462 1.998-.496 2.142-4.02 2.02-5.624M33.613 109.085c.03-.116.06-.23.08-.342.055-.298-.22-.537-.505-.4-1.46.702-1.717 2.837-.624 3.956.42.43 1.004.28 1.34-.15.71-.903.696-2.488-.29-3.064M42.995 89.52c-.205-.132-.468-.045-.596.148-.18.27-.244.587-.326.896-.013-.05-.03-.112-.04-.156-.07-.367.24-.767.302-1.116.058-.326-.203-.72-.58-.596-1.577.514-1.642 2.846-.28 3.633 1.773 1.025 3.098-1.8 1.52-2.81M51.122 61.83c.025-.325-.217-.512-.49-.556.035-.212.064-.425.074-.637.02-.473-.554-.53-.797-.227-.512.638-1.132 1.5-.38 2.194.653.602 1.533-.003 1.592-.773M76.23 139.81c-1.68-2.816-4.857-7.386-8.612-7.388-4.268-.002-6.488 3.912-10.442 4.83-.37.086-.373.63-.01.73 2.37.646 4.303-.98 6.152-2.274 5.617-3.933 8.177 1.924 12.467 4.53.266.162.612-.152.446-.43M79.047 12.087c-.918.046-1.77.627-2.105 1.495-.322.83 1.064 1.43 1.445.622.246-.522.578-.944.947-1.386.213-.257.126-.75-.287-.73M84.61 11.554c.003-.29-.288-.57-.587-.503l.003-.007c.14-.198-.127-.47-.33-.342-1.046.656-1.968 1.325-2.585 2.44-.39.71.345 1.4 1.047 1.09.987-.44 2.44-1.476 2.45-2.678" fill="#75471f"/><path d="M43.247 90.336c-.01-.126-.04-.254-.086-.378.03-.338-.135-.625-.394-.88-.008-.01-.013-.026-.02-.037-.215-.355-.583-.425-.95-.277l-.016.007c-.244.1-.335.373-.365.606-.005.048.007.1.006.15-.043.116-.052.252.006.412.025.07.04.143.057.215l.01.05c-.01.05-.03.104-.042.144-.062.206.048.374.212.46.23.592.998.562 1.236.136.217-.096.373-.297.35-.606M51.497 61.992c.045-.395.025-.732-.06-1.12-.006-.01-.012-.014-.014-.023-.013-.083-.012-.163-.03-.246-.163-.758-1.206-.694-1.43-.02l-.075.228c-.022.033-.057.046-.07.087-.034.112-.056.213-.068.317-.008.02-.024.04-.032.06-.04.044-.072.106-.093.177-.018.05-.052.09-.074.14-.097.232-.044.42.082.553.052.3.33.5.618.55.4.36.98.057 1.153-.396.047-.096.084-.2.093-.31M94.396 107.22c-.013-.12-.032-.234-.053-.346.02-.267-.02-.55-.11-.817-.038-.196-.13-.376-.268-.525-.036-.052-.07-.11-.11-.156-.286-.32-.755-.297-1.068-.052-.064.027-.124.065-.178.11-.348.232-.63.597-.744.926-.15.437.024.824.33 1.103.01.013.022.023.034.035.03.026.063.05.097.073.243.208.555.317.898.367.495.168 1.243-.048 1.17-.716M107.673 89.567c-.034-.648-.454-1.05-1.026-1.28-.244-.1-.497-.116-.742-.085-.028 0-.055 0-.082.004-.023.004-.045.01-.067.015-.082.015-.16.04-.234.078-.7.267-1.227.988-1.068 1.773.25 1.235 1.573 1.97 2.568.993.187-.185.3-.384.383-.586.183-.257.286-.58.267-.91M34.54 111.253c.526-.575.412-1.352-.006-1.956-.05-.135-.108-.265-.174-.375-.224-.37-.69-.568-1.107-.426-1.105.162-1.73 1.705-1.345 2.645.157.39.47.593.83.67.064.092.12.185.21.27.128.12.316.035.333-.124.52.098 1.132-.18 1.26-.704M21.912 74.41c.122-.636-.724-1.074-1.083-.467-.17.285-.318.58-.494.86-.16.254-.404.43-.54.698-.21.408.023.984.537.967 1.06-.032 1.412-1.188 1.58-2.057" fill="#75471f"/></svg>