<!--Created with Inkscape (http://www.inkscape.org/)--><svg xmlns="http://www.w3.org/2000/svg" width="150" height="150"><path d="M110.183 39.466c.633-12.578-18.76-11.72-26.752-8.625 1.182-8.23 1.528-15.04-5.51-20.902-3.927-3.272-19.667-5.053-14.884 3.85 4.96 1.17 7.526 2.578 10.097 7.21 1.52 2.735 3.994 9.045 1.275 10.623l-3.4.566c-9.482-1.102-22.32-8.17-27.87 4.463-23.365-6.215-18.892 29.81-17.45 41.99 1.105 9.31 3.97 18.63 6.356 27.758 1.867 7.135 4.395 19.415 11.052 23.947 1.813 1.235 3.858.788 5.82 1.544 2.662 1.02 2.723 1.474 4.375 4.12 1.977 3.176 4.3 6.303 7.663 8.203 8.645 4.882 14.945 1.997 21.36-3.95 4.543-4.214 5.986-2.037 11.356-2.143 4.218-.08 7.357-2.325 10.746-4.672 7.447-5.16 10.837-11.608 14.02-19.688 5.327-13.517 10.376-27.156 10.356-41.92-.02-12.956-2.054-31.592-18.61-32.374" fill="#db351d"/><path d="M83.583 30.786c-.05.02-.103.036-.152.055.04-.26.072-.52.108-.78 0-.75.113-1.54.294-2.345.745-6.852.215-12.676-5.91-17.777-3.93-3.272-19.67-5.053-14.886 3.85 4.96 1.17 7.526 2.578 10.097 7.21 1.52 2.735 3.994 9.045 1.275 10.623l-1.266.213c-.196.503-.42 1.02-.7 1.562-2.586 5.02-5.3 1.403-9.76 2.415-.59 4.05-5.862 8.19-9.754 8.738 5.494 1.712 10.075 4.8 14.102 9.345 6.852-7.917 19.087-10.548 27.078-2.352.198-2.774-.665-4.72.745-7.304 1.377-2.522 3.474-3.336 5.64-4.34-3.77.016-10.687-3.35-13.926-5.066-2.007-1.065-2.806-2.464-2.984-4.044" fill="#577517"/><path d="M44.618 38.21c.983 1.173 2.297 1.723 3.564 2.516 1.47.923 2.458 2.477 3.863 3.49.157.114.38-.11.268-.267-2-2.767-4.718-4.196-7.553-5.922-.12-.072-.223.085-.142.182M102.256 40.49c.896-.297 2.147-.154 3.085-.242.938-.086 1.853-.034 2.792-.043.172 0 .31-.248.154-.372-.773-.605-2.043-.376-2.945-.273-.962.108-2.46.017-3.247.65-.13.105.01.328.163.278M92.666 33.11c.418-.93 1.817-1.157 2.7-1.39 1.073-.284 2.037-.25 3.125-.175.187.012.24-.252.092-.34-1.198-.705-2.85-.252-4.078.158-.78.26-2.03.698-2.046 1.69 0 .106.16.16.208.057M53.236 32c.972-.645 2.393-.564 3.525-.607 1.312-.05 2.418.213 3.573.815.16.082.393-.098.27-.268-.776-1.062-2.21-1.162-3.43-1.18-1.246-.02-3.237-.035-4.122 1-.107.126.032.344.186.24" fill="#e19016"/><path d="M55.893 32.313c.85-.204 1.665.215 2.51.22.144 0 .226-.227.078-.29-.794-.343-1.88-.605-2.67-.13-.105.065-.035.227.083.2M101.763 98.99c-.084.496-.425.866-.357 1.384.018.137.21.185.254.034.137-.46.332-.898.327-1.386 0-.125-.2-.16-.224-.03" fill="#e19016"/><g fill="#171717"><path d="M91.866 82.068c0 1.597-.946 2.892-2.114 2.892-1.167 0-2.114-1.295-2.114-2.892 0-1.598.947-2.892 2.114-2.892 1.168 0 2.114 1.294 2.114 2.892M67.518 82.068c0 1.597-.946 2.892-2.113 2.892-1.168 0-2.114-1.295-2.114-2.892 0-1.598.947-2.892 2.115-2.892 1.167 0 2.113 1.294 2.113 2.892M76.137 100.5c-10.496 0-12.292-6.636-12.365-6.92-.084-.334.12-.672.454-.757.334-.086.672.118.76.45.06.243 1.674 5.976 11.15 5.976 11.324 0 13.342-5.95 13.362-6.01.104-.33.454-.51.784-.407.33.105.51.456.408.785-.09.28-2.325 6.88-14.553 6.88"/><path d="M91.692 94.263c-.9 0-1.635-.253-2.195-.757-1.357-1.218-1.055-3.412-1.04-3.505.05-.34.368-.58.705-.526.34.05.58.365.53.706 0 .016-.217 1.63.643 2.4.538.48 1.437.56 2.677.243.333-.084.675.115.76.45.087.333-.114.675-.45.76-.59.153-1.136.23-1.63.23M61.49 94.825h-.063c-.344-.01-.614-.296-.605-.64.01-.345.294-.64.64-.61.023 0 1.84.03 2.65-1.04.48-.636.527-1.586.144-2.82-.103-.33.083-.68.41-.784.333-.102.682.085.783.413.51 1.647.394 2.976-.347 3.95-1.107 1.46-3.21 1.532-3.612 1.532"/></g><path d="M-3.49 124.055c-.13-.75-1.24-.88-1.384-.065-.068.384-.107.77-.185 1.152-.07.345-.265.638-.305.99-.06.535.434 1.07.993.84 1.15-.474 1.06-1.892.883-2.917" fill="#75471f"/></svg>