<!--Created with Inkscape (http://www.inkscape.org/)--><svg xmlns="http://www.w3.org/2000/svg" width="150" height="150"><defs><clipPath id="a"><path d="M2370.97 5151.15c-106.09 2.11-285.31-45.39-328.53-220.46-41.46-167.89 159.49-323.78 233.24-368.7-6.78 8.56-6.13 14.45 2.35 13.15 14.05-2.16 42.15-21.56 58.36-13.48 16.21 8.07 64.84 23.26 63.76 0-1.08-23.27 41.06-.57 58.36 6.99 13.32 5.83 36 1.96 29.2-13.54 60.72 38.97 152.92 99.64 186.94 197.26 49.71 142.65 21.61 392.3-303.68 398.78z"/></clipPath></defs><path d="M74.297 67.125c-6.443-6.132-20.215-13.332-32.79-4.948-12.062 8.04-8.45 29.048-6.43 35.998.064-.913.438-1.24.89-.68.746.928 1.386 3.717 2.846 4.134 1.46.417 5.326 2.228 3.944 3.606-1.384 1.378 2.507 2.357 4.004 2.87 1.155.39 2.34 1.914 1.042 2.488 5.96 1.024 15.094 2.487 22.72-1.627 11.144-6.01 23.527-23.04 3.775-41.842" fill="#e31744"/><g clip-path="url(#a)" transform="matrix(.062 .057 .057 -.062 -363.728 251.612)"><path d="M2042.44 4930.69s9.65-158.42 146.07-250.24c136.41-91.82 212.49-72.6 270.21-45.48 57.71 27.12 78.41 38.92 78.41 38.92s-63.99-14.43-66.61-6.56c-2.62 7.87 141.33 54.38 182.33 124.22 40.99 69.85 22.09 185.08 22.09 185.08s94.24-193.87 19.02-285.69c-75.22-91.81-182.63-209.21-328.3-188.55-145.67 20.66-364.36 185.34-323.22 428.3" fill="#bf1646"/></g><path d="M28.17 120.346s-.278 1.31.24 2.154c.518.842.616 1.943.245 2.25-.37.304-2.38-1.626-2.457-2.248-.075-.622 1.972-2.156 1.972-2.156M29.17 112.608s-3.917.56-4.877.602c-.96.043.097 1.102.765 1.53.668.426 1.07.793 1.5.725.43-.067 2.613-2.857 2.613-2.857" fill="#f4a9b2"/><path d="M46.76 108.105c-1.496-.51-5.387-1.49-4.003-2.87 1.382-1.377-2.485-3.188-3.944-3.606-1.46-.418-2.1-3.207-2.847-4.136-.45-.56-.825-.232-.89.68.087.298.172.58.25.824 1.934 5.94-.802 7.857-2.658 9.35-1.858 1.494-7.974 8.45-9.698 11.14-1.27 1.983-3.758 7.734-2.91 13.786.847 6.053 7.047 7.06 9.366 5.865 2.026-1.044 2.41-.496 2.474-.34-.06-.183-.52-1.39-2.343-1.013-1.97.41-5.08-.35-5.644-1.48-.563-1.128.433-1.813-.715-3.11-1.148-1.294 1.176-8.13 4.293-11.538 3.12-3.41 10.884-10.425 14.55-11.614.938-.304 3.013.075 5.762.548 1.297-.574.113-2.097-1.04-2.49" fill="#f4a9b2"/><path d="M54.54 106.013c-.466-.225-1.04-.207-1.536-.358-.246-.076-.466.24-.235.408.485.36 1.194.617 1.766.304.147-.08.165-.275.003-.354M49.556 100.25c-.28-.19-.604-.207-.93-.273-.506-.1-.924-.41-1.132-.88-.127-.285-.604-.188-.547.14.104.593.398 1.02.917 1.324.465.275 1.23.44 1.69.096.13-.096.14-.312.002-.406M62.556 100.34c-1.06.134-2.044.786-3.06.11-.26-.17-.653.158-.412.41.962 1.014 2.728.75 3.655-.2.125-.13-.027-.34-.184-.32M67.674 104.086c-.27-.053-.543.022-.8-.112-.25-.132-.443.248-.24.415.354.288.83.297 1.152-.032.097-.097 0-.25-.112-.272M66.75 93.062c-.596-.218-1.257-.017-1.873-.236-.347-.123-.637.337-.328.57.613.462 1.64.523 2.244-.006.103-.09.103-.275-.043-.328M54.346 96.024c-.21-.123-.44-.184-.666-.27-.312-.117-.57-.4-.78-.65-.283-.34-.746.04-.534.407.325.56 1.32 1.502 1.98.866.09-.09.137-.272 0-.352M41.186 97.29c-.085-.217-.242-.372-.387-.55-.224-.28-.323-.627-.454-.95-.08-.2-.35-.147-.392.047-.134.646.265 1.788 1.064 1.735.135-.008.216-.163.168-.283M76.808 95.28c-.565-.084-1.092.015-1.63-.24-.412-.195-.67.45-.27.65.637.32 1.487.46 2.034-.086.113-.113.002-.305-.134-.325M78.903 86.383c-.47-.094-.897.043-1.314-.277-.27-.207-.586.206-.32.418.465.375 1.196.515 1.707.14.116-.085.056-.255-.074-.28" fill="#9f1735"/><path d="M65.757 83.742c-.658.72-1.618.914-2.144.432-.526-.48-.42-1.454.24-2.174.658-.72 1.618-.913 2.144-.432.526.48.42 1.454-.24 2.174M58.61 77.207c-.657.72-1.617.913-2.143.432-.526-.482-.42-1.456.24-2.176.657-.72 1.618-.912 2.143-.432.527.482.42 1.455-.24 2.175M56.603 84.224c-1.39-1.27-1.073-2.942-.712-3.647.107-.206.36-.287.566-.182.202.103.286.357.182.562-.03.06-.728 1.498.53 2.648 1.497 1.37 2.635.418 2.683.376.176-.15.44-.13.592.045.15.175.132.44-.044.59-.6.518-2.164 1.1-3.795-.39" fill="#171717"/><path d="M74.537 68.204c-2.998-2.894-7.662-5.043-5.638-1.35 2.023 3.69 9.693 10.338 10.158 9.29.467-1.046.413-3.178-4.52-7.94" fill="#9f1735"/><path d="M72.052 68.453s10.382-14.386 11.755-24.545C85.18 33.748 94.48 13.715 100.4 14.893c5.92 1.178-.962 12.93-.962 12.93s15.687-25.61 30.263-15.776c14.577 9.832-21.92 22.667-25.116 24.9 0 0 6.847-.734 7.737 2.842.89 3.575-12.7 7.163-16.804 10.04-4.104 2.874-15.93 18.595-18.53 20.06-2.603 1.464-3.352 1.698-4.934-1.437" fill="#459c38"/><path d="M73.91 68.835S83.822 56 88.994 46.13c5.173-9.87 20.522-28.61 37.854-32.574 0 0-16.965 6.446-29.494 22.638C87.3 49.188 82.152 59.984 73.91 68.834" fill="#3b8334"/><path d="M98.182 21.605s-6.08 10.68-7.42 21.45l-1.768 3.074s1.434-13.44 9.188-24.525M93.298 41.424s8.678-2.79 14.785-1.974c0 0-8.18 1.567-15.774 3.615l.988-1.64" fill="#3b8334"/><path d="M71.142 67.62s5.266-12.803.97-18.574c-4.298-5.77-13.122-7.396-12.1-12.54 1.02-5.14 9.498-6.963 15.01 2.313 0 0-1.567-11.376 4.106-13.553 5.673-2.176 7.037 14.906 5.063 22.675-1.972 7.77-9.062 17.916-11.124 19.837-2.06 1.92-1.924-.16-1.924-.16" fill="#51b837"/><path d="M72.45 67.5s12.76-13.955 8.17-36.63c0 0 4.174 18.57-8.17 36.63" fill="#3b8334"/><path d="M66.105 35.338s9.914 4.387 14.216 14.305l-.515 1.395s-.673-6.16-13.7-15.7" fill="#3b8334"/><path d="M74.55 70.74s6.25-3.008 8.165-8.928c1.916-5.92 10.587-20.636 16.474-18.014 5.887 2.623-3.67 10.454-3.67 10.454s13.82-9.272 21.775-1.26c7.955 8.012-14.472 7.57-15.057 7.404-.584-.166 12.76 5.778 6.474 11.444-6.287 5.665-22.605-2.26-25.952-1.824-3.346.44-6.58 3.372-6.58 3.372s-2.46-.952-1.63-2.65" fill="#51b837"/><path d="M75.828 71.906s9.143-6.424 14.89-11.84c5.748-5.416 16.606-9.047 23.16-6.106 0 0-12.45-1.45-20.708 5.3-8.26 6.75-14.41 11.432-17.342 12.646" fill="#3b8334"/><path d="M96.372 48.183s-7.115 9.816-8.67 14.57l-1.144.96s3.16-8.58 9.814-15.53M91.406 60.695s9.16 1.23 14.96 6.535c0 0-9.643-5.314-16.045-5.658 0 0 .338-1 1.086-.877" fill="#3b8334"/></svg>