<!--Created with Inkscape (http://www.inkscape.org/)--><svg xmlns="http://www.w3.org/2000/svg" width="150" height="150"><defs><clipPath id="a"><path d="M7358.51 6565.15c-1.91-11.65-4.42-23.57-7.91-35.55-22.63-77.81-64.54-5.94-109.7-23.7-45.16-17.76-18.64-74.88-95.02-100.19-76.37-25.32-106.85 88.06-189.34 55.24-73.74-29.34-74.39 34.08-120.61 32.38-46.21-1.69-56.22-28.94-84.26-61.72-28.04-32.78-92.32 5.1-134.92 38.19-27.53 21.38-32.3 63.5-32.25 90.71-15.21-99.32 25.77-275.33 160.49-347.35 153.45-82.04 190.11-73.56 190.11-73.56s57.04-88.35 43.61-118.08c-13.44-29.74-65.56-138.33-13.81-192.28 51.75-53.95 96.66-14.93 96.66-14.93s-69.06-12.31-74.86 41.61c-5.81 53.92 14.24 57.89 14.24 57.89s53.5-31.24 73.96-13.2c0 0-48.46 18.09-53.35 43.59-4.9 25.5-.1 56.57 6.68 66.13 6.78 9.56 62.05 46.97 41.39 142.06 0 0 176.48 39.37 250.01 131.03 55.11 68.71 62.13 190.21 38.88 281.73z"/></clipPath></defs><path d="M96.098 101.78c-.69.784-1.436 1.56-2.258 2.294-5.342 4.77-5.115-2.58-9.332-3.364-4.216-.786-4.905 4.738-11.815 3.055-6.91-1.68-3.88-11.606-11.6-13.012-6.9-1.257-3.977-6.04-7.52-8.078-3.542-2.04-5.57-.466-9.207.677-3.637 1.142-6.68-4.71-8.32-9.184-1.062-2.893.555-6.272 1.833-8.31-5.794 6.73-10.97 21.84-4.25 33.55 7.654 13.34 10.798 14.42 10.798 14.42s.135 9.295-2.265 10.893c-2.4 1.6-11.395 7.295-10.045 13.763 1.35 6.468 6.544 5.648 6.544 5.648s-5.752-2.313-3.66-6.625c2.09-4.313 3.78-3.67 3.78-3.67s2.545 4.847 4.923 4.454c0 0-2.783-3.627-1.955-5.767.828-2.14 2.643-4.244 3.6-4.643.956-.398 6.85-.612 9.758-8.706 0 0 15.07 5.32 24.875 1.897 7.35-2.566 13.57-11.34 16.115-19.29" fill="#fdddcb"/><g clip-path="url(#a)" transform="matrix(.07494 .04686 .04686 -.07494 -762.96 248.93)"><path d="M6613.2 6365.02s45.97-120.36 207.63-166.61c0 0-42.49 18.39-70.82 47.49-28.34 29.1 44.07-18.44 90.29-37.58 61.37-25.41 128.04-23.32 223.04-9.99 95 13.34 181.67 72.59 201.67 97.13 0 0-36.67-57.13-140-100.46 0 0 142.31-6.75 211.99 124.12 0 0-36.99-109.12-131.99-149.12s-113.34-42.13-113.34-42.13-38.33-159.54 13.34-204.54c51.66-45 13.38-176.66-86.65-148.33-100.02 28.33-106.69 235-106.69 235s-266.88 195.14-298.47 355.02" fill="#e6c2b3"/></g><path d="M54.536 101.393l-.02-.013c-.387-.227-.517-.724-.29-1.11.634-1.082.13-1.908-.555-2.32-.63-.382-1.788-.567-2.42.456-.238.38-.74.487-1.118.264-.38-.238-.5-.736-.264-1.118 1.108-1.792 3.213-1.845 4.64-.993 1.343.81 2.267 2.57 1.12 4.53-.224.38-.708.512-1.09.3M53.65 107.905c-.063-.03-.12-.067-.18-.104-1.267-.804-2.073-2.534-1.07-4.156.23-.366.687-.494 1.078-.254.365.23.48.71.254 1.078-.535.867.05 1.677.577 2.012.278.175 1.24.662 1.97-.46.235-.36.71-.473 1.082-.227.362.237.465.72.228 1.083-1.067 1.637-2.748 1.685-3.94 1.03M62.676 106.428l-.02-.013c-.387-.226-.517-.724-.29-1.11.634-1.082.13-1.908-.555-2.32-.63-.38-1.787-.567-2.42.456-.237.38-.748.49-1.117.265-.38-.238-.5-.737-.264-1.118 1.106-1.79 3.198-1.855 4.638-.992 1.344.808 2.267 2.57 1.12 4.53-.223.38-.707.513-1.09.302" fill="#171717"/><path d="M36.045 74.168c1.642 4.475 4.684 10.326 8.32 9.184 3.638-1.143 5.666-2.716 9.208-.677 3.543 2.038.62 6.82 7.52 8.078 8.01 1.46 4.69 11.33 11.6 13.012 6.91 1.683 7.6-3.84 11.815-3.055 4.217.785 3.99 8.135 9.332 3.364.822-.734 1.57-1.51 2.258-2.293 1.562-4.87 1.56-9.856-.945-14.11C89 77.216 84.837 73.87 75.13 68.345c-16.956-9.65-28.28-9.527-34.827-4.778-.8.58-1.618 1.356-2.424 2.292-1.282 2.034-2.896 5.415-1.835 8.308" fill="#d50f64"/><path d="M58.49 64.38c-3.892-3.732-15.084-2.83-17.442.386-2.358 3.216.376 7.733 5.776 9.1 5.4 1.364 12.614 3.443 14.534 7.596 1.92 4.154 9.963 1.54 6.208-2.72-3.755-4.258-7.602-12.947-9.077-14.362" fill="#ee1789"/><path d="M70.91 69.7c-4.342-2.97-10.845-3.12-4.788 2.754 6.057 5.872 12.723 7.593 12.318 4.828-.405-2.764-1.856-3.703-7.53-7.583" fill="#9f1151"/><path d="M80.353 63.474s11.63-26.464 15.972-32.912c4.343-6.448 14.494-17.262 8.307-24.03-6.188-6.77-22.414 17.97-24.54 24.903 0 0 3.37-9.123-1.23-10.646-4.598-1.524-9.667 11.434-7.112 17.923 2.556 6.49 3.44 17.04 2.644 19.617 0 0-1.95-11.678-6.008-10.286-4.057 1.392 2.784 8.115 3.12 12.687.335 4.573-1.62 7.78-1.62 7.78s-6.562.045-2.722 3.156c3.84 3.11 6.882 4.312 7.472 3.39.59-.918 5.065-10.108 5.717-11.582" fill="#469f38"/><path d="M72.512 69.327c-.254.368 5.138-10.307 8.294-24.245 3.157-13.938 20.9-33.42 20.9-33.42S87.585 30.63 84.64 38.952c-2.945 8.32-6.334 21.995-12.128 30.375" fill="#458c34"/><path d="M77.577 28.02s-1.61 9.796 3.23 17.062l-.528 4.392s-5.235-11.57-2.703-21.454" fill="#458c34"/><path d="M72.59 71.048s6.75-4.983 6.11-13.69c-.64-8.71 2.985-24.956 8.73-25.705 5.747-.75 2.043 14.407 2.043 14.407s19.96-24.777 34.45-12.27c6.078 5.246-21.82 15.83-25.06 17.93 0 0 12.203.745 9.602 7.065-2.6 6.32-16.01 1.065-23.448 7.083-7.44 6.018-8.384 8.67-8.384 8.67s1.754 5.388-3.02 1.47c-4.776-3.918-3.768-5.087-1.022-4.96" fill="#55bd35"/><path d="M73.483 73.614s10.13-11.417 14.534-19.956c4.405-8.537 18.913-18.402 29.53-18.712 0 0-18.44 4.484-26.5 16.54-8.06 12.057-13.324 18.556-17.564 22.128" fill="#458c34"/><path d="M86.138 38.41S81.086 54.016 82.55 62.4l.662-1.058s.04-11.184 2.926-22.93M88.804 54.805c.23-.337 8.316-1.36 15.39 1.498 0 0-11.103-2.153-16.943.748l1.554-2.245" fill="#458c34"/></svg>