<!--Created with Inkscape (http://www.inkscape.org/)--><svg xmlns="http://www.w3.org/2000/svg" width="150" height="150"><defs><clipPath id="a"><path d="M2281.39 7271.13s29.48 32.66 57.68 43.52c28.2 10.87 17.33 55.36 97.76 52.68 80.42-2.69 48.04-78.76 48.04-78.76s44.96 18.84 99.53 5.07c54.57-13.76 65.44-64.46 43.7-116.27-21.74-51.82-71.21-140.02-160.59-127.44-89.37 12.59-206.79 158.11-186.12 221.2z"/></clipPath><clipPath id="b"><path d="M2467.51 7049.93s19.31 95.19 73.65 101.71c54.34 6.52 89.11 32.6 86.94 69.55-2.17 36.95 2.46 67.38-53.11 73.9 0 0-9.92 8.7 20.51 21.74s71.38 22 94.34-3.41c22.95-25.41 62.15-67.81 49.11-114.8-13.04-46.98-119.33-119.69-163.96-148.69-44.63-28.99-78.75-99.24-107.48 0z"/></clipPath><clipPath id="c"><path d="M2467.51 6783.07s67.13 155.56 45.39 246.85c-21.73 91.29-65.21 119.54-158.67 171.71-93.46 52.16-150.46 126.07-257.81 0s-20.41-219.53 38.28-278.22c58.69-58.69 220.05-152.45 332.81-140.34z"/></clipPath><clipPath id="d"><path d="M2793.29 7198.62s23.91-131.75 63.04-188.26c39.12-56.52 139.1-343.43 0-462.98-139.11-119.54-354.74-160.75-433.19-143.45-78.45 17.3-26.52 365.23 13.15 473.87 39.66 108.64 217.89 296.08 357 320.82z"/></clipPath><clipPath id="e"><path d="M2384.66 6393.06s65.21-21.74 128.24 32.6c63.03 54.34 93.46 123.9 93.46 178.24s-32.6 215.18-110.85 267.35c-78.25 52.16-443.41 239.09-473.84 289.08-30.43 49.99-45.64-21.74-56.51-65.2-10.87-43.48-37.59-164.69-67.7-218.2-30.11-53.5-85.09-129.58 0-251.3s263.32-234.74 487.2-232.57z"/></clipPath></defs><path d="M60.734 27.874s3.685-4.083 7.21-5.44c3.525-1.36 2.166-6.92 12.22-6.585 10.053.335 6.005 9.844 6.005 9.844s5.62-2.355 12.44-.634c6.822 1.72 8.18 8.058 5.463 14.534-2.718 6.477-8.9 17.502-20.074 15.93-11.172-1.574-25.85-19.764-23.266-27.65" fill="#54bf36"/><g clip-path="url(#a)" transform="matrix(.125 0 0 -.125 -224.44 936.765)"><path d="M2352.47 7324.75s-23.92-54.66 0-86.8c23.92-32.15 111.3-74.91 147.83-77.54 36.53-2.64 138.29 29.02 113.03 124.2 0 0 36.01-37.15 41.75-58.25 5.74-21.11 29.88-102.89 0-139.82-29.88-36.94-115.7-131.91-149.3-121.36-33.59 10.55-212.05 207.85-224.39 272.77-12.34 64.92-7.75 80.99 71.08 86.8" fill="#49b239"/></g><path d="M85.054 27.874s-2.174 6.994 3.533 9.064c0 0-9.51-.363-3.533-9.064" fill="#318136"/><path d="M84 55.524s2.413-11.9 9.205-12.714c6.793-.815 11.14-4.075 10.868-8.694-.27-4.618.307-8.422-6.64-9.237 0 0-1.24-1.09 2.565-2.72 3.804-1.63 8.922-2.75 11.792.428 2.87 3.176 7.77 8.476 6.14 14.35-1.63 5.872-14.917 14.96-20.496 18.586-5.58 3.624-9.844 12.405-13.435 0" fill="#54bf36"/><g clip-path="url(#b)" transform="matrix(.125 0 0 -.125 -224.44 936.765)"><path d="M2513.95 7024.95s-.87 42.35 37.39 67.14c38.25 24.79 129.26 72.2 139.82 106.53 10.55 34.33 2.5 98.27-15.24 120.38-17.74 22.12 24.99 12.35 65.62-24.32 40.63-36.66 60.42-138.23-13.45-187.04-73.87-48.8-175.11-73.57-191.1-110.65-15.99-37.08-29.39-1.72-23.04 27.96" fill="#49b239"/></g><path d="M88.618 45.286s.886-3.047 6.05-3.467c5.164-.42 9.362-4.2 9.255-7.3-.108-3.1 1.044-7.53-6.29-9.544 0 0-1.885-3.352 0-4.09 1.886-.737 4.542 3.482 4.542 3.482s6.554.565 5.938 3.543c0 0 5.532 1.695.312 6.614 0 0-2.396 7.656-9.55 8.125 0 0-7.566.275-10.257 2.636" fill="#7ecd4a"/><path d="M84 88.88s8.39-19.444 5.673-30.855c-2.716-11.41-8.15-14.942-19.834-21.464-11.683-6.52-18.808-15.757-32.227 0-13.42 15.76-2.55 27.443 4.785 34.78 7.336 7.335 27.506 19.055 41.6 17.54" fill="#54bf36"/><g clip-path="url(#c)" fill="#49b239" transform="matrix(.125 0 0 -.125 -224.44 936.765)"><path d="M2096.42 7201.63s185.56-177.83 285.94-195.93c100.38-18.09 121.85 54.11 121.85 54.11s17.94-4.13 32.78-57.02c14.83-52.89 73.75-191.12 17.66-203.4-56.08-12.28-449.16 144.6-475.54 252.15-26.38 107.55 17.31 150.09 17.31 150.09"/><path d="M2179.85 7270.31s-24.24-20.15 15.34-81.52c39.57-61.36 266.53-61.57 303.43-123.46 36.89-61.9 5.59-5.52 5.59-5.52s-50.75 75.79-121.85 106c-71.1 30.21-202.51 104.5-202.51 104.5"/></g><path d="M54.21 15.913c-5.822-.67-11.812 4.076-5.29 9.237 0 0-4.86 7.88 7.758 13.04 12.617 5.164 30.006 6.794 32.995 19.835 0 0 1.087-10.052-2.99-13.04-4.074-2.99-15.214-9.352-20.104-12.964-4.892-3.61-.558-14.75-12.37-16.107" fill="#7ecd4a"/><path d="M124.722 36.938s2.988 16.468 7.88 23.532c4.89 7.065 17.387 42.93 0 57.873-17.39 14.942-44.343 20.093-54.15 17.93-9.805-2.162-3.314-45.653 1.645-59.233 4.957-13.58 27.236-37.01 44.625-40.102" fill="#54bf36"/><g clip-path="url(#d)" fill="#49b239" transform="matrix(.125 0 0 -.125 -224.44 936.765)"><path d="M2606.36 6541.17s319.5 25.99 303.72 329.87c0 0 52.81-57.48 52.81-119.51 0-62.03 23.76-218.42-197.86-297.82-221.63-79.39-319.71-82.09-341.89-49.78-22.18 32.3 183.22 137.24 183.22 137.24M2517.23 6878.69s80.71 121.36 151.06 127.01c70.35 5.65 110.81 19.72 121.36 33.79 0 0 38.69 1.76 47.48 35.17 8.8 33.42 19.35 66.47-22.86 102.71-42.21 36.24-96.71-69.62-135.42-85.28-38.7-15.66-180.77-119.18-161.62-213.4"/></g><path d="M86.957 68.894s2.48-13.314 10.477-18.204c7.998-4.89 18.05-7.88 17.506-15.76-.542-7.877-2.173-11.68-4.89-13.04 0 0 4.89-8.966 12.498-2.99 0 0 7.607 3.546 5.434 8.974 0 0 8.695.536 6.25 6.242-2.447 5.705-8.423 8.694-8.967 10.597 0 0 3.533 4.618-4.347 8.15 0 0-.925 3.532-10.108 4.076-9.182.543-20.602 13.283-21.006 22.806-.402 9.524-5.565.015-2.847-10.852" fill="#7ecd4a"/><path d="M73.643 137.633s8.15 2.717 16.03-4.075c7.88-6.793 11.682-15.488 11.682-22.28 0-6.793-4.075-26.898-13.856-33.42-9.782-6.52-55.427-29.885-59.23-36.134-3.805-6.25-5.706 2.717-7.065 8.15-1.358 5.435-4.698 20.586-8.462 27.275-3.764 6.686-10.636 16.196 0 31.41 10.636 15.216 32.915 29.344 60.9 29.073" fill="#54bf36"/><g clip-path="url(#e)" fill="#49b239" transform="matrix(.125 0 0 -.125 -224.44 936.765)"><path d="M1953.86 7048.72s-31.53-159.79-30.97-223.89c.57-64.1 100.82-278.18 338.25-320.2 237.43-42.02 345.22 121.12 345.22 121.12s51.31-77.51-106.06-240.36c-157.38-162.85-459.27-109.8-577.41 101.11-118.15 210.91-86.36 433.38 30.97 562.22"/><path d="M1964.79 7099.29s-17.59-52.77 28.14-93.22c45.73-40.45 126.63-33.41 160.05-65.07 33.41-31.66 86.65-94.49 186.66-93.86 100.01.64 188.41-14.85 220.72-65.14s-32.77 79.85-166.43 136.13c-133.67 56.29-388.75 268.63-429.14 181.16"/></g><path d="M38.594 35.475C36.42 33.3 31.802 31.4 25.28 32.215c-6.52.814-11.138 4.618-8.693 8.694 2.445 4.074 5.38 5.894 5 7.43-.382 1.534-.382 8.055 6.955 9.143 7.335 1.086 13.585 4.346 17.66 7.607 4.075 3.26 8.693 7.823 15.758 9.21 7.064 1.386 10.597.57 16.573 2.2C84.51 78.13 95.38 86.89 96.953 91.36c1.57 4.47-.76-8.88-6.193-12.955-5.435-4.075-47.276-29.072-51.622-34.778-4.348-5.705-.544-8.15-.544-8.15" fill="#7ecd4a"/><path d="M98.273 95.02s5.767 13.356 4.45 21.99c-1.32 8.63-14.625 17.78-14.625 17.78s11.875-10.69 12.664-18.665c.75-7.595-2.49-21.106-2.49-21.106" fill="#368436"/><path d="M89.702 95.02c0 1.21-.72 2.194-1.604 2.194-.886 0-1.605-.983-1.605-2.195 0-1.214.72-2.196 1.605-2.196s1.604.982 1.604 2.195M71.223 95.02c0 1.21-.718 2.194-1.604 2.194-.887 0-1.605-.983-1.605-2.195 0-1.214.718-2.196 1.604-2.196.885 0 1.603.982 1.603 2.195" fill="#171717"/><path d="M78.41 109.17c-9.275 0-11.72-5.05-11.818-5.266-.145-.314-.01-.685.305-.83.31-.145.68-.01.827.302.09.187 2.265 4.545 10.685 4.545 9.824 0 10.927-4.365 10.937-4.41.075-.334.4-.547.74-.476.335.07.55.395.483.73-.045.22-1.213 5.407-12.16 5.407" fill="#28682f"/><path d="M91.377 104.424c-.91 0-1.63-.25-2.152-.746-1.057-1.008-.798-2.608-.787-2.675.057-.34.386-.565.72-.512.34.06.57.38.512.72 0 .024-.15 1.026.422 1.568.563.532 1.648.432 2.457.253.334-.073.67.14.744.478.074.336-.14.67-.476.743-.524.118-1.004.174-1.44.174M64.688 104.85c-.313 0-.58-.234-.62-.55-.04-.344.207-.654.55-.694.014 0 1.482-.186 2.17-1.12.334-.45.434-1.003.307-1.692-.062-.34.163-.665.503-.728.34-.06.665.164.726.503.19 1.035.01 1.933-.535 2.665-1.018 1.37-2.95 1.603-3.03 1.613h-.072" fill="#28682f"/></svg>