<!--Created with Inkscape (http://www.inkscape.org/)--><svg xmlns="http://www.w3.org/2000/svg" width="64" height="64"><g fill="#b3b3b3"><path d="M36.065 48.84c12.296 0 22.3-10.003 22.3-22.3 0-12.295-10.004-22.297-22.3-22.297-12.293 0-22.294 10.003-22.294 22.297 0 12.298 10.002 22.3 22.295 22.3zm0-35.164c7.096 0 12.868 5.77 12.868 12.865 0 7.097-5.772 12.87-12.868 12.87-7.092 0-12.86-5.773-12.86-12.87 0-7.094 5.768-12.864 12.86-12.864z"/><path d="M28.876 44.107L12.983 59.653c-4.35 4.253-11.024-2.412-6.67-6.67l15.893-15.546c4.35-4.254 11.024 2.41 6.67 6.67z"/></g></svg>