<svg xmlns="http://www.w3.org/2000/svg" width="150" height="150"><path d="M63.87 115.537s7.922 8.322-5.85 22.956c0 0 10.037 13.486 29.694-1.722 0 0-.427-16.64-5.592-21.233 0 0 11.477.574 16.355-4.59 4.877-5.166-3.73-9.182-9.47-10.617-5.738-1.435-24.963.286-33.57 2.295-8.61 2.01-12.446 12.93 8.432 12.912" fill="#2c973f"/><path d="M68.272 114.532s5.672 2.583 9.976 0c0 0-3.382 5.812-9.976 0" fill="#1c5c2d"/><path d="M60.386 20.92S68.702 6.716 74.873 4.134c6.172-2.583 18.01 9.253 18.87 16.786.86 7.532-3.444 18.292-13.344 13.342-9.9-4.95-20.014-13.342-20.014-13.342" fill="#3cb94a"/><path d="M48.527 32.326s-2.344-10.115 13.58-19.37c0 0 3.07 13.13 2.827 17.648-.244 4.52-8.898 12.697-16.407 1.722" fill="#4fbe4a"/><path d="M39.054 56.644s-9.657-10.975 6.268-28.408c0 0 22.166 10.76 19.368 31.205-2.798 20.445-21.358 6.887-25.636-2.796" fill="#3cb94a"/><path d="M55.412 40.072c.233-7.028 1.96-15.925 11.645-25.608 0 0 20.585 9.9 21.482 23.672.898 13.773-5.127 22.166-10.507 21.305-5.38-.86-23.374 3.252-22.62-19.368" fill="#2c973f"/><path d="M93.306 63.682c-7.394.242-12.563-5.81-11.272-22.38 1.292-16.57 6.05-20.875 6.05-20.875s26.02 12.267 23.11 29.913c-2.905 17.647-17.888 13.342-17.888 13.342" fill="#3cb94a"/><path d="M34.562 88.064c-.598-.495-15.46-20.66-2.995-37.877 0 0 23.863 4.304 26.88 18.938 3.015 14.634-2.58 36.585-23.885 18.94M106.528 59.87l10.886-18.72s16.787 22.595 1.723 38.52c-15.065 15.925-14.242-13.558-12.61-19.8" fill="#2c973f"/><path d="M86.426 59.226s8.607-14.42 15.278-19.154c0 0 16.142 17.17 12.483 31.397-3.66 14.226-13.99 22.19-20.875 17.024-6.886-5.165-12.05-16.787-6.886-29.268" fill="#4fbe4a"/><path d="M59.914 88.064S45.752 62.67 74.374 45.452c0 0 23.81 15.71 12.444 38.522-11.367 22.812-24.267 11.435-26.904 4.09" fill="#3cb94a"/><path d="M26.17 79.67s18.73 9.43 23.67 22.166c4.943 12.735 1.462 10.76-1.313 10.975-2.775.216-26.016-5.594-22.358-33.14" fill="#4fbe4a"/><path d="M45.752 77.95s23.546 6.455 23.932 19.367c.386 12.912-5.21 15.378-15.97 13.177-10.76-2.202-17.646-17.912-7.962-32.545M95.033 90.215s11.62-14.204 29.484-13.343c0 0-6.026 35.945-27.682 33.622-17.548-1.883-1.802-20.28-1.802-20.28" fill="#3cb94a"/><path d="M87.502 76.872s-17.648 7.318-19.154 19.37c-1.506 12.05 19.565 21.732 26.57 6.238C101.92 86.987 87.5 76.872 87.5 76.872" fill="#2c973f"/><path d="M80.832 67.74c0 1.28-.75 2.316-1.676 2.316-.927 0-1.678-1.035-1.678-2.312 0-1.28.75-2.315 1.675-2.317.926 0 1.678 1.035 1.68 2.314M69.658 68.48c0 1.276-.75 2.314-1.675 2.314-.926 0-1.68-1.035-1.68-2.313 0-1.278.75-2.314 1.676-2.315.926 0 1.678 1.035 1.678 2.314M73.5 75.335c-2.395 0-3.535-1.803-3.803-2.755-.092-.334.1-.678.433-.77.327-.094.675.097.77.427.025.088.574 1.848 2.6 1.848 2.427 0 2.658-1.684 2.667-1.755.043-.343.35-.594.696-.545.342.04.587.352.545.696-.12.987-1.09 2.854-3.906 2.855" fill="#040606"/></svg>