<svg xmlns="http://www.w3.org/2000/svg" width="150" height="150"><path d="M16.064 149.21c-5.926-3.86-2.84-15.553 6.386-27.76 9.224-12.208 38.845-49.34 59.897-70.677 21.053-21.337 39.077-36.86 46.268-44.52 7.19-7.66 6.87-3.814 2.148 1.69 0 0 13.475-8.673 1.923 4.772 0 0 8.228-2.927-2.32 8.75 0 0 15.582-8.738 5.704-.12-9.878 8.616-25.084 22.773-38.9 40.074-13.814 17.3-55.18 71.316-59.023 75.462-3.844 4.145-14.542 17.24-22.083 12.328" fill="#eff3dc"/><path d="M70.068 84.612c-.54.684-1.38.92-1.88.526s-.47-1.268.07-1.952c.538-.685 1.38-.92 1.88-.527s.47 1.267-.07 1.952M65.907 81.335c-.54.685-1.38.92-1.882.527-.5-.394-.468-1.268.07-1.953.54-.685 1.382-.92 1.882-.527.5.394.47 1.268-.07 1.952M61.39 83.347s4.812 3.563 5.72 4.503c0 0-3.002 3.33-5.636 1.274-2.424-1.89-.085-5.777-.085-5.777" fill="#171717"/><path d="M117.41 39.046S98.144 56.51 48.084 124.18c0 0-17.834 27.322-29.068 25.83-11.234-1.49-2.01-19.046-2.01-19.046s-4.824 17.802 6.417 12.865c11.24-4.94 71.72-88.764 93.985-104.784z" fill-opacity=".031"/></svg>