<svg xmlns="http://www.w3.org/2000/svg" width="150" height="150"><defs><clipPath id="a"><path d="M850.86 6831.69s-187.067-1.97-265.833-137.84c-78.76-135.87-106.332-393.82 92.55-484.4 198.884-90.58 226.45-66.96 226.45-66.96s-21.66-49.22 0-86.64c21.66-37.41 47.258-179.19 112.243-200.85 64.98-21.66 82.7 19.69 84.67 31.51 1.97 11.81-33.47-5.91-49.23-1.97-15.75 3.94-25.6 43.32-37.41 68.92-11.82 25.6-21.663 47.26-13.79 70.89 7.88 23.63 49.23 84.67 45.29 102.39 0 0 269.78 66.95 326.88 194.95 57.1 127.99 66.95 295.36-27.57 391.85-94.52 96.49-218.57 137.84-277.64 135.87 0 0 15.75 39.38 27.56 53.17 0 0-76.79-23.63-102.393-49.23 0 0-5.907 39.38-1.97 61.04 0 0-68.917-39.38-68.917-74.82 0 0-63.012 78.76-131.934 53.16 0 0 51.2-33.47 61.043-61.04z"/></clipPath></defs><path d="M79.588 70.71s20.255-21.63 25.07-25.974c4.812-4.343 32.607-12.692 32.607-12.692s5.964 4.632 4.373 5.262c-6.376 2.525-21.27 7.336-31.046 13.833S81.144 74.25 81.144 74.25l-1.556-3.54M79.882 60.487c.26-.525 20.124-38.06 33.746-52.34 0 0 4.616 1.422 5.375 2.6 0 0-12.774 19.27-17.312 25.082-4.536 5.81-23.986 31.864-26.99 35.88l-1.298-.84s4.21-5.822 6.48-10.383" fill="#7a1132"/><path d="M72.812 73.32S82.207 63.9 85.57 54.712c3.363-9.19 14.52-33.33 18.718-39.825 0 0-7.696-5.608-10.286-6.077 0 0-8.52 14.556-9.467 21.442-.945 6.887-3.44 27.946-12.83 40.34l1.107 2.727M76.995 75.09s30.512-23.295 38.255-26.484c7.742-3.19 19.913-4.32 19.913-4.32l2.448 13.724s-15.333-2.01-21.286.14c-5.952 2.15-36.438 20.334-36.438 20.334l-2.89-3.394" fill="#a9134d"/><path d="M73.402 70.87s17.95-24.046 25.532-33.422c7.582-9.377 26.363-22.454 28.373-22.95 0 0 7.423 9 9.14 12.16 0 0-25.296 15.71-30.047 19.27-4.75 3.56-28.136 28.08-28.136 28.08l-4.862-3.137" fill="#c0105e"/><path d="M70.948 65.42S59.4 52.147 44.87 54.794c-14.53 2.646-34.68 16.4-29.036 36.163 5.643 19.762 9.015 20.296 9.015 20.296s-4.846 1.45-6.204 5.283c-1.358 3.832-9.947 14.31-7.535 20.283 2.413 5.972 6.453 4.72 7.42 4.14.965-.58-2.464-2.037-3.143-3.405-.68-1.368 1.54-4.474 2.653-6.88 1.112-2.408 2.062-4.434 4.234-5.31 2.172-.878 9.064-1.64 10.092-3.002 0 0 21.244 15.232 33.89 11.514C78.9 130.16 91.484 120.66 92.628 108.01c1.144-12.652-3.46-24.054-7.203-28.163 0 0 3.78-1.274 5.487-1.27 0 0-6.374-4.056-9.768-4.328 0 0 2.46-2.825 4.25-3.864 0 0-7.022-2.532-9.56-.37 0 0 1.797-9.315-4.238-12.688 0 0 .726 5.706-.648 8.092" fill="#a61444"/><g clip-path="url(#a)" transform="matrix(.06098 .0716 .0716 -.06098 -470.034 421.09)"><path d="M526.363 6490.81s10.203-177.28 68.91-190.75c58.71-13.47 181.387 6.04 220.145 14.24 38.754 8.2 96.254 10.39 121.254 6.8 25-3.6-63.914-37.17-129.457-51.64-65.543-14.46-124.676-37.99-67.61-34.97 57.067 3.01 203.7 47.75 310.385 29.13 106.68-18.62 211.31-9.49 255.25 22.19 43.93 31.69-53.57 18.61-86.07 22.65-32.5 4.04 91.39 15.41 130 33.28 38.62 17.88 66.78 95.47 66.78 95.47s-2.15-172.47-110.71-253.59c-108.57-81.12-218.57-71.29-218.57-71.29S1007.75 6005 1035.96 5960c28.21-45 95.71-45 88.21-75s-54.59-77.5-114.79-52.5c-60.208 25-92.638 130-111.423 165-18.785 35-14.027 114.83-14.027 114.83s-397.875 36.79-357.567 378.48" fill="#8c1432"/></g><path d="M68.253 92.314c-.76.646-1.757.72-2.23.166-.472-.555-.24-1.53.52-2.175.758-.646 1.757-.72 2.23-.166.472.553.24 1.528-.52 2.174M59.838 82.434c-.76.646-1.757.72-2.23.166-.472-.554-.24-1.528.52-2.175.758-.646 1.757-.72 2.23-.166.472.554.24 1.528-.52 2.174" fill="#040606"/><path d="M57.8 85.254s4.655 5.035 5.404 6.344c0 0-5.562 4.288-8.06 1.39-2.296-2.665 2.656-7.734 2.656-7.734" fill="#430a21"/><path d="M17.157 77.304s2.71 5.536 4.77 6.884c2.058 1.347 7.293 8.564 9.82 10.244 0 0-3.7-1.774-6.493-5.052-2.792-3.278-5.364-4.37-6.324-5.925-.96-1.554-2.11-4.405-1.773-6.15M17.56 88.27s2.92 5.36 7.928 8.025c0 0-6.41-2.384-7.928-8.024M25.033 108.612s4.497.782 6.957 4.098c2.46 3.317 2.234 8.193 2.217 8.602-.016.41-1.12-5.176-3.453-8.34-2.334-3.163-5.72-4.36-5.72-4.36M39.976 114.665s7.887 6.722 11.49 10.95c3.602 4.23 8.946 7.524 9.67 7.455-1.683-.754-6.11-2.095-10.432-7.17-4.323-5.075-10.728-11.235-10.728-11.235M36.485 57.8s2.315 1.434 4.64 3.59c2.322 2.156 6.79 5.404 7.9 8.35 0 0-2.298-2.906-6.113-6.103-3.814-3.197-5.104-5.14-6.427-5.837M84.707 122.175s-3.185-5.07-4.31-7.395c-1.13-2.324-4.262-5.858-6.726-7.895 0 0 4.503 4.922 6.14 8.027 1.64 3.105 4.897 7.263 4.897 7.263M88.65 116.262s-.163-4.118-3.172-8.366c0 0 2.454 5.45 3.172 8.366M61.542 65.586s7.158 9.046 9.907 11.63c2.747 2.586 6.35 6.815 6.208 8.577 0 0-3.837-6.218-7.114-8.353-3.277-2.135-9.002-11.854-9.002-11.854" fill="#4e0b23"/></svg>