<svg xmlns="http://www.w3.org/2000/svg" width="150" height="150"><path d="M17.85 122.678s-5.81-8.586 46.213-67.68c0 0 3.03-6.314-1.136-12.248-4.167-5.935 2.4 1.64 3.535.378 1.137-1.262-1.01-8.333-2.273-8.775 0 0 5.176 1.957 4.67.063-.504-1.894-7.322-12.627-14.015-16.54-6.692-3.916 6.566 2.524 8.587.756 2.02-1.768-1.516-2.778 1.64-4.672 3.158-1.894 2.02 2.652 2.78 1.01.757-1.64-.127-3.03 2.146-2.904 2.272.126 3.788 9.47 5.682 9.218 1.894-.253 3.03-3.157 3.41-7.45.378-4.293 4.797-1.768 7.954-2.778s3.41-1.136 7.07.884c3.663 2.02 4.673-2.147 6.567-2.02 1.895.126 1.137 5.555 3.41 5.43 2.273-.127 7.45 4.166 11.364 1.514 3.915-2.65 9.218 1.894 10.733 5.05 1.516 3.158-8.08 6.567-7.955 11.24.127 4.67 4.04-2.526 10.354-1.77 6.314.76 10.733 6.567 8.46 7.072-2.272.505-9.975 5.43-14.142 8.334s-5.43-5.303-13.005.126c0 0 6.277 4.496 3.33 6.64-2.946 2.142-12.41 1.517-10.446 5.803 1.964 4.284-2.32 5.802-9.82 6.963 0 0-11.608 11.25-20.716 34.107-9.107 22.857-36.09 33.8-36.09 33.8s-15.784 4.358-18.31-11.552z" fill="#6b9d2b"/><path d="M34.516 135.567s-1.01-12.88-16.668-10.102c0 0 4.04 13.637 16.668 10.102z" fill="#d8caad"/><path d="M73.502 81.012c.39 2.956-5.984 3.37-9.72 1.216-3.738-2.157-7.104-6.337-4.31-8.165 3.125-2.043 2.42 2.808 6.156 4.964 3.737 2.155 7.437-1.324 7.874 1.985" fill="#fff"/><path d="M73.502 81.012c.39 2.956-5.984 3.37-9.72 1.216-3.738-2.157-7.104-6.337-4.31-8.165 3.125-2.043 2.42 2.808 6.156 4.964 3.737 2.155 7.437-1.324 7.874 1.985zM62.685 75.643l-2.92 3.55M65.294 78.81l-1.512 3.418M69.87 79.704l-.227 3.867" fill="none" stroke="#171717" stroke-width="1.25" stroke-miterlimit="10"/><path d="M76.005 72.856c-.535 1.086-1.614 1.648-2.407 1.257-.794-.392-1.003-1.59-.467-2.677.538-1.086 1.616-1.65 2.41-1.256.793.392 1.002 1.59.465 2.676M66.15 68.205c-.536 1.087-1.615 1.648-2.408 1.257-.794-.392-1.003-1.59-.466-2.677.536-1.085 1.614-1.648 2.41-1.256.792.39 1 1.59.464 2.675" fill="#171717"/></svg>