<svg xmlns="http://www.w3.org/2000/svg" width="150" height="150"><path d="M25.012 46.816s-1.345 9.41-14.79 16.402c0 0 3.094 12.827-.518 17.2-3.613 4.373-4.563 9.22 1.14 14.45 5.704 5.228 13.69 10.457 10.457 15.02-3.23 4.563.857 9.6 5.42 8.65 4.563-.95 12.74-3.136 15.21.38 2.472 3.518 1.902 4.374 1.902 4.374s-4.278 10.552 3.517 12.738c7.794 2.187 7.89-2.566 12.737 0 4.85 2.567 18.823 4.088 26.333-2.756 7.51-6.845 8.08 3.897 19.678-2.187s14.45-8.175 15.02-17.3c0 0 4.278-14.83 11.408-12.74 7.13 2.092 4.563-1.14 6.084-5.894 1.52-4.753 5.8-26.808 2.567-30.135-3.232-3.327-2.567-9.316-1.14-12.263 1.425-2.947 2.09-5.99-1.237-8.936-3.327-2.948-6.654-11.504-10.647-10.648-3.993.855.57 5.608-2.472 4.087-3.04-1.522-4.467-6.18-8.554-5.704-4.088.475-10.077 10.076-14.07-4.754 0 0-3.137-3.042 10.457-4.277 13.594-1.236-14.354-.095-15.02-1.712-.665-1.616-11.027-2.566-12.358-6.274-1.33-3.708-2.947-5.895-10.552-3.994-7.605 1.902-10.267-3.517-15.305.666-5.04 4.183-4.754 7.415-13.88 12.548 0 0 1.046 4.754-7.89 5.99-8.936 1.235-13.496 17.066-13.496 17.066z" fill="#4d7911"/><path d="M56.19 33.552s8.175-12.358 29.565-3.613c0 0 20.533.57 26.332 19.868 0 0 2.472 6.37 7.415 11.693 4.943 5.324 6.75 18.348-.475 26.238 0 0 0 10.267-13.31 13.594 0 0 1.237 10.172-15.114 9.316 0 0-.095-7.985-7.986-8.175-7.89-.19-7.13 7.795-10.837 6.084 0 0-7.51-16.54-18.822-18.347 0 0 2.756-13.31-9.126-17.492 0 0 2.947-12.453-7.035-12.738 0 0-2.757-11.503 4.563-12.93 0 0 4.373-11.407 14.83-13.498z" fill="#f2e6aa"/><g fill="#171717"><path d="M81.682 68.845c-.608 0-1.107-.484-1.122-1.094-.054-2.28-1.615-3.09-3.075-3.09h-.046c-1.657.018-3.332 1.078-3.332 3.064 0 .62-.502 1.12-1.122 1.12-.62 0-1.12-.5-1.12-1.12 0-3.405 2.857-5.276 5.546-5.308h.07c2.515 0 5.234 1.643 5.32 5.28.014.62-.475 1.135-1.095 1.15h-.026M87.27 80.648h-.066c-2.515-.03-5.186-1.782-5.186-4.967 0-.62.503-1.12 1.12-1.12.62 0 1.123.5 1.123 1.12 0 1.767 1.496 2.71 2.97 2.727h.044c1.297 0 2.685-.722 2.734-2.752.014-.62.51-1.16 1.147-1.095.62.014 1.11.528 1.096 1.147-.082 3.405-2.626 4.942-4.98 4.942M101.73 68.845c-.607 0-1.106-.484-1.12-1.094-.054-2.305-1.608-3.098-3.123-3.09-1.655.018-3.33 1.078-3.33 3.064 0 .62-.503 1.12-1.122 1.12-.62 0-1.12-.5-1.12-1.12 0-3.405 2.857-5.276 5.546-5.308 2.508 0 5.305 1.61 5.392 5.28.014.62-.475 1.135-1.095 1.15h-.026"/></g></svg>