<svg xmlns="http://www.w3.org/2000/svg" width="150" height="150"><path d="M37.992 143.237c-1.45-.32 1.944-7.888 7.71-17.674 5.766-9.787 23.884-40.046 35.787-58.698 11.903-18.653 21.566-33.074 25.704-39.655 4.137-6.58 3.278-4.31.47.28 0 0 6.66-9.126-.207 2.09 0 0 3.61-4.236-2.543 5.667 0 0 7.452-9.824 2.135-1.858-5.318 7.963-13.674 20.728-22.12 34.83-8.448 14.103-34.165 57.578-36.387 61.125-2.22 3.547-8.704 14.297-10.55 13.892" fill="#658333"/><path d="M41.96 140.395c-1.47-.224 1.423-7.998 6.536-18.14C53.61 112.11 69.71 80.73 80.366 61.34c10.66-19.39 19.358-34.413 23.056-41.25 3.698-6.838 2.99-4.515.487.248 0 0 6.048-9.542-.07 2.098 0 0 3.325-4.462-2.167 5.822 0 0 6.793-10.29 2.008-1.994-4.783 8.295-12.286 21.58-19.792 36.204-7.506 14.626-30.324 59.69-32.31 63.375-1.984 3.684-7.75 14.836-9.618 14.552" fill="#658333"/><path d="M41.96 140.395c-1.47-.224 1.423-7.998 6.536-18.14C53.61 112.11 69.71 80.73 80.366 61.34c10.66-19.39 19.358-34.413 23.056-41.25 3.698-6.838 2.99-4.515.487.248 0 0 6.048-9.542-.07 2.098 0 0 3.325-4.462-2.167 5.822 0 0 6.793-10.29 2.008-1.994-4.783 8.295-12.286 21.58-19.792 36.204-7.506 14.626-30.324 59.69-32.31 63.375-1.984 3.684-7.75 14.836-9.618 14.552" fill="#658333"/><path d="M46.08 143.53c-1.485.01.15-8.123 3.605-18.943 3.456-10.82 14.425-44.34 21.903-65.165 7.48-20.825 13.71-37.028 16.287-44.362 2.577-7.333 2.242-4.927.52.17 0 0 4.474-10.375.26 2.083 0 0 2.584-4.93-1.224 6.09 0 0 5.093-11.23 1.67-2.285-3.42 8.944-8.743 23.242-13.857 38.865-5.115 15.623-20.568 63.713-21.95 67.664-1.38 3.95-5.322 15.87-7.213 15.882" fill="#658333"/><path d="M44.343 141.964c-1.482-.106.786-8.085 5.08-18.6 4.296-10.516 17.863-43.07 26.953-63.244s16.574-35.837 19.72-42.947c3.145-7.107 2.622-4.736.505.21 0 0 5.276-9.99.098 2.098 0 0 2.962-4.71-1.7 5.975 0 0 5.958-10.795 1.844-2.146-4.112 8.646-10.54 22.482-16.867 37.655-6.325 15.174-25.507 61.902-27.194 65.732-1.686 3.83-6.55 15.403-8.437 15.267" fill="#658333"/><path d="M42.562 143.247c-1.482-.1.755-8.09 5.008-18.62 4.254-10.533 17.694-43.14 26.705-63.35 9.01-20.21 16.433-35.9 19.55-43.023 3.12-7.12 2.605-4.746.508.208 0 0 5.235-10.012.105 2.097 0 0 2.943-4.724-1.677 5.98 0 0 5.917-10.82 1.837-2.154-4.08 8.664-10.454 22.525-16.72 37.723-6.266 15.197-25.264 62-26.936 65.836-1.672 3.837-6.49 15.43-8.378 15.3" fill="#658333"/><path d="M46.065 139.85c-1.485-.005.224-8.122 3.78-18.91 3.555-10.788 14.832-44.204 22.502-64.96 7.67-20.755 14.05-36.9 16.695-44.21 2.645-7.308 2.288-4.906.52.174 0 0 4.568-10.332.24 2.086 0 0 2.63-4.905-1.28 6.078 0 0 5.194-11.183 1.69-2.27C86.71 26.752 81.256 41 75.997 56.575c-5.258 15.576-21.154 63.52-22.57 67.46-1.42 3.937-5.47 15.82-7.36 15.815" fill="#658333"/><path d="M46.065 139.85c-1.485-.005.224-8.122 3.78-18.91 3.555-10.788 14.832-44.204 22.502-64.96 7.67-20.755 14.05-36.9 16.695-44.21 2.645-7.308 2.288-4.906.52.174 0 0 4.568-10.332.24 2.086 0 0 2.63-4.905-1.28 6.078 0 0 5.194-11.183 1.69-2.27C86.71 26.752 81.256 41 75.997 56.575c-5.258 15.576-21.154 63.52-22.57 67.46-1.42 3.937-5.47 15.82-7.36 15.815" fill="#658333"/><path d="M50.605 142.34c-1.468.23-1.056-8.056.76-19.268 1.817-11.213 7.703-45.987 12.016-67.69 4.314-21.702 8.078-38.65 9.542-46.284 1.463-7.633 1.488-5.205.54.09 0 0 2.888-10.922.566 2.022 0 0 1.825-5.257-.31 6.205 0 0 3.373-11.86 1.313-2.508-2.058 9.352-5.206 24.28-7.952 40.49-2.745 16.207-10.91 66.055-11.69 70.166-.782 4.112-2.916 16.483-4.783 16.776" fill="#658333"/><path d="M48.655 141.048c-1.482.114-.42-8.113 2.27-19.148 2.692-11.035 11.29-45.24 17.295-66.536C74.224 34.067 79.306 17.468 81.365 9.97c2.058-7.494 1.892-5.07.53.134 0 0 3.738-10.662.407 2.06 0 0 2.232-5.098-.797 6.16 0 0 4.294-11.558 1.507-2.396-2.788 9.16-7.098 23.797-11.108 39.74-4.01 15.94-16.063 64.994-17.164 69.032-1.102 4.037-4.2 16.203-6.085 16.348" fill="#658333"/><path d="M29.36 140.016c-1.325-.67 3.84-7.16 11.854-15.21s33.072-32.868 49.23-47.984c16.16-15.117 29.098-26.69 34.74-32.04 5.64-5.347 4.243-3.36.385.39 0 0 8.714-7.19-.72 1.972 0 0 4.548-3.208-3.87 4.86 0 0 9.657-7.67 2.53-1.272-7.127 6.397-18.39 16.69-30.07 28.256-11.68 11.567-47.38 47.303-50.41 50.188-3.033 2.885-11.98 11.69-13.67 10.84" fill="#658333"/><path d="M33.91 138.247c-1.368-.58 3.363-7.395 10.832-15.952 7.47-8.557 30.85-34.962 45.986-51.103 15.135-16.14 27.288-28.536 32.567-34.243 5.278-5.707 4.016-3.633.41.36 0 0 8.227-7.743-.587 2.017 0 0 4.328-3.498-3.544 5.102 0 0 9.134-8.285 2.44-1.435-6.692 6.85-17.256 17.857-28.155 30.163-10.9 12.306-44.185 50.3-47.022 53.378-2.836 3.077-11.188 12.45-12.928 11.71" fill="#658333"/><path d="M33.91 138.247c-1.368-.58 3.363-7.395 10.832-15.952 7.47-8.557 30.85-34.962 45.986-51.103 15.135-16.14 27.288-28.536 32.567-34.243 5.278-5.707 4.016-3.633.41.36 0 0 8.227-7.743-.587 2.017 0 0 4.328-3.498-3.544 5.102 0 0 9.134-8.285 2.44-1.435-6.692 6.85-17.256 17.857-28.155 30.163-10.9 12.306-44.185 50.3-47.022 53.378-2.836 3.077-11.188 12.45-12.928 11.71" fill="#658333"/><path d="M37.124 142.306c-1.442-.36 2.16-7.832 8.19-17.456C51.35 115.225 70.29 85.475 82.7 67.156c12.41-18.32 22.465-32.47 26.782-38.936 4.315-6.464 3.394-4.217.462.293 0 0 6.907-8.94-.264 2.083 0 0 3.725-4.134-2.698 5.596 0 0 7.72-9.616 2.185-1.8C103.634 42.21 94.93 54.74 86.1 68.606s-35.73 56.62-38.048 60.104c-2.318 3.483-9.093 14.052-10.928 13.596" fill="#658333"/><path d="M35.83 140.36c-1.41-.472 2.766-7.64 9.535-16.76 6.77-9.122 27.988-37.293 41.8-54.58 13.81-17.29 24.945-30.606 29.756-36.713 4.81-6.105 3.716-3.938.44.328 0 0 7.587-8.37-.428 2.056 0 0 4.04-3.828-3.13 5.368 0 0 8.45-8.98 2.32-1.622-6.13 7.357-15.79 19.165-25.68 32.295-9.893 13.13-40.067 53.64-42.65 56.932-2.586 3.29-10.17 13.296-11.963 12.697" fill="#658333"/><path d="M33.786 141.16c-1.41-.466 2.737-7.65 9.47-16.797C49.992 115.215 71.1 86.96 84.843 69.62c13.743-17.343 24.826-30.704 29.613-36.83 4.786-6.123 3.7-3.95.44.327 0 0 7.554-8.4-.42 2.058 0 0 4.024-3.845-3.108 5.38 0 0 8.415-9.015 2.313-1.632-6.1 7.38-15.715 19.227-25.555 32.395-9.84 13.168-39.855 53.796-42.427 57.097-2.572 3.302-10.117 13.336-11.912 12.744" fill="#658333"/><path d="M38.022 138.737c-1.438-.373 2.23-7.812 8.352-17.38 6.12-9.57 25.335-39.144 37.914-57.348 12.58-18.204 22.764-32.262 27.14-38.687 4.376-6.424 3.434-4.186.46.297 0 0 6.99-8.876-.283 2.08 0 0 3.763-4.1-2.75 5.57 0 0 7.808-9.544 2.202-1.778-5.605 7.764-14.423 20.214-23.38 33.998-8.96 13.784-36.252 56.288-38.602 59.75-2.35 3.464-9.222 13.97-11.053 13.497" fill="#658333"/><path d="M38.022 138.737c-1.438-.373 2.23-7.812 8.352-17.38 6.12-9.57 25.335-39.144 37.914-57.348 12.58-18.204 22.764-32.262 27.14-38.687 4.376-6.424 3.434-4.186.46.297 0 0 6.99-8.876-.283 2.08 0 0 3.763-4.1-2.75 5.57 0 0 7.808-9.544 2.202-1.778-5.605 7.764-14.423 20.214-23.38 33.998-8.96 13.784-36.252 56.288-38.602 59.75-2.35 3.464-9.222 13.97-11.053 13.497" fill="#658333"/><path d="M77.8 79.19c-.008.69-.42 1.245-.925 1.24-.505-.008-.908-.568-.902-1.258.008-.69.42-1.246.925-1.242.504.01.908.568.902 1.26M67.755 78.79c-.01.69-.42 1.246-.925 1.242-.505-.01-.908-.568-.902-1.26.008-.69.42-1.245.924-1.24.504.008.91.568.903 1.258" fill="#040606"/><path d="M67.763 81.72s6.344.154 8.2 0c0 0-.773 5.105-4.1 5.26-3.326.155-4.1-5.26-4.1-5.26" fill="#252525" fill-opacity=".979"/></svg>