<svg xmlns="http://www.w3.org/2000/svg" width="150" height="150"><defs><clipPath id="a"><path d="M5357 5573.74s-47.6 9.52-55.21-28.55c0 0-38.08-7.62-30.46-55.21 0 0-11.54-95.19-1.01-159.92 10.53-64.73 52.41-220.83 54.31-258.91 0 0-9.52-34.27 1.91-45.69 0 0 7.61-108.52-1.91-190.38s-1.9-197.99 5.71-218.93c0 0 3.81-43.79 26.66-53.31 0 0-26.66-51.4 19.03-60.92 0 0 38.08-47.59 60.92-53.3 22.85-5.71 53.31-36.17 66.64-34.27 13.32 1.9 89.47-11.42 127.55 36.17 38.07 47.6 62.82 62.83 60.92 83.77-1.9 20.94 0 36.17 9.52 45.69 9.52 9.52 13.32 39.98 0 62.82 0 0 26.65 9.52 26.65 60.92 0 51.4 22.93 98.71 23.52 156.11.74 72.34-16.39 138.37-25.42 197.99-13 85.72-116.13 352.2-194.19 441.68-78.05 89.47-114.22 62.82-114.22 62.82s-32.37 36.17-60.92 11.42z"/></clipPath></defs><path d="M113.375 11.143s-3.65-4.848-7.527-1.93c0 0-4.187-2.455-7.434 2.62 0 0-8.995 7.92-13.396 14.837-4.402 6.915-13.48 24.964-16.47 28.675 0 0-3.738 2.406-3.62 4.422 0 0-8.318 10.76-16.015 17.605-7.697 6.847-16.646 18.316-17.678 20.903 0 0-3.287 4.403-1.947 7.192 0 0-6.763 2.578-3.29 7.267 0 0-.407 7.608 1.25 10.04 1.657 2.434 1.965 7.81 3.367 8.74 1.4.932 7.398 8.51 14.91 7.236 7.51-1.275 11.088-.637 12.652-2.75 1.565-2.11 3.01-3.374 4.69-3.47 1.68-.097 4.567-2.623 5.224-5.862 0 0 3.28 1.328 7.555-3.468s10.35-7.303 15.18-12.61c6.086-6.687 9.98-14.274 14.097-20.588 5.917-9.08 18.46-42.522 18.62-57.364.158-14.84-5.433-15.362-5.433-15.362s-.013-6.068-4.735-6.133" fill="#3a5421"/><g clip-path="url(#a)" transform="scale(.125) rotate(41.716 -4299.2 -8581.88)"><path d="M5270.52 5373.85s124.41-307.4 107.42-401.35c-10.88-60.13-20.73-229.11 0-293.31 20.72-64.19 37.99-104.92 37.99-104.92s61.81-39.14 106.27 32.04c0 0 19.47-49.24 68.22-42.78 48.75 6.47 76.84 14.1 86.55 42.78 9.7 28.69-5.3 95.19 9.7 109.44s44.63 10.7 54.51 70c9.88 59.3 65.49-123.99 22.99-218.62-42.5-94.63-51.35-284.63-209.42-232.13-158.08 52.5-211.28 86.58-250.93 174.54-39.65 87.96-87.15 280.38-87.15 340.42 0 60.04 53.85 523.89 53.85 523.89" fill="#2d3e1a"/></g><path d="M111.26 12.443s-4.945 1.97-7.023 3.942c-2.078 1.974-6.018 6.75-6.018 6.75s8.3-13.96 13.04-10.692M116.347 18.893s.467 5.198-.483 6.264c-.95 1.066-1.277-4.646.483-6.264M48.028 88.38c-.475.532-9.4 12.66-12.29 20.922-2.89 8.264-2.106 13.107-2.106 13.107s-2.066-6.625.89-13.873c2.954-7.25 13.506-20.158 13.506-20.158M39.022 123.07s8.216-7.34 10.334-10.076c0 0-5.06 8.72-10.334 10.075" fill="#62843f"/><path d="M31.4 134.13c-2.767-1.758-1.33-7.883 3.96-4.442 5.292 3.44 5.974 10.744-3.96 4.44" fill="#86bd4a"/><path d="M108.333 34.916c1.608.582 1.362 6.102-1.436 5.307-2.8-.795-.17-5.89 1.436-5.307M87.942 50.742c-.878-1.222-5.852 2.646-5.116 3.728.736 1.082 6.39-1.954 5.116-3.728M111.123 56.104c1.25.266.798 4.112-.915 3.65-1.71-.465-.336-3.914.915-3.65M59.314 87.28c-1.62-.805-3.705 2.012-2.218 2.488 1.49.477 3.837-1.68 2.218-2.487M79.31 98.944c-1.383-.595-3.564 3.282-2.438 3.926 1.126.644 3.82-3.33 2.438-3.926M65.59 106.054c-1.453-1.296-3.634 2.71-3.06 3.434.572.724 4.514-2.14 3.06-3.434M97.123 28.3c-1.597-1.19-3.432 2.062-2.65 2.973.782.91 4.247-1.785 2.65-2.973" fill="#62843f"/><path d="M99.32 12.96s-10.23 9.69-12.826 14.388c-2.595 4.7-10.57 26.76-21.84 39.19 0 0 12.58-19.355 17.17-30.743C83.1 32.632 85.006 26.6 88.68 22.6c4.02-4.383 10.64-9.64 10.64-9.64" fill="#3a5421"/><path d="M95.6 78.352c.27 2.97-6.114 3.13-9.762.827-3.648-2.305-6.845-6.617-3.98-8.33 3.204-1.918 2.305 2.9 5.953 5.205 3.648 2.302 7.485-1.026 7.79 2.297" fill="#fff"/><path d="M95.6 78.352c.27 2.97-6.114 3.13-9.762.827-3.648-2.305-6.845-6.617-3.98-8.33 3.204-1.918 2.305 2.9 5.953 5.205 3.648 2.302 7.485-1.026 7.79 2.297zM85.005 72.556l-3.058 3.43M87.486 75.824l-1.648 3.355M92.022 76.9l-.382 3.855" fill="none" stroke="#171717" stroke-width="1.25" stroke-miterlimit="10"/><path d="M98.426 70.303c-.578 1.063-1.68 1.582-2.456 1.16-.777-.424-.938-1.63-.36-2.693.58-1.064 1.68-1.583 2.458-1.16.777.423.938 1.63.358 2.693M88.765 65.262c-.58 1.064-1.68 1.583-2.456 1.16-.78-.424-.94-1.63-.36-2.693.58-1.064 1.68-1.584 2.457-1.16.776.423.937 1.63.358 2.692" fill="#171717"/></svg>