<svg xmlns="http://www.w3.org/2000/svg" width="150" height="150"><defs><clipPath id="a"><path d="M5662.36 3891.14c-86.84-12.36-238.23-43.25-346.36-247.17-108.14-203.91-228.64-308.96-253.35-528.32-24.72-219.37-6.18-559.23 274.97-549.96 281.16 9.27 343.6 169.93 324.74 336.77-18.86 166.84-201.15 342.95-219.69 407.83-18.54 64.88-24.72 135.95-12.36 163.75 12.36 27.81 299.7 166.84 293.52 302.79-6.18 135.94-61.47 114.31-61.47 114.31z"/></clipPath></defs><path d="M32.452 124.37c-.475.192-4.657 2.28-3.9 3.71.757 1.433 4.394 2.075 4.394 2.075s1.064 5.696 2.813 5.984c1.748.288 5.407-2.533 5.407-2.533s1.967 4.938 3.777 4.898c1.81-.042 2.547-2.74 2.547-2.74s3.49 1.333 4.715.636c1.224-.697-1.563-5.415-1.563-5.415s-17.086-7.06-18.19-6.614" fill="#488531"/><path d="M123.855 16.538c-8.787-2.714-24.522-6.56-43.9 7.936-19.375 14.494-35.5 19.062-47.66 38.754-12.158 19.693-25.608 52.745 1.463 64.446 27.072 11.7 40.18-.737 45.858-17.4 5.677-16.66-3.726-41.515-2.58-48.496 1.145-6.98 3.74-13.995 6.155-16.078 2.417-2.084 35.88-2.408 41.378-15.574 5.497-13.165-.713-13.588-.713-13.588" fill="#ecd536"/><g clip-path="url(#a)" transform="matrix(.0948 .04475 .04475 -.0948 -587.107 132.095)"><path d="M5617.24 3872.6s16.14-31.83 38.64-40.22-77.5-234.8-226.65-322.56c0 0-39.89-13.33-39.89-93.42 0-139.91 164.04-330.72 191.54-452.82 27.5-122.09-214.11-480.77-450.8-300.18-236.7 180.59 35.8-115.74 35.8-115.74s387.5-103.67 480 38.83 117.7 342.5 45.1 427.5-255.94 345.11-216.77 393.8c39.17 48.7 325.37 267.98 263.52 424.59-61.85 156.61-121.64 101.34-120.49 40.22" fill="#ceb62d"/></g><path d="M130.107 18.414s-1.617-3.808-4.685-4.897c-3.068-1.09-6.915 1.75-6.675 2.76.24 1.008 5.007 2.363 5.007 2.363s-.668 3.95.958 5.107c0 0-5.036 8.276-2.214 9.565 2.823 1.288 7.924-6.863 7.924-6.863s6.638 1.872 7.26.553c.622-1.318.645-6.68.645-6.68s-6.848-2.516-8.22-1.91" fill="#53aa36"/><path d="M129.416 19.88s1.992 2.923-1.045 5.6c0 0 1.262-2.51 1.046-5.6M61.69 94.58c-.402 1.092-1.375 1.738-2.172 1.443-.797-.294-1.117-1.417-.713-2.508.403-1.09 1.376-1.736 2.173-1.44.796.294 1.116 1.416.713 2.506M47.496 89.335c-.403 1.09-1.376 1.736-2.173 1.44-.797-.294-1.116-1.416-.714-2.507.403-1.09 1.376-1.736 2.173-1.44.798.293 1.116 1.416.713 2.507" fill="#171717"/><path d="M47.032 93.365s7.607 2.467 9.115 3.37c0 0-3.21 7.533-7.403 6.012-3.856-1.4-1.712-9.382-1.712-9.382" fill="#443b14"/></svg>