<svg xmlns="http://www.w3.org/2000/svg" width="150" height="150"><path d="M39.786 142.037s13.402-33.15 11.206-53.693C48.798 67.8 57.368 24.117 69.52 23.578c12.15-.54 4.333 25.77 4.333 25.77S92.243-8.318 125.5 3.92c33.255 12.236-32.01 54.905-37.19 60.812 0 0 13.05-4.73 16.51 1.842 3.462 6.57-21.416 20.127-28.065 27.73-6.648 7.6-22.237 44.055-26.625 48.172-4.39 4.117-5.742 4.935-10.344-.44" fill="#459c38"/><path d="M43.604 141.89S56.834 112 62.214 90.197c5.377-21.806 26.41-65.862 58.427-81.953 0 0-30.103 20.773-46.842 58.488C60.366 97 55.483 120.603 43.604 141.89" fill="#3b8334"/><path d="M68.404 37.78s-6.767 23.826-4.207 45.548l-1.984 6.87s-3.656-26.993 6.19-52.417M68.374 78.92s15.644-9.634 27.99-10.972c0 0-15.257 7-29.136 14.658l1.146-3.687" fill="#3b8334"/><path d="M37.604 140.845s4.15-27.592-7.034-36.822C19.387 94.793 1.334 95.855.86 85.298c-.475-10.555 15.243-18.196 30.488-2.69 0 0-8.532-21.51 1.525-28.5 10.057-6.986 20.94 25.792 20.81 41.947-.126 16.154-9.126 39.424-12.236 44.175-3.11 4.75-3.843.615-3.843.615" fill="#51b837"/><path d="M40.104 139.978s18.27-33.447-1.618-75.618c0 0 17.097 34.335 1.618 75.618" fill="#3b8334"/><path d="M12.225 80.08s21.512 3.82 34.7 21.164l-.338 2.98S42.31 92.49 12.225 80.08" fill="#3b8334"/><path d="M45.775 145.308s10.784-8.888 11.687-21.396c.904-12.508 10.8-45.48 23.584-43.178 12.785 2.302-2.155 22.225-2.155 22.225s22.592-24.794 42.013-12.936c19.423 11.856-24.685 21.774-25.91 21.73-1.223-.044 27.753 5.173 18.172 19.286-9.58 14.112-45.33 6.442-51.67 8.908-6.338 2.466-11.26 9.763-11.26 9.763s-5.27-.68-4.46-4.402" fill="#51b837"/><path d="M48.835 146.98s14.807-16.97 23.453-30.333c8.645-13.364 28.152-25.69 42.39-23.086 0 0-25.06 3.146-37.98 20.33-12.92 17.18-22.707 29.302-27.863 33.09" fill="#3b8334"/><path d="M77.64 90.67s-9.207 22.633-9.965 32.69l-1.777 2.427s2.058-18.314 11.742-35.116M73.935 117.547s18.518-1.997 32.423 5.598c0 0-21.43-5.765-34.125-3.36 0 0 .18-2.12 1.702-2.238" fill="#3b8334"/><g fill="#171717"><path d="M58.103 110.812c-.488-.013-.878-.413-.876-.903.007-1.832-1.228-2.517-2.4-2.55h-.036c-1.33-.02-2.696.793-2.74 2.386-.013.498-.426.89-.924.875-.498-.012-.89-.426-.875-.923.076-2.732 2.41-4.17 4.568-4.137.02 0 .037 0 .056.002 2.018.055 4.164 1.433 4.153 4.353-.002.498-.406.9-.904.898h-.02M62.327 120.405c-.017 0-.035 0-.052-.002-2.018-.08-4.123-1.543-4.053-4.1.014-.496.43-.887.925-.874.497.013.888.426.875.924-.04 1.416 1.14 2.204 2.324 2.25.01.002.022.002.033.002 1.04.03 2.17-.52 2.253-2.148.026-.496.436-.92.945-.853.497.025.878.448.854.945-.14 2.73-2.216 3.907-4.105 3.856M74.19 111.252c-.49-.013-.88-.413-.877-.903.007-1.852-1.22-2.522-2.437-2.55-1.33-.02-2.696.793-2.74 2.386-.013.498-.427.89-.924.875-.498-.012-.89-.426-.875-.923.075-2.732 2.41-4.17 4.567-4.137 2.01.055 4.22 1.408 4.21 4.355-.003.498-.407.9-.905.898h-.02"/></g></svg>