<svg xmlns="http://www.w3.org/2000/svg" width="150" height="150"><path d="M68.674 145.675s24.01 7.795 41.47-16.838c17.462-24.633 2.183-46.46 8.42-57.685 6.236-11.226 24.32-50.514 24.32-50.514s-5.3-6.236-14.966-5.613l-24.945 45.837 12.16-52.073s-5.612-7.172-16.526-2.183c0 0-8.107 59.244-13.72 59.867-5.612.624-11.848-14.966-24.32-11.848 0 0-13.72-28.063-15.903-46.772l-15.28 7.483S42.482 43.09 41.547 66.163L22.213 19.08l-11.848 8.73s14.03 23.074 13.408 58.932c-.624 35.86 7.795 67.352 44.9 58.933z" fill="#f1eacf"/><g fill="#171717"><path d="M55.775 97.755c-.404 0-.736-.32-.745-.727-.036-1.515-1.073-2.053-2.042-2.053h-.03c-1.1.012-2.214.716-2.214 2.035 0 .412-.332.745-.744.745s-.745-.333-.745-.745c0-2.26 1.898-3.503 3.684-3.525h.045c1.67 0 3.477 1.092 3.534 3.508.008.41-.317.753-.73.762h-.016M59.486 105.594h-.044c-1.67-.02-3.444-1.183-3.444-3.3 0-.41.334-.743.745-.743.41 0 .744.334.744.745 0 1.173.993 1.798 1.973 1.81h.028c.862 0 1.784-.48 1.816-1.827.01-.412.34-.77.762-.727.412.01.737.35.728.763-.055 2.26-1.745 3.282-3.31 3.282M69.09 97.755c-.404 0-.735-.32-.745-.727-.036-1.53-1.067-2.058-2.073-2.053-1.1.012-2.212.716-2.212 2.035 0 .412-.334.745-.745.745-.412 0-.745-.333-.745-.745 0-2.26 1.898-3.503 3.684-3.525 1.665 0 3.523 1.07 3.58 3.508.01.41-.315.753-.727.762h-.017"/></g></svg>