<svg xmlns="http://www.w3.org/2000/svg" width="150" height="150"><path d="M126.733 71.122s9.99 4.52 20.694-3.093c0 0-17.84-4.996-26.403-9.515 0 0-2.38-5.47-.952-8.563 0 0 5.233 2.378 13.797-3.093 8.562-5.47 9.513-6.423 7.61-7.85-1.903-1.427-13.558-4.757-34.728-.476 0 0-4.28.476-1.903-4.757 2.378-5.233 6.66-13.32 6.66-13.32s-1.042-2.444-3.733-1.94c0 0-2.69 2.86-3.952 5.635 0 0 .757-10.764 2.44-14.296 0 0-10.43 3.28-12.952 11.185 0 0-.673 2.944 2.354 6.56 0 0 1.094 1.85-1.26 3.448-2.356 1.598-1.01-1.85-1.935-2.354-.925-.505-5.803-.673-7.82-4.29-2.02-3.615-8.58-19.258-13.373-19.258 0 0-2.944 14.97.84 18.838 3.784 3.87 9.082 5.214 9.082 5.214s30.09 6.645 45.53 41.924z" fill="#9ab336"/><path d="M18.55 135.498s-5.382-12.11-4.373-30.275c1.01-18.166 2.018-63.578 31.284-76.697 29.267-13.12 61.897 12.446 61.897 12.446s15.81 15.138 23.547 37.676c7.737 22.538-19.51 45.076-40.703 51.467-21.192 6.392-57.858 12.11-71.65 5.383z" fill="#dc3330"/><path d="M77.872 66.15c-.066 1.222-.837 2.178-1.73 2.133-.895-.052-1.57-1.073-1.508-2.297.065-1.223.835-2.178 1.73-2.133.893.05 1.568 1.073 1.508 2.296M60.092 64.71c-.065 1.223-.837 2.178-1.73 2.133-.894-.05-1.568-1.072-1.507-2.296.065-1.223.835-2.18 1.73-2.134.892.052 1.568 1.073 1.507 2.297" fill="#040606"/><path d="M59.894 69.904s11.235.736 14.538.598c0 0-1.743 8.995-7.653 9.026-5.91.032-6.886-9.624-6.886-9.624" fill="#252525" fill-opacity=".979"/></svg>