<svg xmlns="http://www.w3.org/2000/svg" width="150" height="150"><defs><clipPath id="c"><path d="M5470.49 6976.77c-107.65 26.44-398.48 47.21-500.46-234.18-101.98-281.39 136.59-508.95 258.73-559.01 153.6-62.95 394.7-98.2 638.32 37.77 243.62 135.98 288.95 460.81 166.19 602.45-122.75 141.64-251.17 228.51-562.78 152.97z"/></clipPath><clipPath id="b"><path d="M5470.49 6976.77c-107.65 26.44-398.48 47.21-500.46-234.18-101.98-281.39 136.59-508.95 258.73-559.01 153.6-62.95 394.7-98.2 638.32 37.77 243.62 135.98 288.95 460.81 166.19 602.45-122.75 141.64-251.17 228.51-562.78 152.97z"/></clipPath><clipPath id="a"><path d="M5470.49 6976.77c-107.65 26.44-398.48 47.21-500.46-234.18-101.98-281.39 136.59-508.95 258.73-559.01 153.6-62.95 394.7-98.2 638.32 37.77 243.62 135.98 288.95 460.81 166.19 602.45-122.75 141.64-251.17 228.51-562.78 152.97z"/></clipPath></defs><path d="M126.958 10.89c-.66 3.494-2.68 6.37-3.914 9.432-1.115 2.764-1.257 6.01-2.505 8.712-3.018 6.527-10.312 10.78-13.5 17.588-1.368 2.93-2.1 7.136-4.238 8.748-2.792 2.102-7.153 3.216-10.332 5.5-6.253 4.496-12.16 10.143-17.586 15.64C69.592 81.863 65.598 88.385 59 91.486c-7.415 3.485-14.285 6.667-21.637 10.693-4.635 2.537-33.75 25.94-31.058 28.697l-1.307 1.884c3.925-1.54 6.468-4.622 10.635-5.366 4.084-.728 7.89.5 11.903 1.953 6.808 2.464 13.93 8.136 21.315 8.504 7.81.39 17.222-3.336 23.757-7.6 6.72-4.382 9.872-10.908 18.312-13.563 15.052-4.738 30.822-11.348 34.465-28.792.782-3.748.763-8.73 2.596-12.106 1.694-3.11 4.87-4.88 7.26-7.305 5.56-5.65 9.51-12.736 9.385-21.083-.106-7.02-4.747-13.003-8.34-18.674-3.816-6.023-3.434-11.46-3.95-18.156" fill="#6ebf2a"/><g fill="#171717"><path d="M106.296 81.746c.135 1.502-.645 2.797-1.743 2.896-1.096.098-2.095-1.04-2.23-2.54-.133-1.502.648-2.798 1.744-2.896 1.098-.098 2.095 1.04 2.23 2.54M91.394 83.08c.135 1.5-.645 2.796-1.743 2.894-1.095.098-2.094-1.04-2.228-2.54-.134-1.5.647-2.797 1.743-2.895 1.098-.1 2.095 1.038 2.23 2.54M97.3 92.685c-2.898.26-4.472-1.844-4.9-2.992-.123-.334.046-.707.382-.832.33-.123.705.046.83.38.04.096.95 2.39 3.573 2.155 3.12-.28 3.223-2.568 3.225-2.666.01-.358.308-.64.667-.63.357.01.638.31.627.667-.035 1.222-1.003 3.614-4.404 3.918"/></g><g clip-path="url(#a)" transform="matrix(.0357 -.0092 -.0092 -.0357 -78.04 402.092)" fill="#66b127"><path d="M4945.3 6751.42s41.51-268.83 214.71-428.46c211.66-195.09 622.09-115.46 773.33 45 120.61 127.96 165.77 348.71 153.33 417.04-12.44 68.32 310-236.23-116.66-544.78-426.67-308.55-733.34-204.26-886.67-28.07-153.33 176.18-259 381.25-138.04 539.27"/></g><g clip-path="url(#b)" transform="matrix(.0263 -.02584 -.02584 -.0263 127.176 405.664)" fill="#66b127"><path d="M4945.3 6751.42s41.51-268.83 214.71-428.46c211.66-195.09 622.09-115.46 773.33 45 120.61 127.96 165.77 348.71 153.33 417.04-12.44 68.32 310-236.23-116.66-544.78-426.67-308.55-733.34-204.26-886.67-28.07-153.33 176.18-259 381.25-138.04 539.27"/></g><g clip-path="url(#c)" transform="matrix(.0118 -.03313 -.03313 -.0118 277.886 309.282)" fill="#66b127"><path d="M4945.3 6751.42s41.51-268.83 214.71-428.46c211.66-195.09 622.09-115.46 773.33 45 120.61 127.96 165.77 348.71 153.33 417.04-12.44 68.32 310-236.23-116.66-544.78-426.67-308.55-733.34-204.26-886.67-28.07-153.33 176.18-259 381.25-138.04 539.27"/></g></svg>