<svg xmlns="http://www.w3.org/2000/svg" xmlns:xlink="http://www.w3.org/1999/xlink" width="280" height="250"><defs><clipPath id="h"><path d="M2457.64 5685.94c-99.22 0-193.21 31.97-262.05 92.57-21.16-15.95-44.34-28.91-69.75-38.66-13.93-3.25-27.86-6.51-41.79-9.77-9.93-2.32-19.86-4.64-29.78-6.95-8.9-.81-17.73-1.21-26.49-1.21-42.21 0-82.82 9.31-121.82 27.91-20.55 13.57-41.1 27.14-61.66 40.72-17.63 15.3-33.01 32.95-46.41 52.01-40.29-44.9-88.47-78.31-144.74-99.91-26.3-6.16-52.61-12.31-78.92-18.45-4.83-1.12-9.66-2.25-14.5-3.38-11.61-1.04-23.14-1.57-34.57-1.57-55.08 0-108.07 12.14-158.96 36.41-26.84 17.72-53.65 35.43-80.47 53.15-48.77 42.33-85.84 97.27-107.8 158.13-40.6-42.97-88.6-75.12-144.05-96.42l-97.485-22.77c-12.13-1.09-24.157-1.64-36.094-1.64-57.484 0-112.78 12.68-165.874 38.01l-83.988 55.46c-76.157 66.08-125.165 161.6-134.55 263.27-1.115 12.1-1.665 24.22-1.67 36.32-.01 92.91 32.423 184.65 91.58 255.72 43.827 52.22 97.26 90.43 160.304 114.65 18.214 4.26 36.43 8.5 54.656 12.74-6.442 17.81-10.715 36.41-12.508 55.42-.668 7.09-.992 14.21-.98 21.31.074 53.48 19.175 106.26 53.957 147.19 25.84 30.12 57.324 52.17 94.468 66.13 19.153 4.39 38.293 8.76 57.445 13.15 7.14.63 14.22.94 21.25.94 33.87 0 66.46-7.31 97.77-21.94 13.05-8.43 26.1-16.86 39.16-25.3 13.41 79.39 47.15 154.89 98.66 216.8 50.45 60.09 111.97 104.08 184.53 131.95 37.4 8.73 74.83 17.48 112.23 26.21 13.95 1.25 27.79 1.88 41.52 1.88 66.17 0 129.82-14.57 190.96-43.75 32.22-21.27 64.46-42.54 96.68-63.82 37.25-32.34 68.8-70.82 93.66-113.34 1.84 2.3 3.49 4.74 5.37 7 48.55 57.82 107.73 100.14 177.55 126.96 35.99 8.4 71.99 16.81 107.98 25.21 13.43 1.21 26.76 1.81 39.98 1.81 63.66 0 124.9-14.03 183.7-42.09l93.03-61.41c76.42-66.34 128.07-159.49 144.82-260.17 171.63-4.7 323.94-110.37 341.27-298.05.81-8.85 1.22-17.77 1.22-26.74.03-56.62-15.78-114.98-43.59-166.78 62.42-48.7 105.61-120.89 114.21-214.07.79-8.62 1.18-17.32 1.18-26.05-.01-41.79-8.95-84.56-25.2-124.71-43.62-107.77-139.87-196.61-257.24-196.61-63.89 0-125.39 14.46-178.21 42.34-55.66-79.19-140.08-135.81-237.99-135.81"/></clipPath><radialGradient xlink:href="#a" id="i" gradientUnits="userSpaceOnUse" gradientTransform="matrix(108.66 0 0 -108.66 183.53 647.1)" spreadMethod="pad" cx="0" cy="0" fx="0" fy="0" r="1"/><radialGradient id="a" spreadMethod="pad" gradientTransform="matrix(108.66 0 0 -108.66 183.53 647.1)" gradientUnits="userSpaceOnUse" r="1" cy="0" cx="0" fy="0" fx="0"><stop offset="0" stop-color="#fff"/><stop offset="1" stop-color="#bce9ec"/></radialGradient><clipPath id="f"><path d="M4321.53 4188.34c-13.74 0-27.32.85-40.75 2.56-16.79 2.14-33.34 5.61-49.65 10.42-6.58 1.94-13.12 4.09-19.63 6.47-9.2 3.36-18.33 7.15-27.39 11.38-2.03 1.32-4.07 2.63-6.1 3.95l-14.42 9.32-29.01 18.75c-4.85 3.13-9.7 6.27-14.54 9.4-.23.15-.45.29-.67.44-13.1-12.36-28.13-22.38-44.62-29.02-5.25-2.12-10.65-3.89-16.18-5.29-9.37-2.36-19.13-3.64-29.19-3.66h-.33c-4.33 0-8.64.12-12.92.38-9.34.55-18.54 1.7-27.52 3.44-4.68.91-9.29 1.97-13.84 3.19-11.01 2.96-21.62 6.84-31.66 11.61-6.4 3.05-12.57 6.45-18.48 10.22-8.64 5.5-16.7 11.77-24.06 18.78-4.89-3.06-9.87-5.99-14.93-8.79-4.95-2.74-9.98-5.35-15.1-7.83-8.84-4.3-17.95-8.22-27.33-11.75-1.72-.39-3.44-.78-5.16-1.18-6.18-1.41-12.36-2.82-18.53-4.23-13.55-3.1-27.09-6.19-40.64-9.29-4.92-1.12-9.84-2.25-14.75-3.37-9.85-.87-19.6-1.3-29.29-1.3-46.62 0-91.47 10.06-134.54 30.18-22.71 14.68-45.42 29.37-68.13 44.05-21.2 18.02-39.74 38.84-55.35 61.62-8.79-5.57-17.83-10.79-27.06-15.58-35.81-18.56-74.46-30.62-112.03-31.49-1.44-.03-2.88-.05-4.32-.05-94.06 0-176.08 15.74-250.07 78.62-66.58 56.59-109.44 138.38-117.65 225.44-.97 10.36-1.46 20.74-1.46 31.1-.01 79.55 28.35 158.09 80.08 218.96 52.18 61.39 141.91 117.65 225.44 117.65 15.82 0 31.26-.5 46.42-1.54-.61 8.92-.92 17.84-.92 26.75 0 92.47 32.88 183.76 93.02 254.52 44.59 51.99 98.93 90.04 163.05 114.16l99.16 22.67c12.33 1.09 24.55 1.63 36.69 1.63 58.46 0 114.72-12.62 168.73-37.85l85.43-55.22c26.11-22.2 49-47.78 68.35-75.76l76.72 17.54c11.08.98 22.08 1.47 32.99 1.47 52.59 0 103.17-11.34 151.75-34.04 25.61-16.56 51.22-33.11 76.84-49.66 56.58-48.11 96.81-113.62 114.49-185.34 10.74 5.64 21.93 10.66 33.56 15.03 23.94 5.47 47.86 10.95 71.79 16.42 8.93.79 17.78 1.18 26.57 1.18 42.34 0 83.06-9.14 122.16-27.4 20.62-13.33 41.23-26.66 61.86-39.98 56.05-47.66 92.16-116.53 99.07-189.85.82-8.72 1.23-17.46 1.23-26.19.01-66.99-23.88-133.13-67.44-184.38-32.29-37.66-71.63-65.21-118.05-82.66-23.93-5.47-47.86-10.94-71.79-16.42-2.14-.19-4.25-.22-6.4-.37-10.31-53.83-34.22-104.91-70.02-147.03-36.32-42.35-80.59-73.35-132.81-92.98-26.92-6.16-53.84-12.32-80.76-18.47-10.05-.89-20.02-1.33-29.91-1.33"/></clipPath><radialGradient xlink:href="#b" id="g" gradientUnits="userSpaceOnUse" gradientTransform="matrix(80.73 0 0 -80.73 393.15 479.5)" spreadMethod="pad" cx="0" cy="0" fx="0" fy="0" r="1"/><radialGradient id="b" spreadMethod="pad" gradientTransform="matrix(80.73 0 0 -80.73 393.15 479.5)" gradientUnits="userSpaceOnUse" r="1" cy="0" cx="0" fy="0" fx="0"><stop offset="0" stop-color="#fff"/><stop offset="1" stop-color="#bce9ec"/></radialGradient><clipPath id="d"><path d="M4340.72 1553.36c-50.62 0-99.34 10.92-146.12 32.77-11.39 7.37-22.77 14.72-34.15 22.08-4.81-2.06-9.61-4.12-14.56-5.98l-82.12-18.78c-.52-.05-1.03-.09-1.55-.13-9.69-.82-19.3-1.22-28.86-1.22-42.21 0-83.04 7.94-122.45 23.83-5.79 2.33-11.56 4.84-17.29 7.52-23.58 15.24-47.16 30.5-70.74 45.74-2.03 1.72-3.97 3.54-5.96 5.31-33.94-36.35-74.35-63.47-121.37-81.15-24.06-5.51-48.11-11.01-72.17-16.51-2.5-.58-5.01-1.15-7.52-1.72-9.91-.88-19.73-1.31-29.48-1.31-40.37 0-79.44 7.48-117.17 22.46-6.18 2.45-12.33 5.1-18.44 7.96-22.88 14.79-45.76 29.59-68.64 44.37-9.77 8.31-18.94 17.26-27.57 26.66-9.56-5.03-19.51-9.48-29.85-13.36l-63.94-14.63c-7.95-.71-15.85-1.06-23.68-1.06-17.79 0-35.27 1.82-52.42 5.44-19.19 4.06-37.97 10.38-56.36 18.97-18.37 11.87-36.72 23.74-55.08 35.61-9.07 7.71-17.56 16.05-25.41 24.92-35.35 39.94-57.79 90.72-62.83 144.14-.72 7.61-1.05 15.23-1.04 22.84 0 3.72.08 7.43.23 11.14-8.88 5.73-17.75 11.47-26.62 17.21-55.4 47.08-91.06 115.13-97.88 187.55-.81 8.62-1.22 17.26-1.22 25.88-.02 66.18 23.58 131.52 66.63 182.17 31.88 37.19 70.75 64.4 116.62 81.66 23.63 5.4 47.28 10.81 70.93 16.21 8.52.76 16.97 1.13 25.37 1.13 14.1 0 28.02-1.05 41.77-3.06 2.86 71.71 29.57 141.78 76.3 196.75 36.68 42.79 81.41 74.11 134.15 93.95 27.21 6.22 54.42 12.44 81.61 18.66 16.09.46 32.36.96 48.64.96 25.19 0 50.37-1.19 74.83-5.52 39.95-7.08 79.28-20.68 116.3-37.31 44.47-19.98 81.77-49.88 110.94-85.99 34.38 39.99 76.26 69.3 125.64 87.86 25.53 5.84 51.06 11.68 76.59 17.51 9.53.84 18.98 1.26 28.36 1.26 45.15 0 88.59-9.74 130.32-29.23 21.98-14.22 43.98-28.43 65.98-42.65 10.57-9 20.44-18.73 29.63-29.03 26.42 20.83 55.8 37.39 88.23 49.6 27.39 6.24 54.76 12.5 82.14 18.77 10.21.9 20.32 1.35 30.37 1.35 48.43 0 95.03-10.45 139.77-31.36 23.58-15.23 47.16-30.49 70.75-45.73 64.13-54.51 105.43-133.3 113.34-217.17.93-9.88 1.39-19.78 1.4-29.66 0-11.57-.61-23.1-1.82-34.56 60.04-18.87 113.01-57.23 149.38-109.15 33.86-48.37 51.81-106.24 51.85-164.76.01-16.57-1.41-33.19-4.31-49.67-9.16-50.99-30.39-96.26-63.74-135.83-15.89-14.47-31.77-28.92-47.66-43.38-2.2-2.01-4.41-4.02-6.61-6.02l-12.48-9.55c-35.66-24.8-74.6-40.7-116.84-47.72-6.48-1.07-13.04-1.94-19.68-2.6-25.44 1.05-50.88 2.08-76.33 3.13-3.9.68-7.75 1.5-11.59 2.34-12.24-25.03-27.53-48.61-45.73-70.01-28.33-33.04-61.22-59.59-98.66-79.62-13.57-7.27-27.75-13.68-42.52-19.23-28.61-6.55-57.25-13.09-85.86-19.64-7.37-.65-14.7-1.08-21.99-1.28-3.26-.09-6.51-.13-9.76-.13"/></clipPath><radialGradient xlink:href="#c" id="e" gradientUnits="userSpaceOnUse" gradientTransform="matrix(86.33 0 0 -86.33 393.15 213.59)" spreadMethod="pad" cx="0" cy="0" fx="0" fy="0" r="1"/><radialGradient id="c" spreadMethod="pad" gradientTransform="matrix(86.33 0 0 -86.33 393.15 213.59)" gradientUnits="userSpaceOnUse" r="1" cy="0" cx="0" fy="0" fx="0"><stop offset="0" stop-color="#fff"/><stop offset="1" stop-color="#bce9ec"/></radialGradient></defs><g clip-path="url(#d)" transform="matrix(.03 0 0 -.03 -86.04 218.48)" opacity=".263"><path d="M4340.72 1553.36c-50.62 0-99.34 10.92-146.12 32.77-11.39 7.37-22.77 14.72-34.15 22.08-4.81-2.06-9.61-4.12-14.56-5.98l-82.12-18.78c-.52-.05-1.03-.09-1.55-.13-9.69-.82-19.3-1.22-28.86-1.22-42.21 0-83.04 7.94-122.45 23.83-5.79 2.33-11.56 4.84-17.29 7.52-23.58 15.24-47.16 30.5-70.74 45.74-2.03 1.72-3.97 3.54-5.96 5.31-33.94-36.35-74.35-63.47-121.37-81.15-24.06-5.51-48.11-11.01-72.17-16.51-2.5-.58-5.01-1.15-7.52-1.72-9.91-.88-19.73-1.31-29.48-1.31-40.37 0-79.44 7.48-117.17 22.46-6.18 2.45-12.33 5.1-18.44 7.96-22.88 14.79-45.76 29.59-68.64 44.37-9.77 8.31-18.94 17.26-27.57 26.66-9.56-5.03-19.51-9.48-29.85-13.36l-63.94-14.63c-7.95-.71-15.85-1.06-23.68-1.06-17.79 0-35.27 1.82-52.42 5.44-19.19 4.06-37.97 10.38-56.36 18.97-18.37 11.87-36.72 23.74-55.08 35.61-9.07 7.71-17.56 16.05-25.41 24.92-35.35 39.94-57.79 90.72-62.83 144.14-.72 7.61-1.05 15.23-1.04 22.84 0 3.72.08 7.43.23 11.14-8.88 5.73-17.75 11.47-26.62 17.21-55.4 47.08-91.06 115.13-97.88 187.55-.81 8.62-1.22 17.26-1.22 25.88-.02 66.18 23.58 131.52 66.63 182.17 31.88 37.19 70.75 64.4 116.62 81.66 23.63 5.4 47.28 10.81 70.93 16.21 8.52.76 16.97 1.13 25.37 1.13 14.1 0 28.02-1.05 41.77-3.06 2.86 71.71 29.57 141.78 76.3 196.75 36.68 42.79 81.41 74.11 134.15 93.95 27.21 6.22 54.42 12.44 81.61 18.66 16.09.46 32.36.96 48.64.96 25.19 0 50.37-1.19 74.83-5.52 39.95-7.08 79.28-20.68 116.3-37.31 44.47-19.98 81.77-49.88 110.94-85.99 34.38 39.99 76.26 69.3 125.64 87.86 25.53 5.84 51.06 11.68 76.59 17.51 9.53.84 18.98 1.26 28.36 1.26 45.15 0 88.59-9.74 130.32-29.23 21.98-14.22 43.98-28.43 65.98-42.65 10.57-9 20.44-18.73 29.63-29.03 26.42 20.83 55.8 37.39 88.23 49.6 27.39 6.24 54.76 12.5 82.14 18.77 10.21.9 20.32 1.35 30.37 1.35 48.43 0 95.03-10.45 139.77-31.36 23.58-15.23 47.16-30.49 70.75-45.73 64.13-54.51 105.43-133.3 113.34-217.17.93-9.88 1.39-19.78 1.4-29.66 0-11.57-.61-23.1-1.82-34.56 60.04-18.87 113.01-57.23 149.38-109.15 33.86-48.37 51.81-106.24 51.85-164.76.01-16.57-1.41-33.19-4.31-49.67-9.16-50.99-30.39-96.26-63.74-135.83-15.89-14.47-31.77-28.92-47.66-43.38-2.2-2.01-4.41-4.02-6.61-6.02l-12.48-9.55c-35.66-24.8-74.6-40.7-116.84-47.72-6.48-1.07-13.04-1.94-19.68-2.6-25.44 1.05-50.88 2.08-76.33 3.13-3.9.68-7.75 1.5-11.59 2.34-12.24-25.03-27.53-48.61-45.73-70.01-28.33-33.04-61.22-59.59-98.66-79.62-13.57-7.27-27.75-13.68-42.52-19.23-28.61-6.55-57.25-13.09-85.86-19.64-7.37-.65-14.7-1.08-21.99-1.28-3.26-.09-6.51-.13-9.76-.13" fill="url(#e)"/></g><g clip-path="url(#f)" transform="matrix(.04 0 0 -.04 47.62 215.69)" opacity=".478"><path d="M4321.53 4188.34c-13.74 0-27.32.85-40.75 2.56-16.79 2.14-33.34 5.61-49.65 10.42-6.58 1.94-13.12 4.09-19.63 6.47-9.2 3.36-18.33 7.15-27.39 11.38-2.03 1.32-4.07 2.63-6.1 3.95l-14.42 9.32-29.01 18.75c-4.85 3.13-9.7 6.27-14.54 9.4-.23.15-.45.29-.67.44-13.1-12.36-28.13-22.38-44.62-29.02-5.25-2.12-10.65-3.89-16.18-5.29-9.37-2.36-19.13-3.64-29.19-3.66h-.33c-4.33 0-8.64.12-12.92.38-9.34.55-18.54 1.7-27.52 3.44-4.68.91-9.29 1.97-13.84 3.19-11.01 2.96-21.62 6.84-31.66 11.61-6.4 3.05-12.57 6.45-18.48 10.22-8.64 5.5-16.7 11.77-24.06 18.78-4.89-3.06-9.87-5.99-14.93-8.79-4.95-2.74-9.98-5.35-15.1-7.83-8.84-4.3-17.95-8.22-27.33-11.75-1.72-.39-3.44-.78-5.16-1.18-6.18-1.41-12.36-2.82-18.53-4.23-13.55-3.1-27.09-6.19-40.64-9.29-4.92-1.12-9.84-2.25-14.75-3.37-9.85-.87-19.6-1.3-29.29-1.3-46.62 0-91.47 10.06-134.54 30.18-22.71 14.68-45.42 29.37-68.13 44.05-21.2 18.02-39.74 38.84-55.35 61.62-8.79-5.57-17.83-10.79-27.06-15.58-35.81-18.56-74.46-30.62-112.03-31.49-1.44-.03-2.88-.05-4.32-.05-94.06 0-176.08 15.74-250.07 78.62-66.58 56.59-109.44 138.38-117.65 225.44-.97 10.36-1.46 20.74-1.46 31.1-.01 79.55 28.35 158.09 80.08 218.96 52.18 61.39 141.91 117.65 225.44 117.65 15.82 0 31.26-.5 46.42-1.54-.61 8.92-.92 17.84-.92 26.75 0 92.47 32.88 183.76 93.02 254.52 44.59 51.99 98.93 90.04 163.05 114.16l99.16 22.67c12.33 1.09 24.55 1.63 36.69 1.63 58.46 0 114.72-12.62 168.73-37.85l85.43-55.22c26.11-22.2 49-47.78 68.35-75.76l76.72 17.54c11.08.98 22.08 1.47 32.99 1.47 52.59 0 103.17-11.34 151.75-34.04 25.61-16.56 51.22-33.11 76.84-49.66 56.58-48.11 96.81-113.62 114.49-185.34 10.74 5.64 21.93 10.66 33.56 15.03 23.94 5.47 47.86 10.95 71.79 16.42 8.93.79 17.78 1.18 26.57 1.18 42.34 0 83.06-9.14 122.16-27.4 20.62-13.33 41.23-26.66 61.86-39.98 56.05-47.66 92.16-116.53 99.07-189.85.82-8.72 1.23-17.46 1.23-26.19.01-66.99-23.88-133.13-67.44-184.38-32.29-37.66-71.63-65.21-118.05-82.66-23.93-5.47-47.86-10.94-71.79-16.42-2.14-.19-4.25-.22-6.4-.37-10.31-53.83-34.22-104.91-70.02-147.03-36.32-42.35-80.59-73.35-132.81-92.98-26.92-6.16-53.84-12.32-80.76-18.47-10.05-.89-20.02-1.33-29.91-1.33" fill="url(#g)"/></g><g clip-path="url(#h)" transform="matrix(0 0 0 0 238.78 228.45)" opacity=".79"><path d="M2457.64 5685.94c-99.22 0-193.21 31.97-262.05 92.57-21.16-15.95-44.34-28.91-69.75-38.66-13.93-3.25-27.86-6.51-41.79-9.77-9.93-2.32-19.86-4.64-29.78-6.95-8.9-.81-17.73-1.21-26.49-1.21-42.21 0-82.82 9.31-121.82 27.91-20.55 13.57-41.1 27.14-61.66 40.72-17.63 15.3-33.01 32.95-46.41 52.01-40.29-44.9-88.47-78.31-144.74-99.91-26.3-6.16-52.61-12.31-78.92-18.45-4.83-1.12-9.66-2.25-14.5-3.38-11.61-1.04-23.14-1.57-34.57-1.57-55.08 0-108.07 12.14-158.96 36.41-26.84 17.72-53.65 35.43-80.47 53.15-48.77 42.33-85.84 97.27-107.8 158.13-40.6-42.97-88.6-75.12-144.05-96.42l-97.485-22.77c-12.13-1.09-24.157-1.64-36.094-1.64-57.484 0-112.78 12.68-165.874 38.01l-83.988 55.46c-76.157 66.08-125.165 161.6-134.55 263.27-1.115 12.1-1.665 24.22-1.67 36.32-.01 92.91 32.423 184.65 91.58 255.72 43.827 52.22 97.26 90.43 160.304 114.65 18.214 4.26 36.43 8.5 54.656 12.74-6.442 17.81-10.715 36.41-12.508 55.42-.668 7.09-.992 14.21-.98 21.31.074 53.48 19.175 106.26 53.957 147.19 25.84 30.12 57.324 52.17 94.468 66.13 19.153 4.39 38.293 8.76 57.445 13.15 7.14.63 14.22.94 21.25.94 33.87 0 66.46-7.31 97.77-21.94 13.05-8.43 26.1-16.86 39.16-25.3 13.41 79.39 47.15 154.89 98.66 216.8 50.45 60.09 111.97 104.08 184.53 131.95 37.4 8.73 74.83 17.48 112.23 26.21 13.95 1.25 27.79 1.88 41.52 1.88 66.17 0 129.82-14.57 190.96-43.75 32.22-21.27 64.46-42.54 96.68-63.82 37.25-32.34 68.8-70.82 93.66-113.34 1.84 2.3 3.49 4.74 5.37 7 48.55 57.82 107.73 100.14 177.55 126.96 35.99 8.4 71.99 16.81 107.98 25.21 13.43 1.21 26.76 1.81 39.98 1.81 63.66 0 124.9-14.03 183.7-42.09l93.03-61.41c76.42-66.34 128.07-159.49 144.82-260.17 171.63-4.7 323.94-110.37 341.27-298.05.81-8.85 1.22-17.77 1.22-26.74.03-56.62-15.78-114.98-43.59-166.78 62.42-48.7 105.61-120.89 114.21-214.07.79-8.62 1.18-17.32 1.18-26.05-.01-41.79-8.95-84.56-25.2-124.71-43.62-107.77-139.87-196.61-257.24-196.61-63.89 0-125.39 14.46-178.21 42.34-55.66-79.19-140.08-135.81-237.99-135.81" fill="url(#i)"/></g><path d="M156.472 111.89c.327-.687 8.18-12.61 10.348-19.567 2.17-6.958 1.815-13.12 1.815-13.12s7.184-1.234 8.697-.605c0 0 .437 12.025-8.83 23.74-9.268 11.714-14.894 16.677-15.378 18.795-.483 2.12.383-3.023 3.348-9.243" fill="#2c612b"/><path d="M148.112 123.49s5.068-9.325 6.562-17.545c1.495-8.22 2.97-23.49 2.97-23.49s7.316-1.756 8.063-1.998c.747-.24-3.058 22.09-5.547 27.453-2.49 5.364-9.215 17.067-9.215 17.067l-2.833-1.487" fill="#408f36"/><path d="M154.24 119.136s8.25-10.546 15.63-18.228c7.38-7.682 13.568-24.21 13.002-30.697 0 0 8.607-.763 9.564-.126 0 0-.91 15.817-5.74 21.743-4.832 5.925-17.163 16.162-24.81 21.735-7.646 5.574-10.286 11.567-10.286 11.567l-.677-1.768s1.83-2.598 3.318-4.226" fill="#387d33"/><path d="M186.7 99.29s4.96 6.264 4.463 7.807c0 0-7.533 4.468-17.172 7.895-9.638 3.426-14.82 7.888-18.822 12.624-4.002 4.736-2.366-2.9.492-5.69 2.86-2.79 22.268-13.704 31.04-22.637" fill="#2c612b"/><path d="M149.166 125.807s1.45-2.116 3.432-4.643c1.983-2.528 4.5-5.467 6.636-7.112 4.27-3.292 22.22-19.297 27.106-27.835 0 0 8.54 3.09 10.172 4.988 0 0-12.804 15.266-24.617 21.366-10.298 5.318-15.588 8.954-18.754 14.85-3.165 5.898-5.753-.782-3.974-1.613" fill="#408f36"/><path d="M147.476 152.49c1.07-5.053 2.247-10.612 2.93-13.324 1.354-5.386 4.585-9.927 6.89-12.707 2.303-2.783-3.057.226-3.057.226 1.578-3.675-1.84-2.564-1.84-2.564 1.498-4.212-2.763-1.315-2.763-1.315.608-1.724-.58-2.83-1.765-.41-1.184 2.42-5.455 7.454-9.31 14.227-2.604 4.58-4.74 11.298-6.077 16.37l14.99-.504z" fill="#eff3dc"/><path d="M145.996 139c-.13.564-.57.943-.983.848-.412-.096-.64-.63-.51-1.195.132-.563.572-.943.984-.847.412.096.64.63.51 1.194M142.568 138.204c-.13.564-.57.943-.983.847-.412-.094-.64-.63-.51-1.193.132-.564.572-.943.984-.847.41.096.64.63.508 1.194M140.42 140.688s3.9.786 4.71 1.095c0 0-.866 2.85-3.03 2.357-1.99-.454-1.68-3.452-1.68-3.452" fill="#171717"/><g fill="#275b71"><path d="M70.537 170.22c0 2.108-1.714 3.824-3.827 3.824-2.11 0-3.826-1.716-3.826-3.825 0-2.113 1.716-3.827 3.826-3.827 2.113 0 3.827 1.714 3.827 3.826zm181.075 0c0 2.108-1.713 3.824-3.824 3.824-2.113 0-3.826-1.716-3.826-3.825 0-2.113 1.713-3.827 3.826-3.827 2.11 0 3.824 1.714 3.824 3.826zm-32.128 32.12c-16.797 16.79-39.125 26.04-62.87 26.04-23.75 0-46.074-9.25-62.872-26.04-3.835-3.835-7.254-7.974-10.284-12.336h146.316c-3.036 4.362-6.456 8.5-10.29 12.335zM67.7 139.467c0-23.752 9.247-46.076 26.042-62.876 16.798-16.79 39.122-26.04 62.87-26.04 23.747 0 46.075 9.25 62.872 26.04 16.79 16.8 26.04 39.124 26.04 62.876 0 4.086-.3 8.126-.837 12.11H68.537c-.54-3.984-.836-8.024-.836-12.11zm186.474 12.11h-3.362c.513-3.968.8-8.005.8-12.11 0-52.38-42.618-95-95-95-52.38 0-95 42.62-95 95 0 4.105.292 8.142.798 12.11h-3.346c-5.964 0-10.844 5.58-10.844 12.405v13.61c0 6.822 4.88 12.41 10.844 12.41H76.23c16.835 26.687 46.564 44.466 80.383 44.466 33.817 0 63.55-17.78 80.387-44.466h17.174c5.952 0 10.826-5.59 10.826-12.41v-13.61c0-6.826-4.874-12.405-10.826-12.405"/></g><text style="line-height:125%" x="158.072" y="978.231" font-size="9.498" letter-spacing="0" word-spacing="0" fill="#fff" font-family="Sans" transform="translate(0 -802.36)"><tspan x="158.072" y="978.231" style="text-align:center;-inkscape-font-specification:PT Serif Bold Italic" font-size="19.988" font-style="italic" font-weight="bold" text-anchor="middle" font-family="PT Serif">Mon perm-tager</tspan></text></svg>