<svg xmlns="http://www.w3.org/2000/svg" width="150" height="150"><defs><clipPath id="a"><path d="M6632.27 4588.65s-25.37 72.71 20.29 93c0 0-20.29 43.97 16.91 67.64 0 0-16.91 50.73 13.53 59.19 0 0-23.68 32.13 8.45 52.42 0 0-15.22 45.66 18.6 64.26 0 0-18.6 52.42 18.6 64.26 0 0-20.29 39.94 13.53 57.17 0 0-16.91 42.6 15.22 57.81 0 0-21.98 37.21 25.37 59.19 0 0-11.84 33.82 21.98 50.73 0 0-11.84 42.28 30.44 55.8 0 0 1.69 30.44 28.74 35.52 0 0-10.14 55.8 45.66 69.33 0 0-13.53 28.74 49.04 42.27 0 0-27.05 32.13-27.05 57.5l52.42-43.97s6.76 23.67 13.53 43.97c0 0 13.52-45.66 18.6-49.04 5.07-3.38 18.6 16.91 32.13-1.69 0 0 32.12 40.58 42.27 50.73 0 0-1.69-45.66-20.29-62.57 0 0 38.89-3.38 50.73 1.69 0 0-21.98-20.29-32.13-25.36 0 0 33.82-8.46 11.84-38.9 0 0 40.58-25.36 11.83-59.18 0 0 47.65-38.9 10.3-67.64 0 0 21.83-38.9-8.61-64.26 0 0 28.75-35.51-1.69-69.33 0 0 33.82-30.44 0-57.5 0 0 35.51-45.66-13.52-84.55 0 0 27.05-42.27-13.53-71.02 0 0 33.82-32.13-6.77-60.88 0 0 23.68-42.27-15.22-65.95 0 0 27.06-50.73-28.74-67.64 0 0 49.04-81.17-13.53-93 0 0-20.29-74.41-79.48-65.95 0 0-19.64-71.03-60.55-54.12 0 0-56.13-65.95-95.02-18.6 0 0-86.24-18.6-101.46 50.73 0 0-84.55 27.06-52.42 87.94z"/></clipPath></defs><path d="M36.65 87.765s-12.165-43.42 13.1-71.117c0 0 11.415 39.863 2.058 65.503-9.358 25.64-12.62 21.093-15.16 5.615" fill="#65c64e"/><path d="M43.76 92.443s-6.29-7.86-9.04-14.223c-2.75-6.363-8.177-16.47-13.604-17.966 0 0 4.304 5.988 4.304 14.037 0 8.048-.374 26.326 7.018 31.442 7.393 5.114 14.772-2.058 11.323-13.29" fill="#50bd3c"/><path d="M81.94 78.033s11.602-11.285 25.077-15.187c0 0-3.504 17.85-10.106 25.667-6.6 7.818-20.96 21.523-23.954 22.27-2.995.75-17.03-5.05 8.984-32.75" fill="#65c64e"/><path d="M35.527 109.1s-2.808-8.048 2.245-10.293c0 0-2.245-4.867 1.872-7.486 0 0-1.872-5.614 1.497-6.55 0 0-2.62-3.556.936-5.8 0 0-1.684-5.055 2.06-7.113 0 0-2.06-5.802 2.057-7.112 0 0-2.245-4.42 1.498-6.327 0 0-1.87-4.715 1.685-6.398 0 0-2.432-4.118 2.808-6.55 0 0-1.31-3.744 2.432-5.615 0 0-1.31-4.68 3.37-6.176 0 0 .186-3.37 3.18-3.932 0 0-1.122-6.176 5.053-7.673 0 0-1.497-3.18 5.428-4.678 0 0-2.994-3.556-2.994-6.364l5.802 4.867s.748-2.62 1.497-4.867c0 0 1.497 5.054 2.06 5.428.56.375 2.058-1.87 3.555.188 0 0 3.555-4.49 4.68-5.615 0 0-.188 5.054-2.247 6.925 0 0 4.304.374 5.614-.187 0 0-2.432 2.247-3.555 2.808 0 0 3.742.936 1.31 4.305 0 0 4.49 2.807 1.31 6.55 0 0 5.273 4.305 1.14 7.485 0 0 2.415 4.306-.954 7.112 0 0 3.182 3.93-.187 7.673 0 0 3.743 3.37 0 6.364 0 0 3.93 5.053-1.496 9.357 0 0 2.994 4.678-1.498 7.86 0 0 3.743 3.556-.75 6.738 0 0 2.622 4.678-1.683 7.3 0 0 2.994 5.613-3.182 7.485 0 0 5.427 8.983-1.497 10.292 0 0-2.245 8.234-8.796 7.298 0 0-2.173 7.86-6.7 5.99 0 0-6.213 7.3-10.517 2.058 0 0-9.544 2.06-11.23-5.614 0 0-9.356-2.995-5.8-9.733" fill="#e5eb21"/><g clip-path="url(#a)" transform="matrix(.1 0 0 -.1 -698.49 616.94)"><path d="M7024.34 5396.57s45.4-17.33 13.92-47.43c0 0 36.95-16.42 4.88-43.79 0 0 52-28.73 5.95-60.2 0 0 34.33-38.31-8.2-60.21 0 0 43.9-39.57 0-69.02 0 0 34.32-54.12-16.55-70.2 0 0 33.99-22.9-6.14-55.86 0 0 33.75-41.63-23.72-58.51 0 0 28.91-38.31-9.26-67.5 0 0 46.55-41.96-23.18-82.1 0 0 32.8-29.37-23.94-61.21 0 0 47.12-46.87-26.05-62.85 0 0 16.75-70.69-58.05-62.03 0 0 27.04-79.81-67.5-62.03 0 0-29.19-41.96-96.7-18.24 0 0-31.01-49.26 34.67-72.98 65.68-23.71 75.97-82.09 156.57-18.24 80.6 63.85 243.62 184.26 256.06 328.39 12.45 144.13 21.57 363.36 21.57 363.36l16.42 266.06-37.99 30.06s-46.4 24.67-112.76-15.47" fill="#c8ca1b"/><path d="M6720.82 4855.22c-22.25 7.92-46.52-27.24-15.05-38.27 31.47-11.03 53.36 24.62 15.05 38.27M6761.87 4888.06c-22.25 7.92-46.52-27.24-15.05-38.27 31.47-11.03 53.36 24.62 15.05 38.27M6736.64 4937.55c-22.25 7.92-46.53-27.25-15.06-38.27 31.47-11.03 53.37 24.62 15.06 38.27M6906.97 5361.76c-21.46 7.65-44.89-26.29-14.52-36.93s51.49 23.76 14.52 36.93M6931.32 5321.71c-21.46 7.64-44.89-26.29-14.52-36.93s51.49 23.76 14.52 36.93" fill="#f7f795"/><path d="M6882.63 5309.39c-21.47 7.65-44.9-26.29-14.53-36.93 30.37-10.64 51.5 23.76 14.53 36.93M6916.74 5236.87c-21.47 7.65-44.89-26.29-14.52-36.93 30.36-10.64 51.49 23.77 14.52 36.93M6770.23 5091.51c-21.47 7.65-44.89-26.28-14.53-36.92 30.37-10.64 51.5 23.76 14.53 36.92M6761.7 5041.25c-21.47 7.65-44.9-26.28-14.53-36.92 30.37-10.64 51.5 23.76 14.53 36.92M6711.23 4793.74c-21.46 7.64-44.89-26.29-14.52-36.93s51.49 23.76 14.52 36.93M6761.7 4813.76c-21.47 7.65-44.9-26.29-14.53-36.93 30.37-10.64 51.5 23.76 14.53 36.93M6700.81 4706.85c-25.45 9.07-53.23-31.16-17.22-43.78 36-12.61 61.05 28.17 17.22 43.78M6949.05 5410.65c-21.47 7.64-44.89-26.29-14.52-36.93 30.36-10.64 51.49 23.76 14.52 36.93" fill="#f7f795"/></g><path d="M74.48 56.565c-.337 1.3-1.382 2.154-2.333 1.906-.95-.247-1.445-1.502-1.107-2.802.34-1.3 1.385-2.153 2.336-1.906.95.248 1.445 1.503 1.105 2.803M64.436 53.59c-.34 1.3-1.384 2.154-2.335 1.906-.948-.248-1.444-1.502-1.105-2.802.34-1.3 1.384-2.154 2.334-1.906.95.248 1.444 1.503 1.106 2.802" fill="#171717"/><path d="M61.157 57.507s8.993 2.108 10.866 2.832c0 0-1.896 5.443-6.887 4.16-4.592-1.178-3.98-6.993-3.98-6.993" fill="#54501a"/><path d="M56.174 124.027s-13.475-.32-18.153-2.31l-.154 1.717s.716 11.074 1.652 12.384c0 0 2.433 5.8 14.597 5.427 12.165-.375 15.347-2.058 16.47-3.37 1.123-1.31 2.994-11.977 2.432-13.848-.56-1.872-11.992.23-16.843 0" fill="#409538"/><path d="M92.98 122.762s-8.982 7.3-18.526 8.42c-9.545 1.124-19.09-1.12-20.026-2.432-.936-1.31 10.855-20.446 21.71-27.067 10.854-6.62 27.323-7.18 27.323-7.18s-7.86 11.042-9.357 16.28c-1.497 5.24 0 9.733-1.122 11.98" fill="#409538"/><path d="M107.39 79.905c-8.588 2.43-21.333 10.292-27.322 14.598-5.99 4.304-16.204 18.537-18.49 21.737 0 0 6.705-10.752 19.38-15.67 12.674-4.916 31.3-3.606 37.288-2.498 5.99 1.11 17.78 8.97 17.78 8.97s-8.302-18.534-11.67-21.902c-3.37-3.37-12.28-6.562-16.965-5.235" fill="#5ac247"/><path d="M55.493 125.66s-1.575 3.52 1.234 4.217c2.81.698 9.517 2.024 14.207 1.576 0 0-13.02 1.393-15.88.035-2.862-1.36.44-5.83.44-5.83" fill="#317331"/><path d="M47.504 127.253S46.38 115.4 39.83 110.846c-6.55-4.553-12.538-23.32-12.538-31.25 0-7.926-2.62-16.722-6.176-19.342 0 0 5.614 11.23 1.87 25.452-3.742 14.224-2.057 25.265.75 29.383 2.807 4.116 15.72 16.516 19.277 16.398 3.556-.117 4.49-4.235 4.49-4.235" fill="#409538"/><path d="M39.302 129.827s8.665 3.99 7.75-5.425c0 0-.65 6.94-7.75 5.425" fill="#317331"/></svg>