<svg xmlns="http://www.w3.org/2000/svg" width="150" height="150"><defs><clipPath id="a"><path d="M7358.51 6565.15c-1.91-11.65-4.42-23.57-7.91-35.55-22.63-77.81-64.54-5.94-109.7-23.7-45.16-17.76-18.64-74.88-95.02-100.19-76.37-25.32-106.85 88.06-189.34 55.24-73.74-29.34-74.39 34.08-120.61 32.38-46.21-1.69-56.22-28.94-84.26-61.72-28.04-32.78-92.32 5.1-134.92 38.19-27.53 21.38-32.3 63.5-32.25 90.71-15.21-99.32 25.77-275.33 160.49-347.35 153.45-82.04 190.11-73.56 190.11-73.56s57.04-88.35 43.61-118.08c-13.44-29.74-65.56-138.33-13.81-192.28 51.75-53.95 96.66-14.93 96.66-14.93s-69.06-12.31-74.86 41.61c-5.81 53.92 14.24 57.89 14.24 57.89s53.5-31.24 73.96-13.2c0 0-48.46 18.09-53.35 43.59-4.9 25.5-.1 56.57 6.68 66.13 6.78 9.56 62.05 46.97 41.39 142.06 0 0 176.48 39.37 250.01 131.03 55.11 68.71 62.13 190.21 38.88 281.73z"/></clipPath></defs><path d="M91.712 109.26c-.943.642-1.944 1.26-3.015 1.813-6.954 3.596-4.713-4.123-8.963-6.102-4.25-1.978-6.483 3.682-13.34.02-6.857-3.66-.95-13.343-8.74-16.932-6.962-3.21-2.566-7.477-5.762-10.6-3.195-3.12-5.77-2.008-9.93-1.788-4.162.22-5.79-6.802-6.31-11.988-.337-3.35 2.294-6.488 4.202-8.296-7.965 5.547-17.558 20.135-13.63 34.36 4.474 16.205 7.508 18.206 7.508 18.206s-2.387 9.876-5.362 10.915c-2.977 1.04-14.05 4.62-14.38 11.835-.33 7.214 5.39 7.76 5.39 7.76s-5.46-4.014-2.07-8.01c3.387-3.997 5-2.858 5-2.858s1.375 5.825 4 6.056c0 0-1.96-4.596-.5-6.636 1.458-2.04 3.952-3.774 5.073-3.936 1.12-.162 7.42 1.217 12.7-6.56 0 0 14.507 9.732 25.82 8.777 8.478-.717 17.45-8.315 22.31-16.035" fill="#fdddcb"/><g clip-path="url(#a)" transform="matrix(.07 .07 .07 -.07 -857.79 31.24)"><path d="M6613.2 6365.02s45.97-120.36 207.63-166.61c0 0-42.49 18.39-70.82 47.49-28.34 29.1 44.07-18.44 90.29-37.58 61.37-25.41 128.04-23.32 223.04-9.99 95 13.34 181.67 72.59 201.67 97.13 0 0-36.67-57.13-140-100.46 0 0 142.31-6.75 211.99 124.12 0 0-36.99-109.12-131.99-149.12s-113.34-42.13-113.34-42.13-38.33-159.54 13.34-204.54c51.66-45 13.38-176.66-86.65-148.33-100.02 28.33-106.69 235-106.69 235s-266.88 195.14-298.47 355.02" fill="#e6c2b3"/></g><path d="M47.817 97.537l-.018-.02c-.348-.345-.35-.906-.006-1.254.966-.972.656-1.984.044-2.606-.564-.576-1.74-1.087-2.687-.176-.354.34-.915.314-1.253-.024-.34-.356-.33-.915.024-1.256 1.66-1.595 3.905-1.078 5.182.212 1.203 1.223 1.7 3.34-.048 5.102-.34.34-.887.35-1.236.022M45.107 104.19c-.058-.05-.11-.104-.163-.16-1.122-1.196-1.504-3.246 0-4.69.34-.327.86-.337 1.21.024.324.342.315.882-.025 1.21-.803.773-.404 1.79.063 2.287.248.262 1.132 1.04 2.21.05.348-.318.88-.307 1.21.054.317.35.295.89-.054 1.21-1.577 1.442-3.37 1.035-4.454.018M55.065 105.083c-.006-.006-.013-.012-.018-.02-.35-.343-.35-.906-.005-1.254.966-.973.656-1.985.043-2.606-.565-.576-1.738-1.088-2.686-.177-.356.338-.925.312-1.256-.025-.337-.355-.328-.916.025-1.255 1.66-1.595 3.89-1.093 5.18.21 1.203 1.224 1.7 3.34-.048 5.103-.338.342-.887.35-1.237.023" fill="#171717"/><path d="M35.652 63.682c.52 5.186 2.148 12.208 6.31 11.988 4.16-.22 6.735-1.333 9.93 1.79 3.196 3.122-1.2 7.39 5.763 10.598 8.083 3.725 1.882 13.272 8.74 16.932 6.856 3.662 9.09-1.998 13.34-.02 4.25 1.98 2.008 9.7 8.962 6.103 1.07-.554 2.072-1.17 3.015-1.813 2.98-4.734 4.333-10.01 2.84-15.196-3.67-12.743-7.165-17.417-15.94-25.91-15.323-14.83-27.346-17.78-35.57-14.535-1.003.396-2.08.994-3.188 1.766-1.91 1.806-4.54 4.946-4.202 8.296" fill="#d50f64"/><path d="M62.075 59.43c-3.102-5.01-15.197-7.102-18.57-4.34-3.37 2.764-1.705 8.29 3.64 11.205 5.346 2.916 12.417 7.08 13.32 12 .9 4.92 10.127 4.34 7.31-1.19-2.815-5.53-4.523-15.777-5.7-17.676" fill="#ee1789"/><path d="M73.777 68.44c-3.788-4.324-10.632-6.252-5.818 1.614 4.813 7.865 11.402 11.5 11.725 8.464.324-3.037-.956-4.426-5.908-10.078" fill="#9f1151"/><path d="M85.47 64.42s19.514-24.852 25.865-30.495c6.353-5.645 20.043-14.33 15.334-23.18-4.71-8.85-28.62 12.925-32.76 19.685 0 0 6.053-8.74 1.6-11.604-4.456-2.864-13.35 9.475-12.41 17.04.94 7.565-.996 18.976-2.54 21.486 0 0 1.113-12.893-3.56-12.524-4.675.37.738 9.35-.15 14.28-.89 4.932-3.83 7.796-3.83 7.796s-6.962-1.74-3.744 2.6c3.22 4.337 6.113 6.437 6.988 5.623.874-.812 8.114-9.324 9.205-10.707" fill="#469f38"/><path d="M75.575 68.483c-.37.32 8.244-9.513 15.38-23.41 7.134-13.897 31.22-29.694 31.22-29.694s-20.11 16.238-25.494 24.245c-5.38 8.01-12.69 21.563-21.105 28.858" fill="#458c34"/><path d="M92.18 26.13s-4.37 9.934-1.226 18.942L89.2 49.58s-2.39-13.675 2.98-23.45" fill="#458c34"/><path d="M75.19 70.326s8.5-3.438 10.194-12.83c1.693-9.395 9.95-25.608 16.238-24.838 6.288.77-1.76 15.808-1.76 15.808s27.877-20.797 39.813-3.613c5.005 7.207-27.41 10.82-31.41 12.16 0 0 12.715 4.11 8.242 10.094-4.474 5.982-17.24-3.23-26.752 1.117C80.242 72.57 78.52 75.12 78.52 75.12s.39 6.182-3.6.735c-3.987-5.448-2.602-6.41.27-5.53" fill="#55bd35"/><path d="M75.436 73.285s13.832-9.33 20.818-17.17c6.987-7.84 25.03-14.335 36.356-11.774 0 0-20.742-.27-32.557 10.3C88.24 65.21 80.897 70.658 75.436 73.285" fill="#458c34"/><path d="M98.414 39.46S88.82 54.606 88.087 63.883l.99-.94s3.086-11.83 9.337-23.48M96.774 57.542c.335-.294 9.176.823 15.885 5.774 0 0-11.168-5.3-18.14-3.82l2.254-1.954" fill="#458c34"/></svg>