<svg xmlns="http://www.w3.org/2000/svg" width="150" height="150"><path d="M66.597 131.748s9.01-19.69 7.635-30.217c0 0-4.897 1.674-5.833.648-.936-1.025 1.56-3.048 1.56-3.048s-3.307-1.122-4.642-2.977c-1.336-1.854.65-5.72.65-5.72s-3.833-2.142-4.61-5.444c-.778-3.304-4.598-8.58-8.3-13.252-3.7-4.672-5.335-10.14-3.91-12.557 1.428-2.416 3.957.024-.297-3.61-4.253-3.637-5.014-3.552-2.76-6.37 2.255-2.817 2.357-3.29-3.814-1.065 0 0-4.148.1-4.452-5.41 0 0-6.5 7.6-9.716 2.206 0 0 .147-1.453 3.004-2.078 2.858-.625-1.217-1.25-3.91-1.003-2.694.246-.88-2.83-.88-2.83s-3.358 2.58-6.3.134c-2.94-2.447-1.06-3.528-1.566-5.783-.506-2.253-6.98-10.16-.832-13.05 6.15-2.89 12.788.018 15.707 1.8 2.92 1.78-4.355-3.163-.365-7.92 3.99-4.754 4.28-4.94 8.5-3.458 0 0-.118-5.224 5.93-7.64 0 0 3.245 1.026 4.485 2.942 1.24 1.916.067-.316 1.927-2.062 1.86-1.747.79 2.48 2.857 1.685 2.07-.794 3.072-2.394 5.59-1.442 2.52.953-.833 3.122.164 4.244.997 1.12 3.133 2.32 4.242 6.768 0 0 1.86-4.057 4.33-1.713 0 0 3.99-4.755 7.472-.212 3.482 4.542 6.188-1.15 4.075-3.995-2.113-2.847 5.467-6.255 8.995-2.693 3.527 3.562 4.413-3.262 6.487-4.468 2.073-1.205 3.6 2.835 5.358 1.562 1.76-1.274 6.802.22 9.355 3.326 2.552 3.105-2.672.912-2.605 2.907.068 1.995 4.673-1.39 4.622 0-.05 1.392-2.537 2.592-1.957 4.12.58 1.527 6.86.728 8.138 4.385 1.28 3.658 1.764 5.247 3.634 7.3 1.87 2.05-1.624 9.883-6.938 7.34-5.314-2.542-5.535 4.26-.688 3.98 4.846-.28 6.154-.99 7.714 2.892 1.56 3.883 9.738 3.078 9.738 3.078s3.516 2.075 1.048 4.35c-2.47 2.278-7.614 1.257-6.91 2.976.704 1.72 1.86 2.874 1.752 3.76-.107.884 5.652.964 4.756 3.99-.897 3.026-7.558-.548-6.448 1.588 1.11 2.136 1.86 5.185 4.897 5.26 3.037.072.833 6.12-.35 7.02-1.184.902-2.667 2.812-3.862 4.537-1.195 1.723-4.604-1.236-4.604-1.236s.117 5.224.73 6.593c.615 1.37-3.91-5.625-4.546-9.97-.636-4.345-5.337 1.414-3.218 3.85 2.118 2.434-1.85 5.544-4.633 5.442-2.784-.103-7.433-2.668-9.79.623-2.356 3.29.237 3.517-2.672 5.534-2.907 2.017-1.953-5.123-4.157-3.698-2.204 1.425-2.66 7.02.62 5.58 3.28-1.444-1.985 3.864-1.208 4.856.778.992-1.263 4.35.783 5.202 2.045.85-2.66.09-2.66.09s-2.44.22-3.208 3.026c-.766 2.806-2.372-.097-2.31 2.31.06 2.406-.984 18.44 2.8 30.804 0 0-1.35-.62-1.633 1.465-.283 2.085-.84 3.534-1.957 4.12-1.116.585-1.945 5.607-2.39 5.76-.445.15-.986-1.946-1.685-1.765-.7.18.597 2.603-2.176 3.99 0 0 .045-3.292-1.927-4.87 0 0-2.554 1.515-1.996 2.378 0 0-1.927-.25-1.498-6.098 0 0-2.57.44-4.007-3.253 0 0-1.274.552-1.905 2.728-.632 2.175-3.43-8.246-3.43-8.246z" fill="#6fa11c"/><path d="M93.144 49.728c0 .987-.584 1.788-1.306 1.788-.72 0-1.306-.8-1.306-1.788 0-.987.585-1.787 1.306-1.787.722 0 1.306.8 1.306 1.788M78.096 49.728c0 .987-.585 1.788-1.307 1.788s-1.307-.8-1.307-1.788c0-.987.585-1.787 1.306-1.787.72 0 1.306.8 1.306 1.788" fill="#171717"/><path d="M83.95 61.144c-7.485 0-9.448-4.054-9.527-4.226-.092-.2-.006-.438.194-.53.2-.094.437-.007.53.193.076.16 1.868 3.766 8.802 3.766 8.178 0 9.004-3.638 9.01-3.675.045-.215.257-.357.472-.31.216.042.356.253.313.468-.036.177-.97 4.316-9.796 4.316" fill="#040606"/><path d="M94.51 57.278c-.712 0-1.275-.193-1.678-.577-.82-.78-.617-2.027-.61-2.08.04-.217.247-.36.462-.326.218.036.363.242.327.46-.005.027-.13.892.376 1.372.392.37 1.12.452 2.1.234.22-.048.43.09.477.304.048.216-.088.43-.304.476-.42.092-.803.138-1.15.138M73.023 58.387c-.172 0-.33-.112-.382-.285-.063-.21.058-.434.27-.497.024-.008 2.616-.81 2.188-2.402-.057-.213.07-.432.282-.49.215-.056.432.07.49.284.502 1.873-1.568 3.026-2.733 3.373-.037.01-.076.017-.114.017" fill="#040606"/></svg>