<svg xmlns="http://www.w3.org/2000/svg" width="150" height="150"><path d="M71.534 61.336c.7-.85 15.905-14.855 21.388-23.873 5.483-9.017 7.142-17.8 7.142-17.8s10.526.782 12.432 2.194c0 0-3.594 17.05-20.717 30.266-17.122 13.217-26.765 18.22-28.186 21.03-1.42 2.807 1.597-4.115 7.94-11.817" fill="#2c612b"/><path d="M55.727 74.71S66.11 63.38 71.09 52.352c4.975-11.026 12.392-31.97 12.392-31.97s10.895.096 12.03.018c1.133-.076-12.03 29.97-17.404 36.634-5.375 6.666-18.92 20.756-18.92 20.756l-3.46-3.08" fill="#408f36"/><path d="M65.863 70.736s15.28-11.932 28.34-20.143c13.06-8.21 27.537-29.267 29.012-38.58 0 0 12.36 1.938 13.484 3.168 0 0-6.816 21.907-15.677 28.542-8.862 6.635-29.772 16.703-42.466 21.858-12.695 5.156-18.502 12.653-18.502 12.653l-.334-2.72s3.48-3.01 6.143-4.777" fill="#387d33"/><path d="M118.416 54.21s4.777 10.538 3.54 12.532c0 0-12.148 3.643-26.892 5.083-14.743 1.44-23.586 5.897-30.866 11.15-7.28 5.255-2.31-4.9 2.683-7.82 4.994-2.92 36.085-11.464 51.536-20.946" fill="#2c612b"/><path d="M56.397 78.334s2.777-2.466 6.448-5.323c3.67-2.857 8.236-6.106 11.813-7.67 7.154-3.13 37.977-19.337 47.828-29.625 0 0 10.92 7.33 12.548 10.57 0 0-23.333 16.968-42.068 21.405-16.33 3.867-25.036 7.125-31.55 14.303-6.51 7.178-7.81-3.115-5.02-3.66" fill="#408f36"/><path d="M19.597 122.402s-4.2 1.794-4.663 2.378c-.462.585 2.734 1.397 2.734 1.397s-4.167 5.586-3.192 6.248c.975.662 6.94-1.378 6.94-1.378s-1.377 8.16-.14 8.628c1.24.47 5.878-5.204 5.878-5.204s2.228 5.407 3.145 5.22c.916-.19 1.942-5.246 1.942-5.246s1.67 2.35 2.46 2.088c.79-.263.645-6.083.645-6.083s-14.913-6.91-15.75-8.048" fill="#a89977"/><path d="M25.725 131.934c-6.14-2.88-8.425-8.57-6.158-13.65 2.267-5.08 10.375-20.308 18.16-28.477 7.785-8.17 15.548-13.724 18.058-16.71 2.51-2.985 3.8-1.013 2.343 1.197 0 0 6.977-2.614 3.4 2.78 0 0 5.208-.352 1.703 4.26 0 0 8.586-2.345 4.375.757-4.21 3.102-10.336 8.344-14.124 15.437-3.787 7.093-14.246 29.49-15.567 31.114-1.322 1.624-4.376 6.958-12.188 3.294" fill="#eff3dc"/><path d="M47.325 95.762c-.38.746-1.132 1.125-1.678.847-.545-.28-.678-1.11-.297-1.857.382-.747 1.133-1.126 1.678-.847.546.28.68 1.11.297 1.856M42.788 93.444c-.382.746-1.133 1.125-1.678.846-.545-.278-.68-1.11-.297-1.856.38-.746 1.132-1.125 1.678-.846.546.278.68 1.11.298 1.856M38.898 96.182s5.206 2.47 6.237 3.187c0 0-2.214 3.7-5.082 2.25-2.64-1.334-1.155-5.438-1.155-5.438" fill="#171717"/></svg>