<svg xmlns="http://www.w3.org/2000/svg" width="150" height="150"><defs><clipPath id="a"><path d="M5470.49 6976.77c-107.65 26.44-398.48 47.21-500.46-234.18-101.98-281.39 136.59-508.95 258.73-559.01 153.6-62.95 394.7-98.2 638.32 37.77 243.62 135.98 288.95 460.81 166.19 602.45-122.75 141.64-251.17 228.51-562.78 152.97z"/></clipPath></defs><path d="M71.525 40.566c-9.29-2.28-34.385-4.074-43.184 20.207-8.8 24.28 11.787 43.917 22.326 48.236 13.254 5.43 34.058 8.473 55.08-3.26s24.933-39.762 14.34-51.984C109.494 41.544 79.794 33.582 52.906 40.1" fill="#6ebf2a"/><g clip-path="url(#a)" transform="matrix(.1 0 0 -.1 -400.27 642.89)" fill="#66b127"><path d="M4945.3 6751.42s41.51-268.83 214.71-428.46c211.66-195.09 622.09-115.46 773.33 45 120.61 127.96 165.77 348.71 153.33 417.04-12.44 68.32 310-236.23-116.66-544.78-426.67-308.55-733.34-204.26-886.67-28.07-153.33 176.18-259 381.25-138.04 539.27"/></g><path d="M84.35 67.114c-.01 1.06-.644 1.91-1.417 1.904-.774-.006-1.393-.87-1.383-1.93.012-1.058.644-1.91 1.418-1.904.773.008 1.393.87 1.383 1.93M68.946 66.502c-.013 1.06-.645 1.91-1.418 1.904-.775-.007-1.393-.87-1.384-1.93.013-1.058.644-1.91 1.418-1.903.773.007 1.393.87 1.384 1.93" fill="#040606"/><path d="M68.96 70.995s9.728.237 12.576 0c0 0-1.187 7.83-6.29 8.067-5.1.238-6.287-8.067-6.287-8.067" fill="#252525" fill-opacity=".979"/></svg>