<svg xmlns="http://www.w3.org/2000/svg" width="150" height="150"><defs><clipPath id="a"><path d="M6976.1 1570.56c-99.83-11.09-161.95-119.8-175.26-170.82-13.31-51.03-8.87-228.5 87.63-334.99 0 0-9.98-130.89 29.95-177.48 0 0-8.87-84.3 28.84-139.758 0 0-6.66-108.71 37.71-119.8 44.37-11.09 62.12 31.058 68.78 110.93 0 0 42.15 39.928 24.4 126.448 0 0 62.12 109.172 46.59 233.17 0 0 88.35 137.27 63.95 316.97-24.4 179.69-212.59 155.33-212.59 155.33z"/></clipPath></defs><path d="M118.126 13.024c-10.96-5.997-28.19 3.938-34.718 9.788C76.88 28.664 59.17 52.82 57.78 74.35c0 0-14.365 16.82-15.198 26.068 0 0-9.493 10.65-11.45 20.923 0 0-11.773 14.094-8.54 18.91 3.234 4.815 9.29.488 18.114-9.734 0 0 8.232-2.2 15.33-15.144 0 0 17.28-9.996 28.43-27.805 0 0 22.73-11.8 38.704-37.752 15.972-25.95-5.044-36.79-5.044-36.79" fill="#f9d790"/><g clip-path="url(#a)" transform="matrix(.1 .07 .1 -.13 -729.16 -299.24)" fill="#a18b4a"><path d="M7183.02 1443.77s4.3-263.24-94.89-316.74c-99.18-53.5-188.4-55.32-154.8-64.06 33.6-8.74 145.33 39.79 154.8-21.81 9.47-61.6 22.65-191.54-119.28-159.238 0 0-38.52 10.54-.62-13.113 37.9-23.65 86.32-14.322 80.78-59.12-5.54-44.8-32.81-79.452-80.78-67.73-47.97 11.73-38.13 13.59-42.11 17.33-3.99 3.73-22.07-14.65-3.69-87.59 18.37-72.95 156.51-115.598 177.04-45.74 20.53 69.86 163.36 675.33 83.55 817.81"/></g><path d="M61.293 76.672s9.11 6.252 19.625 8.076c0 0-13.07.446-19.625-8.076M46.324 101.62s1.198 6.914 7.865 10.228c0 0-9.996-2.674-7.866-10.227M32.627 123.658s-1.394 4.23 6.562 4.998c0 0-3.99-.92-6.563-4.998" fill="#874a19"/><path d="M114.027 19.313c-5.832-2.628-5.09-12.347 4.37-8.907 9.456 3.44 9.438 15.13-4.37 8.907" fill="#baa553"/><path d="M103.26 54c-.627 1.025-1.737 1.49-2.486 1.034-.747-.46-.853-1.656-.23-2.682.626-1.025 1.736-1.49 2.486-1.034.746.46.852 1.656.23 2.683M88.602 44.473c-.626 1.024-1.736 1.488-2.486 1.033-.747-.46-.852-1.656-.23-2.683.627-1.024 1.736-1.49 2.487-1.033.746.46.852 1.656.23 2.683" fill="#040606"/><path d="M86.01 48.86s9.343 5.87 12.256 7.29c0 0-5.696 6.942-10.806 4.215-5.108-2.726-1.45-11.506-1.45-11.506" fill="#252525" fill-opacity=".979"/></svg>