<svg xmlns="http://www.w3.org/2000/svg" width="150" height="150"><defs><clipPath id="a"><path d="M5470.49 6976.77c-107.65 26.44-398.48 47.21-500.46-234.18-101.98-281.39 136.59-508.95 258.73-559.01 153.6-62.95 394.7-98.2 638.32 37.77 243.62 135.98 288.95 460.81 166.19 602.45-122.75 141.64-251.17 228.51-562.78 152.97z"/></clipPath></defs><path d="M70.142 41.52c-12.304-3.023-45.547-5.397-57.204 26.766C1.282 100.45 28.55 126.46 42.512 132.183c17.557 7.195 45.115 11.224 72.962-4.317 27.846-15.543 33.028-52.672 18.996-68.862-14.03-16.19-28.71-26.12-64.328-17.485" fill="#f04223"/><g clip-path="url(#a)" transform="matrix(.1 0 0 -.1 -555.15 838.99)"><path d="M4945.3 6751.42s41.51-268.83 214.71-428.46c211.66-195.09 622.09-115.46 773.33 45 120.61 127.96 165.77 348.71 153.33 417.04-12.44 68.32 310-236.23-116.66-544.78-426.67-308.55-733.34-204.26-886.67-28.07-153.33 176.18-259 381.25-138.04 539.27" fill="#d63023"/></g><path d="M92.593 45.878s19.212-1.77 26.335 13.126c0 0-3.11-15.74-26.335-13.126M45.102 48.642c.864-.212-15.09.757-24.392 12.737 0 0 8.634-8.85 24.392-12.738" fill="#ab2921"/><path d="M60.07 96.78c0 3.34-2.708 6.044-6.046 6.044-3.337 0-6.044-2.705-6.044-6.043s2.707-6.043 6.044-6.043c3.338 0 6.045 2.705 6.045 6.044M105.76 97.788c0 3.338-2.706 6.044-6.044 6.044-3.338 0-6.044-2.706-6.044-6.044 0-3.34 2.706-6.044 6.044-6.044 3.338 0 6.044 2.705 6.044 6.044" fill="#f57a6a"/><path d="M72.157 86.554c-.62 0-1.128-.493-1.143-1.115-.054-2.326-1.646-3.153-3.134-3.153h-.046c-1.69.02-3.396 1.1-3.396 3.124 0 .633-.51 1.144-1.143 1.144s-1.143-.51-1.143-1.143c0-3.47 2.913-5.376 5.654-5.41h.07c2.564 0 5.336 1.676 5.424 5.384.014.632-.484 1.155-1.117 1.17h-.026M77.853 98.585h-.067c-2.563-.03-5.286-1.817-5.286-5.063 0-.632.513-1.143 1.143-1.143.632 0 1.143.51 1.143 1.142 0 1.8 1.524 2.76 3.028 2.778h.043c1.323 0 2.738-.735 2.787-2.805.014-.63.52-1.183 1.17-1.116.63.014 1.13.537 1.116 1.168-.084 3.47-2.677 5.038-5.078 5.038M92.593 86.554c-.62 0-1.13-.493-1.143-1.115-.055-2.35-1.638-3.16-3.183-3.153-1.687.02-3.394 1.1-3.394 3.124 0 .633-.513 1.144-1.143 1.144-.633 0-1.144-.51-1.144-1.143 0-3.47 2.914-5.376 5.655-5.41 2.556 0 5.406 1.642 5.496 5.384.013.632-.485 1.155-1.117 1.17h-.028" fill="#171717"/><path d="M65.393 47.78s-9.067 13.383-18.348 15.54c-9.283 2.16-22.666-.646-29.79-10.144 0 0 18.133 9.066 25.04 4.75 6.908-4.318 9.714-10.147 9.714-10.147s-1.512-11.226-12.09-14.033c-10.576-2.806-18.78 1.295-22.665 2.807 0 0 7.124-11.01 19.645-11.873 12.52-.862 24.36 11.59 25.687 13.65 0 0 1.295-14.08-2.158-17.102-3.455-3.022-14.465-6.477-14.465-6.477s15.11-1.51 20.723 2.375c5.613 3.887 6.476 19.86 6.476 19.86s7.988-8.203 16.838-9.713c8.85-1.51 22.882 1.51 28.926-13.816 0 0-.216 12.09-6.26 17.485-6.045 5.4-26.768 6.693-29.574 13.817 0 0 14.463 2.158 20.723 10.578 6.26 8.418 6.91 15.325 6.91 15.325s-6.694-12.303-16.407-13.6c-9.715-1.294-24.826-4.748-28.927-9.28" fill="#328f3a"/><path d="M70.142 38.33c-6.69-1.044-10.36 6.86-2.05 7.506 8.31.648 9.52-6.34 2.05-7.505" fill="#47bb3a"/></svg>