<?xml version="1.0" encoding="UTF-8" standalone="no"?>
<!-- Created with Inkscape (http://www.inkscape.org/) -->

<svg
   xmlns:dc="http://purl.org/dc/elements/1.1/"
   xmlns:cc="http://creativecommons.org/ns#"
   xmlns:rdf="http://www.w3.org/1999/02/22-rdf-syntax-ns#"
   xmlns:svg="http://www.w3.org/2000/svg"
   xmlns="http://www.w3.org/2000/svg"
   xmlns:sodipodi="http://sodipodi.sourceforge.net/DTD/sodipodi-0.dtd"
   xmlns:inkscape="http://www.inkscape.org/namespaces/inkscape"
   width="150"
   height="150"
   id="svg7496"
   version="1.1"
   inkscape:version="0.48.4 r9939"
   sodipodi:docname="champignon.svg">
  <defs 
     id="defs7498">
    <clipPath
       id="clipPath11459"
       clipPathUnits="userSpaceOnUse">
      <path
         id="path11461"
         d="m 850.859,6831.69 c 0,0 -187.066,-1.97 -265.832,-137.84 -78.761,-135.87 -106.332,-393.82 92.551,-484.4 198.883,-90.58 226.449,-66.96 226.449,-66.96 0,0 -21.66,-49.22 0,-86.64 21.661,-37.41 47.258,-179.19 112.243,-200.85 64.98,-21.66 82.7,19.69 84.67,31.51 1.97,11.81 -33.47,-5.91 -49.23,-1.97 -15.75,3.94 -25.6,43.32 -37.41,68.92 -11.82,25.6 -21.663,47.26 -13.79,70.89 7.88,23.63 49.23,84.67 45.29,102.39 0,0 269.78,66.95 326.88,194.95 57.1,127.99 66.95,295.36 -27.57,391.85 -94.52,96.49 -218.57,137.84 -277.64,135.87 0,0 15.75,39.38 27.56,53.17 0,0 -76.79,-23.63 -102.393,-49.23 0,0 -5.907,39.38 -1.969,61.04 0,0 -68.918,-39.38 -68.918,-74.82 0,0 -63.012,78.76 -131.934,53.16 0,0 51.2,-33.47 61.043,-61.04 z"
         inkscape:connector-curvature="0" />
    </clipPath>
    <clipPath
       id="clipPath11797"
       clipPathUnits="userSpaceOnUse">
      <path
         id="path11799"
         d="m 2281.39,7271.13 c 0,0 29.48,32.66 57.68,43.52 28.2,10.87 17.33,55.36 97.76,52.68 80.42,-2.69 48.04,-78.76 48.04,-78.76 0,0 44.96,18.84 99.53,5.07 54.57,-13.76 65.44,-64.46 43.7,-116.27 -21.74,-51.82 -71.21,-140.02 -160.59,-127.44 -89.37,12.59 -206.79,158.11 -186.12,221.2 z"
         inkscape:connector-curvature="0" />
    </clipPath>
    <clipPath
       id="clipPath11811"
       clipPathUnits="userSpaceOnUse">
      <path
         id="path11813"
         d="m 2467.51,7049.93 c 0,0 19.31,95.19 73.65,101.71 54.34,6.52 89.11,32.6 86.94,69.55 -2.17,36.95 2.46,67.38 -53.11,73.9 0,0 -9.92,8.7 20.51,21.74 30.43,13.04 71.38,22 94.34,-3.41 22.95,-25.41 62.15,-67.81 49.11,-114.8 -13.04,-46.98 -119.33,-119.69 -163.96,-148.69 -44.63,-28.99 -78.75,-99.24 -107.48,0 z"
         inkscape:connector-curvature="0" />
    </clipPath>
    <clipPath
       id="clipPath11825"
       clipPathUnits="userSpaceOnUse">
      <path
         id="path11827"
         d="m 2467.51,6783.07 c 0,0 67.13,155.56 45.39,246.85 -21.73,91.29 -65.21,119.54 -158.67,171.71 -93.46,52.16 -150.46,126.07 -257.81,0 -107.35,-126.07 -20.41,-219.53 38.28,-278.22 58.69,-58.69 220.05,-152.45 332.81,-140.34 z"
         inkscape:connector-curvature="0" />
    </clipPath>
    <clipPath
       id="clipPath11843"
       clipPathUnits="userSpaceOnUse">
      <path
         id="path11845"
         d="m 2793.29,7198.62 c 0,0 23.91,-131.75 63.04,-188.26 39.12,-56.52 139.1,-343.43 0,-462.98 -139.11,-119.54 -354.74,-160.75 -433.19,-143.45 -78.45,17.3 -26.52,365.23 13.15,473.87 39.66,108.64 217.89,296.08 357,320.82 z"
         inkscape:connector-curvature="0" />
    </clipPath>
    <clipPath
       id="clipPath11859"
       clipPathUnits="userSpaceOnUse">
      <path
         id="path11861"
         d="m 2384.66,6393.06 c 0,0 65.21,-21.74 128.24,32.6 63.03,54.34 93.46,123.9 93.46,178.24 0,54.34 -32.6,215.18 -110.85,267.35 -78.25,52.16 -443.41,239.09 -473.84,289.08 -30.43,49.99 -45.64,-21.74 -56.51,-65.2 -10.87,-43.48 -37.59,-164.69 -67.7,-218.2 -30.11,-53.5 -85.09,-129.58 0,-251.3 85.09,-121.72 263.32,-234.74 487.2,-232.57 z"
         inkscape:connector-curvature="0" />
    </clipPath>
    <clipPath
       id="clipPath11493"
       clipPathUnits="userSpaceOnUse">
      <path
         id="path11495"
         d="m 4003.03,7499.29 c -169.8,4.36 -332.79,-105.57 -362.63,-190.49 -29.84,-84.92 -94.1,-330.5 -117.05,-381 -22.95,-50.49 -169.84,-234.1 -183.61,-348.86 -13.77,-114.75 34.42,-410.82 403.94,-456.73 369.52,-45.9 599.03,71.15 647.23,289.19 48.2,218.04 -89.51,507.22 -100.99,562.31 -11.47,55.08 71.15,516.4 -286.89,525.58 z"
         inkscape:connector-curvature="0" />
    </clipPath>
    <clipPath
       id="clipPath11565"
       clipPathUnits="userSpaceOnUse">
      <path
         id="path11567"
         d="m 5470.49,6976.77 c -107.65,26.44 -398.48,47.21 -500.46,-234.18 -101.98,-281.39 136.59,-508.95 258.73,-559.01 153.6,-62.95 394.7,-98.2 638.32,37.77 243.62,135.98 288.95,460.81 166.19,602.45 -122.75,141.64 -251.17,228.51 -562.78,152.97 z"
         inkscape:connector-curvature="0" />
    </clipPath>
    <clipPath
       id="clipPath11889"
       clipPathUnits="userSpaceOnUse">
      <path
         id="path11891"
         d="m 7358.51,6565.15 c -1.91,-11.65 -4.42,-23.57 -7.91,-35.55 -22.63,-77.81 -64.54,-5.94 -109.7,-23.7 -45.16,-17.76 -18.64,-74.88 -95.02,-100.19 -76.37,-25.32 -106.85,88.06 -189.34,55.24 -73.74,-29.34 -74.39,34.08 -120.61,32.38 -46.21,-1.69 -56.22,-28.94 -84.26,-61.72 -28.04,-32.78 -92.32,5.1 -134.92,38.19 -27.53,21.38 -32.3,63.5 -32.25,90.71 -15.21,-99.32 25.77,-275.33 160.49,-347.35 153.45,-82.04 190.11,-73.56 190.11,-73.56 0,0 57.04,-88.35 43.61,-118.08 -13.44,-29.74 -65.56,-138.33 -13.81,-192.28 51.75,-53.95 96.66,-14.93 96.66,-14.93 0,0 -69.06,-12.31 -74.86,41.61 -5.81,53.92 14.24,57.89 14.24,57.89 0,0 53.5,-31.24 73.96,-13.2 0,0 -48.46,18.09 -53.35,43.59 -4.9,25.5 -0.1,56.57 6.68,66.13 6.78,9.56 62.05,46.97 41.39,142.06 0,0 176.48,39.37 250.01,131.03 55.11,68.71 62.13,190.21 38.88,281.73 z"
         inkscape:connector-curvature="0" />
    </clipPath>
    <clipPath
       id="clipPath11763"
       clipPathUnits="userSpaceOnUse">
      <path
         id="path11765"
         d="m 925.598,5230.68 c -82.36,-2.22 -420.496,-128.97 -420.684,-442.94 -0.168,-281.56 200.324,-469.65 471.875,-489.68 271.551,-20.03 581.621,194.31 583.171,505.26 1.69,340.56 -378.39,420.69 -438.49,427.36 0,0 28.93,75.68 82.35,117.97 0,0 -55.64,6.68 -93.48,-11.13 0,0 -2.23,55.65 -24.48,120.2 0,0 -91.262,-62.33 -106.844,-84.58 0,0 -51.196,35.61 -84.582,51.19 0,0 42.293,-155.81 31.164,-193.65 z"
         inkscape:connector-curvature="0" />
    </clipPath>
    <clipPath
       id="clipPath11597"
       clipPathUnits="userSpaceOnUse">
      <path
         id="path11599"
         d="m 4172.82,5122.8 c -27.71,-1.85 -61.7,30.85 -64.07,47.46 -2.37,16.61 21.36,80.68 47.46,111.53 26.1,30.85 116.28,90.18 116.28,102.04 0,11.87 -40.34,42.71 -59.33,36.78 -18.98,-5.93 -54.58,-36.78 -54.58,-36.78 0,0 35.6,66.44 47.46,78.31 11.87,11.86 -64.4,49.83 -97.45,47.46 0,0 -113.74,-106.79 -137.47,-168.48 -23.73,-61.7 -23.73,-144.16 -40.35,-156.33 -16.61,-12.16 -73.56,-50.13 -116.27,-61.99 -42.72,-11.87 -154.25,-27.29 -237.3,-77.72 -83.06,-50.42 -161.37,-131.52 -170.86,-200.13 -9.49,-68.61 23.73,-213.36 121.02,-296.42 97.3,-83.06 277.64,-147.13 353.58,-144.75 75.94,2.37 123.4,37.96 123.4,37.96 0,0 80.68,-35.59 144.75,-4.74 0,0 59.33,-23.73 140.01,14.24 80.68,37.96 287.13,189.84 246.79,439 -40.34,249.17 -161.36,261.41 -187.47,263.6 -26.1,2.18 -140,-28.67 -175.6,-31.04 z"
         inkscape:connector-curvature="0" />
    </clipPath>
    <clipPath
       id="clipPath12061"
       clipPathUnits="userSpaceOnUse">
      <path
         id="path12063"
         d="m 5357,5573.74 c 0,0 -47.6,9.52 -55.21,-28.55 0,0 -38.08,-7.62 -30.46,-55.21 0,0 -11.54,-95.19 -1.01,-159.92 10.53,-64.73 52.41,-220.83 54.31,-258.91 0,0 -9.52,-34.27 1.91,-45.69 0,0 7.61,-108.52 -1.91,-190.38 -9.52,-81.86 -1.9,-197.99 5.71,-218.93 0,0 3.81,-43.79 26.66,-53.31 0,0 -26.66,-51.4 19.03,-60.92 0,0 38.08,-47.59 60.92,-53.3 22.85,-5.71 53.31,-36.17 66.64,-34.27 13.32,1.9 89.47,-11.42 127.55,36.17 38.07,47.6 62.82,62.83 60.92,83.77 -1.9,20.94 0,36.17 9.52,45.69 9.52,9.52 13.32,39.98 0,62.82 0,0 26.65,9.52 26.65,60.92 0,51.4 22.93,98.71 23.52,156.11 0.74,72.34 -16.39,138.37 -25.42,197.99 -13,85.72 -116.13,352.2 -194.19,441.68 -78.05,89.47 -114.22,62.82 -114.22,62.82 0,0 -32.37,36.17 -60.92,11.42 z"
         inkscape:connector-curvature="0" />
    </clipPath>
    <clipPath
       id="clipPath11933"
       clipPathUnits="userSpaceOnUse">
      <path
         id="path11935"
         d="m 6632.27,4588.65 c 0,0 -25.37,72.71 20.29,93 0,0 -20.29,43.97 16.91,67.64 0,0 -16.91,50.73 13.53,59.19 0,0 -23.68,32.13 8.45,52.42 0,0 -15.22,45.66 18.6,64.26 0,0 -18.6,52.42 18.6,64.26 0,0 -20.29,39.94 13.53,57.17 0,0 -16.91,42.6 15.22,57.81 0,0 -21.98,37.21 25.37,59.19 0,0 -11.84,33.82 21.98,50.73 0,0 -11.84,42.28 30.44,55.8 0,0 1.69,30.44 28.74,35.52 0,0 -10.14,55.8 45.66,69.33 0,0 -13.53,28.74 49.04,42.27 0,0 -27.05,32.13 -27.05,57.5 l 52.42,-43.97 c 0,0 6.76,23.67 13.53,43.97 0,0 13.52,-45.66 18.6,-49.04 5.07,-3.38 18.6,16.91 32.13,-1.69 0,0 32.12,40.58 42.27,50.73 0,0 -1.69,-45.66 -20.29,-62.57 0,0 38.89,-3.38 50.73,1.69 0,0 -21.98,-20.29 -32.13,-25.36 0,0 33.82,-8.46 11.84,-38.9 0,0 40.58,-25.36 11.83,-59.18 0,0 47.65,-38.9 10.3,-67.64 0,0 21.83,-38.9 -8.61,-64.26 0,0 28.75,-35.51 -1.69,-69.33 0,0 33.82,-30.44 0,-57.5 0,0 35.51,-45.66 -13.52,-84.55 0,0 27.05,-42.27 -13.53,-71.02 0,0 33.82,-32.13 -6.77,-60.88 0,0 23.68,-42.27 -15.22,-65.95 0,0 27.06,-50.73 -28.74,-67.64 0,0 49.04,-81.17 -13.53,-93 0,0 -20.29,-74.41 -79.48,-65.95 0,0 -19.64,-71.03 -60.55,-54.12 0,0 -56.13,-65.95 -95.02,-18.6 0,0 -86.24,-18.6 -101.46,50.73 0,0 -84.55,27.06 -52.42,87.94 z"
         inkscape:connector-curvature="0" />
    </clipPath>
    <clipPath
       id="clipPath11627"
       clipPathUnits="userSpaceOnUse">
      <path
         id="path11629"
         d="m 2223.84,3484.33 c 0,0 246.71,55.6 288.41,90.35 42.03,35.02 121.28,171.52 93.81,274.5 0,0 180.69,34.75 205.01,0 0,0 -79.92,-170.26 -132.04,-218.91 -52.12,-48.64 0,-90.74 48.65,-95.75 48.65,-5.01 114.67,-50.19 114.67,-50.19 0,0 -441.29,-215.43 -618.51,0 z"
         inkscape:connector-curvature="0" />
    </clipPath>
    <clipPath
       id="clipPath11639"
       clipPathUnits="userSpaceOnUse">
      <path
         id="path11641"
         d="m 2314.19,3484.33 c 0,0 -166.79,145.94 -406.55,-86.86 -239.75,-232.81 -236.28,-451.72 -208.48,-521.21 27.8,-69.5 180.69,-271.03 271.03,-208.49 0,0 277.98,-211.95 531.63,0 0,0 135.52,-113.5 333.58,37.07 0,0 170.26,-44.02 298.82,199.22 128.57,243.23 -52.12,531.63 -128.56,590.7 -76.45,59.07 -191.11,0 -205.01,-31.27 0,0 -104.24,138.98 -211.96,-17.38 0,0 -79.92,170.26 -274.5,38.22 z"
         inkscape:connector-curvature="0" />
    </clipPath>
    <clipPath
       id="clipPath11991"
       clipPathUnits="userSpaceOnUse">
      <path
         id="path11993"
         d="m 5662.36,3891.14 c -86.84,-12.36 -238.23,-43.25 -346.36,-247.17 -108.14,-203.91 -228.64,-308.96 -253.35,-528.32 -24.72,-219.37 -6.18,-559.23 274.97,-549.96 281.16,9.27 343.6,169.93 324.74,336.77 -18.86,166.84 -201.15,342.95 -219.69,407.83 -18.54,64.88 -24.72,135.95 -12.36,163.75 12.36,27.81 299.7,166.84 293.52,302.79 -6.18,135.94 -61.47,114.31 -61.47,114.31 z"
         inkscape:connector-curvature="0" />
    </clipPath>
    <clipPath
       id="clipPath12017"
       clipPathUnits="userSpaceOnUse">
      <path
         id="path12019"
         d="m 6678.13,3172.89 c 0,0 92.8,-126.71 139.2,-137.42 46.4,-10.71 73.17,39.26 78.53,78.53 5.35,39.26 57.11,64.25 64.25,37.48 7.14,-26.77 -14.28,-122.52 33.91,-117.48 48.18,5.04 101.73,101.41 105.29,110.34 3.57,8.92 112.44,-17.73 91.02,-40.99 -21.41,-23.26 -58.89,-51.82 -53.54,-78.59 5.36,-26.77 73.18,-24.98 139.21,33.91 66.03,58.9 15.75,-45.63 0,-50.51 -15.75,-4.87 -139.21,-58.35 -153.48,-108.33 -14.28,-49.97 55.32,-160.62 48.18,-176.68 -7.14,-16.06 -94.59,-73.17 -192.75,-76.74 -98.15,-3.57 -192.74,33.91 -198.1,64.25 -5.35,30.34 44.62,149.67 19.63,198.87 -24.98,49.2 -139.2,175.91 -194.53,193.76 -55.32,17.85 46.4,66.03 73.18,69.6 z"
         inkscape:connector-curvature="0" />
    </clipPath>
    <clipPath
       id="clipPath12219"
       clipPathUnits="userSpaceOnUse">
      <path
         id="path12221"
         d="m 2198.71,1333.97 c 0,0 41.77,-105.05 0,-151.39 -41.77,-46.34 -196.25,-308.959 222.67,-308.959 352.34,0 228.12,256.439 182.67,302.779 -45.46,46.35 -10.16,145.21 0,176.11 10.15,30.9 -406.82,216.27 -405.34,-18.54 z"
         inkscape:connector-curvature="0" />
    </clipPath>
    <clipPath
       id="clipPath12231"
       clipPathUnits="userSpaceOnUse">
      <path
         id="path12233"
         d="m 2424.19,1921 c -310.65,-8.05 -557.68,-239.11 -548.41,-394.53 9.27,-155.42 92.81,-260.47 322.93,-238.84 230.12,21.63 591.6,-58.16 705.92,-2.82 114.31,55.34 234.81,654.73 -480.44,636.19 z"
         inkscape:connector-curvature="0" />
    </clipPath>
  </defs>
  <sodipodi:namedview
     id="base"
     pagecolor="#ffffff"
     bordercolor="#666666"
     borderopacity="1.0"
     inkscape:pageopacity="0.0"
     inkscape:pageshadow="2"
     inkscape:zoom="1.9445436"
     inkscape:cx="27.293245"
     inkscape:cy="120.47656"
     inkscape:current-layer="layer1"
     showgrid="true"
     inkscape:document-units="px"
     inkscape:grid-bbox="true"
     inkscape:window-width="1280"
     inkscape:window-height="748"
     inkscape:window-x="0"
     inkscape:window-y="0"
     inkscape:window-maximized="1" />
  <metadata
     id="metadata7501">
    <rdf:RDF>
      <cc:Work
         rdf:about="">
        <dc:format>image/svg+xml</dc:format>
        <dc:type
           rdf:resource="http://purl.org/dc/dcmitype/StillImage" />
        <dc:title></dc:title>
      </cc:Work>
    </rdf:RDF>
  </metadata>
  <g
     id="layer1"
     inkscape:label="Layer 1"
     inkscape:groupmode="layer"
     transform="translate(0,86)">
    <g
       transform="translate(921.7317,-9.3938533)"
       id="g9616">
      <path
         inkscape:connector-curvature="0"
         d="m -857.86243,38.931264 c 0,0 7.9225,8.32125 -5.85,22.95512 0,0 10.0375,13.48626 29.695,-1.72124 0,0 -0.4275,-16.64263 -5.5925,-21.23388 0,0 11.4775,0.57375 16.355,-4.59125 4.8775,-5.165 -3.73,-9.18125 -9.4688,-10.61625 -5.7387,-1.435 -24.9637,0.28625 -33.5712,2.295 -8.6088,2.00875 -12.4462,12.93 8.4325,12.9125"
         style="fill:#2c973f;fill-opacity:1;fill-rule:nonzero;stroke:none"
         id="path12255" />
      <path
         inkscape:connector-curvature="0"
         d="m -853.45993,37.926264 c 0,0 5.6725,2.5825 9.9762,0 0,0 -3.3824,5.81125 -9.9762,0"
         style="fill:#1c5c2d;fill-opacity:1;fill-rule:nonzero;stroke:none"
         id="path12257" />
      <path
         inkscape:connector-curvature="0"
         d="m -861.34613,-55.686236 c 0,0 8.3162,-14.20375 14.4874,-16.78625 6.1725,-2.5825 18.0088,9.25375 18.8688,16.78625 0.8612,7.5325 -3.4425,18.2925 -13.3425,13.3425 -9.8988,-4.95 -20.0137,-13.3425 -20.0137,-13.3425"
         style="fill:#3cb94a;fill-opacity:1;fill-rule:nonzero;stroke:none"
         id="path12259" />
      <path
         inkscape:connector-curvature="0"
         d="m -873.20493,-44.279986 c 0,0 -2.3437,-10.115 13.5812,-19.36875 0,0 3.0701,13.1275 2.8263,17.64625 -0.2438,4.52 -8.8987,12.6975 -16.4075,1.7225"
         style="fill:#4fbe4a;fill-opacity:1;fill-rule:nonzero;stroke:none"
         id="path12261" />
      <path
         inkscape:connector-curvature="0"
         d="m -882.67743,-19.962486 c 0,0 -9.6575,-10.975 6.2675,-28.4075 0,0 22.1663,10.76125 19.3687,31.205 -2.7987,20.4437499 -21.3587,6.88625 -25.6362,-2.7975"
         style="fill:#3cb94a;fill-opacity:1;fill-rule:nonzero;stroke:none"
         id="path12263" />
      <path
         inkscape:connector-curvature="0"
         d="m -866.31993,-36.533736 c 0.2337,-7.02875 1.9612,-15.925 11.645,-25.60875 0,0 20.585,9.9 21.4825,23.6725 0.8987,13.7725 -5.1263,22.16625 -10.5062,21.305 -5.3801,-0.86125 -23.3738,3.25125 -22.6213,-19.36875"
         style="fill:#2c973f;fill-opacity:1;fill-rule:nonzero;stroke:none"
         id="path12265" />
      <path
         inkscape:connector-curvature="0"
         d="m -828.42613,-12.923736 c -7.3938,0.24125 -12.5625,-5.81 -11.2713,-22.38 1.2913,-16.57125 6.05,-20.875 6.05,-20.875 0,0 26.0187,12.26625 23.1112,29.9125 -2.9062,17.6474999 -17.8899,13.3425 -17.8899,13.3425"
         style="fill:#3cb94a;fill-opacity:1;fill-rule:nonzero;stroke:none"
         id="path12267" />
      <path
         inkscape:connector-curvature="0"
         d="m -887.16993,11.457514 c -0.5975,-0.495 -15.4588,-20.6600001 -2.995,-37.87625 0,0 23.8637,4.30375 26.88,18.9374999 3.015,14.63375 -2.58,36.5850001 -23.885,18.9387501"
         style="fill:#2c973f;fill-opacity:1;fill-rule:nonzero;stroke:none"
         id="path12269" />
      <path
         inkscape:connector-curvature="0"
         d="m -815.20373,-16.734986 10.8863,-18.7225 c 0,0 16.7863,22.59625 1.7225,38.5212499 -15.065,15.9250001 -14.2413,-13.5574999 -12.6088,-19.7987499"
         style="fill:#2c973f;fill-opacity:1;fill-rule:nonzero;stroke:none"
         id="path12271" />
      <path
         inkscape:connector-curvature="0"
         d="m -835.30613,-17.379986 c 0,0 8.6075,-14.41875 15.2787,-19.15375 0,0 16.1413,17.17 12.4825,31.3962499 -3.6588,14.2275 -13.9887,22.1900001 -20.875,17.0250001 -6.8862,-5.1650001 -12.0512,-16.7862501 -6.8862,-29.2675"
         style="fill:#4fbe4a;fill-opacity:1;fill-rule:nonzero;stroke:none"
         id="path12273" />
      <path
         inkscape:connector-curvature="0"
         d="m -861.81743,11.457514 c 0,0 -14.1625,-25.395 14.46,-42.61125 0,0 23.8112,15.71 12.4437,38.5212499 -11.3674,22.8125001 -24.2674,11.4350001 -26.9037,4.0900001"
         style="fill:#3cb94a;fill-opacity:1;fill-rule:nonzero;stroke:none"
         id="path12275" />
      <path
         inkscape:connector-curvature="0"
         d="m -895.56243,3.0637639 c 0,0 18.73,9.4312501 23.6712,22.1662501 4.9426,12.735 1.4613,10.76 -1.3137,10.975 -2.775,0.215 -26.0162,-5.595 -22.3575,-33.1412501"
         style="fill:#4fbe4a;fill-opacity:1;fill-rule:nonzero;stroke:none"
         id="path12277" />
      <path
         inkscape:connector-curvature="0"
         d="m -875.97993,1.3425139 c 0,0 23.5462,6.45625 23.9325,19.3687501 0.3862,12.91125 -5.21,15.3775 -15.97,13.17625 -10.76,-2.20125 -17.6463,-17.91125 -7.9625,-32.5450001"
         style="fill:#3cb94a;fill-opacity:1;fill-rule:nonzero;stroke:none"
         id="path12279" />
      <path
         inkscape:connector-curvature="0"
         d="m -826.69863,13.608764 c 0,0 11.6212,-14.2037501 29.4837,-13.3425001 0,0 -6.0262,35.9450001 -27.6813,33.6212501 -17.5487,-1.8825 -1.8024,-20.27875 -1.8024,-20.27875"
         style="fill:#3cb94a;fill-opacity:1;fill-rule:nonzero;stroke:none"
         id="path12281" />
      <path
         inkscape:connector-curvature="0"
         d="m -834.22993,0.2662639 c 0,0 -17.6475,7.3175 -19.1537,19.3687501 -1.5063,12.05125 19.5649,21.7325 26.5687,6.23875 7.0037,-15.4925 -7.415,-25.6075001 -7.415,-25.6075001"
         style="fill:#2c973f;fill-opacity:1;fill-rule:nonzero;stroke:none"
         id="path12283" />
      <path
         inkscape:connector-curvature="0"
         d="m -840.89993,-8.8649861 c 0,1.27875 -0.7488,2.315 -1.6762,2.315 -0.9263,0.001 -1.6776,-1.035 -1.6776,-2.3125 0,-1.2787499 0.7488,-2.3149999 1.675,-2.3162499 0.9263,0 1.6776,1.035 1.6788,2.3137499"
         style="fill:#040606;fill-opacity:1;fill-rule:nonzero;stroke:none"
         id="path12285" />
      <path
         inkscape:connector-curvature="0"
         d="m -852.07363,-8.1274861 c 0,1.2775 -0.7488,2.315 -1.6751,2.315 -0.9262,0.001 -1.6787,-1.035 -1.6787,-2.3125 0,-1.27875 0.7488,-2.3149999 1.675,-2.3162499 0.9263,0 1.6788,1.0349999 1.6788,2.3137499"
         style="fill:#040606;fill-opacity:1;fill-rule:nonzero;stroke:none"
         id="path12287" />
      <path
         inkscape:connector-curvature="0"
         d="m -848.23243,-1.2712361 c -2.3938,0 -3.5338,-1.8025 -3.8025,-2.755 -0.092,-0.33375 0.1012,-0.6775 0.4337,-0.77125 0.3263,-0.0925 0.675,0.0987 0.7688,0.42875 0.026,0.0875 0.575,1.8475 2.6012,1.8475 0,0 0,0 0,0 2.4263,-0.001 2.6576,-1.68375 2.6663,-1.755 0.043,-0.3425 0.35,-0.59375 0.6963,-0.545 0.3424,0.0412 0.5874,0.3525 0.545,0.69625 -0.1201,0.98625 -1.0901,2.8525 -3.9063,2.85375 0,0 0,0 0,0"
         style="fill:#040606;fill-opacity:1;fill-rule:nonzero;stroke:none"
         id="path12289" />
    </g>
  </g>
</svg>
