<?xml version="1.0" encoding="UTF-8" standalone="no"?>
<!-- Created with Inkscape (http://www.inkscape.org/) -->

<svg
   xmlns:dc="http://purl.org/dc/elements/1.1/"
   xmlns:cc="http://creativecommons.org/ns#"
   xmlns:rdf="http://www.w3.org/1999/02/22-rdf-syntax-ns#"
   xmlns:svg="http://www.w3.org/2000/svg"
   xmlns="http://www.w3.org/2000/svg"
   xmlns:sodipodi="http://sodipodi.sourceforge.net/DTD/sodipodi-0.dtd"
   xmlns:inkscape="http://www.inkscape.org/namespaces/inkscape"
   width="150"
   height="150"
   id="svg7496"
   version="1.1"
   inkscape:version="0.48.4 r9939"
   sodipodi:docname="fenouil.svg">
  <defs
     id="defs7498">
    <clipPath
       id="clipPath11459"
       clipPathUnits="userSpaceOnUse">
      <path
         id="path11461"
         d="m 850.859,6831.69 c 0,0 -187.066,-1.97 -265.832,-137.84 -78.761,-135.87 -106.332,-393.82 92.551,-484.4 198.883,-90.58 226.449,-66.96 226.449,-66.96 0,0 -21.66,-49.22 0,-86.64 21.661,-37.41 47.258,-179.19 112.243,-200.85 64.98,-21.66 82.7,19.69 84.67,31.51 1.97,11.81 -33.47,-5.91 -49.23,-1.97 -15.75,3.94 -25.6,43.32 -37.41,68.92 -11.82,25.6 -21.663,47.26 -13.79,70.89 7.88,23.63 49.23,84.67 45.29,102.39 0,0 269.78,66.95 326.88,194.95 57.1,127.99 66.95,295.36 -27.57,391.85 -94.52,96.49 -218.57,137.84 -277.64,135.87 0,0 15.75,39.38 27.56,53.17 0,0 -76.79,-23.63 -102.393,-49.23 0,0 -5.907,39.38 -1.969,61.04 0,0 -68.918,-39.38 -68.918,-74.82 0,0 -63.012,78.76 -131.934,53.16 0,0 51.2,-33.47 61.043,-61.04 z"
         inkscape:connector-curvature="0" />
    </clipPath>
    <clipPath
       id="clipPath11797"
       clipPathUnits="userSpaceOnUse">
      <path
         id="path11799"
         d="m 2281.39,7271.13 c 0,0 29.48,32.66 57.68,43.52 28.2,10.87 17.33,55.36 97.76,52.68 80.42,-2.69 48.04,-78.76 48.04,-78.76 0,0 44.96,18.84 99.53,5.07 54.57,-13.76 65.44,-64.46 43.7,-116.27 -21.74,-51.82 -71.21,-140.02 -160.59,-127.44 -89.37,12.59 -206.79,158.11 -186.12,221.2 z"
         inkscape:connector-curvature="0" />
    </clipPath>
    <clipPath
       id="clipPath11811"
       clipPathUnits="userSpaceOnUse">
      <path
         id="path11813"
         d="m 2467.51,7049.93 c 0,0 19.31,95.19 73.65,101.71 54.34,6.52 89.11,32.6 86.94,69.55 -2.17,36.95 2.46,67.38 -53.11,73.9 0,0 -9.92,8.7 20.51,21.74 30.43,13.04 71.38,22 94.34,-3.41 22.95,-25.41 62.15,-67.81 49.11,-114.8 -13.04,-46.98 -119.33,-119.69 -163.96,-148.69 -44.63,-28.99 -78.75,-99.24 -107.48,0 z"
         inkscape:connector-curvature="0" />
    </clipPath>
    <clipPath
       id="clipPath11825"
       clipPathUnits="userSpaceOnUse">
      <path
         id="path11827"
         d="m 2467.51,6783.07 c 0,0 67.13,155.56 45.39,246.85 -21.73,91.29 -65.21,119.54 -158.67,171.71 -93.46,52.16 -150.46,126.07 -257.81,0 -107.35,-126.07 -20.41,-219.53 38.28,-278.22 58.69,-58.69 220.05,-152.45 332.81,-140.34 z"
         inkscape:connector-curvature="0" />
    </clipPath>
    <clipPath
       id="clipPath11843"
       clipPathUnits="userSpaceOnUse">
      <path
         id="path11845"
         d="m 2793.29,7198.62 c 0,0 23.91,-131.75 63.04,-188.26 39.12,-56.52 139.1,-343.43 0,-462.98 -139.11,-119.54 -354.74,-160.75 -433.19,-143.45 -78.45,17.3 -26.52,365.23 13.15,473.87 39.66,108.64 217.89,296.08 357,320.82 z"
         inkscape:connector-curvature="0" />
    </clipPath>
    <clipPath
       id="clipPath11859"
       clipPathUnits="userSpaceOnUse">
      <path
         id="path11861"
         d="m 2384.66,6393.06 c 0,0 65.21,-21.74 128.24,32.6 63.03,54.34 93.46,123.9 93.46,178.24 0,54.34 -32.6,215.18 -110.85,267.35 -78.25,52.16 -443.41,239.09 -473.84,289.08 -30.43,49.99 -45.64,-21.74 -56.51,-65.2 -10.87,-43.48 -37.59,-164.69 -67.7,-218.2 -30.11,-53.5 -85.09,-129.58 0,-251.3 85.09,-121.72 263.32,-234.74 487.2,-232.57 z"
         inkscape:connector-curvature="0" />
    </clipPath>
    <clipPath
       id="clipPath11493"
       clipPathUnits="userSpaceOnUse">
      <path
         id="path11495"
         d="m 4003.03,7499.29 c -169.8,4.36 -332.79,-105.57 -362.63,-190.49 -29.84,-84.92 -94.1,-330.5 -117.05,-381 -22.95,-50.49 -169.84,-234.1 -183.61,-348.86 -13.77,-114.75 34.42,-410.82 403.94,-456.73 369.52,-45.9 599.03,71.15 647.23,289.19 48.2,218.04 -89.51,507.22 -100.99,562.31 -11.47,55.08 71.15,516.4 -286.89,525.58 z"
         inkscape:connector-curvature="0" />
    </clipPath>
    <clipPath
       id="clipPath11565"
       clipPathUnits="userSpaceOnUse">
      <path
         id="path11567"
         d="m 5470.49,6976.77 c -107.65,26.44 -398.48,47.21 -500.46,-234.18 -101.98,-281.39 136.59,-508.95 258.73,-559.01 153.6,-62.95 394.7,-98.2 638.32,37.77 243.62,135.98 288.95,460.81 166.19,602.45 -122.75,141.64 -251.17,228.51 -562.78,152.97 z"
         inkscape:connector-curvature="0" />
    </clipPath>
  </defs>
  <sodipodi:namedview
     id="base"
     pagecolor="#ffffff"
     bordercolor="#666666"
     borderopacity="1.0"
     inkscape:pageopacity="0.0"
     inkscape:pageshadow="2"
     inkscape:zoom="1.9445436"
     inkscape:cx="10.005721"
     inkscape:cy="62.598445"
     inkscape:current-layer="layer1"
     showgrid="true"
     inkscape:document-units="px"
     inkscape:grid-bbox="true"
     inkscape:window-width="1280"
     inkscape:window-height="748"
     inkscape:window-x="0"
     inkscape:window-y="0"
     inkscape:window-maximized="1" />
  <metadata
     id="metadata7501">
    <rdf:RDF>
      <cc:Work
         rdf:about="">
        <dc:format>image/svg+xml</dc:format>
        <dc:type
           rdf:resource="http://purl.org/dc/dcmitype/StillImage" />
        <dc:title></dc:title>
      </cc:Work>
    </rdf:RDF>
  </metadata>
  <g
     id="layer1"
     inkscape:label="Layer 1"
     inkscape:groupmode="layer"
     transform="translate(0,86)">
    <path
       id="path12337-4"
       style="fill:#459c38;fill-opacity:1;fill-rule:nonzero;stroke:none"
       d="m 39.785824,56.036675 c 0,0 13.402293,-33.148924 11.205815,-53.6931422 -2.194121,-20.5448628 6.376622,-64.2265148 18.527652,-64.7652588 12.15187,-0.539995 4.333559,25.769109 4.333559,25.769109 0,0 18.390931,-57.664131 51.64721,-45.427527 33.25475,12.235762 -32.00897,54.905034 -37.189329,60.812193 0,0 13.048559,-4.729594 16.509749,1.84205 3.46178,6.57026 -21.416666,20.12702416 -28.06526,27.7287461 C 70.10651,15.904509 54.51754,52.359303 50.130273,56.476476 45.741469,60.592811 44.388049,61.410728 39.785824,56.036675"
       inkscape:connector-curvature="0" />
    <path
       id="path12339-4"
       style="fill:#3b8334;fill-opacity:1;fill-rule:nonzero;stroke:none"
       d="m 43.604232,55.889475 c 0,0 13.230119,-29.887967 18.608814,-51.6917577 5.377916,-21.8060353 26.411988,-65.8615463 58.427994,-81.9524473 0,0 -30.104028,20.773064 -46.843215,58.487894 C 60.366449,11.00002 55.482662,34.604421 43.604232,55.889475"
       inkscape:connector-curvature="0" />
    <path
       id="path12341-0"
       style="fill:#3b8334;fill-opacity:1;fill-rule:nonzero;stroke:none"
       d="m 68.404285,-48.21914 c 0,0 -6.767425,23.824712 -4.207641,45.5469588 l -1.983598,6.8698985 c 0,0 -3.655774,-26.9925253 6.191239,-52.4168573"
       inkscape:connector-curvature="0" />
    <path
       id="path12343-6"
       style="fill:#3b8334;fill-opacity:1;fill-rule:nonzero;stroke:none"
       d="m 68.373759,-7.0812128 c 0,0 15.644148,-9.6329562 27.989077,-10.9704032 0,0 -15.256017,6.998269 -29.13514,14.6580289 l 1.146063,-3.6876257"
       inkscape:connector-curvature="0" />
    <path
       id="path12345-2"
       style="fill:#51b837;fill-opacity:1;fill-rule:nonzero;stroke:none"
       d="m 37.603555,54.844689 c 0,0 4.151728,-27.592053 -7.033223,-36.821594 C 19.386743,8.7944131 1.3338454,9.8550791 0.85980293,-0.70164434 0.38499343,-11.256963 16.103475,-18.897551 31.348398,-3.3928087 c 0,0 -8.532442,-21.5105193 1.524421,-28.4978443 10.056855,-6.98733 20.938965,25.7904863 20.811372,41.945217 -0.127545,16.154643 -9.126871,39.42433 -12.237684,44.17514 -3.110908,4.750985 -3.842952,0.614985 -3.842952,0.614985"
       inkscape:connector-curvature="0" />
    <path
       id="path12347-3"
       style="fill:#3b8334;fill-opacity:1;fill-rule:nonzero;stroke:none"
       d="m 40.104075,53.977639 c 0,0 18.26921,-33.446966 -1.618505,-75.61726 0,0 17.097747,34.334837 1.618505,75.61726"
       inkscape:connector-curvature="0" />
    <path
       id="path12349-0"
       style="fill:#3b8334;fill-opacity:1;fill-rule:nonzero;stroke:none"
       d="m 12.225243,-5.9194161 c 0,0 21.51193,3.8197679 34.701186,21.1639081 l -0.339432,2.979082 c 0,0 -4.278361,-11.7321358 -34.361754,-24.1429901"
       inkscape:connector-curvature="0" />
    <path
       id="path12351-1"
       style="fill:#51b837;fill-opacity:1;fill-rule:nonzero;stroke:none"
       d="m 45.775302,59.308213 c 0,0 10.783567,-8.888663 11.686653,-21.39573 0.903682,-12.508451 10.800988,-45.4815196 23.584513,-43.1781336 12.784266,2.301739 -2.155415,22.2246196 -2.155415,22.2246196 0,0 22.590577,-24.792581 42.012297,-12.9348598 19.4225,11.8562048 -24.685333,21.7734228 -25.910638,21.7298158 -1.22303,-0.04441 27.753688,5.173534 18.172178,19.286271 -9.58062,14.111396 -45.329539,6.441735 -51.66928,8.907331 -6.338196,2.466439 -11.261237,9.763444 -11.261237,9.763444 0,0 -5.269288,-0.681867 -4.459071,-4.402758"
       inkscape:connector-curvature="0" />
    <path
       id="path12353-2"
       style="fill:#3b8334;fill-opacity:1;fill-rule:nonzero;stroke:none"
       d="m 48.835212,60.97958 c 0,0 14.806779,-16.969779 23.453133,-30.332621 8.64481,-13.363686 28.151445,-25.6912764 42.390575,-23.0856319 0,0 -25.062199,3.1451559 -37.981501,20.3276569 -12.918538,17.1811 -22.705938,29.30299 -27.862207,33.090596"
       inkscape:connector-curvature="0" />
    <path
       id="path12355-2"
       style="fill:#3b8334;fill-opacity:1;fill-rule:nonzero;stroke:none"
       d="m 77.640093,4.6708227 c 0,0 -9.207494,22.6325143 -9.96483,32.6879003 l -1.776948,2.428618 c 0,0 2.058018,-18.314585 11.741778,-35.1165183"
       inkscape:connector-curvature="0" />
    <path
       id="path12357-7"
       style="fill:#3b8334;fill-opacity:1;fill-rule:nonzero;stroke:none"
       d="m 73.935357,31.54658 c 0,0 18.51778,-1.996328 32.422353,5.598549 0,0 -21.429168,-5.764842 -34.12432,-3.359942 0,0 0.178194,-2.120041 1.701967,-2.238607"
       inkscape:connector-curvature="0" />
    <g
       id="g107986-7-0"
       transform="matrix(0.71981607,0.01968624,-0.01968624,0.71981607,1347.0833,-17.689199)">
      <path
         inkscape:connector-curvature="0"
         d="m -1787.7563,107.93801 c -0.6775,0 -1.2338,-0.54 -1.25,-1.22 -0.06,-2.5425 -1.8,-3.4463 -3.4275,-3.4463 -0.016,0 -0.034,0 -0.051,0 -1.8463,0.021 -3.7138,1.2025 -3.7138,3.4163 0,0.6912 -0.5587,1.25 -1.25,1.25 -0.6913,0 -1.25,-0.5588 -1.25,-1.25 0,-3.795 3.1862,-5.88 6.1837,-5.9163 0.026,0 0.051,0 0.077,0 2.8038,0 5.835,1.8313 5.9313,5.8863 0.015,0.6912 -0.53,1.2637 -1.2213,1.28 -0.01,0 -0.019,0 -0.029,0"
         style="fill:#171717;fill-opacity:1;fill-rule:nonzero;stroke:none"
         id="path11579-5-6-0" />
      <path
         inkscape:connector-curvature="0"
         d="m -1781.5275,121.09421 c -0.024,0 -0.049,0 -0.073,0 -2.8037,-0.034 -5.7812,-1.9863 -5.7812,-5.5363 0,-0.6912 0.5613,-1.25 1.25,-1.25 l 0,0 c 0.6912,0 1.25,0.5588 1.25,1.25 0,1.9675 1.6663,3.0175 3.3113,3.0375 0.016,0 0.031,0 0.047,0 1.4463,0 2.9938,-0.8037 3.0475,-3.0675 0.016,-0.69 0.57,-1.2937 1.2788,-1.22 0.6912,0.016 1.2362,0.5888 1.2212,1.2788 -0.092,3.795 -2.9274,5.5087 -5.5524,5.5087"
         style="fill:#171717;fill-opacity:1;fill-rule:nonzero;stroke:none"
         id="path11581-9-4-4" />
      <path
         inkscape:connector-curvature="0"
         d="m -1765.4088,107.93801 c -0.6775,0 -1.2338,-0.54 -1.25,-1.22 -0.06,-2.57 -1.7913,-3.4538 -3.48,-3.4463 -1.845,0.021 -3.7125,1.2025 -3.7125,3.4163 0,0.6912 -0.56,1.25 -1.25,1.25 -0.6913,0 -1.25,-0.5588 -1.25,-1.25 0,-3.795 3.1862,-5.88 6.1837,-5.9163 2.7938,0 5.9113,1.7938 6.0088,5.8863 0.015,0.6912 -0.53,1.2637 -1.2213,1.28 -0.01,0 -0.019,0 -0.029,0"
         style="fill:#171717;fill-opacity:1;fill-rule:nonzero;stroke:none"
         id="path11583-3-7-5" />
    </g>
  </g>
</svg>
