<?xml version="1.0" encoding="UTF-8" standalone="no"?>
<!-- Created with Inkscape (http://www.inkscape.org/) -->

<svg
   xmlns:dc="http://purl.org/dc/elements/1.1/"
   xmlns:cc="http://creativecommons.org/ns#"
   xmlns:rdf="http://www.w3.org/1999/02/22-rdf-syntax-ns#"
   xmlns:svg="http://www.w3.org/2000/svg"
   xmlns="http://www.w3.org/2000/svg"
   xmlns:sodipodi="http://sodipodi.sourceforge.net/DTD/sodipodi-0.dtd"
   xmlns:inkscape="http://www.inkscape.org/namespaces/inkscape"
   width="64px"
   height="64px"
   id="svg5689"
   version="1.1"
   inkscape:version="0.48.4 r9939"
   sodipodi:docname="New document 18">
  <defs
     id="defs5691" />
  <sodipodi:namedview
     id="base"
     pagecolor="#ffffff"
     bordercolor="#666666"
     borderopacity="1.0"
     inkscape:pageopacity="0.0"
     inkscape:pageshadow="2"
     inkscape:zoom="1.9445436"
     inkscape:cx="-41.450242"
     inkscape:cy="45.37442"
     inkscape:current-layer="layer1"
     showgrid="true"
     inkscape:document-units="px"
     inkscape:grid-bbox="true"
     inkscape:window-width="1280"
     inkscape:window-height="748"
     inkscape:window-x="0"
     inkscape:window-y="0"
     inkscape:window-maximized="1" />
  <metadata
     id="metadata5694">
    <rdf:RDF>
      <cc:Work
         rdf:about="">
        <dc:format>image/svg+xml</dc:format>
        <dc:type
           rdf:resource="http://purl.org/dc/dcmitype/StillImage" />
        <dc:title></dc:title>
      </cc:Work>
    </rdf:RDF>
  </metadata>
  <g
     id="layer1"
     inkscape:label="Layer 1"
     inkscape:groupmode="layer">
    <g
       transform="matrix(1.2948063,0,0,1.2948063,-1187.2088,-1026.8396)"
       id="g5599">
      <g
         id="g25220-1-9"
         transform="matrix(0.61813731,0,0,0.61813731,666.13124,30.30738)">
        <path
           id="path24416-4-7"
           style="fill:#82ba33;fill-opacity:1;fill-rule:evenodd;stroke:none"
           d="m 452.44339,1311.0852 c -2.16072,-10.8027 -3.97146,-31.4631 2.17698,-60.6558 0.79144,-3.756 -0.81341,-3.961 -1.76695,-1.17 -10.27629,30.0537 -5.20344,50.9181 -0.41003,61.8258"
           inkscape:connector-curvature="0" />
        <path
           id="path24418-4-9"
           style="fill:#568515;fill-opacity:1;fill-rule:evenodd;stroke:none"
           d="m 482.31214,1240.3057 c -3.56816,-0.5407 -7.98306,3.5271 -9.2074,6.3486 -2.59745,5.9921 -13.48591,9.2218 -19.65723,2.28 l -0.082,-0.1784 c 3.21343,-8.8679 12.1662,-18.244 28.94663,-8.4502"
           inkscape:connector-curvature="0" />
        <path
           id="path24420-0-2"
           style="fill:#82ba33;fill-opacity:1;fill-rule:evenodd;stroke:none"
           d="m 482.31214,1240.3057 c -3.56816,-0.5407 -7.98496,3.5261 -9.2074,6.3486 -3.31734,7.6618 -14.57676,8.6153 -19.65723,2.28 3.2277,-3.1877 12.33883,-8.1986 19.95664,-9.1092 -7.40711,-0.4692 -16.55158,3.4776 -20.03864,8.9308 5.23586,-14.4442 16.13964,-15.926 28.94663,-8.4502"
           inkscape:connector-curvature="0" />
        <path
           id="path24516-8-93"
           style="fill:#568515;fill-opacity:1;fill-rule:evenodd;stroke:none"
           d="m 409.36146,1261.2369 c 5.04042,-0.7638 11.27369,4.9803 13.00059,8.9652 3.66732,8.4607 19.04314,13.0206 27.75569,3.2182 l 0.11725,-0.2508 c -4.53886,-12.5219 -17.17992,-25.76 -40.87353,-11.9326"
           inkscape:connector-curvature="0" />
        <path
           id="path24518-5-1"
           style="fill:#82ba33;fill-opacity:1;fill-rule:evenodd;stroke:none"
           d="m 409.36146,1261.2369 c 5.04042,-0.7638 11.27468,4.9803 13.00059,8.9652 4.6857,10.8179 20.58216,12.1634 27.75569,3.2182 -4.55701,-4.5008 -17.42121,-11.5741 -28.17624,-12.8614 10.45753,-0.6618 23.36849,4.9078 28.29349,12.6106 -7.39376,-20.3953 -22.78866,-22.4864 -40.87353,-11.9326"
           inkscape:connector-curvature="0" />
      </g>
      <path
         inkscape:connector-curvature="0"
         id="path24452-0-8"
         transform="translate(0,-799.99785)"
         d="m 945.34375,1634.7812 c -1.73878,0 -3.28038,0.8582 -4.25,2.1563 -0.54321,-0.1883 -1.14403,-0.3125 -1.75,-0.3125 -2.22733,0 -4.12003,1.3926 -4.90625,3.3438 -0.25834,-0.039 -0.51236,-0.063 -0.78125,-0.063 -1.96954,0 -3.67642,1.0865 -4.59375,2.6876 l 32.71875,0 c -0.9172,-1.6011 -2.6238,-2.6875 -4.59375,-2.6876 -0.20401,0 -0.39562,0.01 -0.59375,0.031 -0.79292,-1.9372 -2.68894,-3.3125 -4.90625,-3.3125 -0.72067,0 -1.40374,0.1755 -2.03125,0.4375 -0.96157,-1.3712 -2.51701,-2.2813 -4.3125,-2.2813 z"
         style="fill:#744c28;fill-opacity:1;fill-rule:evenodd;stroke:none" />
    </g>
  </g>
</svg>
