<?xml version="1.0" encoding="UTF-8" standalone="no"?>
<!-- Created with Inkscape (http://www.inkscape.org/) -->

<svg
   xmlns:dc="http://purl.org/dc/elements/1.1/"
   xmlns:cc="http://creativecommons.org/ns#"
   xmlns:rdf="http://www.w3.org/1999/02/22-rdf-syntax-ns#"
   xmlns:svg="http://www.w3.org/2000/svg"
   xmlns="http://www.w3.org/2000/svg"
   xmlns:sodipodi="http://sodipodi.sourceforge.net/DTD/sodipodi-0.dtd"
   xmlns:inkscape="http://www.inkscape.org/namespaces/inkscape"
   width="150"
   height="150"
   id="svg7496"
   version="1.1"
   inkscape:version="0.48.4 r9939"
   sodipodi:docname="ciboulette.svg">
  <defs
     id="defs7498">
    <clipPath
       id="clipPath11459"
       clipPathUnits="userSpaceOnUse">
      <path
         id="path11461"
         d="m 850.859,6831.69 c 0,0 -187.066,-1.97 -265.832,-137.84 -78.761,-135.87 -106.332,-393.82 92.551,-484.4 198.883,-90.58 226.449,-66.96 226.449,-66.96 0,0 -21.66,-49.22 0,-86.64 21.661,-37.41 47.258,-179.19 112.243,-200.85 64.98,-21.66 82.7,19.69 84.67,31.51 1.97,11.81 -33.47,-5.91 -49.23,-1.97 -15.75,3.94 -25.6,43.32 -37.41,68.92 -11.82,25.6 -21.663,47.26 -13.79,70.89 7.88,23.63 49.23,84.67 45.29,102.39 0,0 269.78,66.95 326.88,194.95 57.1,127.99 66.95,295.36 -27.57,391.85 -94.52,96.49 -218.57,137.84 -277.64,135.87 0,0 15.75,39.38 27.56,53.17 0,0 -76.79,-23.63 -102.393,-49.23 0,0 -5.907,39.38 -1.969,61.04 0,0 -68.918,-39.38 -68.918,-74.82 0,0 -63.012,78.76 -131.934,53.16 0,0 51.2,-33.47 61.043,-61.04 z"
         inkscape:connector-curvature="0" />
    </clipPath>
    <clipPath
       id="clipPath11797"
       clipPathUnits="userSpaceOnUse">
      <path
         id="path11799"
         d="m 2281.39,7271.13 c 0,0 29.48,32.66 57.68,43.52 28.2,10.87 17.33,55.36 97.76,52.68 80.42,-2.69 48.04,-78.76 48.04,-78.76 0,0 44.96,18.84 99.53,5.07 54.57,-13.76 65.44,-64.46 43.7,-116.27 -21.74,-51.82 -71.21,-140.02 -160.59,-127.44 -89.37,12.59 -206.79,158.11 -186.12,221.2 z"
         inkscape:connector-curvature="0" />
    </clipPath>
    <clipPath
       id="clipPath11811"
       clipPathUnits="userSpaceOnUse">
      <path
         id="path11813"
         d="m 2467.51,7049.93 c 0,0 19.31,95.19 73.65,101.71 54.34,6.52 89.11,32.6 86.94,69.55 -2.17,36.95 2.46,67.38 -53.11,73.9 0,0 -9.92,8.7 20.51,21.74 30.43,13.04 71.38,22 94.34,-3.41 22.95,-25.41 62.15,-67.81 49.11,-114.8 -13.04,-46.98 -119.33,-119.69 -163.96,-148.69 -44.63,-28.99 -78.75,-99.24 -107.48,0 z"
         inkscape:connector-curvature="0" />
    </clipPath>
    <clipPath
       id="clipPath11825"
       clipPathUnits="userSpaceOnUse">
      <path
         id="path11827"
         d="m 2467.51,6783.07 c 0,0 67.13,155.56 45.39,246.85 -21.73,91.29 -65.21,119.54 -158.67,171.71 -93.46,52.16 -150.46,126.07 -257.81,0 -107.35,-126.07 -20.41,-219.53 38.28,-278.22 58.69,-58.69 220.05,-152.45 332.81,-140.34 z"
         inkscape:connector-curvature="0" />
    </clipPath>
    <clipPath
       id="clipPath11843"
       clipPathUnits="userSpaceOnUse">
      <path
         id="path11845"
         d="m 2793.29,7198.62 c 0,0 23.91,-131.75 63.04,-188.26 39.12,-56.52 139.1,-343.43 0,-462.98 -139.11,-119.54 -354.74,-160.75 -433.19,-143.45 -78.45,17.3 -26.52,365.23 13.15,473.87 39.66,108.64 217.89,296.08 357,320.82 z"
         inkscape:connector-curvature="0" />
    </clipPath>
    <clipPath
       id="clipPath11859"
       clipPathUnits="userSpaceOnUse">
      <path
         id="path11861"
         d="m 2384.66,6393.06 c 0,0 65.21,-21.74 128.24,32.6 63.03,54.34 93.46,123.9 93.46,178.24 0,54.34 -32.6,215.18 -110.85,267.35 -78.25,52.16 -443.41,239.09 -473.84,289.08 -30.43,49.99 -45.64,-21.74 -56.51,-65.2 -10.87,-43.48 -37.59,-164.69 -67.7,-218.2 -30.11,-53.5 -85.09,-129.58 0,-251.3 85.09,-121.72 263.32,-234.74 487.2,-232.57 z"
         inkscape:connector-curvature="0" />
    </clipPath>
    <clipPath
       id="clipPath11493"
       clipPathUnits="userSpaceOnUse">
      <path
         id="path11495"
         d="m 4003.03,7499.29 c -169.8,4.36 -332.79,-105.57 -362.63,-190.49 -29.84,-84.92 -94.1,-330.5 -117.05,-381 -22.95,-50.49 -169.84,-234.1 -183.61,-348.86 -13.77,-114.75 34.42,-410.82 403.94,-456.73 369.52,-45.9 599.03,71.15 647.23,289.19 48.2,218.04 -89.51,507.22 -100.99,562.31 -11.47,55.08 71.15,516.4 -286.89,525.58 z"
         inkscape:connector-curvature="0" />
    </clipPath>
    <clipPath
       id="clipPath11565"
       clipPathUnits="userSpaceOnUse">
      <path
         id="path11567"
         d="m 5470.49,6976.77 c -107.65,26.44 -398.48,47.21 -500.46,-234.18 -101.98,-281.39 136.59,-508.95 258.73,-559.01 153.6,-62.95 394.7,-98.2 638.32,37.77 243.62,135.98 288.95,460.81 166.19,602.45 -122.75,141.64 -251.17,228.51 -562.78,152.97 z"
         inkscape:connector-curvature="0" />
    </clipPath>
  </defs>
  <sodipodi:namedview
     id="base"
     pagecolor="#ffffff"
     bordercolor="#666666"
     borderopacity="1.0"
     inkscape:pageopacity="0.0"
     inkscape:pageshadow="2"
     inkscape:zoom="1.9445436"
     inkscape:cx="15.496944"
     inkscape:cy="73.281982"
     inkscape:current-layer="layer1"
     showgrid="true"
     inkscape:document-units="px"
     inkscape:grid-bbox="true"
     inkscape:window-width="1280"
     inkscape:window-height="748"
     inkscape:window-x="0"
     inkscape:window-y="0"
     inkscape:window-maximized="1" />
  <metadata
     id="metadata7501">
    <rdf:RDF>
      <cc:Work
         rdf:about="">
        <dc:format>image/svg+xml</dc:format>
        <dc:type
           rdf:resource="http://purl.org/dc/dcmitype/StillImage" />
        <dc:title></dc:title>
      </cc:Work>
    </rdf:RDF>
  </metadata>
  <g
     id="layer1"
     inkscape:label="Layer 1"
     inkscape:groupmode="layer"
     transform="translate(0,86)">
    <path
       style="fill:#9ab336;fill-opacity:1;stroke:none"
       d="m 126.73272,-14.878408 c 0,0 9.99029,4.519393 20.69415,-3.092236 0,0 -17.83983,-4.995143 -26.40296,-9.514536 0,0 -2.37857,-5.470893 -0.95141,-8.563129 0,0 5.23297,2.378657 13.7961,-3.092236 8.56313,-5.470894 9.51454,-6.4223 7.61163,-7.849551 -1.90291,-1.427157 -13.55827,-4.757221 -34.72808,-0.475657 0,0 -4.28156,0.475657 -1.90291,-4.757315 2.37857,-5.232971 6.66013,-13.32035 6.66013,-13.32035 0,0 -1.04089,-2.443272 -3.73206,-1.9387 0,0 -2.69109,2.859306 -3.95256,5.634595 l 0,0 c 0,0 0.7569,-10.764523 2.43884,-14.296623 0,0 -10.428082,3.279767 -12.951037,11.184984 0,0 -0.672795,2.943417 2.354733,6.559628 0,0 1.093256,1.850161 -1.261478,3.447989 -2.354733,1.597828 -1.009144,-1.850161 -1.934272,-2.354733 -0.925033,-0.504572 -5.802723,-0.672795 -7.821012,-4.289006 -2.018383,-3.616211 -8.578011,-19.258329 -13.371589,-19.258329 0,0 -2.943413,14.969323 0.841016,18.837868 3.78434,3.86845 9.08249,5.214039 9.08249,5.214039 0,0 30.089819,6.644964 45.530279,41.923298 z"
       id="path11488"
       inkscape:connector-curvature="0"
       sodipodi:nodetypes="ccccsscccccccccscccscc" />
    <path
       style="fill:#dc3330;fill-opacity:1;stroke:none"
       d="m 18.549768,49.497689 c 0,0 -5.382261,-12.110055 -4.373117,-30.275138 1.009239,-18.1650933 2.018384,-63.577804 31.28433,-76.697032 29.266037,-13.119228 61.895869,12.446443 61.895869,12.446443 0,0 15.81034,15.137573 23.54733,37.6757347 7.737,22.5381623 -19.51066,45.0763243 -40.703266,51.4677493 -21.192598,6.391416 -57.859095,12.110056 -71.651146,5.382243 z"
       id="path11486"
       inkscape:connector-curvature="0" />
    <g
       id="g11514"
       transform="matrix(1.47354,0.06059404,-0.06059404,1.47354,2659.1849,1740.3601)">
      <path
         inkscape:connector-curvature="0"
         d="m -1797.8582,-1120.6154 c -0.01,0.8305 -0.5061,1.4993 -1.1125,1.4939 -0.6073,-0.01 -1.0927,-0.6833 -1.0854,-1.5138 0.01,-0.8305 0.5052,-1.4993 1.1125,-1.4939 0.6064,0.01 1.0926,0.6833 1.0854,1.5138"
         style="fill:#040606;fill-opacity:1;fill-rule:nonzero;stroke:none"
         id="path12249-8-3" />
      <path
         inkscape:connector-curvature="0"
         d="m -1809.9438,-1121.0953 c -0.01,0.8305 -0.5061,1.4993 -1.1125,1.4939 -0.6074,-0.01 -1.0926,-0.6832 -1.0854,-1.5138 0.01,-0.8305 0.5052,-1.4993 1.1125,-1.4938 0.6064,0.01 1.0926,0.6832 1.0854,1.5137"
         style="fill:#040606;fill-opacity:1;fill-rule:nonzero;stroke:none"
         id="path12251-5-0" />
      <path
         inkscape:connector-curvature="0"
         d="m -1809.933,-1117.5707 c 0,0 7.632,0.1861 9.866,0 0,0 -0.9308,6.1426 -4.9334,6.3288 -4.0017,0.1862 -4.9326,-6.3288 -4.9326,-6.3288"
         style="fill:#252525;fill-opacity:0.97938143;fill-rule:nonzero;stroke:none"
         id="path12253-0-7" />
    </g>
  </g>
</svg>
