<?xml version="1.0" encoding="UTF-8" standalone="no"?>
<!-- Created with Inkscape (http://www.inkscape.org/) -->

<svg
   xmlns:dc="http://purl.org/dc/elements/1.1/"
   xmlns:cc="http://creativecommons.org/ns#"
   xmlns:rdf="http://www.w3.org/1999/02/22-rdf-syntax-ns#"
   xmlns:svg="http://www.w3.org/2000/svg"
   xmlns="http://www.w3.org/2000/svg"
   xmlns:sodipodi="http://sodipodi.sourceforge.net/DTD/sodipodi-0.dtd"
   xmlns:inkscape="http://www.inkscape.org/namespaces/inkscape"
   width="150"
   height="150"
   id="svg7496"
   version="1.1"
   inkscape:version="0.48.4 r9939"
   sodipodi:docname="bettrave.svg">
  <defs
     id="defs7498">
    <clipPath
       id="clipPath11459"
       clipPathUnits="userSpaceOnUse">
      <path
         id="path11461"
         d="m 850.859,6831.69 c 0,0 -187.066,-1.97 -265.832,-137.84 -78.761,-135.87 -106.332,-393.82 92.551,-484.4 198.883,-90.58 226.449,-66.96 226.449,-66.96 0,0 -21.66,-49.22 0,-86.64 21.661,-37.41 47.258,-179.19 112.243,-200.85 64.98,-21.66 82.7,19.69 84.67,31.51 1.97,11.81 -33.47,-5.91 -49.23,-1.97 -15.75,3.94 -25.6,43.32 -37.41,68.92 -11.82,25.6 -21.663,47.26 -13.79,70.89 7.88,23.63 49.23,84.67 45.29,102.39 0,0 269.78,66.95 326.88,194.95 57.1,127.99 66.95,295.36 -27.57,391.85 -94.52,96.49 -218.57,137.84 -277.64,135.87 0,0 15.75,39.38 27.56,53.17 0,0 -76.79,-23.63 -102.393,-49.23 0,0 -5.907,39.38 -1.969,61.04 0,0 -68.918,-39.38 -68.918,-74.82 0,0 -63.012,78.76 -131.934,53.16 0,0 51.2,-33.47 61.043,-61.04 z"
         inkscape:connector-curvature="0" />
    </clipPath>
    <clipPath
       id="clipPath11797"
       clipPathUnits="userSpaceOnUse">
      <path
         id="path11799"
         d="m 2281.39,7271.13 c 0,0 29.48,32.66 57.68,43.52 28.2,10.87 17.33,55.36 97.76,52.68 80.42,-2.69 48.04,-78.76 48.04,-78.76 0,0 44.96,18.84 99.53,5.07 54.57,-13.76 65.44,-64.46 43.7,-116.27 -21.74,-51.82 -71.21,-140.02 -160.59,-127.44 -89.37,12.59 -206.79,158.11 -186.12,221.2 z"
         inkscape:connector-curvature="0" />
    </clipPath>
    <clipPath
       id="clipPath11811"
       clipPathUnits="userSpaceOnUse">
      <path
         id="path11813"
         d="m 2467.51,7049.93 c 0,0 19.31,95.19 73.65,101.71 54.34,6.52 89.11,32.6 86.94,69.55 -2.17,36.95 2.46,67.38 -53.11,73.9 0,0 -9.92,8.7 20.51,21.74 30.43,13.04 71.38,22 94.34,-3.41 22.95,-25.41 62.15,-67.81 49.11,-114.8 -13.04,-46.98 -119.33,-119.69 -163.96,-148.69 -44.63,-28.99 -78.75,-99.24 -107.48,0 z"
         inkscape:connector-curvature="0" />
    </clipPath>
    <clipPath
       id="clipPath11825"
       clipPathUnits="userSpaceOnUse">
      <path
         id="path11827"
         d="m 2467.51,6783.07 c 0,0 67.13,155.56 45.39,246.85 -21.73,91.29 -65.21,119.54 -158.67,171.71 -93.46,52.16 -150.46,126.07 -257.81,0 -107.35,-126.07 -20.41,-219.53 38.28,-278.22 58.69,-58.69 220.05,-152.45 332.81,-140.34 z"
         inkscape:connector-curvature="0" />
    </clipPath>
    <clipPath
       id="clipPath11843"
       clipPathUnits="userSpaceOnUse">
      <path
         id="path11845"
         d="m 2793.29,7198.62 c 0,0 23.91,-131.75 63.04,-188.26 39.12,-56.52 139.1,-343.43 0,-462.98 -139.11,-119.54 -354.74,-160.75 -433.19,-143.45 -78.45,17.3 -26.52,365.23 13.15,473.87 39.66,108.64 217.89,296.08 357,320.82 z"
         inkscape:connector-curvature="0" />
    </clipPath>
    <clipPath
       id="clipPath11859"
       clipPathUnits="userSpaceOnUse">
      <path
         id="path11861"
         d="m 2384.66,6393.06 c 0,0 65.21,-21.74 128.24,32.6 63.03,54.34 93.46,123.9 93.46,178.24 0,54.34 -32.6,215.18 -110.85,267.35 -78.25,52.16 -443.41,239.09 -473.84,289.08 -30.43,49.99 -45.64,-21.74 -56.51,-65.2 -10.87,-43.48 -37.59,-164.69 -67.7,-218.2 -30.11,-53.5 -85.09,-129.58 0,-251.3 85.09,-121.72 263.32,-234.74 487.2,-232.57 z"
         inkscape:connector-curvature="0" />
    </clipPath>
    <clipPath
       id="clipPath11493"
       clipPathUnits="userSpaceOnUse">
      <path
         id="path11495"
         d="m 4003.03,7499.29 c -169.8,4.36 -332.79,-105.57 -362.63,-190.49 -29.84,-84.92 -94.1,-330.5 -117.05,-381 -22.95,-50.49 -169.84,-234.1 -183.61,-348.86 -13.77,-114.75 34.42,-410.82 403.94,-456.73 369.52,-45.9 599.03,71.15 647.23,289.19 48.2,218.04 -89.51,507.22 -100.99,562.31 -11.47,55.08 71.15,516.4 -286.89,525.58 z"
         inkscape:connector-curvature="0" />
    </clipPath>
    <clipPath
       id="clipPath11565"
       clipPathUnits="userSpaceOnUse">
      <path
         id="path11567"
         d="m 5470.49,6976.77 c -107.65,26.44 -398.48,47.21 -500.46,-234.18 -101.98,-281.39 136.59,-508.95 258.73,-559.01 153.6,-62.95 394.7,-98.2 638.32,37.77 243.62,135.98 288.95,460.81 166.19,602.45 -122.75,141.64 -251.17,228.51 -562.78,152.97 z"
         inkscape:connector-curvature="0" />
    </clipPath>
    <clipPath
       id="clipPath11889"
       clipPathUnits="userSpaceOnUse">
      <path
         id="path11891"
         d="m 7358.51,6565.15 c -1.91,-11.65 -4.42,-23.57 -7.91,-35.55 -22.63,-77.81 -64.54,-5.94 -109.7,-23.7 -45.16,-17.76 -18.64,-74.88 -95.02,-100.19 -76.37,-25.32 -106.85,88.06 -189.34,55.24 -73.74,-29.34 -74.39,34.08 -120.61,32.38 -46.21,-1.69 -56.22,-28.94 -84.26,-61.72 -28.04,-32.78 -92.32,5.1 -134.92,38.19 -27.53,21.38 -32.3,63.5 -32.25,90.71 -15.21,-99.32 25.77,-275.33 160.49,-347.35 153.45,-82.04 190.11,-73.56 190.11,-73.56 0,0 57.04,-88.35 43.61,-118.08 -13.44,-29.74 -65.56,-138.33 -13.81,-192.28 51.75,-53.95 96.66,-14.93 96.66,-14.93 0,0 -69.06,-12.31 -74.86,41.61 -5.81,53.92 14.24,57.89 14.24,57.89 0,0 53.5,-31.24 73.96,-13.2 0,0 -48.46,18.09 -53.35,43.59 -4.9,25.5 -0.1,56.57 6.68,66.13 6.78,9.56 62.05,46.97 41.39,142.06 0,0 176.48,39.37 250.01,131.03 55.11,68.71 62.13,190.21 38.88,281.73 z"
         inkscape:connector-curvature="0" />
    </clipPath>
    <clipPath
       id="clipPath11763"
       clipPathUnits="userSpaceOnUse">
      <path
         id="path11765"
         d="m 925.598,5230.68 c -82.36,-2.22 -420.496,-128.97 -420.684,-442.94 -0.168,-281.56 200.324,-469.65 471.875,-489.68 271.551,-20.03 581.621,194.31 583.171,505.26 1.69,340.56 -378.39,420.69 -438.49,427.36 0,0 28.93,75.68 82.35,117.97 0,0 -55.64,6.68 -93.48,-11.13 0,0 -2.23,55.65 -24.48,120.2 0,0 -91.262,-62.33 -106.844,-84.58 0,0 -51.196,35.61 -84.582,51.19 0,0 42.293,-155.81 31.164,-193.65 z"
         inkscape:connector-curvature="0" />
    </clipPath>
    <clipPath
       id="clipPath11597"
       clipPathUnits="userSpaceOnUse">
      <path
         id="path11599"
         d="m 4172.82,5122.8 c -27.71,-1.85 -61.7,30.85 -64.07,47.46 -2.37,16.61 21.36,80.68 47.46,111.53 26.1,30.85 116.28,90.18 116.28,102.04 0,11.87 -40.34,42.71 -59.33,36.78 -18.98,-5.93 -54.58,-36.78 -54.58,-36.78 0,0 35.6,66.44 47.46,78.31 11.87,11.86 -64.4,49.83 -97.45,47.46 0,0 -113.74,-106.79 -137.47,-168.48 -23.73,-61.7 -23.73,-144.16 -40.35,-156.33 -16.61,-12.16 -73.56,-50.13 -116.27,-61.99 -42.72,-11.87 -154.25,-27.29 -237.3,-77.72 -83.06,-50.42 -161.37,-131.52 -170.86,-200.13 -9.49,-68.61 23.73,-213.36 121.02,-296.42 97.3,-83.06 277.64,-147.13 353.58,-144.75 75.94,2.37 123.4,37.96 123.4,37.96 0,0 80.68,-35.59 144.75,-4.74 0,0 59.33,-23.73 140.01,14.24 80.68,37.96 287.13,189.84 246.79,439 -40.34,249.17 -161.36,261.41 -187.47,263.6 -26.1,2.18 -140,-28.67 -175.6,-31.04 z"
         inkscape:connector-curvature="0" />
    </clipPath>
    <clipPath
       id="clipPath12061"
       clipPathUnits="userSpaceOnUse">
      <path
         id="path12063"
         d="m 5357,5573.74 c 0,0 -47.6,9.52 -55.21,-28.55 0,0 -38.08,-7.62 -30.46,-55.21 0,0 -11.54,-95.19 -1.01,-159.92 10.53,-64.73 52.41,-220.83 54.31,-258.91 0,0 -9.52,-34.27 1.91,-45.69 0,0 7.61,-108.52 -1.91,-190.38 -9.52,-81.86 -1.9,-197.99 5.71,-218.93 0,0 3.81,-43.79 26.66,-53.31 0,0 -26.66,-51.4 19.03,-60.92 0,0 38.08,-47.59 60.92,-53.3 22.85,-5.71 53.31,-36.17 66.64,-34.27 13.32,1.9 89.47,-11.42 127.55,36.17 38.07,47.6 62.82,62.83 60.92,83.77 -1.9,20.94 0,36.17 9.52,45.69 9.52,9.52 13.32,39.98 0,62.82 0,0 26.65,9.52 26.65,60.92 0,51.4 22.93,98.71 23.52,156.11 0.74,72.34 -16.39,138.37 -25.42,197.99 -13,85.72 -116.13,352.2 -194.19,441.68 -78.05,89.47 -114.22,62.82 -114.22,62.82 0,0 -32.37,36.17 -60.92,11.42 z"
         inkscape:connector-curvature="0" />
    </clipPath>
    <clipPath
       id="clipPath11933"
       clipPathUnits="userSpaceOnUse">
      <path
         id="path11935"
         d="m 6632.27,4588.65 c 0,0 -25.37,72.71 20.29,93 0,0 -20.29,43.97 16.91,67.64 0,0 -16.91,50.73 13.53,59.19 0,0 -23.68,32.13 8.45,52.42 0,0 -15.22,45.66 18.6,64.26 0,0 -18.6,52.42 18.6,64.26 0,0 -20.29,39.94 13.53,57.17 0,0 -16.91,42.6 15.22,57.81 0,0 -21.98,37.21 25.37,59.19 0,0 -11.84,33.82 21.98,50.73 0,0 -11.84,42.28 30.44,55.8 0,0 1.69,30.44 28.74,35.52 0,0 -10.14,55.8 45.66,69.33 0,0 -13.53,28.74 49.04,42.27 0,0 -27.05,32.13 -27.05,57.5 l 52.42,-43.97 c 0,0 6.76,23.67 13.53,43.97 0,0 13.52,-45.66 18.6,-49.04 5.07,-3.38 18.6,16.91 32.13,-1.69 0,0 32.12,40.58 42.27,50.73 0,0 -1.69,-45.66 -20.29,-62.57 0,0 38.89,-3.38 50.73,1.69 0,0 -21.98,-20.29 -32.13,-25.36 0,0 33.82,-8.46 11.84,-38.9 0,0 40.58,-25.36 11.83,-59.18 0,0 47.65,-38.9 10.3,-67.64 0,0 21.83,-38.9 -8.61,-64.26 0,0 28.75,-35.51 -1.69,-69.33 0,0 33.82,-30.44 0,-57.5 0,0 35.51,-45.66 -13.52,-84.55 0,0 27.05,-42.27 -13.53,-71.02 0,0 33.82,-32.13 -6.77,-60.88 0,0 23.68,-42.27 -15.22,-65.95 0,0 27.06,-50.73 -28.74,-67.64 0,0 49.04,-81.17 -13.53,-93 0,0 -20.29,-74.41 -79.48,-65.95 0,0 -19.64,-71.03 -60.55,-54.12 0,0 -56.13,-65.95 -95.02,-18.6 0,0 -86.24,-18.6 -101.46,50.73 0,0 -84.55,27.06 -52.42,87.94 z"
         inkscape:connector-curvature="0" />
    </clipPath>
    <clipPath
       id="clipPath11627"
       clipPathUnits="userSpaceOnUse">
      <path
         id="path11629"
         d="m 2223.84,3484.33 c 0,0 246.71,55.6 288.41,90.35 42.03,35.02 121.28,171.52 93.81,274.5 0,0 180.69,34.75 205.01,0 0,0 -79.92,-170.26 -132.04,-218.91 -52.12,-48.64 0,-90.74 48.65,-95.75 48.65,-5.01 114.67,-50.19 114.67,-50.19 0,0 -441.29,-215.43 -618.51,0 z"
         inkscape:connector-curvature="0" />
    </clipPath>
    <clipPath
       id="clipPath11639"
       clipPathUnits="userSpaceOnUse">
      <path
         id="path11641"
         d="m 2314.19,3484.33 c 0,0 -166.79,145.94 -406.55,-86.86 -239.75,-232.81 -236.28,-451.72 -208.48,-521.21 27.8,-69.5 180.69,-271.03 271.03,-208.49 0,0 277.98,-211.95 531.63,0 0,0 135.52,-113.5 333.58,37.07 0,0 170.26,-44.02 298.82,199.22 128.57,243.23 -52.12,531.63 -128.56,590.7 -76.45,59.07 -191.11,0 -205.01,-31.27 0,0 -104.24,138.98 -211.96,-17.38 0,0 -79.92,170.26 -274.5,38.22 z"
         inkscape:connector-curvature="0" />
    </clipPath>
    <clipPath
       id="clipPath11991"
       clipPathUnits="userSpaceOnUse">
      <path
         id="path11993"
         d="m 5662.36,3891.14 c -86.84,-12.36 -238.23,-43.25 -346.36,-247.17 -108.14,-203.91 -228.64,-308.96 -253.35,-528.32 -24.72,-219.37 -6.18,-559.23 274.97,-549.96 281.16,9.27 343.6,169.93 324.74,336.77 -18.86,166.84 -201.15,342.95 -219.69,407.83 -18.54,64.88 -24.72,135.95 -12.36,163.75 12.36,27.81 299.7,166.84 293.52,302.79 -6.18,135.94 -61.47,114.31 -61.47,114.31 z"
         inkscape:connector-curvature="0" />
    </clipPath>
    <clipPath
       id="clipPath12017"
       clipPathUnits="userSpaceOnUse">
      <path
         id="path12019"
         d="m 6678.13,3172.89 c 0,0 92.8,-126.71 139.2,-137.42 46.4,-10.71 73.17,39.26 78.53,78.53 5.35,39.26 57.11,64.25 64.25,37.48 7.14,-26.77 -14.28,-122.52 33.91,-117.48 48.18,5.04 101.73,101.41 105.29,110.34 3.57,8.92 112.44,-17.73 91.02,-40.99 -21.41,-23.26 -58.89,-51.82 -53.54,-78.59 5.36,-26.77 73.18,-24.98 139.21,33.91 66.03,58.9 15.75,-45.63 0,-50.51 -15.75,-4.87 -139.21,-58.35 -153.48,-108.33 -14.28,-49.97 55.32,-160.62 48.18,-176.68 -7.14,-16.06 -94.59,-73.17 -192.75,-76.74 -98.15,-3.57 -192.74,33.91 -198.1,64.25 -5.35,30.34 44.62,149.67 19.63,198.87 -24.98,49.2 -139.2,175.91 -194.53,193.76 -55.32,17.85 46.4,66.03 73.18,69.6 z"
         inkscape:connector-curvature="0" />
    </clipPath>
    <clipPath
       id="clipPath12219"
       clipPathUnits="userSpaceOnUse">
      <path
         id="path12221"
         d="m 2198.71,1333.97 c 0,0 41.77,-105.05 0,-151.39 -41.77,-46.34 -196.25,-308.959 222.67,-308.959 352.34,0 228.12,256.439 182.67,302.779 -45.46,46.35 -10.16,145.21 0,176.11 10.15,30.9 -406.82,216.27 -405.34,-18.54 z"
         inkscape:connector-curvature="0" />
    </clipPath>
    <clipPath
       id="clipPath12231"
       clipPathUnits="userSpaceOnUse">
      <path
         id="path12233"
         d="m 2424.19,1921 c -310.65,-8.05 -557.68,-239.11 -548.41,-394.53 9.27,-155.42 92.81,-260.47 322.93,-238.84 230.12,21.63 591.6,-58.16 705.92,-2.82 114.31,55.34 234.81,654.73 -480.44,636.19 z"
         inkscape:connector-curvature="0" />
    </clipPath>
    <clipPath
       id="clipPath12191"
       clipPathUnits="userSpaceOnUse">
      <path
         id="path12193"
         d="m 5673.69,2058.33 c -139.36,85.04 -272.8,14.07 -384.55,-88.72 -111.75,-102.8 -374.7,-516.94 -276.09,-756.87 98.6,-239.939 266.23,-302.388 285.95,-308.959 19.72,-6.582 78.88,-65.742 128.18,-55.883 49.31,9.864 95.32,65.743 95.32,65.743 0,0 207.07,115.039 213.64,256.369 6.58,141.33 -72.31,395.47 -52.59,472.18 19.73,76.71 162.15,311.19 -9.86,416.14 z"
         inkscape:connector-curvature="0" />
    </clipPath>
    <clipPath
       id="clipPath11667"
       clipPathUnits="userSpaceOnUse">
      <path
         id="path11669"
         d="m 6976.1,1570.56 c -99.83,-11.09 -161.95,-119.8 -175.26,-170.82 -13.31,-51.03 -8.87,-228.5 87.63,-334.99 0,0 -9.98,-130.891 29.95,-177.48 0,0 -8.87,-84.301 28.84,-139.758 0,0 -6.66,-108.711 37.71,-119.801 44.37,-11.09 62.12,31.059 68.78,110.93 0,0 42.15,39.929 24.4,126.449 0,0 62.12,109.172 46.59,233.17 0,0 88.35,137.27 63.95,316.97 -24.4,179.69 -212.59,155.33 -212.59,155.33 z"
         inkscape:connector-curvature="0" />
    </clipPath>
    <clipPath
       id="clipPath12297"
       clipPathUnits="userSpaceOnUse">
      <path
         id="path12299"
         d="m 2370.97,5151.15 c -106.09,2.11 -285.31,-45.39 -328.53,-220.46 -41.46,-167.89 159.49,-323.78 233.24,-368.7 -6.78,8.56 -6.13,14.45 2.35,13.15 14.05,-2.16 42.15,-21.56 58.36,-13.48 16.21,8.07 64.84,23.26 63.76,0 -1.08,-23.27 41.06,-0.57 58.36,6.99 13.32,5.83 36,1.96 29.2,-13.54 60.72,38.97 152.92,99.64 186.94,197.26 49.71,142.65 21.61,392.3 -303.68,398.78 z"
         inkscape:connector-curvature="0" />
    </clipPath>
    <clipPath
       id="clipPath11889-5"
       clipPathUnits="userSpaceOnUse">
      <path
         id="path11891-1"
         d="m 7358.51,6565.15 c -1.91,-11.65 -4.42,-23.57 -7.91,-35.55 -22.63,-77.81 -64.54,-5.94 -109.7,-23.7 -45.16,-17.76 -18.64,-74.88 -95.02,-100.19 -76.37,-25.32 -106.85,88.06 -189.34,55.24 -73.74,-29.34 -74.39,34.08 -120.61,32.38 -46.21,-1.69 -56.22,-28.94 -84.26,-61.72 -28.04,-32.78 -92.32,5.1 -134.92,38.19 -27.53,21.38 -32.3,63.5 -32.25,90.71 -15.21,-99.32 25.77,-275.33 160.49,-347.35 153.45,-82.04 190.11,-73.56 190.11,-73.56 0,0 57.04,-88.35 43.61,-118.08 -13.44,-29.74 -65.56,-138.33 -13.81,-192.28 51.75,-53.95 96.66,-14.93 96.66,-14.93 0,0 -69.06,-12.31 -74.86,41.61 -5.81,53.92 14.24,57.89 14.24,57.89 0,0 53.5,-31.24 73.96,-13.2 0,0 -48.46,18.09 -53.35,43.59 -4.9,25.5 -0.1,56.57 6.68,66.13 6.78,9.56 62.05,46.97 41.39,142.06 0,0 176.48,39.37 250.01,131.03 55.11,68.71 62.13,190.21 38.88,281.73 z"
         inkscape:connector-curvature="0" />
    </clipPath>
    <clipPath
       id="clipPath11459-7"
       clipPathUnits="userSpaceOnUse">
      <path
         id="path11461-2"
         d="m 850.859,6831.69 c 0,0 -187.066,-1.97 -265.832,-137.84 -78.761,-135.87 -106.332,-393.82 92.551,-484.4 198.883,-90.58 226.449,-66.96 226.449,-66.96 0,0 -21.66,-49.22 0,-86.64 21.661,-37.41 47.258,-179.19 112.243,-200.85 64.98,-21.66 82.7,19.69 84.67,31.51 1.97,11.81 -33.47,-5.91 -49.23,-1.97 -15.75,3.94 -25.6,43.32 -37.41,68.92 -11.82,25.6 -21.663,47.26 -13.79,70.89 7.88,23.63 49.23,84.67 45.29,102.39 0,0 269.78,66.95 326.88,194.95 57.1,127.99 66.95,295.36 -27.57,391.85 -94.52,96.49 -218.57,137.84 -277.64,135.87 0,0 15.75,39.38 27.56,53.17 0,0 -76.79,-23.63 -102.393,-49.23 0,0 -5.907,39.38 -1.969,61.04 0,0 -68.918,-39.38 -68.918,-74.82 0,0 -63.012,78.76 -131.934,53.16 0,0 51.2,-33.47 61.043,-61.04 z"
         inkscape:connector-curvature="0" />
    </clipPath>
  </defs>
  <sodipodi:namedview
     id="base"
     pagecolor="#ffffff"
     bordercolor="#666666"
     borderopacity="1.0"
     inkscape:pageopacity="0.0"
     inkscape:pageshadow="2"
     inkscape:zoom="2.75"
     inkscape:cx="65.343013"
     inkscape:cy="95.150122"
     inkscape:current-layer="layer1"
     showgrid="true"
     inkscape:document-units="px"
     inkscape:grid-bbox="true"
     inkscape:window-width="1280"
     inkscape:window-height="748"
     inkscape:window-x="0"
     inkscape:window-y="0"
     inkscape:window-maximized="1" />
  <metadata
     id="metadata7501">
    <rdf:RDF>
      <cc:Work
         rdf:about="">
        <dc:format>image/svg+xml</dc:format>
        <dc:type
           rdf:resource="http://purl.org/dc/dcmitype/StillImage" />
        <dc:title></dc:title>
      </cc:Work>
    </rdf:RDF>
  </metadata>
  <g
     id="layer1"
     inkscape:label="Layer 1"
     inkscape:groupmode="layer"
     transform="translate(0,86)">
    <g
       transform="matrix(0.53263224,0.56002389,-0.56002389,0.53263224,-104.6039,891.69929)"
       id="g10151">
      <g
         transform="translate(-226.27417,-315.16759)"
         id="g8281">
        <path
           id="path11883"
           style="fill:#fdddcb;fill-opacity:1;fill-rule:nonzero;stroke:none"
           d="m -412.88124,-643.27498 c -0.2387,1.4562 -0.5525,2.9462 -0.9887,4.4437 -2.8287,9.7263 -8.0675,0.7425 -13.7125,2.9625 -5.645,2.22 -2.33,9.36 -11.8775,12.5238 -9.5463,3.165 -13.3563,-11.0075 -23.66749,-6.905 -9.2175,3.6675 -9.2988,-4.26 -15.0763,-4.0475 -5.7762,0.2112 -7.0275,3.6175 -10.5325,7.715 -3.5049,4.0975 -11.54,-0.6375 -16.865,-4.7738 -3.4412,-2.6725 -4.0374,-7.9375 -4.0312,-11.3387 -1.9012,12.415 3.2212,34.4162 20.0612,43.4187 19.1813,10.255 23.7638,9.195 23.7638,9.195 0,0 7.13,11.0438 5.4512,14.76 -1.68,3.7175 -8.195,17.2913 -1.7262,24.035 6.4687,6.7438 12.08249,1.8663 12.08249,1.8663 0,0 -8.63249,1.5387 -9.35749,-5.2013 -0.7263,-6.74 1.78,-7.2362 1.78,-7.2362 0,0 6.68749,3.905 9.24499,1.65 0,0 -6.0575,-2.2613 -6.66879,-5.4488 -0.6125,-3.1875 -0.013,-7.0712 0.83499,-8.2662 0.8475,-1.195 7.7563,-5.8713 5.1738,-17.7575 0,0 22.06,-4.9213 31.2512,-16.3788 6.8888,-8.5887 7.7663,-23.7762 4.86,-35.2162"
           inkscape:connector-curvature="0" />
        <g
           id="g11885"
           transform="matrix(0.125,0,0,-0.125,-1332.6949,177.36876)">
          <g
             clip-path="url(#clipPath11889-5)"
             id="g11887">
            <path
               id="path11893"
               style="fill:#e6c2b3;fill-opacity:1;fill-rule:nonzero;stroke:none"
               d="m 6613.2,6365.02 c 0,0 45.97,-120.36 207.63,-166.61 0,0 -42.49,18.39 -70.82,47.49 -28.34,29.1 44.07,-18.44 90.29,-37.58 61.37,-25.41 128.04,-23.32 223.04,-9.99 95,13.34 181.67,72.59 201.67,97.13 0,0 -36.67,-57.13 -140,-100.46 0,0 142.31,-6.75 211.99,124.12 0,0 -36.99,-109.12 -131.99,-149.12 -95,-40 -113.34,-42.13 -113.34,-42.13 0,0 -38.33,-159.54 13.34,-204.54 51.66,-45 13.38,-176.66 -86.65,-148.33 -100.02,28.33 -106.69,235 -106.69,235 0,0 -266.88,195.14 -298.47,355.02"
               inkscape:connector-curvature="0" />
          </g>
        </g>
        <path
           id="path11895"
           style="fill:#171717;fill-opacity:1;fill-rule:nonzero;stroke:none"
           d="m -463.01243,-612.57378 c -0.011,0 -0.022,0 -0.034,0 -0.6337,0.017 -1.1625,-0.4812 -1.1812,-1.115 -0.05,-1.7725 -1.275,-2.3837 -2.4038,-2.365 -1.0437,0.015 -2.5699,0.6613 -2.5612,2.3625 0,0.6338 -0.5237,1.1388 -1.1425,1.1538 -0.635,0 -1.1513,-0.5075 -1.155,-1.1425 -0.015,-2.9788 2.47,-4.6213 4.8187,-4.6688 2.2188,-0.037 4.6476,1.3838 4.7401,4.5938 0.017,0.6225 -0.4638,1.1437 -1.0813,1.1787"
           inkscape:connector-curvature="0" />
        <path
           id="path11897"
           style="fill:#171717;fill-opacity:1;fill-rule:nonzero;stroke:none"
           d="m -459.19123,-604.09998 c -0.098,0.01 -0.1962,0.01 -0.295,0.01 -2.1225,-0.015 -4.3862,-1.485 -4.3999,-4.1825 0,-0.6113 0.4537,-1.1075 1.1025,-1.1125 0.6099,0 1.1087,0.49 1.1124,1.1012 0.01,1.4413 1.3188,1.9738 2.2013,1.98 0.4662,0 1.9837,-0.135 2.0187,-2.0275 0.011,-0.6112 0.4963,-1.1012 1.1275,-1.0862 0.6113,0.013 1.0975,0.5162 1.0863,1.1287 -0.053,2.7625 -2.0325,4.0813 -3.9538,4.1913"
           inkscape:connector-curvature="0" />
        <path
           id="path11899"
           style="fill:#171717;fill-opacity:1;fill-rule:nonzero;stroke:none"
           d="m -449.47494,-612.63998 c -0.011,0 -0.023,0 -0.034,0 -0.6337,0.019 -1.1625,-0.4812 -1.1812,-1.115 -0.05,-1.7725 -1.275,-2.3837 -2.4037,-2.3637 -1.0438,0.017 -2.57009,0.66 -2.56129,2.3612 0,0.6338 -0.5313,1.145 -1.1425,1.1538 -0.6337,0 -1.1512,-0.5088 -1.155,-1.1425 -0.015,-2.9788 2.4462,-4.6238 4.81879,-4.6688 2.2187,-0.038 4.6475,1.3838 4.7399,4.5938 0.019,0.6225 -0.4624,1.1437 -1.0812,1.18"
           inkscape:connector-curvature="0" />
        <path
           id="path11901"
           style="fill:#d50f64;fill-opacity:1;fill-rule:nonzero;stroke:none"
           d="m -505.60123,-631.35628 c 5.325,4.1363 13.3601,8.8713 16.865,4.7738 3.505,-4.0975 4.7563,-7.5038 10.5325,-7.715 5.7776,-0.2125 5.8588,7.715 15.0763,4.0475 10.69999,-4.2575 14.12119,10.07 23.66749,6.905 9.5475,-3.1638 6.2325,-10.3038 11.8775,-12.5238 5.645,-2.22 10.8838,6.7638 13.7125,-2.9625 0.4362,-1.4975 0.75,-2.9875 0.9887,-4.4437 -1.7812,-7.0138 -5.5225,-12.9888 -11.7149,-16.2125 -15.2188,-7.9225 -22.7176,-8.8125 -38.50379,-8.1588 -27.5688,1.1413 -41.0562,9.7825 -45.345,20.3863 -0.5237,1.295 -0.9225,2.8387 -1.1875,4.565 -0.01,3.4012 0.59,8.6662 4.0312,11.3387"
           inkscape:connector-curvature="0" />
        <path
           id="path11903"
           style="fill:#ee1789;fill-opacity:1;fill-rule:nonzero;stroke:none"
           d="m -486.02743,-659.92248 c -7.4637,-1.5588 -20.2088,7.9162 -20.625,13.5412 -0.4163,5.625 6.25,8.9913 13.75,6.5788 7.5,-2.4125 17.7087,-5.3288 23.125,-1.7875 5.4162,3.5425 13.1013,-5.625 5.405,-7.9163 -7.6963,-2.2912 -18.825,-9.8262 -21.655,-10.4162"
           inkscape:connector-curvature="0" />
        <path
           id="path11905"
           style="fill:#9f1151;fill-opacity:1;fill-rule:nonzero;stroke:none"
           d="m -467.14493,-662.85878 c -7.4312,-0.3037 -15.3413,4.3938 -3.6738,6.8938 11.6663,2.5 20.95009,-0.435 18.39129,-3.4463 -2.55879,-3.0112 -5.00249,-3.05 -14.71749,-3.4475"
           inkscape:connector-curvature="0" />
        <path
           id="path11907"
           style="fill:#469f38;fill-opacity:1;fill-rule:nonzero;stroke:none"
           d="m -460.48743,-677.40498 c 0,0 -5.8987,-40.45633 -5.5262,-51.44383 0.3724,-10.9887 4.4362,-31.5687 -8.06,-35.0462 -12.4963,-3.4775 -13.4013,38.3575 -10.7538,48.2662 0,0 -2.7975,-13.4675 -9.455,-11.845 -6.6575,1.6225 -3.0187,20.9625 4.9112,26.8275 7.9313,5.865 16.9026,17.85503 17.8801,21.54133 0,0 -11.0963,-12.54003 -14.9175,-7.82883 -3.8213,4.71133 9.4237,7.64253 13.2537,12.87383 3.8312,5.2312 3.8937,10.5425 3.8937,10.5425 0,0 -7.8375,4.975 -0.9,5.8262 6.9375,0.8513 11.4863,0.01 11.5038,-1.5362 0.018,-1.5438 -1.5063,-15.9213 -1.83,-18.1775"
           inkscape:connector-curvature="0" />
        <path
           id="path11909"
           style="fill:#458c34;fill-opacity:1;fill-rule:nonzero;stroke:none"
           d="m -465.50123,-664.50628 c -0.029,0.6325 -1.5675,-16.2125 -8.235,-35.29373 -6.6662,-19.0813 0,-55.7475 0,-55.7475 0,0 -2.7075,33.3337 0,45.5212 2.7088,12.1875 8.8988,31.12633 8.235,45.52003"
           inkscape:connector-curvature="0" />
        <path
           id="path11911"
           style="fill:#458c34;fill-opacity:1;fill-rule:nonzero;stroke:none"
           d="m -490.40243,-717.83881 c 0,0 5.4162,12.9538 16.6662,18.0388 l 2.6613,5.6625 c 0,0 -14.9525,-9.9513 -19.3275,-23.7013"
           inkscape:connector-curvature="0" />
        <path
           id="path11913"
           style="fill:#55bd35;fill-opacity:1;fill-rule:nonzero;stroke:none"
           d="m -464.11613,-662.50128 c 0,0 4.3562,-11.0362 -2.94,-21 -7.2976,-9.96373 -15.1338,-32.16253 -8.8063,-37.37003 6.3288,-5.2087 13.2525,15.745 13.2525,15.745 0,0 5.3575,-44.68 32.11249,-40.5475 11.22,1.7338 -14.2988,35.3463 -16.6088,40.2925 0,0 15.1938,-8.2562 16.8138,1.2725 1.62,9.5288 -18.4,13.2825 -22.8075,26.07753 -4.40749,12.795 -3.55129,16.6838 -3.55129,16.6838 0,0 6.14259,5.1462 -2.5212,4.0287 -8.6638,-1.1187 -8.3312,-3.2762 -4.9437,-5.1825"
           inkscape:connector-curvature="0" />
        <path
           id="path11915"
           style="fill:#458c34;fill-opacity:1;fill-rule:nonzero;stroke:none"
           d="m -461.12243,-660.09378 c 0,0 3.5862,-21.2875 2.465,-34.82873 -1.12,-13.5413 8.87999,-36.25 21.37999,-44.5838 0,0 -18.74999,19.205 -19.37499,39.7063 -0.625,20.50253 -2.0638,32.24373 -4.47,39.70623"
           inkscape:connector-curvature="0" />
        <path
           id="path11917"
           style="fill:#458c34;fill-opacity:1;fill-rule:nonzero;stroke:none"
           d="m -472.34493,-711.79751 c 0,0 5.6425,22.5 13.6875,31.45753 l 0,-1.765 c 0,0 -8.3375,-13.44253 -13.6875,-29.69253"
           inkscape:connector-curvature="0" />
        <path
           id="path11919"
           style="fill:#458c34;fill-opacity:1;fill-rule:nonzero;stroke:none"
           d="m -456.85493,-694.13751 c 0.023,-0.5763 8.95249,-7.8688 19.57749,-9.7438 0,0 -14.9263,5.7438 -19.75499,13.6013 l 0.1775,-3.8575"
           inkscape:connector-curvature="0" />
      </g>
    </g>
  </g>
</svg>
