<?xml version="1.0" encoding="UTF-8" standalone="no"?>
<!-- Created with Inkscape (http://www.inkscape.org/) -->

<svg
   xmlns:dc="http://purl.org/dc/elements/1.1/"
   xmlns:cc="http://creativecommons.org/ns#"
   xmlns:rdf="http://www.w3.org/1999/02/22-rdf-syntax-ns#"
   xmlns:svg="http://www.w3.org/2000/svg"
   xmlns="http://www.w3.org/2000/svg"
   xmlns:sodipodi="http://sodipodi.sourceforge.net/DTD/sodipodi-0.dtd"
   xmlns:inkscape="http://www.inkscape.org/namespaces/inkscape"
   width="150"
   height="150"
   id="svg7496"
   version="1.1"
   inkscape:version="0.48.4 r9939"
   sodipodi:docname="chou.svg">
  <defs
     id="defs7498">
    <clipPath
       id="clipPath11459"
       clipPathUnits="userSpaceOnUse">
      <path
         id="path11461"
         d="m 850.859,6831.69 c 0,0 -187.066,-1.97 -265.832,-137.84 -78.761,-135.87 -106.332,-393.82 92.551,-484.4 198.883,-90.58 226.449,-66.96 226.449,-66.96 0,0 -21.66,-49.22 0,-86.64 21.661,-37.41 47.258,-179.19 112.243,-200.85 64.98,-21.66 82.7,19.69 84.67,31.51 1.97,11.81 -33.47,-5.91 -49.23,-1.97 -15.75,3.94 -25.6,43.32 -37.41,68.92 -11.82,25.6 -21.663,47.26 -13.79,70.89 7.88,23.63 49.23,84.67 45.29,102.39 0,0 269.78,66.95 326.88,194.95 57.1,127.99 66.95,295.36 -27.57,391.85 -94.52,96.49 -218.57,137.84 -277.64,135.87 0,0 15.75,39.38 27.56,53.17 0,0 -76.79,-23.63 -102.393,-49.23 0,0 -5.907,39.38 -1.969,61.04 0,0 -68.918,-39.38 -68.918,-74.82 0,0 -63.012,78.76 -131.934,53.16 0,0 51.2,-33.47 61.043,-61.04 z"
         inkscape:connector-curvature="0" />
    </clipPath>
    <clipPath
       id="clipPath11797"
       clipPathUnits="userSpaceOnUse">
      <path
         id="path11799"
         d="m 2281.39,7271.13 c 0,0 29.48,32.66 57.68,43.52 28.2,10.87 17.33,55.36 97.76,52.68 80.42,-2.69 48.04,-78.76 48.04,-78.76 0,0 44.96,18.84 99.53,5.07 54.57,-13.76 65.44,-64.46 43.7,-116.27 -21.74,-51.82 -71.21,-140.02 -160.59,-127.44 -89.37,12.59 -206.79,158.11 -186.12,221.2 z"
         inkscape:connector-curvature="0" />
    </clipPath>
    <clipPath
       id="clipPath11811"
       clipPathUnits="userSpaceOnUse">
      <path
         id="path11813"
         d="m 2467.51,7049.93 c 0,0 19.31,95.19 73.65,101.71 54.34,6.52 89.11,32.6 86.94,69.55 -2.17,36.95 2.46,67.38 -53.11,73.9 0,0 -9.92,8.7 20.51,21.74 30.43,13.04 71.38,22 94.34,-3.41 22.95,-25.41 62.15,-67.81 49.11,-114.8 -13.04,-46.98 -119.33,-119.69 -163.96,-148.69 -44.63,-28.99 -78.75,-99.24 -107.48,0 z"
         inkscape:connector-curvature="0" />
    </clipPath>
    <clipPath
       id="clipPath11825"
       clipPathUnits="userSpaceOnUse">
      <path
         id="path11827"
         d="m 2467.51,6783.07 c 0,0 67.13,155.56 45.39,246.85 -21.73,91.29 -65.21,119.54 -158.67,171.71 -93.46,52.16 -150.46,126.07 -257.81,0 -107.35,-126.07 -20.41,-219.53 38.28,-278.22 58.69,-58.69 220.05,-152.45 332.81,-140.34 z"
         inkscape:connector-curvature="0" />
    </clipPath>
    <clipPath
       id="clipPath11843"
       clipPathUnits="userSpaceOnUse">
      <path
         id="path11845"
         d="m 2793.29,7198.62 c 0,0 23.91,-131.75 63.04,-188.26 39.12,-56.52 139.1,-343.43 0,-462.98 -139.11,-119.54 -354.74,-160.75 -433.19,-143.45 -78.45,17.3 -26.52,365.23 13.15,473.87 39.66,108.64 217.89,296.08 357,320.82 z"
         inkscape:connector-curvature="0" />
    </clipPath>
    <clipPath
       id="clipPath11859"
       clipPathUnits="userSpaceOnUse">
      <path
         id="path11861"
         d="m 2384.66,6393.06 c 0,0 65.21,-21.74 128.24,32.6 63.03,54.34 93.46,123.9 93.46,178.24 0,54.34 -32.6,215.18 -110.85,267.35 -78.25,52.16 -443.41,239.09 -473.84,289.08 -30.43,49.99 -45.64,-21.74 -56.51,-65.2 -10.87,-43.48 -37.59,-164.69 -67.7,-218.2 -30.11,-53.5 -85.09,-129.58 0,-251.3 85.09,-121.72 263.32,-234.74 487.2,-232.57 z"
         inkscape:connector-curvature="0" />
    </clipPath>
    <clipPath
       id="clipPath11493"
       clipPathUnits="userSpaceOnUse">
      <path
         id="path11495"
         d="m 4003.03,7499.29 c -169.8,4.36 -332.79,-105.57 -362.63,-190.49 -29.84,-84.92 -94.1,-330.5 -117.05,-381 -22.95,-50.49 -169.84,-234.1 -183.61,-348.86 -13.77,-114.75 34.42,-410.82 403.94,-456.73 369.52,-45.9 599.03,71.15 647.23,289.19 48.2,218.04 -89.51,507.22 -100.99,562.31 -11.47,55.08 71.15,516.4 -286.89,525.58 z"
         inkscape:connector-curvature="0" />
    </clipPath>
    <clipPath
       id="clipPath11565"
       clipPathUnits="userSpaceOnUse">
      <path
         id="path11567"
         d="m 5470.49,6976.77 c -107.65,26.44 -398.48,47.21 -500.46,-234.18 -101.98,-281.39 136.59,-508.95 258.73,-559.01 153.6,-62.95 394.7,-98.2 638.32,37.77 243.62,135.98 288.95,460.81 166.19,602.45 -122.75,141.64 -251.17,228.51 -562.78,152.97 z"
         inkscape:connector-curvature="0" />
    </clipPath>
  </defs>
  <sodipodi:namedview
     id="base"
     pagecolor="#ffffff"
     bordercolor="#666666"
     borderopacity="1.0"
     inkscape:pageopacity="0.0"
     inkscape:pageshadow="2"
     inkscape:zoom="1.9445436"
     inkscape:cx="32.367494"
     inkscape:cy="104.8319"
     inkscape:current-layer="layer1"
     showgrid="true"
     inkscape:document-units="px"
     inkscape:grid-bbox="true"
     inkscape:window-width="1280"
     inkscape:window-height="748"
     inkscape:window-x="0"
     inkscape:window-y="0"
     inkscape:window-maximized="1" />
  <metadata
     id="metadata7501">
    <rdf:RDF>
      <cc:Work
         rdf:about="">
        <dc:format>image/svg+xml</dc:format>
        <dc:type
           rdf:resource="http://purl.org/dc/dcmitype/StillImage" />
        <dc:title></dc:title>
      </cc:Work>
    </rdf:RDF>
  </metadata>
  <g
     id="layer1"
     inkscape:label="Layer 1"
     inkscape:groupmode="layer"
     transform="translate(0,86)">
    <path
       style="fill:#6fa11c;fill-opacity:1;stroke:none"
       d="m 66.596771,45.747976 c 0,0 9.008777,-19.689284 7.635389,-30.216789 0,0 -4.897616,1.673034 -5.832933,0.647206 -0.935374,-1.025829 1.561511,-3.048602 1.561511,-3.048602 0,0 -3.307873,-1.122065 -4.643227,-2.976327 -1.335353,-1.8543255 0.649008,-5.7200483 0.649008,-5.7200483 0,0 -3.831862,-2.142079 -4.609052,-5.4446922 -0.777189,-3.3025506 -4.597267,-8.5780927 -8.299068,-13.2505865 -3.701851,-4.672429 -5.335297,-10.139232 -3.909094,-12.556667 1.426198,-2.417435 3.956184,0.023 -0.298099,-3.612478 -4.254284,-3.63561 -5.015133,-3.551194 -2.760426,-6.368596 2.254656,-2.817465 2.356166,-3.290792 -3.815151,-1.065768 0,0 -4.14779,0.100774 -4.451243,-5.410824 0,0 -6.499035,7.601342 -9.716057,2.207579 0,0 0.14672,-1.453911 3.004098,-2.07907 2.857335,-0.625095 -1.217126,-1.251277 -3.910973,-1.003718 -2.693851,0.247558 -0.878704,-2.829224 -0.878704,-2.829224 0,0 -3.359193,2.580579 -6.300566,0.134259 -2.941379,-2.446315 -1.05895,-3.528058 -1.565793,-5.782353 -0.506844,-2.254295 -6.98086,-10.16205 -0.831985,-13.052098 6.148866,-2.890058 12.787112,0.01921 15.7061,1.800195 2.91893,1.781348 -4.355793,-3.162218 -0.36505,-7.918044 3.990736,-4.755759 4.278176,-4.941711 8.498981,-3.458852 0,0 -0.117524,-5.224226 5.929835,-7.640902 0,0 3.245957,1.026156 4.485476,2.942461 1.239525,1.916317 0.06765,-0.315547 1.927692,-2.062332 1.860032,-1.746708 0.788597,2.479804 2.856951,1.685501 2.068405,-0.794313 3.07181,-2.394625 5.59076,-1.44184 2.518958,0.952853 -0.834561,3.122025 0.162735,4.243648 0.997296,1.121679 3.133036,2.322349 4.2425,6.769006 0,0 1.860409,-4.057304 4.328423,-1.712524 0,0 3.990736,-4.755826 7.472808,-0.212986 3.482072,4.54284 6.188027,-1.148646 4.075158,-3.994936 -2.112914,-2.84628 5.467505,-6.254661 8.994788,-2.69241 3.52734,3.56225 4.413221,-3.262287 6.487297,-4.468006 2.07409,-1.205641 3.60068,2.835298 5.35915,1.561973 1.75852,-1.273382 6.8021,0.22085 9.35454,3.326453 2.55243,3.105603 -2.67141,0.912525 -2.60407,2.907563 0.0673,1.994983 4.6721,-1.39128 4.62115,0 -0.0509,1.391995 -2.53641,2.591961 -1.95619,4.119292 0.58023,1.527332 6.85837,0.728103 8.1371,4.385765 1.27867,3.657718 1.76307,5.247037 3.63378,7.29869 1.87068,2.051665 -1.62462,9.884518 -6.93861,7.34209 -5.31394,-2.542551 -5.53479,4.259555 -0.68816,3.978582 4.84666,-0.281051 6.15422,-0.990878 7.71466,2.892293 1.56044,3.883168 9.7378,3.078571 9.7378,3.078571 0,0 3.51625,2.07447 1.04749,4.350807 -2.46871,2.276403 -7.61386,1.255558 -6.90967,2.974474 0.70417,1.71898 1.85928,2.874468 1.75203,3.759263 -0.10712,0.884731 5.65237,0.964545 4.75583,3.990716 -0.89654,3.026171 -7.55723,-0.547837 -6.44734,1.588172 1.10984,2.136071 1.85891,5.185056 4.89644,5.258799 3.03758,0.07374 0.83311,6.120398 -0.35049,7.021872 -1.18365,0.901538 -2.6661,2.811714 -3.86111,4.5360612 -1.195,1.7242839 -4.60407,-1.2349172 -4.60407,-1.2349172 0,0 0.11753,5.2241654 0.73156,6.5937257 0.61408,1.3695602 -3.91018,-5.6249618 -4.54633,-9.9700827 -0.6361,-4.345121 -5.33707,1.413653 -3.21853,3.848597 2.1186,2.4348808 -1.84932,5.5450837 -4.63327,5.4432233 -2.784,-0.1018571 -7.43291,-2.6668475 -9.78912,0.6240082 -2.35621,3.29079206 0.23613,3.51662371 -2.67215,5.5337093 -2.908279,2.0170857 -1.95474,-5.1230703 -4.158455,-3.697596 -2.203771,1.42547555 -2.661122,7.02149 0.619011,5.5793362 3.280124,-1.4422175 -1.98431,3.8656591 -1.206794,4.8576833 0.77756,0.9919595 -1.263042,4.3504247 0.782544,5.2017347 2.045584,0.851246 -2.660047,0.08978 -2.660047,0.08978 0,0 -2.440204,0.219377 -3.207118,3.025788 -0.76685,2.806345 -2.372556,-0.09624 -2.310955,2.310206 0.0616,2.40638 -0.983531,18.439477 2.801611,30.804508 0,0 -1.352434,-0.620131 -1.634519,1.464972 -0.28213,2.08513 -0.840293,3.533392 -1.956237,4.119321 -1.115892,0.585884 -1.945156,5.607075 -2.390397,5.75917 -0.445242,0.152095 -0.985884,-1.944454 -1.684766,-1.764197 -0.698821,0.180218 0.596996,2.603704 -2.175967,3.989643 0,0 0.04562,-3.291194 -1.926561,-4.869466 0,0 -2.553184,1.515577 -1.995397,2.377911 0,0 -1.927316,-0.248281 -1.498088,-6.097944 0,0 -2.569894,0.439171 -4.006374,-3.252361 0,0 -1.273699,0.552062 -1.905248,2.7273 -0.63155,2.175243 -3.430752,-8.245377 -3.430752,-8.245377 z"
       id="path12848-5"
       inkscape:connector-curvature="0" />
    <path
       id="path11499-4"
       style="fill:#171717;fill-opacity:1;fill-rule:nonzero;stroke:none"
       d="m 93.144381,-36.271961 c 0,0.987296 -0.584709,1.787676 -1.305977,1.787676 -0.721269,0 -1.306807,-0.80038 -1.306807,-1.787676 0,-0.987294 0.585538,-1.786843 1.306807,-1.786843 0.721268,0 1.305977,0.799549 1.305977,1.786843"
       inkscape:connector-curvature="0" />
    <path
       id="path11501-9"
       style="fill:#171717;fill-opacity:1;fill-rule:nonzero;stroke:none"
       d="m 78.096151,-36.271961 c 0,0.987296 -0.584708,1.787676 -1.306808,1.787676 -0.721332,0 -1.305977,-0.80038 -1.305977,-1.787676 0,-0.987294 0.584645,-1.786843 1.305977,-1.786843 0.7221,0 1.306808,0.799549 1.306808,1.786843"
       inkscape:connector-curvature="0" />
    <path
       id="path11503-1"
       style="fill:#040606;fill-opacity:1;fill-rule:nonzero;stroke:none"
       d="m 83.948799,-24.855698 c -7.483761,0 -9.446401,-4.053853 -9.52545,-4.22639 -0.09266,-0.200526 -0.0064,-0.437732 0.194137,-0.530391 0.199696,-0.09349 0.436902,-0.0064 0.529561,0.193305 0.07585,0.158925 1.867552,3.764693 8.801752,3.764693 8.178765,0 9.005472,-3.637719 9.012693,-3.674463 0.04345,-0.216438 0.255611,-0.357855 0.470451,-0.312291 0.216502,0.04346 0.35632,0.254012 0.313122,0.469684 -0.03578,0.176498 -0.970488,4.315853 -9.796266,4.315853"
       inkscape:connector-curvature="0" />
    <path
       id="path11505-4"
       style="fill:#040606;fill-opacity:1;fill-rule:nonzero;stroke:none"
       d="m 94.509532,-28.721868 c -0.711746,0 -1.27409,-0.193307 -1.677443,-0.577488 -0.819551,-0.78121 -0.61749,-2.028141 -0.608671,-2.080861 0.0377,-0.216438 0.246024,-0.36105 0.460928,-0.325902 0.217205,0.03643 0.362584,0.242061 0.326671,0.459331 -0.0064,0.02812 -0.131831,0.893039 0.375427,1.372308 0.391404,0.369804 1.118296,0.452111 2.100798,0.234842 0.2181,-0.04857 0.428148,0.08947 0.476075,0.303537 0.04792,0.215672 -0.0887,0.428915 -0.304368,0.476074 -0.417732,0.09183 -0.801914,0.138159 -1.149417,0.138159"
       inkscape:connector-curvature="0" />
    <path
       id="path11507-3"
       style="fill:#040606;fill-opacity:1;fill-rule:nonzero;stroke:none"
       d="m 73.023116,-27.613159 c -0.17177,0 -0.329929,-0.111829 -0.381882,-0.285134 -0.0639,-0.210878 0.05687,-0.43377 0.267624,-0.496842 0.02556,-0.0083 2.616811,-0.808367 2.188664,-2.401971 -0.05687,-0.212475 0.06953,-0.432109 0.282769,-0.488855 0.214841,-0.05751 0.43211,0.06869 0.488855,0.282769 0.503233,1.873177 -1.567211,3.025789 -2.731836,3.37329 -0.0377,0.01084 -0.07585,0.01661 -0.114194,0.01661"
       inkscape:connector-curvature="0" />
  </g>
</svg>
