<?xml version="1.0" encoding="UTF-8" standalone="no"?>
<!-- Created with Inkscape (http://www.inkscape.org/) -->

<svg
   xmlns:dc="http://purl.org/dc/elements/1.1/"
   xmlns:cc="http://creativecommons.org/ns#"
   xmlns:rdf="http://www.w3.org/1999/02/22-rdf-syntax-ns#"
   xmlns:svg="http://www.w3.org/2000/svg"
   xmlns="http://www.w3.org/2000/svg"
   xmlns:sodipodi="http://sodipodi.sourceforge.net/DTD/sodipodi-0.dtd"
   xmlns:inkscape="http://www.inkscape.org/namespaces/inkscape"
   width="64px"
   height="64px"
   id="svg5689"
   version="1.1"
   inkscape:version="0.48.4 r9939"
   sodipodi:docname="search.svg">
  <defs
     id="defs5691" />
  <sodipodi:namedview
     id="base"
     pagecolor="#ffffff"
     bordercolor="#666666"
     borderopacity="1.0"
     inkscape:pageopacity="0.0"
     inkscape:pageshadow="2"
     inkscape:zoom="1.9445436"
     inkscape:cx="-41.450242"
     inkscape:cy="45.37442"
     inkscape:current-layer="layer1"
     showgrid="true"
     inkscape:document-units="px"
     inkscape:grid-bbox="true"
     inkscape:window-width="1280"
     inkscape:window-height="748"
     inkscape:window-x="0"
     inkscape:window-y="0"
     inkscape:window-maximized="1" />
  <metadata
     id="metadata5694">
    <rdf:RDF>
      <cc:Work
         rdf:about="">
        <dc:format>image/svg+xml</dc:format>
        <dc:type
           rdf:resource="http://purl.org/dc/dcmitype/StillImage" />
        <dc:title></dc:title>
      </cc:Work>
    </rdf:RDF>
  </metadata>
  <g
     id="layer1"
     inkscape:label="Layer 1"
     inkscape:groupmode="layer">
    <g
       id="Layer_2-4-1-8-4"
       transform="matrix(-0.67373318,0,0,0.67373318,66.191772,-1.6515392)"
       style="fill:#b3b3b3;fill-opacity:1">
      <path
         inkscape:connector-curvature="0"
         d="m 44.716,74.945 c -18.251,0 -33.1,-14.849 -33.1,-33.101 0,-18.249 14.849,-33.095 33.1,-33.095 18.246,0 33.09,14.847 33.09,33.095 0,18.253 -14.844,33.101 -33.09,33.101 z m 0,-52.195 c -10.532,0 -19.1,8.566 -19.1,19.095 0,10.532 8.568,19.101 19.1,19.101 10.526,0 19.09,-8.568 19.09,-19.101 0,-10.53 -8.564,-19.095 -19.09,-19.095 z"
         id="path29839-6-3-8"
         style="fill:#b3b3b3;fill-opacity:1" />
      <path
         inkscape:connector-curvature="0"
         d="m 55.386,67.918 c 7.863,7.691 15.727,15.383 23.59,23.074 6.456,6.313 16.362,-3.579 9.9,-9.9 -7.863,-7.691 -15.727,-15.383 -23.59,-23.074 -6.456,-6.314 -16.362,3.579 -9.9,9.9 l 0,0 z"
         id="path29841-1-6-3"
         style="fill:#b3b3b3;fill-opacity:1" />
    </g>
  </g>
</svg>
