<?xml version="1.0" encoding="UTF-8" standalone="no"?>
<!-- Created with Inkscape (http://www.inkscape.org/) -->

<svg
   xmlns:dc="http://purl.org/dc/elements/1.1/"
   xmlns:cc="http://creativecommons.org/ns#"
   xmlns:rdf="http://www.w3.org/1999/02/22-rdf-syntax-ns#"
   xmlns:svg="http://www.w3.org/2000/svg"
   xmlns="http://www.w3.org/2000/svg"
   xmlns:sodipodi="http://sodipodi.sourceforge.net/DTD/sodipodi-0.dtd"
   xmlns:inkscape="http://www.inkscape.org/namespaces/inkscape"
   width="150"
   height="150"
   id="svg7496"
   version="1.1"
   inkscape:version="0.48.4 r9939"
   sodipodi:docname="courge.svg">
  <defs
     id="defs7498">
    <clipPath
       id="clipPath11459"
       clipPathUnits="userSpaceOnUse">
      <path
         id="path11461"
         d="m 850.859,6831.69 c 0,0 -187.066,-1.97 -265.832,-137.84 -78.761,-135.87 -106.332,-393.82 92.551,-484.4 198.883,-90.58 226.449,-66.96 226.449,-66.96 0,0 -21.66,-49.22 0,-86.64 21.661,-37.41 47.258,-179.19 112.243,-200.85 64.98,-21.66 82.7,19.69 84.67,31.51 1.97,11.81 -33.47,-5.91 -49.23,-1.97 -15.75,3.94 -25.6,43.32 -37.41,68.92 -11.82,25.6 -21.663,47.26 -13.79,70.89 7.88,23.63 49.23,84.67 45.29,102.39 0,0 269.78,66.95 326.88,194.95 57.1,127.99 66.95,295.36 -27.57,391.85 -94.52,96.49 -218.57,137.84 -277.64,135.87 0,0 15.75,39.38 27.56,53.17 0,0 -76.79,-23.63 -102.393,-49.23 0,0 -5.907,39.38 -1.969,61.04 0,0 -68.918,-39.38 -68.918,-74.82 0,0 -63.012,78.76 -131.934,53.16 0,0 51.2,-33.47 61.043,-61.04 z"
         inkscape:connector-curvature="0" />
    </clipPath>
    <clipPath
       id="clipPath11797"
       clipPathUnits="userSpaceOnUse">
      <path
         id="path11799"
         d="m 2281.39,7271.13 c 0,0 29.48,32.66 57.68,43.52 28.2,10.87 17.33,55.36 97.76,52.68 80.42,-2.69 48.04,-78.76 48.04,-78.76 0,0 44.96,18.84 99.53,5.07 54.57,-13.76 65.44,-64.46 43.7,-116.27 -21.74,-51.82 -71.21,-140.02 -160.59,-127.44 -89.37,12.59 -206.79,158.11 -186.12,221.2 z"
         inkscape:connector-curvature="0" />
    </clipPath>
    <clipPath
       id="clipPath11811"
       clipPathUnits="userSpaceOnUse">
      <path
         id="path11813"
         d="m 2467.51,7049.93 c 0,0 19.31,95.19 73.65,101.71 54.34,6.52 89.11,32.6 86.94,69.55 -2.17,36.95 2.46,67.38 -53.11,73.9 0,0 -9.92,8.7 20.51,21.74 30.43,13.04 71.38,22 94.34,-3.41 22.95,-25.41 62.15,-67.81 49.11,-114.8 -13.04,-46.98 -119.33,-119.69 -163.96,-148.69 -44.63,-28.99 -78.75,-99.24 -107.48,0 z"
         inkscape:connector-curvature="0" />
    </clipPath>
    <clipPath
       id="clipPath11825"
       clipPathUnits="userSpaceOnUse">
      <path
         id="path11827"
         d="m 2467.51,6783.07 c 0,0 67.13,155.56 45.39,246.85 -21.73,91.29 -65.21,119.54 -158.67,171.71 -93.46,52.16 -150.46,126.07 -257.81,0 -107.35,-126.07 -20.41,-219.53 38.28,-278.22 58.69,-58.69 220.05,-152.45 332.81,-140.34 z"
         inkscape:connector-curvature="0" />
    </clipPath>
    <clipPath
       id="clipPath11843"
       clipPathUnits="userSpaceOnUse">
      <path
         id="path11845"
         d="m 2793.29,7198.62 c 0,0 23.91,-131.75 63.04,-188.26 39.12,-56.52 139.1,-343.43 0,-462.98 -139.11,-119.54 -354.74,-160.75 -433.19,-143.45 -78.45,17.3 -26.52,365.23 13.15,473.87 39.66,108.64 217.89,296.08 357,320.82 z"
         inkscape:connector-curvature="0" />
    </clipPath>
    <clipPath
       id="clipPath11859"
       clipPathUnits="userSpaceOnUse">
      <path
         id="path11861"
         d="m 2384.66,6393.06 c 0,0 65.21,-21.74 128.24,32.6 63.03,54.34 93.46,123.9 93.46,178.24 0,54.34 -32.6,215.18 -110.85,267.35 -78.25,52.16 -443.41,239.09 -473.84,289.08 -30.43,49.99 -45.64,-21.74 -56.51,-65.2 -10.87,-43.48 -37.59,-164.69 -67.7,-218.2 -30.11,-53.5 -85.09,-129.58 0,-251.3 85.09,-121.72 263.32,-234.74 487.2,-232.57 z"
         inkscape:connector-curvature="0" />
    </clipPath>
    <clipPath
       id="clipPath11493"
       clipPathUnits="userSpaceOnUse">
      <path
         id="path11495"
         d="m 4003.03,7499.29 c -169.8,4.36 -332.79,-105.57 -362.63,-190.49 -29.84,-84.92 -94.1,-330.5 -117.05,-381 -22.95,-50.49 -169.84,-234.1 -183.61,-348.86 -13.77,-114.75 34.42,-410.82 403.94,-456.73 369.52,-45.9 599.03,71.15 647.23,289.19 48.2,218.04 -89.51,507.22 -100.99,562.31 -11.47,55.08 71.15,516.4 -286.89,525.58 z"
         inkscape:connector-curvature="0" />
    </clipPath>
    <clipPath
       id="clipPath11565"
       clipPathUnits="userSpaceOnUse">
      <path
         id="path11567"
         d="m 5470.49,6976.77 c -107.65,26.44 -398.48,47.21 -500.46,-234.18 -101.98,-281.39 136.59,-508.95 258.73,-559.01 153.6,-62.95 394.7,-98.2 638.32,37.77 243.62,135.98 288.95,460.81 166.19,602.45 -122.75,141.64 -251.17,228.51 -562.78,152.97 z"
         inkscape:connector-curvature="0" />
    </clipPath>
    <clipPath
       id="clipPath11889"
       clipPathUnits="userSpaceOnUse">
      <path
         id="path11891"
         d="m 7358.51,6565.15 c -1.91,-11.65 -4.42,-23.57 -7.91,-35.55 -22.63,-77.81 -64.54,-5.94 -109.7,-23.7 -45.16,-17.76 -18.64,-74.88 -95.02,-100.19 -76.37,-25.32 -106.85,88.06 -189.34,55.24 -73.74,-29.34 -74.39,34.08 -120.61,32.38 -46.21,-1.69 -56.22,-28.94 -84.26,-61.72 -28.04,-32.78 -92.32,5.1 -134.92,38.19 -27.53,21.38 -32.3,63.5 -32.25,90.71 -15.21,-99.32 25.77,-275.33 160.49,-347.35 153.45,-82.04 190.11,-73.56 190.11,-73.56 0,0 57.04,-88.35 43.61,-118.08 -13.44,-29.74 -65.56,-138.33 -13.81,-192.28 51.75,-53.95 96.66,-14.93 96.66,-14.93 0,0 -69.06,-12.31 -74.86,41.61 -5.81,53.92 14.24,57.89 14.24,57.89 0,0 53.5,-31.24 73.96,-13.2 0,0 -48.46,18.09 -53.35,43.59 -4.9,25.5 -0.1,56.57 6.68,66.13 6.78,9.56 62.05,46.97 41.39,142.06 0,0 176.48,39.37 250.01,131.03 55.11,68.71 62.13,190.21 38.88,281.73 z"
         inkscape:connector-curvature="0" />
    </clipPath>
    <clipPath
       id="clipPath11763"
       clipPathUnits="userSpaceOnUse">
      <path
         id="path11765"
         d="m 925.598,5230.68 c -82.36,-2.22 -420.496,-128.97 -420.684,-442.94 -0.168,-281.56 200.324,-469.65 471.875,-489.68 271.551,-20.03 581.621,194.31 583.171,505.26 1.69,340.56 -378.39,420.69 -438.49,427.36 0,0 28.93,75.68 82.35,117.97 0,0 -55.64,6.68 -93.48,-11.13 0,0 -2.23,55.65 -24.48,120.2 0,0 -91.262,-62.33 -106.844,-84.58 0,0 -51.196,35.61 -84.582,51.19 0,0 42.293,-155.81 31.164,-193.65 z"
         inkscape:connector-curvature="0" />
    </clipPath>
    <clipPath
       id="clipPath11597"
       clipPathUnits="userSpaceOnUse">
      <path
         id="path11599"
         d="m 4172.82,5122.8 c -27.71,-1.85 -61.7,30.85 -64.07,47.46 -2.37,16.61 21.36,80.68 47.46,111.53 26.1,30.85 116.28,90.18 116.28,102.04 0,11.87 -40.34,42.71 -59.33,36.78 -18.98,-5.93 -54.58,-36.78 -54.58,-36.78 0,0 35.6,66.44 47.46,78.31 11.87,11.86 -64.4,49.83 -97.45,47.46 0,0 -113.74,-106.79 -137.47,-168.48 -23.73,-61.7 -23.73,-144.16 -40.35,-156.33 -16.61,-12.16 -73.56,-50.13 -116.27,-61.99 -42.72,-11.87 -154.25,-27.29 -237.3,-77.72 -83.06,-50.42 -161.37,-131.52 -170.86,-200.13 -9.49,-68.61 23.73,-213.36 121.02,-296.42 97.3,-83.06 277.64,-147.13 353.58,-144.75 75.94,2.37 123.4,37.96 123.4,37.96 0,0 80.68,-35.59 144.75,-4.74 0,0 59.33,-23.73 140.01,14.24 80.68,37.96 287.13,189.84 246.79,439 -40.34,249.17 -161.36,261.41 -187.47,263.6 -26.1,2.18 -140,-28.67 -175.6,-31.04 z"
         inkscape:connector-curvature="0" />
    </clipPath>
    <clipPath
       id="clipPath12061"
       clipPathUnits="userSpaceOnUse">
      <path
         id="path12063"
         d="m 5357,5573.74 c 0,0 -47.6,9.52 -55.21,-28.55 0,0 -38.08,-7.62 -30.46,-55.21 0,0 -11.54,-95.19 -1.01,-159.92 10.53,-64.73 52.41,-220.83 54.31,-258.91 0,0 -9.52,-34.27 1.91,-45.69 0,0 7.61,-108.52 -1.91,-190.38 -9.52,-81.86 -1.9,-197.99 5.71,-218.93 0,0 3.81,-43.79 26.66,-53.31 0,0 -26.66,-51.4 19.03,-60.92 0,0 38.08,-47.59 60.92,-53.3 22.85,-5.71 53.31,-36.17 66.64,-34.27 13.32,1.9 89.47,-11.42 127.55,36.17 38.07,47.6 62.82,62.83 60.92,83.77 -1.9,20.94 0,36.17 9.52,45.69 9.52,9.52 13.32,39.98 0,62.82 0,0 26.65,9.52 26.65,60.92 0,51.4 22.93,98.71 23.52,156.11 0.74,72.34 -16.39,138.37 -25.42,197.99 -13,85.72 -116.13,352.2 -194.19,441.68 -78.05,89.47 -114.22,62.82 -114.22,62.82 0,0 -32.37,36.17 -60.92,11.42 z"
         inkscape:connector-curvature="0" />
    </clipPath>
    <clipPath
       id="clipPath11933"
       clipPathUnits="userSpaceOnUse">
      <path
         id="path11935"
         d="m 6632.27,4588.65 c 0,0 -25.37,72.71 20.29,93 0,0 -20.29,43.97 16.91,67.64 0,0 -16.91,50.73 13.53,59.19 0,0 -23.68,32.13 8.45,52.42 0,0 -15.22,45.66 18.6,64.26 0,0 -18.6,52.42 18.6,64.26 0,0 -20.29,39.94 13.53,57.17 0,0 -16.91,42.6 15.22,57.81 0,0 -21.98,37.21 25.37,59.19 0,0 -11.84,33.82 21.98,50.73 0,0 -11.84,42.28 30.44,55.8 0,0 1.69,30.44 28.74,35.52 0,0 -10.14,55.8 45.66,69.33 0,0 -13.53,28.74 49.04,42.27 0,0 -27.05,32.13 -27.05,57.5 l 52.42,-43.97 c 0,0 6.76,23.67 13.53,43.97 0,0 13.52,-45.66 18.6,-49.04 5.07,-3.38 18.6,16.91 32.13,-1.69 0,0 32.12,40.58 42.27,50.73 0,0 -1.69,-45.66 -20.29,-62.57 0,0 38.89,-3.38 50.73,1.69 0,0 -21.98,-20.29 -32.13,-25.36 0,0 33.82,-8.46 11.84,-38.9 0,0 40.58,-25.36 11.83,-59.18 0,0 47.65,-38.9 10.3,-67.64 0,0 21.83,-38.9 -8.61,-64.26 0,0 28.75,-35.51 -1.69,-69.33 0,0 33.82,-30.44 0,-57.5 0,0 35.51,-45.66 -13.52,-84.55 0,0 27.05,-42.27 -13.53,-71.02 0,0 33.82,-32.13 -6.77,-60.88 0,0 23.68,-42.27 -15.22,-65.95 0,0 27.06,-50.73 -28.74,-67.64 0,0 49.04,-81.17 -13.53,-93 0,0 -20.29,-74.41 -79.48,-65.95 0,0 -19.64,-71.03 -60.55,-54.12 0,0 -56.13,-65.95 -95.02,-18.6 0,0 -86.24,-18.6 -101.46,50.73 0,0 -84.55,27.06 -52.42,87.94 z"
         inkscape:connector-curvature="0" />
    </clipPath>
    <clipPath
       id="clipPath11627"
       clipPathUnits="userSpaceOnUse">
      <path
         id="path11629"
         d="m 2223.84,3484.33 c 0,0 246.71,55.6 288.41,90.35 42.03,35.02 121.28,171.52 93.81,274.5 0,0 180.69,34.75 205.01,0 0,0 -79.92,-170.26 -132.04,-218.91 -52.12,-48.64 0,-90.74 48.65,-95.75 48.65,-5.01 114.67,-50.19 114.67,-50.19 0,0 -441.29,-215.43 -618.51,0 z"
         inkscape:connector-curvature="0" />
    </clipPath>
    <clipPath
       id="clipPath11639"
       clipPathUnits="userSpaceOnUse">
      <path
         id="path11641"
         d="m 2314.19,3484.33 c 0,0 -166.79,145.94 -406.55,-86.86 -239.75,-232.81 -236.28,-451.72 -208.48,-521.21 27.8,-69.5 180.69,-271.03 271.03,-208.49 0,0 277.98,-211.95 531.63,0 0,0 135.52,-113.5 333.58,37.07 0,0 170.26,-44.02 298.82,199.22 128.57,243.23 -52.12,531.63 -128.56,590.7 -76.45,59.07 -191.11,0 -205.01,-31.27 0,0 -104.24,138.98 -211.96,-17.38 0,0 -79.92,170.26 -274.5,38.22 z"
         inkscape:connector-curvature="0" />
    </clipPath>
    <clipPath
       id="clipPath11991"
       clipPathUnits="userSpaceOnUse">
      <path
         id="path11993"
         d="m 5662.36,3891.14 c -86.84,-12.36 -238.23,-43.25 -346.36,-247.17 -108.14,-203.91 -228.64,-308.96 -253.35,-528.32 -24.72,-219.37 -6.18,-559.23 274.97,-549.96 281.16,9.27 343.6,169.93 324.74,336.77 -18.86,166.84 -201.15,342.95 -219.69,407.83 -18.54,64.88 -24.72,135.95 -12.36,163.75 12.36,27.81 299.7,166.84 293.52,302.79 -6.18,135.94 -61.47,114.31 -61.47,114.31 z"
         inkscape:connector-curvature="0" />
    </clipPath>
    <clipPath
       id="clipPath12017"
       clipPathUnits="userSpaceOnUse">
      <path
         id="path12019"
         d="m 6678.13,3172.89 c 0,0 92.8,-126.71 139.2,-137.42 46.4,-10.71 73.17,39.26 78.53,78.53 5.35,39.26 57.11,64.25 64.25,37.48 7.14,-26.77 -14.28,-122.52 33.91,-117.48 48.18,5.04 101.73,101.41 105.29,110.34 3.57,8.92 112.44,-17.73 91.02,-40.99 -21.41,-23.26 -58.89,-51.82 -53.54,-78.59 5.36,-26.77 73.18,-24.98 139.21,33.91 66.03,58.9 15.75,-45.63 0,-50.51 -15.75,-4.87 -139.21,-58.35 -153.48,-108.33 -14.28,-49.97 55.32,-160.62 48.18,-176.68 -7.14,-16.06 -94.59,-73.17 -192.75,-76.74 -98.15,-3.57 -192.74,33.91 -198.1,64.25 -5.35,30.34 44.62,149.67 19.63,198.87 -24.98,49.2 -139.2,175.91 -194.53,193.76 -55.32,17.85 46.4,66.03 73.18,69.6 z"
         inkscape:connector-curvature="0" />
    </clipPath>
  </defs>
  <sodipodi:namedview
     id="base"
     pagecolor="#ffffff"
     bordercolor="#666666"
     borderopacity="1.0"
     inkscape:pageopacity="0.0"
     inkscape:pageshadow="2"
     inkscape:zoom="1.9445436"
     inkscape:cx="27.293245"
     inkscape:cy="120.47656"
     inkscape:current-layer="layer1"
     showgrid="true"
     inkscape:document-units="px"
     inkscape:grid-bbox="true"
     inkscape:window-width="1280"
     inkscape:window-height="748"
     inkscape:window-x="0"
     inkscape:window-y="0"
     inkscape:window-maximized="1" />
  <metadata
     id="metadata7501">
    <rdf:RDF>
      <cc:Work
         rdf:about="">
        <dc:format>image/svg+xml</dc:format>
        <dc:type
           rdf:resource="http://purl.org/dc/dcmitype/StillImage" />
        <dc:title></dc:title>
      </cc:Work>
    </rdf:RDF>
  </metadata>
  <g
     id="layer1"
     inkscape:label="Layer 1"
     inkscape:groupmode="layer"
     transform="translate(0,86)">
    <g
       transform="matrix(0.90322729,0,0,0.90322729,492.04201,190.83387)"
       id="g9281">
      <path
         inkscape:connector-curvature="0"
         d="m -527.15373,-217.90498 c 0,0 0,4.2387 6.0238,4.2387 0,0 0.6687,6.6938 6.6925,5.8013 0,0 8.4775,3.8737 10.9312,-4.9788 0,0 7.3613,5.2013 10.7075,-5.0612 0,0 2.4538,6.6937 8.0313,4.2387 0,0 -0.8925,6.47 5.5775,5.1313 0,0 3.3462,4.4625 6.2462,-0.8925 0,0 8.255,10.4437 14.055,-2.92 0,0 2.4538,8.5887 8.47749,0.6237 0,0 1.5613,5.42 8.2538,0.9588 0,0 0,7.32 8.2537,5.2212 0,0 -0.8912,6.1563 6.47,4.1475 0,0 1.785,6.0238 7.3625,3.7925 0,0 2.4538,6.9163 10.2613,2.4538 0,0 2.6775,3.57 7.1387,0.2237 0,0 4.685,0.2225 5.355,-3.57 0,0 5.5763,-2.0075 4.9075,-5.5762 0,0 2.6775,-2.6775 1.115,-5.355 0,0 3.655,-3.5688 0.49,-6.6925 0,0 3.3025,-5.1313 -2.275,-6.4688 0,0 0.67,-9.5937 -8.4762,-8.0312 0,0 2.23,-5.8013 -4.4625,-7.3625 0,0 6.0237,-5.5775 -2.2313,-11.8238 0,0 4.0163,-7.1387 -1.3375,-8.9237 0,0 0.6688,-5.3525 -5.8012,-4.9075 0,0 3.7925,-6.47 -4.015,-7.8075 0,0 0.2237,-6.47 -8.9238,-4.0163 0,0 -1.3387,-8.0362 -10.7075,-4.2412 0,0 -1.3387,-2.485 -4.9087,-1.0175 0,0 1.3387,-5.895 -5.1313,-3.4413 0,0 -1.5612,-2.7575 -6.02249,-0.5975 0,0 -2.9,-9.665 -9.8162,-3.4187 0,0 -4.685,-4.685 -8.4775,0 0,0 -6.915,-5.3538 -10.2613,1.5625 0,0 -8.7012,-2.9063 -11.8237,6.9125 0,0 -5.5775,0.2262 -5.5775,5.3575 0,0 -7.8088,0.8912 -3.3463,8.7 0,0 -7.585,2.4537 -4.4625,9.37 0,0 -6.6925,-3.3463 -9.3687,3.3462 0,0 -8.0313,-3.57 -8.9238,6.6925 0,0 -6.6925,-0.2237 -4.2387,6.4688 0,0 -4.015,-0.2225 -6.0238,3.3462 -2.0075,3.57 0,8.9238 0,8.9238 0,0 -2.0075,1.5625 1.1163,5.5775 3.1225,4.015 9.1462,4.015 9.1462,4.015"
         style="fill:#5ba232;fill-opacity:1;fill-rule:nonzero;stroke:none"
         id="path12039" />
      <path
         inkscape:connector-curvature="0"
         d="m -527.60493,-221.47378 c 0,0 0.9713,3.2175 6.9937,3.2175 0,0 1.2688,7.3513 7.2925,6.4588 0,0 6.5038,1.4075 8.9575,-7.445 0,0 7.3188,7.3 10.665,-2.9625 0,0 5.6325,6.6112 11.21,4.1575 0,0 -1.6025,4.4637 4.8676,3.125 0,0 3.0562,5.5625 5.9562,0.2075 0,0 6.2925,10.0312 12.0937,-3.3325 0,0 3.7675,9.4237 9.79129,1.4575 0,0 1.5375,4.0462 8.23,-0.4163 0,0 2.365,9.1825 10.6187,7.0838 0,0 -0.445,5.7575 6.9175,3.75 0,0 1.34,7.04 6.9175,4.81 0,0 0.55,5.6937 8.3575,1.2312 0,0 4.0838,3.7975 5.2088,-2.7087 0,0 4.955,3.3762 5.625,-0.4163 0,0 4.4187,-1.0137 3.75,-4.5837 0,0 4.4212,1.09 2.8587,-1.5875 0,0 3.655,-3.5688 0.49,-6.6925 0,0 3.3025,-5.1313 -2.275,-6.4688 0,0 0.67,-9.5937 -8.4762,-8.0312 0,0 2.23,-5.8013 -4.4625,-7.3625 0,0 6.0237,-5.5775 -2.2313,-11.8238 0,0 4.0163,-7.1387 -1.3375,-8.9237 0,0 0.6688,-5.3525 -5.8012,-4.9075 0,0 3.7925,-6.47 -4.015,-7.8075 0,0 0.2237,-6.47 -8.9238,-4.0163 0,0 -1.3387,-8.0362 -10.7075,-4.2412 0,0 -1.3387,-2.485 -4.9087,-1.0175 0,0 1.3387,-5.895 -5.1313,-3.4413 0,0 -1.5612,-2.7575 -6.02249,-0.5975 0,0 -2.9,-9.665 -9.8162,-3.4187 0,0 -4.685,-4.685 -8.4775,0 0,0 -6.915,-5.3538 -10.2613,1.5625 0,0 -8.7012,-2.9063 -11.8237,6.9125 0,0 -5.5775,0.2262 -5.5775,5.3575 0,0 -7.8088,0.8912 -3.3463,8.7 0,0 -7.585,2.4537 -4.4625,9.37 0,0 -6.6925,-3.3463 -9.3687,3.3462 0,0 -8.0313,-3.57 -8.9238,6.6925 0,0 -6.6925,-0.2237 -4.2387,6.4688 0,0 -4.015,-0.2225 -6.0238,3.3462 -2.0075,3.57 0,8.9238 0,8.9238 0,0 -0.38,0.5387 2.7425,4.5537 3.1238,4.0163 7.0688,1.47 7.0688,1.47"
         style="fill:#42752d;fill-opacity:1;fill-rule:nonzero;stroke:none"
         id="path12041" />
      <g
         id="g9259">
        <path
           id="path12007"
           style="fill:#4e842f;fill-opacity:1;fill-rule:nonzero;stroke:none"
           d="m -527.60493,-221.47378 c 0,0 -3.3462,5.1313 -2.0087,7.8075 1.3387,2.6775 5.1312,2.6775 5.1312,2.6775 0,0 -3.3463,6.6925 2.6775,8.0313 0,0 2.2313,5.8 8.7,3.3462 0,0 3.57,9.9113 12.4938,0.605 0,0 7.3412,7.7038 13.3849,2.0725 0,0 4.2388,3.5688 7.8076,0.6688 0,0 8.4775,3.3462 10.9312,-3.7925 0,0 2.9,5.1312 9.1463,2.6775 0,0 4.88489,9.64 12.71619,3.885 0,0 3.5525,6.2037 9.5925,0 0,0 3.3475,7.1687 9.5937,2.7575 0,0 4.2388,4.6975 6.4688,-2.7575 0,0 6.6925,0.8 7.3625,-6.785 0.6687,-7.585 -9.37,-10.485 -12.0475,-9.37 0,0 -1.81,-7.105 -6.915,-6.0238 0,0 -10.2625,-5.3537 -15.8387,-1.115 0,0 -3.395,-8.085 -12.26999,-2.4537 0,0 -4.4626,-3.7925 -7.3626,0 0,0 -7.5512,-6.665 -11.8237,0 0,0 -6.7363,-7.0425 -13.8312,-2.9625 0,0 -4.9076,-5.515 -10.485,-0.1613 0,0 -8.3551,-5.51 -11.8238,3.1238 0,0 -5.3538,-9.5938 -11.6,-2.2313"
           inkscape:connector-curvature="0" />
        <path
           id="path12009"
           style="fill:#345623;fill-opacity:1;fill-rule:nonzero;stroke:none"
           d="m -527.60493,-221.47378 c 0,0 -3.3462,5.1313 -2.0087,7.8075 1.3387,2.6775 7.2837,1.8163 7.2837,1.8163 0,0 -3.5225,4.755 2.5,6.0937 0,0 1.1875,5.4225 7.6563,2.9688 0,0 2.89,9.9312 11.8125,0.625 0,0 6.9887,6.4312 13.0312,0.8 0,0 4.3425,7.9975 7.9113,5.0975 0,0 8.4775,3.3462 10.9312,-3.7925 0,0 2.9,5.1312 9.1463,2.6775 0,0 4.88489,9.64 12.71619,3.885 0,0 3.4112,3.3637 9.4512,-2.8388 0,0 3.6338,6.7963 9.8813,2.385 0,0 3.67,5.0688 5.9,-2.385 0,0 7.115,3.6388 7.785,-3.9462 0.6687,-7.585 -9.37,-10.485 -12.0475,-9.37 0,0 -1.81,-7.105 -6.915,-6.0238 0,0 -10.2625,-5.3537 -15.8387,-1.115 0,0 -3.395,-8.085 -12.26999,-2.4537 0,0 -4.4626,-3.7925 -7.3626,0 0,0 -7.5512,-6.665 -11.8237,0 0,0 -6.7363,-7.0425 -13.8312,-2.9625 0,0 -4.9076,-5.515 -10.485,-0.1613 0,0 -8.3551,-5.51 -11.8238,3.1238 0,0 -5.3538,-9.5938 -11.6,-2.2313"
           inkscape:connector-curvature="0" />
        <path
           id="path12011"
           style="fill:#80ce4e;fill-opacity:1;fill-rule:nonzero;stroke:none"
           d="m -497.92863,-219.24248 c 0,0 11.5999,15.8387 17.3999,17.1775 5.8,1.3387 9.1463,-4.9075 9.8163,-9.8163 0.6687,-4.9075 7.1387,-8.0312 8.0313,-4.685 0.8924,3.3463 -1.7851,15.315 4.2387,14.685 6.02249,-0.63 12.71619,-12.6762 13.16119,-13.7925 0.4463,-1.115 14.055,2.2163 11.3775,5.1238 -2.6762,2.9075 -7.3612,6.4775 -6.6924,9.8237 0.6699,3.3463 9.1475,3.1225 17.4012,-4.2387 8.2537,-7.3625 1.9687,5.7037 0,6.3137 -1.9688,0.6088 -17.4012,7.2938 -19.185,13.5413 -1.785,6.2462 6.915,20.0775 6.0225,22.085 -0.8925,2.0075 -11.8237,9.1462 -24.09369,9.5925 -12.2688,0.4462 -24.0925,-4.2388 -24.7626,-8.0313 -0.6687,-3.7925 5.5776,-18.7087 2.4538,-24.8587 -3.1225,-6.15 -17.4,-21.9888 -24.3162,-24.22 -6.915,-2.2313 5.7999,-8.2538 9.1475,-8.7"
           inkscape:connector-curvature="0" />
        <g
           id="g12013"
           transform="matrix(0.125,0,0,-0.125,-1332.6949,177.36876)">
          <g
             clip-path="url(#clipPath12017)"
             id="g12015">
            <path
               id="path12021"
               style="fill:#72b740;fill-opacity:1;fill-rule:nonzero;stroke:none"
               d="m 6728.74,3002.03 c 0,0 98.52,-103.32 99.89,-161.01 1.38,-57.69 -14.97,-121.02 39.71,-146.02 54.67,-25 216.53,-13.33 243.26,28.33 26.74,41.67 -28.24,167.96 17.58,208.15 45.83,40.19 146.82,76.68 146.82,76.68 0,0 -2.66,-16.05 -69.33,-67.94 -66.66,-51.89 -46.66,-143.07 -23.33,-178.31 23.33,-35.24 2.51,-60.24 -42.91,-91.91 -45.42,-31.67 -158.11,-88.33 -263.43,-55 -105.33,33.33 -143.66,36.67 -125.33,118.33 18.34,81.67 45,142.4 21.67,176.2 -23.33,33.8 -44.6,92.5 -44.6,92.5"
               inkscape:connector-curvature="0" />
          </g>
        </g>
        <path
           id="path12023"
           style="fill:#cbe87c;fill-opacity:1;fill-rule:nonzero;stroke:none"
           d="m -479.11613,-191.13378 c 0,0 -2.6763,-0.595 -4.4613,0.8925 -1.785,1.4875 2.8262,1.9338 4.4613,-0.8925"
           inkscape:connector-curvature="0" />
        <path
           id="path12025"
           style="fill:#cbe87c;fill-opacity:1;fill-rule:nonzero;stroke:none"
           d="m -473.01743,-201.09878 c 0,0 5.8,-0.595 7.8825,0 2.0813,0.595 -2.2937,4.62 -4.76,4.76 -2.465,0.1388 -3.42,-2.6775 -3.1225,-4.76"
           inkscape:connector-curvature="0" />
        <path
           id="path12027"
           style="fill:#cbe87c;fill-opacity:1;fill-rule:nonzero;stroke:none"
           d="m -451.89874,-193.49498 c 0,0 6.8413,-1.0225 7.8825,0 1.0413,1.0225 -1.0412,4.4387 -3.9412,4.2175 -2.9,-0.22 -3.9412,-4.2175 -3.9412,-4.2175"
           inkscape:connector-curvature="0" />
        <path
           id="path12029"
           style="fill:#cbe87c;fill-opacity:1;fill-rule:nonzero;stroke:none"
           d="m -445.20624,-175.96378 c 0,0 6.99,-2.0825 7.2875,-0.595 0.2975,1.4875 -1.6362,4.4613 -3.6437,4.4613 -2.0075,0 -3.6438,-3.8663 -3.6438,-3.8663"
           inkscape:connector-curvature="0" />
        <path
           id="path12031"
           style="fill:#cbe87c;fill-opacity:1;fill-rule:nonzero;stroke:none"
           d="m -483.98123,-169.71748 c 0,0 6.65,0.595 6.3525,2.38 -0.2975,1.7837 -7.5775,2.3937 -6.3525,-2.38"
           inkscape:connector-curvature="0" />
        <path
           id="path12033"
           style="fill:#040606;fill-opacity:1;fill-rule:nonzero;stroke:none"
           d="m -454.13614,-177.75878 c 0,1.1875 -0.70379,2.1513 -1.57129,2.1513 -0.8687,0 -1.5725,-0.9638 -1.5725,-2.1513 0,-1.1875 0.7038,-2.1512 1.5725,-2.1512 0.8675,0 1.57129,0.9637 1.57129,2.1512"
           inkscape:connector-curvature="0" />
        <path
           id="path12035"
           style="fill:#040606;fill-opacity:1;fill-rule:nonzero;stroke:none"
           d="m -465.80363,-177.75878 c 0,1.1875 -0.7038,2.1513 -1.5713,2.1513 -0.8687,0 -1.5725,-0.9638 -1.5725,-2.1513 0,-1.1875 0.7038,-2.1512 1.5725,-2.1512 0.8675,0 1.5713,0.9637 1.5713,2.1512"
           inkscape:connector-curvature="0" />
        <path
           id="path12037"
           style="fill:#040606;fill-opacity:1;fill-rule:nonzero;stroke:none"
           d="m -461.84873,-169.38998 c -3.0762,0 -3.9162,-1.9613 -3.9524,-2.0438 -0.13,-0.32 0.022,-0.685 0.3412,-0.8162 0.3175,-0.1288 0.6788,0.019 0.8125,0.3325 0.033,0.069 0.615,1.2775 2.7987,1.2775 2.5313,0 2.8475,-1.1313 2.85,-1.1413 0.06,-0.3412 0.39,-0.5625 0.7251,-0.5062 0.3399,0.061 0.5662,0.3862 0.5049,0.725 -0.016,0.09 -0.4312,2.1725 -4.08,2.1725"
           inkscape:connector-curvature="0" />
        <path
           id="path12043"
           style="fill:none;stroke:#263919;stroke-width:1.25;stroke-linecap:round;stroke-linejoin:miter;stroke-miterlimit:10;stroke-opacity:1;stroke-dasharray:none"
           d="m -490.12123,-229.95128 c 0,0 0.8925,-2.975 3.2725,-3.5687 0,0 -2.2312,-2.975 1.04,-5.6525 0,0 -1.17,-7.4363 8.1901,-6.8413 0,0 5.7925,-7.5037 11.815,-0.034 0,0 6.1712,-1.6025 5.7249,3.3062 0,0 6.84129,1.0413 6.69259,4.3125"
           inkscape:connector-curvature="0" />
        <path
           id="path12045"
           style="fill:none;stroke:#263919;stroke-width:1.25;stroke-linecap:round;stroke-linejoin:miter;stroke-miterlimit:10;stroke-opacity:1;stroke-dasharray:none"
           d="m -463.91123,-254.19378 c 0,0 -2.5625,-5.6512 4.4275,-7.2875 0,0 -0.6074,-5.0562 5.34759,-4.7587 0,0 3.9962,-5.9488 6.315,-0.7438 0,0 7.9687,-1.785 7.6712,3.1238"
           inkscape:connector-curvature="0" />
        <path
           id="path12047"
           style="fill:none;stroke:#263919;stroke-width:1.25;stroke-linecap:round;stroke-linejoin:miter;stroke-miterlimit:10;stroke-opacity:1;stroke-dasharray:none"
           d="m -506.62993,-254.78878 c 0,0 6.395,-2.9737 7.585,1.6363 0,0 5.5025,-1.1875 4.9075,3.7937"
           inkscape:connector-curvature="0" />
        <path
           id="path12049"
           style="fill:none;stroke:#263919;stroke-width:1.25;stroke-linecap:round;stroke-linejoin:miter;stroke-miterlimit:10;stroke-opacity:1;stroke-dasharray:none"
           d="m -447.82124,-234.26378 c 0,0 1.0776,-2.975 4.0763,-3.57 3,-0.595 5.8563,3.57 5.8563,3.57 0,0 2.7962,-3.7187 7.7037,0"
           inkscape:connector-curvature="0" />
        <path
           id="path12051"
           style="fill:none;stroke:#263919;stroke-width:1.25;stroke-linecap:round;stroke-linejoin:miter;stroke-miterlimit:10;stroke-opacity:1;stroke-dasharray:none"
           d="m -430.92864,-261.65628 c 0,0 5.7999,-5.0825 8.6262,0 0,0 5.3538,-2.2037 5.205,2.555"
           inkscape:connector-curvature="0" />
        <path
           id="path12053"
           style="fill:none;stroke:#263919;stroke-width:1.25;stroke-linecap:round;stroke-linejoin:miter;stroke-miterlimit:10;stroke-opacity:1;stroke-dasharray:none"
           d="m -416.35374,-232.62878 c 0,0 5.9488,-0.1487 5.8,4.4625 0,0 8.0313,-1.19 5.355,6.395"
           inkscape:connector-curvature="0" />
      </g>
    </g>
  </g>
</svg>
