<?xml version="1.0" encoding="UTF-8" standalone="no"?>
<!-- Created with Inkscape (http://www.inkscape.org/) -->

<svg
   xmlns:dc="http://purl.org/dc/elements/1.1/"
   xmlns:cc="http://creativecommons.org/ns#"
   xmlns:rdf="http://www.w3.org/1999/02/22-rdf-syntax-ns#"
   xmlns:svg="http://www.w3.org/2000/svg"
   xmlns="http://www.w3.org/2000/svg"
   xmlns:sodipodi="http://sodipodi.sourceforge.net/DTD/sodipodi-0.dtd"
   xmlns:inkscape="http://www.inkscape.org/namespaces/inkscape"
   width="150"
   height="150"
   id="svg7496"
   version="1.1"
   inkscape:version="0.48.4 r9939"
   sodipodi:docname="aurbergine.svg">
  <defs
     id="defs7498">
    <clipPath
       id="clipPath11459"
       clipPathUnits="userSpaceOnUse">
      <path
         id="path11461"
         d="m 850.859,6831.69 c 0,0 -187.066,-1.97 -265.832,-137.84 -78.761,-135.87 -106.332,-393.82 92.551,-484.4 198.883,-90.58 226.449,-66.96 226.449,-66.96 0,0 -21.66,-49.22 0,-86.64 21.661,-37.41 47.258,-179.19 112.243,-200.85 64.98,-21.66 82.7,19.69 84.67,31.51 1.97,11.81 -33.47,-5.91 -49.23,-1.97 -15.75,3.94 -25.6,43.32 -37.41,68.92 -11.82,25.6 -21.663,47.26 -13.79,70.89 7.88,23.63 49.23,84.67 45.29,102.39 0,0 269.78,66.95 326.88,194.95 57.1,127.99 66.95,295.36 -27.57,391.85 -94.52,96.49 -218.57,137.84 -277.64,135.87 0,0 15.75,39.38 27.56,53.17 0,0 -76.79,-23.63 -102.393,-49.23 0,0 -5.907,39.38 -1.969,61.04 0,0 -68.918,-39.38 -68.918,-74.82 0,0 -63.012,78.76 -131.934,53.16 0,0 51.2,-33.47 61.043,-61.04 z"
         inkscape:connector-curvature="0" />
    </clipPath>
    <clipPath
       id="clipPath11797"
       clipPathUnits="userSpaceOnUse">
      <path
         id="path11799"
         d="m 2281.39,7271.13 c 0,0 29.48,32.66 57.68,43.52 28.2,10.87 17.33,55.36 97.76,52.68 80.42,-2.69 48.04,-78.76 48.04,-78.76 0,0 44.96,18.84 99.53,5.07 54.57,-13.76 65.44,-64.46 43.7,-116.27 -21.74,-51.82 -71.21,-140.02 -160.59,-127.44 -89.37,12.59 -206.79,158.11 -186.12,221.2 z"
         inkscape:connector-curvature="0" />
    </clipPath>
    <clipPath
       id="clipPath11811"
       clipPathUnits="userSpaceOnUse">
      <path
         id="path11813"
         d="m 2467.51,7049.93 c 0,0 19.31,95.19 73.65,101.71 54.34,6.52 89.11,32.6 86.94,69.55 -2.17,36.95 2.46,67.38 -53.11,73.9 0,0 -9.92,8.7 20.51,21.74 30.43,13.04 71.38,22 94.34,-3.41 22.95,-25.41 62.15,-67.81 49.11,-114.8 -13.04,-46.98 -119.33,-119.69 -163.96,-148.69 -44.63,-28.99 -78.75,-99.24 -107.48,0 z"
         inkscape:connector-curvature="0" />
    </clipPath>
    <clipPath
       id="clipPath11825"
       clipPathUnits="userSpaceOnUse">
      <path
         id="path11827"
         d="m 2467.51,6783.07 c 0,0 67.13,155.56 45.39,246.85 -21.73,91.29 -65.21,119.54 -158.67,171.71 -93.46,52.16 -150.46,126.07 -257.81,0 -107.35,-126.07 -20.41,-219.53 38.28,-278.22 58.69,-58.69 220.05,-152.45 332.81,-140.34 z"
         inkscape:connector-curvature="0" />
    </clipPath>
    <clipPath
       id="clipPath11843"
       clipPathUnits="userSpaceOnUse">
      <path
         id="path11845"
         d="m 2793.29,7198.62 c 0,0 23.91,-131.75 63.04,-188.26 39.12,-56.52 139.1,-343.43 0,-462.98 -139.11,-119.54 -354.74,-160.75 -433.19,-143.45 -78.45,17.3 -26.52,365.23 13.15,473.87 39.66,108.64 217.89,296.08 357,320.82 z"
         inkscape:connector-curvature="0" />
    </clipPath>
    <clipPath
       id="clipPath11859"
       clipPathUnits="userSpaceOnUse">
      <path
         id="path11861"
         d="m 2384.66,6393.06 c 0,0 65.21,-21.74 128.24,32.6 63.03,54.34 93.46,123.9 93.46,178.24 0,54.34 -32.6,215.18 -110.85,267.35 -78.25,52.16 -443.41,239.09 -473.84,289.08 -30.43,49.99 -45.64,-21.74 -56.51,-65.2 -10.87,-43.48 -37.59,-164.69 -67.7,-218.2 -30.11,-53.5 -85.09,-129.58 0,-251.3 85.09,-121.72 263.32,-234.74 487.2,-232.57 z"
         inkscape:connector-curvature="0" />
    </clipPath>
    <clipPath
       id="clipPath11493"
       clipPathUnits="userSpaceOnUse">
      <path
         id="path11495"
         d="m 4003.03,7499.29 c -169.8,4.36 -332.79,-105.57 -362.63,-190.49 -29.84,-84.92 -94.1,-330.5 -117.05,-381 -22.95,-50.49 -169.84,-234.1 -183.61,-348.86 -13.77,-114.75 34.42,-410.82 403.94,-456.73 369.52,-45.9 599.03,71.15 647.23,289.19 48.2,218.04 -89.51,507.22 -100.99,562.31 -11.47,55.08 71.15,516.4 -286.89,525.58 z"
         inkscape:connector-curvature="0" />
    </clipPath>
    <clipPath
       id="clipPath11565"
       clipPathUnits="userSpaceOnUse">
      <path
         id="path11567"
         d="m 5470.49,6976.77 c -107.65,26.44 -398.48,47.21 -500.46,-234.18 -101.98,-281.39 136.59,-508.95 258.73,-559.01 153.6,-62.95 394.7,-98.2 638.32,37.77 243.62,135.98 288.95,460.81 166.19,602.45 -122.75,141.64 -251.17,228.51 -562.78,152.97 z"
         inkscape:connector-curvature="0" />
    </clipPath>
    <clipPath
       id="clipPath11889"
       clipPathUnits="userSpaceOnUse">
      <path
         id="path11891"
         d="m 7358.51,6565.15 c -1.91,-11.65 -4.42,-23.57 -7.91,-35.55 -22.63,-77.81 -64.54,-5.94 -109.7,-23.7 -45.16,-17.76 -18.64,-74.88 -95.02,-100.19 -76.37,-25.32 -106.85,88.06 -189.34,55.24 -73.74,-29.34 -74.39,34.08 -120.61,32.38 -46.21,-1.69 -56.22,-28.94 -84.26,-61.72 -28.04,-32.78 -92.32,5.1 -134.92,38.19 -27.53,21.38 -32.3,63.5 -32.25,90.71 -15.21,-99.32 25.77,-275.33 160.49,-347.35 153.45,-82.04 190.11,-73.56 190.11,-73.56 0,0 57.04,-88.35 43.61,-118.08 -13.44,-29.74 -65.56,-138.33 -13.81,-192.28 51.75,-53.95 96.66,-14.93 96.66,-14.93 0,0 -69.06,-12.31 -74.86,41.61 -5.81,53.92 14.24,57.89 14.24,57.89 0,0 53.5,-31.24 73.96,-13.2 0,0 -48.46,18.09 -53.35,43.59 -4.9,25.5 -0.1,56.57 6.68,66.13 6.78,9.56 62.05,46.97 41.39,142.06 0,0 176.48,39.37 250.01,131.03 55.11,68.71 62.13,190.21 38.88,281.73 z"
         inkscape:connector-curvature="0" />
    </clipPath>
    <clipPath
       id="clipPath11763"
       clipPathUnits="userSpaceOnUse">
      <path
         id="path11765"
         d="m 925.598,5230.68 c -82.36,-2.22 -420.496,-128.97 -420.684,-442.94 -0.168,-281.56 200.324,-469.65 471.875,-489.68 271.551,-20.03 581.621,194.31 583.171,505.26 1.69,340.56 -378.39,420.69 -438.49,427.36 0,0 28.93,75.68 82.35,117.97 0,0 -55.64,6.68 -93.48,-11.13 0,0 -2.23,55.65 -24.48,120.2 0,0 -91.262,-62.33 -106.844,-84.58 0,0 -51.196,35.61 -84.582,51.19 0,0 42.293,-155.81 31.164,-193.65 z"
         inkscape:connector-curvature="0" />
    </clipPath>
    <clipPath
       id="clipPath11597"
       clipPathUnits="userSpaceOnUse">
      <path
         id="path11599"
         d="m 4172.82,5122.8 c -27.71,-1.85 -61.7,30.85 -64.07,47.46 -2.37,16.61 21.36,80.68 47.46,111.53 26.1,30.85 116.28,90.18 116.28,102.04 0,11.87 -40.34,42.71 -59.33,36.78 -18.98,-5.93 -54.58,-36.78 -54.58,-36.78 0,0 35.6,66.44 47.46,78.31 11.87,11.86 -64.4,49.83 -97.45,47.46 0,0 -113.74,-106.79 -137.47,-168.48 -23.73,-61.7 -23.73,-144.16 -40.35,-156.33 -16.61,-12.16 -73.56,-50.13 -116.27,-61.99 -42.72,-11.87 -154.25,-27.29 -237.3,-77.72 -83.06,-50.42 -161.37,-131.52 -170.86,-200.13 -9.49,-68.61 23.73,-213.36 121.02,-296.42 97.3,-83.06 277.64,-147.13 353.58,-144.75 75.94,2.37 123.4,37.96 123.4,37.96 0,0 80.68,-35.59 144.75,-4.74 0,0 59.33,-23.73 140.01,14.24 80.68,37.96 287.13,189.84 246.79,439 -40.34,249.17 -161.36,261.41 -187.47,263.6 -26.1,2.18 -140,-28.67 -175.6,-31.04 z"
         inkscape:connector-curvature="0" />
    </clipPath>
    <clipPath
       id="clipPath12061"
       clipPathUnits="userSpaceOnUse">
      <path
         id="path12063"
         d="m 5357,5573.74 c 0,0 -47.6,9.52 -55.21,-28.55 0,0 -38.08,-7.62 -30.46,-55.21 0,0 -11.54,-95.19 -1.01,-159.92 10.53,-64.73 52.41,-220.83 54.31,-258.91 0,0 -9.52,-34.27 1.91,-45.69 0,0 7.61,-108.52 -1.91,-190.38 -9.52,-81.86 -1.9,-197.99 5.71,-218.93 0,0 3.81,-43.79 26.66,-53.31 0,0 -26.66,-51.4 19.03,-60.92 0,0 38.08,-47.59 60.92,-53.3 22.85,-5.71 53.31,-36.17 66.64,-34.27 13.32,1.9 89.47,-11.42 127.55,36.17 38.07,47.6 62.82,62.83 60.92,83.77 -1.9,20.94 0,36.17 9.52,45.69 9.52,9.52 13.32,39.98 0,62.82 0,0 26.65,9.52 26.65,60.92 0,51.4 22.93,98.71 23.52,156.11 0.74,72.34 -16.39,138.37 -25.42,197.99 -13,85.72 -116.13,352.2 -194.19,441.68 -78.05,89.47 -114.22,62.82 -114.22,62.82 0,0 -32.37,36.17 -60.92,11.42 z"
         inkscape:connector-curvature="0" />
    </clipPath>
    <clipPath
       id="clipPath11933"
       clipPathUnits="userSpaceOnUse">
      <path
         id="path11935"
         d="m 6632.27,4588.65 c 0,0 -25.37,72.71 20.29,93 0,0 -20.29,43.97 16.91,67.64 0,0 -16.91,50.73 13.53,59.19 0,0 -23.68,32.13 8.45,52.42 0,0 -15.22,45.66 18.6,64.26 0,0 -18.6,52.42 18.6,64.26 0,0 -20.29,39.94 13.53,57.17 0,0 -16.91,42.6 15.22,57.81 0,0 -21.98,37.21 25.37,59.19 0,0 -11.84,33.82 21.98,50.73 0,0 -11.84,42.28 30.44,55.8 0,0 1.69,30.44 28.74,35.52 0,0 -10.14,55.8 45.66,69.33 0,0 -13.53,28.74 49.04,42.27 0,0 -27.05,32.13 -27.05,57.5 l 52.42,-43.97 c 0,0 6.76,23.67 13.53,43.97 0,0 13.52,-45.66 18.6,-49.04 5.07,-3.38 18.6,16.91 32.13,-1.69 0,0 32.12,40.58 42.27,50.73 0,0 -1.69,-45.66 -20.29,-62.57 0,0 38.89,-3.38 50.73,1.69 0,0 -21.98,-20.29 -32.13,-25.36 0,0 33.82,-8.46 11.84,-38.9 0,0 40.58,-25.36 11.83,-59.18 0,0 47.65,-38.9 10.3,-67.64 0,0 21.83,-38.9 -8.61,-64.26 0,0 28.75,-35.51 -1.69,-69.33 0,0 33.82,-30.44 0,-57.5 0,0 35.51,-45.66 -13.52,-84.55 0,0 27.05,-42.27 -13.53,-71.02 0,0 33.82,-32.13 -6.77,-60.88 0,0 23.68,-42.27 -15.22,-65.95 0,0 27.06,-50.73 -28.74,-67.64 0,0 49.04,-81.17 -13.53,-93 0,0 -20.29,-74.41 -79.48,-65.95 0,0 -19.64,-71.03 -60.55,-54.12 0,0 -56.13,-65.95 -95.02,-18.6 0,0 -86.24,-18.6 -101.46,50.73 0,0 -84.55,27.06 -52.42,87.94 z"
         inkscape:connector-curvature="0" />
    </clipPath>
    <clipPath
       id="clipPath11627"
       clipPathUnits="userSpaceOnUse">
      <path
         id="path11629"
         d="m 2223.84,3484.33 c 0,0 246.71,55.6 288.41,90.35 42.03,35.02 121.28,171.52 93.81,274.5 0,0 180.69,34.75 205.01,0 0,0 -79.92,-170.26 -132.04,-218.91 -52.12,-48.64 0,-90.74 48.65,-95.75 48.65,-5.01 114.67,-50.19 114.67,-50.19 0,0 -441.29,-215.43 -618.51,0 z"
         inkscape:connector-curvature="0" />
    </clipPath>
    <clipPath
       id="clipPath11639"
       clipPathUnits="userSpaceOnUse">
      <path
         id="path11641"
         d="m 2314.19,3484.33 c 0,0 -166.79,145.94 -406.55,-86.86 -239.75,-232.81 -236.28,-451.72 -208.48,-521.21 27.8,-69.5 180.69,-271.03 271.03,-208.49 0,0 277.98,-211.95 531.63,0 0,0 135.52,-113.5 333.58,37.07 0,0 170.26,-44.02 298.82,199.22 128.57,243.23 -52.12,531.63 -128.56,590.7 -76.45,59.07 -191.11,0 -205.01,-31.27 0,0 -104.24,138.98 -211.96,-17.38 0,0 -79.92,170.26 -274.5,38.22 z"
         inkscape:connector-curvature="0" />
    </clipPath>
    <clipPath
       id="clipPath11991"
       clipPathUnits="userSpaceOnUse">
      <path
         id="path11993"
         d="m 5662.36,3891.14 c -86.84,-12.36 -238.23,-43.25 -346.36,-247.17 -108.14,-203.91 -228.64,-308.96 -253.35,-528.32 -24.72,-219.37 -6.18,-559.23 274.97,-549.96 281.16,9.27 343.6,169.93 324.74,336.77 -18.86,166.84 -201.15,342.95 -219.69,407.83 -18.54,64.88 -24.72,135.95 -12.36,163.75 12.36,27.81 299.7,166.84 293.52,302.79 -6.18,135.94 -61.47,114.31 -61.47,114.31 z"
         inkscape:connector-curvature="0" />
    </clipPath>
    <clipPath
       id="clipPath12017"
       clipPathUnits="userSpaceOnUse">
      <path
         id="path12019"
         d="m 6678.13,3172.89 c 0,0 92.8,-126.71 139.2,-137.42 46.4,-10.71 73.17,39.26 78.53,78.53 5.35,39.26 57.11,64.25 64.25,37.48 7.14,-26.77 -14.28,-122.52 33.91,-117.48 48.18,5.04 101.73,101.41 105.29,110.34 3.57,8.92 112.44,-17.73 91.02,-40.99 -21.41,-23.26 -58.89,-51.82 -53.54,-78.59 5.36,-26.77 73.18,-24.98 139.21,33.91 66.03,58.9 15.75,-45.63 0,-50.51 -15.75,-4.87 -139.21,-58.35 -153.48,-108.33 -14.28,-49.97 55.32,-160.62 48.18,-176.68 -7.14,-16.06 -94.59,-73.17 -192.75,-76.74 -98.15,-3.57 -192.74,33.91 -198.1,64.25 -5.35,30.34 44.62,149.67 19.63,198.87 -24.98,49.2 -139.2,175.91 -194.53,193.76 -55.32,17.85 46.4,66.03 73.18,69.6 z"
         inkscape:connector-curvature="0" />
    </clipPath>
    <clipPath
       id="clipPath12219"
       clipPathUnits="userSpaceOnUse">
      <path
         id="path12221"
         d="m 2198.71,1333.97 c 0,0 41.77,-105.05 0,-151.39 -41.77,-46.34 -196.25,-308.959 222.67,-308.959 352.34,0 228.12,256.439 182.67,302.779 -45.46,46.35 -10.16,145.21 0,176.11 10.15,30.9 -406.82,216.27 -405.34,-18.54 z"
         inkscape:connector-curvature="0" />
    </clipPath>
    <clipPath
       id="clipPath12231"
       clipPathUnits="userSpaceOnUse">
      <path
         id="path12233"
         d="m 2424.19,1921 c -310.65,-8.05 -557.68,-239.11 -548.41,-394.53 9.27,-155.42 92.81,-260.47 322.93,-238.84 230.12,21.63 591.6,-58.16 705.92,-2.82 114.31,55.34 234.81,654.73 -480.44,636.19 z"
         inkscape:connector-curvature="0" />
    </clipPath>
    <clipPath
       id="clipPath12191"
       clipPathUnits="userSpaceOnUse">
      <path
         id="path12193"
         d="m 5673.69,2058.33 c -139.36,85.04 -272.8,14.07 -384.55,-88.72 -111.75,-102.8 -374.7,-516.94 -276.09,-756.87 98.6,-239.939 266.23,-302.388 285.95,-308.959 19.72,-6.582 78.88,-65.742 128.18,-55.883 49.31,9.864 95.32,65.743 95.32,65.743 0,0 207.07,115.039 213.64,256.369 6.58,141.33 -72.31,395.47 -52.59,472.18 19.73,76.71 162.15,311.19 -9.86,416.14 z"
         inkscape:connector-curvature="0" />
    </clipPath>
    <clipPath
       id="clipPath11667"
       clipPathUnits="userSpaceOnUse">
      <path
         id="path11669"
         d="m 6976.1,1570.56 c -99.83,-11.09 -161.95,-119.8 -175.26,-170.82 -13.31,-51.03 -8.87,-228.5 87.63,-334.99 0,0 -9.98,-130.891 29.95,-177.48 0,0 -8.87,-84.301 28.84,-139.758 0,0 -6.66,-108.711 37.71,-119.801 44.37,-11.09 62.12,31.059 68.78,110.93 0,0 42.15,39.929 24.4,126.449 0,0 62.12,109.172 46.59,233.17 0,0 88.35,137.27 63.95,316.97 -24.4,179.69 -212.59,155.33 -212.59,155.33 z"
         inkscape:connector-curvature="0" />
    </clipPath>
  </defs>
  <sodipodi:namedview
     id="base"
     pagecolor="#ffffff"
     bordercolor="#666666"
     borderopacity="1.0"
     inkscape:pageopacity="0.0"
     inkscape:pageshadow="2"
     inkscape:zoom="1.9445436"
     inkscape:cx="27.293245"
     inkscape:cy="79.335803"
     inkscape:current-layer="layer1"
     showgrid="true"
     inkscape:document-units="px"
     inkscape:grid-bbox="true"
     inkscape:window-width="1280"
     inkscape:window-height="748"
     inkscape:window-x="0"
     inkscape:window-y="0"
     inkscape:window-maximized="1" />
  <metadata
     id="metadata7501">
    <rdf:RDF>
      <cc:Work
         rdf:about="">
        <dc:format>image/svg+xml</dc:format>
        <dc:type
           rdf:resource="http://purl.org/dc/dcmitype/StillImage" />
        <dc:title></dc:title>
      </cc:Work>
    </rdf:RDF>
  </metadata>
  <g
     id="layer1"
     inkscape:label="Layer 1"
     inkscape:groupmode="layer"
     transform="translate(0,86)">
    <g
       transform="matrix(0.59303282,0.62593717,-0.62593717,0.59303282,346.88547,282.13895)"
       id="g9820">
      <path
         inkscape:connector-curvature="0"
         d="m -460.68243,-18.951236 c -12.4788,1.38625 -20.2437,14.9749999 -21.9075,21.3524999 -1.6638,6.37875 -1.1087,28.5625001 10.9538,41.8737501 0,0 -1.2475,16.36137 3.7437,22.185 0,0 -1.1088,10.53763 3.605,17.46975 0,0 -0.8325,13.58888 4.7138,14.97512 5.54619,1.386256 7.76489,-3.88237 8.59739,-13.86624 0,0 5.2688,-4.99113 3.05,-15.80613 0,0 7.765,-13.6465 5.8238,-29.14625 0,0 11.0437,-17.15875 7.9937,-39.6212501 -3.0499,-22.4612499 -26.57369,-19.4162499 -26.57369,-19.4162499"
         style="fill:#f7951b;fill-opacity:1;fill-rule:nonzero;stroke:none"
         id="path11661" />
      <g
         transform="matrix(0.125,0,0,-0.125,-1332.6949,177.36876)"
         id="g11663">
        <g
           id="g11665"
           clip-path="url(#clipPath11667)">
          <path
             inkscape:connector-curvature="0"
             d="m 7183.02,1443.77 c 0,0 4.3,-263.24 -94.89,-316.74 -99.18,-53.5 -188.4,-55.32 -154.8,-64.06 33.6,-8.74 145.33,39.79 154.8,-21.81 9.47,-61.601 22.65,-191.539 -119.28,-159.238 0,0 -38.52,10.539 -0.62,-13.113 37.9,-23.649 86.32,-14.321 80.78,-59.118 -5.54,-44.8 -32.81,-79.453 -80.78,-67.73 -47.97,11.73 -38.13,13.59 -42.11,17.328 -3.99,3.731 -22.07,-14.648 -3.69,-87.59 18.37,-72.949 156.51,-115.597 177.04,-45.738 20.53,69.859 163.36,675.329 83.55,817.809"
             style="fill:#c7771a;fill-opacity:1;fill-rule:nonzero;stroke:none"
             id="path11671" />
        </g>
      </g>
      <path
         inkscape:connector-curvature="0"
         d="m -467.39243,44.067514 c 0,0 11.1475,-0.405 20.71379,-4.05 0,0 -10.22879,6.12875 -20.71379,4.05"
         style="fill:#874a19;fill-opacity:1;fill-rule:nonzero;stroke:none"
         id="path11673" />
      <path
         inkscape:connector-curvature="0"
         d="m -464.14873,65.488894 c 0,0 5.1938,3.53612 12.57999,2.49612 0,0 -9.66869,2.91113 -12.57999,-2.49612"
         style="fill:#874a19;fill-opacity:1;fill-rule:nonzero;stroke:none"
         id="path11675" />
      <path
         inkscape:connector-curvature="0"
         d="m -461.66623,84.623634 c 0,0 1.4688,3.11863 8.33249,0 0,0 -3.76999,1.24763 -8.33249,0"
         style="fill:#874a19;fill-opacity:1;fill-rule:nonzero;stroke:none"
         id="path11677" />
      <path
         inkscape:connector-curvature="0"
         d="m -450.70994,7.6700139 c 0,1.1075 -0.6562,2.00625 -1.4662,2.00625 -0.8088,0 -1.4651,-0.89875 -1.4651,-2.00625 0,-1.1075 0.6563,-2.005 1.4651,-2.005 0.81,0 1.4662,0.8975 1.4662,2.005"
         style="fill:#040606;fill-opacity:1;fill-rule:nonzero;stroke:none"
         id="path11679" />
      <path
         inkscape:connector-curvature="0"
         d="m -461.58873,7.6700139 c 0,1.1075 -0.6549,2.00625 -1.4649,2.00625 -0.8088,0 -1.4651,-0.89875 -1.4651,-2.00625 0,-1.1075 0.6563,-2.005 1.4651,-2.005 0.81,0 1.4649,0.8975 1.4649,2.005"
         style="fill:#040606;fill-opacity:1;fill-rule:nonzero;stroke:none"
         id="path11681" />
      <path
         inkscape:connector-curvature="0"
         d="m -457.89993,16.197514 c -2.385,0 -3.5,-2.22625 -3.7563,-3.4025 -0.074,-0.3375 0.1388,-0.6675 0.4763,-0.7425 0.3412,-0.0725 0.6688,0.13875 0.7437,0.47375 0.023,0.0987 0.5663,2.42125 2.5363,2.42125 2.3562,0 2.5975,-2.24875 2.6062,-2.345 0.033,-0.34375 0.3663,-0.58125 0.68,-0.56375 0.34499,0.0338 0.59629,0.33875 0.56499,0.68125 -0.115,1.20375 -1.06619,3.4775 -3.85119,3.4775"
         style="fill:#040606;fill-opacity:1;fill-rule:nonzero;stroke:none"
         id="path11683" />
      <path
         inkscape:connector-curvature="0"
         d="m -460.12743,-13.404986 c -6.295,1.06875 -11.6475,-4.99125 -1.9413,-7.21 9.70509,-2.21875 16.84759,4.67875 1.9413,7.21"
         style="fill:#39ab3e;fill-opacity:1;fill-rule:nonzero;stroke:none"
         id="path11685" />
      <path
         inkscape:connector-curvature="0"
         d="m -463.52493,-16.783736 c -1.0163,-0.13375 -1.6638,-9.03125 -9.1513,-12.56625 -7.4875,-3.53625 -5.1125,-11.25 4.5763,-9.15125 9.6887,2.09875 9.9825,22.42875 4.575,21.7175"
         style="fill:#38973b;fill-opacity:1;fill-rule:nonzero;stroke:none"
         id="path11687" />
      <path
         inkscape:connector-curvature="0"
         d="m -461.65243,-17.163736 c 0,0 -0.2337,-12.6025 -7.8125,-22.17 -7.5788,-9.56625 -29.8325,-29.5325 -25.0487,-38.8925 4.7837,-9.35875 18.5099,7.90375 18.5099,7.90375 0,0 -13.5187,-32.861254 2.9113,-39.723754 16.4312,-6.86374 11.44,33.483754 11.44,33.483754 0,0 7.27869,-11.85375 16.63749,-9.35875 9.36,2.49625 -10.21249,19.96625 -12.80119,42.63625 -2.5888,22.67 2.6112,28.11625 -3.8363,26.12125"
         style="fill:#3bab3d;fill-opacity:1;fill-rule:nonzero;stroke:none"
         id="path11689" />
      <path
         inkscape:connector-curvature="0"
         d="m -460.00243,-18.169986 c 0,0 -5.2088,-37.4625 -7.1337,-45.63875 -1.9263,-8.175 -7.1763,-31.625 -4.8138,-41.162504 0,0 0.8375,18.548754 4.5587,33.425004 3.72,14.8775 6.4738,40.07625 7.3888,53.37625"
         style="fill:#338b39;fill-opacity:1;fill-rule:nonzero;stroke:none"
         id="path11691" />
      <path
         inkscape:connector-curvature="0"
         d="m -485.33743,-69.212486 c 0,0 11.645,16.68125 22.6225,21.34875 l -0.8513,-3.1225 c 0,0 -8.2962,-3.9925 -21.7712,-18.22625"
         style="fill:#338b39;fill-opacity:1;fill-rule:nonzero;stroke:none"
         id="path11693" />
      <path
         inkscape:connector-curvature="0"
         d="m -459.36493,-17.163736 c 0,0 -0.4162,-8.235 -4.9913,-22.79375 -4.5762,-14.55875 -8.7362,-31.405 0,-34.94 8.735,-3.53625 10.81499,20.7975 9.5663,25.58125 0,0 4.99249,-17.67875 13.10369,-13.935 8.1113,3.74375 -14.55249,28.91 -15.07619,33.06875 0,0 9.04379,-5.615 9.45999,-1.2475 0.4163,4.3675 -9.56119,9.9825 -9.45999,15.1825 0,0 -1.5625,2.535 -2.6025,-0.91625"
         style="fill:#44ba3b;fill-opacity:1;fill-rule:nonzero;stroke:none"
         id="path11695" />
      <path
         inkscape:connector-curvature="0"
         d="m -457.85873,-17.163736 c 0,0 -1.3424,-16.5125 -4.29,-28.135 -2.8962,-11.41625 -0.9049,-23.91375 -0.9049,-23.91375 0,0 0.3799,14.73 2.3487,22.3425 1.9687,7.6125 3.2862,24.93625 2.8462,29.70625"
         style="fill:#3bab3d;fill-opacity:1;fill-rule:nonzero;stroke:none"
         id="path11697" />
      <path
         inkscape:connector-curvature="0"
         d="m -446.48624,-55.969986 c 0,0 -4.9112,10.61625 -12.34369,20.53375 l -0.65,-2.94625 c 0,0 6.95619,-4.9 12.99369,-17.5875"
         style="fill:#3bab3d;fill-opacity:1;fill-rule:nonzero;stroke:none"
         id="path11699" />
      <path
         inkscape:connector-curvature="0"
         d="m -458.34243,-25.246236 c 0,0 2.5325,-3.3 6.77369,-4.38625 0,0 -4.49119,2.41 -6.31619,5.85625 l -0.4575,-1.47"
         style="fill:#3bab3d;fill-opacity:1;fill-rule:nonzero;stroke:none"
         id="path11701" />
    </g>
  </g>
</svg>
