<?xml version="1.0" encoding="UTF-8" standalone="no"?>
<!-- Created with Inkscape (http://www.inkscape.org/) -->

<svg
   xmlns:dc="http://purl.org/dc/elements/1.1/"
   xmlns:cc="http://creativecommons.org/ns#"
   xmlns:rdf="http://www.w3.org/1999/02/22-rdf-syntax-ns#"
   xmlns:svg="http://www.w3.org/2000/svg"
   xmlns="http://www.w3.org/2000/svg"
   xmlns:sodipodi="http://sodipodi.sourceforge.net/DTD/sodipodi-0.dtd"
   xmlns:inkscape="http://www.inkscape.org/namespaces/inkscape"
   width="150"
   height="150"
   id="svg7496"
   version="1.1"
   inkscape:version="0.48.4 r9939"
   sodipodi:docname="poireau.svg">
  <defs
     id="defs7498">
    <clipPath
       id="clipPath11459"
       clipPathUnits="userSpaceOnUse">
      <path
         id="path11461"
         d="m 850.859,6831.69 c 0,0 -187.066,-1.97 -265.832,-137.84 -78.761,-135.87 -106.332,-393.82 92.551,-484.4 198.883,-90.58 226.449,-66.96 226.449,-66.96 0,0 -21.66,-49.22 0,-86.64 21.661,-37.41 47.258,-179.19 112.243,-200.85 64.98,-21.66 82.7,19.69 84.67,31.51 1.97,11.81 -33.47,-5.91 -49.23,-1.97 -15.75,3.94 -25.6,43.32 -37.41,68.92 -11.82,25.6 -21.663,47.26 -13.79,70.89 7.88,23.63 49.23,84.67 45.29,102.39 0,0 269.78,66.95 326.88,194.95 57.1,127.99 66.95,295.36 -27.57,391.85 -94.52,96.49 -218.57,137.84 -277.64,135.87 0,0 15.75,39.38 27.56,53.17 0,0 -76.79,-23.63 -102.393,-49.23 0,0 -5.907,39.38 -1.969,61.04 0,0 -68.918,-39.38 -68.918,-74.82 0,0 -63.012,78.76 -131.934,53.16 0,0 51.2,-33.47 61.043,-61.04 z"
         inkscape:connector-curvature="0" />
    </clipPath>
    <clipPath
       id="clipPath11797"
       clipPathUnits="userSpaceOnUse">
      <path
         id="path11799"
         d="m 2281.39,7271.13 c 0,0 29.48,32.66 57.68,43.52 28.2,10.87 17.33,55.36 97.76,52.68 80.42,-2.69 48.04,-78.76 48.04,-78.76 0,0 44.96,18.84 99.53,5.07 54.57,-13.76 65.44,-64.46 43.7,-116.27 -21.74,-51.82 -71.21,-140.02 -160.59,-127.44 -89.37,12.59 -206.79,158.11 -186.12,221.2 z"
         inkscape:connector-curvature="0" />
    </clipPath>
    <clipPath
       id="clipPath11811"
       clipPathUnits="userSpaceOnUse">
      <path
         id="path11813"
         d="m 2467.51,7049.93 c 0,0 19.31,95.19 73.65,101.71 54.34,6.52 89.11,32.6 86.94,69.55 -2.17,36.95 2.46,67.38 -53.11,73.9 0,0 -9.92,8.7 20.51,21.74 30.43,13.04 71.38,22 94.34,-3.41 22.95,-25.41 62.15,-67.81 49.11,-114.8 -13.04,-46.98 -119.33,-119.69 -163.96,-148.69 -44.63,-28.99 -78.75,-99.24 -107.48,0 z"
         inkscape:connector-curvature="0" />
    </clipPath>
    <clipPath
       id="clipPath11825"
       clipPathUnits="userSpaceOnUse">
      <path
         id="path11827"
         d="m 2467.51,6783.07 c 0,0 67.13,155.56 45.39,246.85 -21.73,91.29 -65.21,119.54 -158.67,171.71 -93.46,52.16 -150.46,126.07 -257.81,0 -107.35,-126.07 -20.41,-219.53 38.28,-278.22 58.69,-58.69 220.05,-152.45 332.81,-140.34 z"
         inkscape:connector-curvature="0" />
    </clipPath>
    <clipPath
       id="clipPath11843"
       clipPathUnits="userSpaceOnUse">
      <path
         id="path11845"
         d="m 2793.29,7198.62 c 0,0 23.91,-131.75 63.04,-188.26 39.12,-56.52 139.1,-343.43 0,-462.98 -139.11,-119.54 -354.74,-160.75 -433.19,-143.45 -78.45,17.3 -26.52,365.23 13.15,473.87 39.66,108.64 217.89,296.08 357,320.82 z"
         inkscape:connector-curvature="0" />
    </clipPath>
    <clipPath
       id="clipPath11859"
       clipPathUnits="userSpaceOnUse">
      <path
         id="path11861"
         d="m 2384.66,6393.06 c 0,0 65.21,-21.74 128.24,32.6 63.03,54.34 93.46,123.9 93.46,178.24 0,54.34 -32.6,215.18 -110.85,267.35 -78.25,52.16 -443.41,239.09 -473.84,289.08 -30.43,49.99 -45.64,-21.74 -56.51,-65.2 -10.87,-43.48 -37.59,-164.69 -67.7,-218.2 -30.11,-53.5 -85.09,-129.58 0,-251.3 85.09,-121.72 263.32,-234.74 487.2,-232.57 z"
         inkscape:connector-curvature="0" />
    </clipPath>
    <clipPath
       id="clipPath11493"
       clipPathUnits="userSpaceOnUse">
      <path
         id="path11495"
         d="m 4003.03,7499.29 c -169.8,4.36 -332.79,-105.57 -362.63,-190.49 -29.84,-84.92 -94.1,-330.5 -117.05,-381 -22.95,-50.49 -169.84,-234.1 -183.61,-348.86 -13.77,-114.75 34.42,-410.82 403.94,-456.73 369.52,-45.9 599.03,71.15 647.23,289.19 48.2,218.04 -89.51,507.22 -100.99,562.31 -11.47,55.08 71.15,516.4 -286.89,525.58 z"
         inkscape:connector-curvature="0" />
    </clipPath>
    <clipPath
       id="clipPath11565"
       clipPathUnits="userSpaceOnUse">
      <path
         id="path11567"
         d="m 5470.49,6976.77 c -107.65,26.44 -398.48,47.21 -500.46,-234.18 -101.98,-281.39 136.59,-508.95 258.73,-559.01 153.6,-62.95 394.7,-98.2 638.32,37.77 243.62,135.98 288.95,460.81 166.19,602.45 -122.75,141.64 -251.17,228.51 -562.78,152.97 z"
         inkscape:connector-curvature="0" />
    </clipPath>
    <clipPath
       id="clipPath11889"
       clipPathUnits="userSpaceOnUse">
      <path
         id="path11891"
         d="m 7358.51,6565.15 c -1.91,-11.65 -4.42,-23.57 -7.91,-35.55 -22.63,-77.81 -64.54,-5.94 -109.7,-23.7 -45.16,-17.76 -18.64,-74.88 -95.02,-100.19 -76.37,-25.32 -106.85,88.06 -189.34,55.24 -73.74,-29.34 -74.39,34.08 -120.61,32.38 -46.21,-1.69 -56.22,-28.94 -84.26,-61.72 -28.04,-32.78 -92.32,5.1 -134.92,38.19 -27.53,21.38 -32.3,63.5 -32.25,90.71 -15.21,-99.32 25.77,-275.33 160.49,-347.35 153.45,-82.04 190.11,-73.56 190.11,-73.56 0,0 57.04,-88.35 43.61,-118.08 -13.44,-29.74 -65.56,-138.33 -13.81,-192.28 51.75,-53.95 96.66,-14.93 96.66,-14.93 0,0 -69.06,-12.31 -74.86,41.61 -5.81,53.92 14.24,57.89 14.24,57.89 0,0 53.5,-31.24 73.96,-13.2 0,0 -48.46,18.09 -53.35,43.59 -4.9,25.5 -0.1,56.57 6.68,66.13 6.78,9.56 62.05,46.97 41.39,142.06 0,0 176.48,39.37 250.01,131.03 55.11,68.71 62.13,190.21 38.88,281.73 z"
         inkscape:connector-curvature="0" />
    </clipPath>
    <clipPath
       id="clipPath11763"
       clipPathUnits="userSpaceOnUse">
      <path
         id="path11765"
         d="m 925.598,5230.68 c -82.36,-2.22 -420.496,-128.97 -420.684,-442.94 -0.168,-281.56 200.324,-469.65 471.875,-489.68 271.551,-20.03 581.621,194.31 583.171,505.26 1.69,340.56 -378.39,420.69 -438.49,427.36 0,0 28.93,75.68 82.35,117.97 0,0 -55.64,6.68 -93.48,-11.13 0,0 -2.23,55.65 -24.48,120.2 0,0 -91.262,-62.33 -106.844,-84.58 0,0 -51.196,35.61 -84.582,51.19 0,0 42.293,-155.81 31.164,-193.65 z"
         inkscape:connector-curvature="0" />
    </clipPath>
    <clipPath
       id="clipPath11597"
       clipPathUnits="userSpaceOnUse">
      <path
         id="path11599"
         d="m 4172.82,5122.8 c -27.71,-1.85 -61.7,30.85 -64.07,47.46 -2.37,16.61 21.36,80.68 47.46,111.53 26.1,30.85 116.28,90.18 116.28,102.04 0,11.87 -40.34,42.71 -59.33,36.78 -18.98,-5.93 -54.58,-36.78 -54.58,-36.78 0,0 35.6,66.44 47.46,78.31 11.87,11.86 -64.4,49.83 -97.45,47.46 0,0 -113.74,-106.79 -137.47,-168.48 -23.73,-61.7 -23.73,-144.16 -40.35,-156.33 -16.61,-12.16 -73.56,-50.13 -116.27,-61.99 -42.72,-11.87 -154.25,-27.29 -237.3,-77.72 -83.06,-50.42 -161.37,-131.52 -170.86,-200.13 -9.49,-68.61 23.73,-213.36 121.02,-296.42 97.3,-83.06 277.64,-147.13 353.58,-144.75 75.94,2.37 123.4,37.96 123.4,37.96 0,0 80.68,-35.59 144.75,-4.74 0,0 59.33,-23.73 140.01,14.24 80.68,37.96 287.13,189.84 246.79,439 -40.34,249.17 -161.36,261.41 -187.47,263.6 -26.1,2.18 -140,-28.67 -175.6,-31.04 z"
         inkscape:connector-curvature="0" />
    </clipPath>
    <clipPath
       id="clipPath12061"
       clipPathUnits="userSpaceOnUse">
      <path
         id="path12063"
         d="m 5357,5573.74 c 0,0 -47.6,9.52 -55.21,-28.55 0,0 -38.08,-7.62 -30.46,-55.21 0,0 -11.54,-95.19 -1.01,-159.92 10.53,-64.73 52.41,-220.83 54.31,-258.91 0,0 -9.52,-34.27 1.91,-45.69 0,0 7.61,-108.52 -1.91,-190.38 -9.52,-81.86 -1.9,-197.99 5.71,-218.93 0,0 3.81,-43.79 26.66,-53.31 0,0 -26.66,-51.4 19.03,-60.92 0,0 38.08,-47.59 60.92,-53.3 22.85,-5.71 53.31,-36.17 66.64,-34.27 13.32,1.9 89.47,-11.42 127.55,36.17 38.07,47.6 62.82,62.83 60.92,83.77 -1.9,20.94 0,36.17 9.52,45.69 9.52,9.52 13.32,39.98 0,62.82 0,0 26.65,9.52 26.65,60.92 0,51.4 22.93,98.71 23.52,156.11 0.74,72.34 -16.39,138.37 -25.42,197.99 -13,85.72 -116.13,352.2 -194.19,441.68 -78.05,89.47 -114.22,62.82 -114.22,62.82 0,0 -32.37,36.17 -60.92,11.42 z"
         inkscape:connector-curvature="0" />
    </clipPath>
    <clipPath
       id="clipPath11933"
       clipPathUnits="userSpaceOnUse">
      <path
         id="path11935"
         d="m 6632.27,4588.65 c 0,0 -25.37,72.71 20.29,93 0,0 -20.29,43.97 16.91,67.64 0,0 -16.91,50.73 13.53,59.19 0,0 -23.68,32.13 8.45,52.42 0,0 -15.22,45.66 18.6,64.26 0,0 -18.6,52.42 18.6,64.26 0,0 -20.29,39.94 13.53,57.17 0,0 -16.91,42.6 15.22,57.81 0,0 -21.98,37.21 25.37,59.19 0,0 -11.84,33.82 21.98,50.73 0,0 -11.84,42.28 30.44,55.8 0,0 1.69,30.44 28.74,35.52 0,0 -10.14,55.8 45.66,69.33 0,0 -13.53,28.74 49.04,42.27 0,0 -27.05,32.13 -27.05,57.5 l 52.42,-43.97 c 0,0 6.76,23.67 13.53,43.97 0,0 13.52,-45.66 18.6,-49.04 5.07,-3.38 18.6,16.91 32.13,-1.69 0,0 32.12,40.58 42.27,50.73 0,0 -1.69,-45.66 -20.29,-62.57 0,0 38.89,-3.38 50.73,1.69 0,0 -21.98,-20.29 -32.13,-25.36 0,0 33.82,-8.46 11.84,-38.9 0,0 40.58,-25.36 11.83,-59.18 0,0 47.65,-38.9 10.3,-67.64 0,0 21.83,-38.9 -8.61,-64.26 0,0 28.75,-35.51 -1.69,-69.33 0,0 33.82,-30.44 0,-57.5 0,0 35.51,-45.66 -13.52,-84.55 0,0 27.05,-42.27 -13.53,-71.02 0,0 33.82,-32.13 -6.77,-60.88 0,0 23.68,-42.27 -15.22,-65.95 0,0 27.06,-50.73 -28.74,-67.64 0,0 49.04,-81.17 -13.53,-93 0,0 -20.29,-74.41 -79.48,-65.95 0,0 -19.64,-71.03 -60.55,-54.12 0,0 -56.13,-65.95 -95.02,-18.6 0,0 -86.24,-18.6 -101.46,50.73 0,0 -84.55,27.06 -52.42,87.94 z"
         inkscape:connector-curvature="0" />
    </clipPath>
    <clipPath
       id="clipPath11627"
       clipPathUnits="userSpaceOnUse">
      <path
         id="path11629"
         d="m 2223.84,3484.33 c 0,0 246.71,55.6 288.41,90.35 42.03,35.02 121.28,171.52 93.81,274.5 0,0 180.69,34.75 205.01,0 0,0 -79.92,-170.26 -132.04,-218.91 -52.12,-48.64 0,-90.74 48.65,-95.75 48.65,-5.01 114.67,-50.19 114.67,-50.19 0,0 -441.29,-215.43 -618.51,0 z"
         inkscape:connector-curvature="0" />
    </clipPath>
    <clipPath
       id="clipPath11639"
       clipPathUnits="userSpaceOnUse">
      <path
         id="path11641"
         d="m 2314.19,3484.33 c 0,0 -166.79,145.94 -406.55,-86.86 -239.75,-232.81 -236.28,-451.72 -208.48,-521.21 27.8,-69.5 180.69,-271.03 271.03,-208.49 0,0 277.98,-211.95 531.63,0 0,0 135.52,-113.5 333.58,37.07 0,0 170.26,-44.02 298.82,199.22 128.57,243.23 -52.12,531.63 -128.56,590.7 -76.45,59.07 -191.11,0 -205.01,-31.27 0,0 -104.24,138.98 -211.96,-17.38 0,0 -79.92,170.26 -274.5,38.22 z"
         inkscape:connector-curvature="0" />
    </clipPath>
    <clipPath
       id="clipPath11991"
       clipPathUnits="userSpaceOnUse">
      <path
         id="path11993"
         d="m 5662.36,3891.14 c -86.84,-12.36 -238.23,-43.25 -346.36,-247.17 -108.14,-203.91 -228.64,-308.96 -253.35,-528.32 -24.72,-219.37 -6.18,-559.23 274.97,-549.96 281.16,9.27 343.6,169.93 324.74,336.77 -18.86,166.84 -201.15,342.95 -219.69,407.83 -18.54,64.88 -24.72,135.95 -12.36,163.75 12.36,27.81 299.7,166.84 293.52,302.79 -6.18,135.94 -61.47,114.31 -61.47,114.31 z"
         inkscape:connector-curvature="0" />
    </clipPath>
    <clipPath
       id="clipPath12017"
       clipPathUnits="userSpaceOnUse">
      <path
         id="path12019"
         d="m 6678.13,3172.89 c 0,0 92.8,-126.71 139.2,-137.42 46.4,-10.71 73.17,39.26 78.53,78.53 5.35,39.26 57.11,64.25 64.25,37.48 7.14,-26.77 -14.28,-122.52 33.91,-117.48 48.18,5.04 101.73,101.41 105.29,110.34 3.57,8.92 112.44,-17.73 91.02,-40.99 -21.41,-23.26 -58.89,-51.82 -53.54,-78.59 5.36,-26.77 73.18,-24.98 139.21,33.91 66.03,58.9 15.75,-45.63 0,-50.51 -15.75,-4.87 -139.21,-58.35 -153.48,-108.33 -14.28,-49.97 55.32,-160.62 48.18,-176.68 -7.14,-16.06 -94.59,-73.17 -192.75,-76.74 -98.15,-3.57 -192.74,33.91 -198.1,64.25 -5.35,30.34 44.62,149.67 19.63,198.87 -24.98,49.2 -139.2,175.91 -194.53,193.76 -55.32,17.85 46.4,66.03 73.18,69.6 z"
         inkscape:connector-curvature="0" />
    </clipPath>
    <clipPath
       id="clipPath12219"
       clipPathUnits="userSpaceOnUse">
      <path
         id="path12221"
         d="m 2198.71,1333.97 c 0,0 41.77,-105.05 0,-151.39 -41.77,-46.34 -196.25,-308.959 222.67,-308.959 352.34,0 228.12,256.439 182.67,302.779 -45.46,46.35 -10.16,145.21 0,176.11 10.15,30.9 -406.82,216.27 -405.34,-18.54 z"
         inkscape:connector-curvature="0" />
    </clipPath>
    <clipPath
       id="clipPath12231"
       clipPathUnits="userSpaceOnUse">
      <path
         id="path12233"
         d="m 2424.19,1921 c -310.65,-8.05 -557.68,-239.11 -548.41,-394.53 9.27,-155.42 92.81,-260.47 322.93,-238.84 230.12,21.63 591.6,-58.16 705.92,-2.82 114.31,55.34 234.81,654.73 -480.44,636.19 z"
         inkscape:connector-curvature="0" />
    </clipPath>
  </defs>
  <sodipodi:namedview
     id="base"
     pagecolor="#ffffff"
     bordercolor="#666666"
     borderopacity="1.0"
     inkscape:pageopacity="0.0"
     inkscape:pageshadow="2"
     inkscape:zoom="1.9445436"
     inkscape:cx="27.293245"
     inkscape:cy="120.47656"
     inkscape:current-layer="layer1"
     showgrid="true"
     inkscape:document-units="px"
     inkscape:grid-bbox="true"
     inkscape:window-width="1280"
     inkscape:window-height="748"
     inkscape:window-x="0"
     inkscape:window-y="0"
     inkscape:window-maximized="1" />
  <metadata
     id="metadata7501">
    <rdf:RDF>
      <cc:Work
         rdf:about="">
        <dc:format>image/svg+xml</dc:format>
        <dc:type
           rdf:resource="http://purl.org/dc/dcmitype/StillImage" />
        <dc:title></dc:title>
      </cc:Work>
    </rdf:RDF>
  </metadata>
  <g
     id="layer1"
     inkscape:label="Layer 1"
     inkscape:groupmode="layer"
     transform="translate(0,86)">
    <g
       transform="matrix(0.93363885,0,0,0.93363885,1034.3095,-12.039977)"
       id="g9497">
      <path
         inkscape:connector-curvature="0"
         d="m -1057.8562,10.622514 c 0,0 5.2213,13.13125 0,18.92375 -5.2212,5.7925 -24.5312,38.61988 27.8338,38.61988 44.04247,0 28.515,-32.05488 22.8337,-37.84738 -5.6825,-5.79375 -1.27,-18.15125 0,-22.0137501 1.2688,-3.8625 -50.8525,-27.0337499 -50.6675,2.3175001"
         style="fill:#f9dbde;fill-opacity:1;fill-rule:nonzero;stroke:none"
         id="path12213" />
      <g
         transform="matrix(0.125,0,0,-0.125,-1332.6949,177.36876)"
         id="g12215">
        <g
           id="g12217"
           clip-path="url(#clipPath12219)">
          <path
             inkscape:connector-curvature="0"
             d="m 2211.35,1204.24 c 0,0 -42.18,-83.54 -42.18,-126.74 0,-31.09 -6.59,-73.51 86.48,-121.449 118.52,-61.051 268.52,-23.551 316.02,16.449 47.5,40 54.23,151.98 32.38,203.9 -21.86,51.92 19.82,57 19.82,57 0,0 132.8,-223.4 57.8,-293.4 -75,-70 -109.32,-132.5 -282.16,-97.5 -172.84,35 -265.34,45 -290.34,122.5 -25,77.5 29.35,215.98 102.18,239.24"
             style="fill:#dcb8bb;fill-opacity:1;fill-rule:nonzero;stroke:none"
             id="path12223" />
        </g>
      </g>
      <path
         inkscape:connector-curvature="0"
         d="m -1029.6712,-62.756236 c -38.8312,1.00625 -69.71,29.88875 -68.5512,49.31625 1.1587,19.4274999 11.6012,32.55875 40.3662,29.855 28.765,-2.70375 73.95007,7.27 88.24007,0.3525 14.2887,-6.9175001 29.3512,-81.84125 -60.05507,-79.52375"
         style="fill:#d59ca3;fill-opacity:1;fill-rule:nonzero;stroke:none"
         id="path12225" />
      <g
         transform="matrix(0.125,0,0,-0.125,-1332.6949,177.36876)"
         id="g12227">
        <g
           id="g12229"
           clip-path="url(#clipPath12231)">
          <path
             inkscape:connector-curvature="0"
             d="m 1885.68,1593.15 c 0,0 -25.88,-92.41 48.81,-146.53 74.68,-54.12 240.58,0.97 340.13,13.43 99.55,12.45 369.55,14.13 497.05,-16.71 127.5,-30.84 241.99,-3.39 199.74,200.38 -42.24,203.78 86.08,-48.63 61.92,-183.67 -24.16,-135.05 -82.74,-223.25 -163.45,-226.65 -80.71,-3.4 -258.41,20.44 -389.56,18.52 -131.15,-1.92 -371.55,-20.12 -442.6,-18.52 -71.05,1.6 -277.49,189.39 -152.04,359.75"
             style="fill:#b8767f;fill-opacity:1;fill-rule:nonzero;stroke:none"
             id="path12235" />
        </g>
      </g>
      <path
         inkscape:connector-curvature="0"
         d="m -1090.8836,1.0762639 c 0,0 2.8062,11.0300001 16.5937,14.9225001 0,0 -9.6162,-4.205 -16.5937,-14.9225001"
         style="fill:#86434c;fill-opacity:1;fill-rule:nonzero;stroke:none"
         id="path12237" />
      <path
         inkscape:connector-curvature="0"
         d="m -1076.2087,1.0762639 c 0,0 2.6163,11.0475001 11.5863,14.9225001 0,0 -9.0112,-0.2675 -11.5863,-14.9225001"
         style="fill:#86434c;fill-opacity:1;fill-rule:nonzero;stroke:none"
         id="path12239" />
      <path
         inkscape:connector-curvature="0"
         d="m -1059.4737,3.9275139 c 0,0 2.7938,8.4362501 8.7351,12.0712501 0,0 -7.4476,-1.515 -8.7351,-12.0712501"
         style="fill:#86434c;fill-opacity:1;fill-rule:nonzero;stroke:none"
         id="path12241" />
      <path
         inkscape:connector-curvature="0"
         d="m -1022.6549,15.998764 c 0,0 10.2987,-3.57375 15.4475,-13.6150001 0,0 -3.8613,10.4950001 -15.4475,13.6150001"
         style="fill:#86434c;fill-opacity:1;fill-rule:nonzero;stroke:none"
         id="path12243" />
      <path
         inkscape:connector-curvature="0"
         d="m -1009.7174,18.062514 c 0,0 17.44367,-3.83625 29.80247,-19.7987501 0,0 -8.11,16.9387501 -29.80247,19.7987501"
         style="fill:#86434c;fill-opacity:1;fill-rule:nonzero;stroke:none"
         id="path12245" />
      <path
         inkscape:connector-curvature="0"
         d="m -990.22113,19.215014 c 0,0 9.5337,-2.44 15.4549,-11.0525001 0,0 -2.3325,9.0900001 -15.4549,11.0525001"
         style="fill:#86434c;fill-opacity:1;fill-rule:nonzero;stroke:none"
         id="path12247" />
      <path
         inkscape:connector-curvature="0"
         d="m -1028.6111,32.415014 c -0.01,1.14875 -0.7001,2.07375 -1.5388,2.06625 -0.84,-0.007 -1.5113,-0.945 -1.5013,-2.09375 0.01,-1.14875 0.6988,-2.07375 1.5388,-2.06625 0.8387,0.008 1.5112,0.945 1.5013,2.09375"
         style="fill:#040606;fill-opacity:1;fill-rule:nonzero;stroke:none"
         id="path12249" />
      <path
         inkscape:connector-curvature="0"
         d="m -1045.3274,31.751264 c -0.01,1.14875 -0.7,2.07375 -1.5387,2.06625 -0.8401,-0.008 -1.5113,-0.945 -1.5013,-2.09375 0.01,-1.14875 0.6987,-2.07375 1.5387,-2.06625 0.8388,0.008 1.5113,0.945 1.5013,2.09375"
         style="fill:#040606;fill-opacity:1;fill-rule:nonzero;stroke:none"
         id="path12251" />
      <path
         inkscape:connector-curvature="0"
         d="m -1045.3124,36.626264 c 0,0 10.5562,0.2575 13.6462,0 0,0 -1.2875,8.49625 -6.8237,8.75375 -5.535,0.2575 -6.8225,-8.75375 -6.8225,-8.75375"
         style="fill:#961829;fill-opacity:1;fill-rule:nonzero;stroke:none"
         id="path12253" />
    </g>
  </g>
</svg>
