<?xml version="1.0" encoding="UTF-8" standalone="no"?>
<!-- Created with Inkscape (http://www.inkscape.org/) -->

<svg
   xmlns:dc="http://purl.org/dc/elements/1.1/"
   xmlns:cc="http://creativecommons.org/ns#"
   xmlns:rdf="http://www.w3.org/1999/02/22-rdf-syntax-ns#"
   xmlns:svg="http://www.w3.org/2000/svg"
   xmlns="http://www.w3.org/2000/svg"
   xmlns:sodipodi="http://sodipodi.sourceforge.net/DTD/sodipodi-0.dtd"
   xmlns:inkscape="http://www.inkscape.org/namespaces/inkscape"
   width="64px"
   height="64px"
   id="svg5689"
   version="1.1"
   inkscape:version="0.48.4 r9939"
   sodipodi:docname="search.svg">
  <defs
     id="defs5691" />
  <sodipodi:namedview
     id="base"
     pagecolor="#ffffff"
     bordercolor="#666666"
     borderopacity="1.0"
     inkscape:pageopacity="0.0"
     inkscape:pageshadow="2"
     inkscape:zoom="1.9445436"
     inkscape:cx="-41.450242"
     inkscape:cy="45.37442"
     inkscape:current-layer="layer1"
     showgrid="true"
     inkscape:document-units="px"
     inkscape:grid-bbox="true"
     inkscape:window-width="1280"
     inkscape:window-height="748"
     inkscape:window-x="0"
     inkscape:window-y="0"
     inkscape:window-maximized="1" />
  <metadata
     id="metadata5694">
    <rdf:RDF>
      <cc:Work
         rdf:about="">
        <dc:format>image/svg+xml</dc:format>
        <dc:type
           rdf:resource="http://purl.org/dc/dcmitype/StillImage" />
        <dc:title></dc:title>
      </cc:Work>
    </rdf:RDF>
  </metadata>
  <g
     id="layer1"
     inkscape:label="Layer 1"
     inkscape:groupmode="layer">
    <g
       transform="matrix(2.9162481,0,0,2.9162481,-2592.2951,-2218.0378)"
       id="g5538">
      <g
         style="fill:#808080;fill-opacity:1"
         transform="matrix(3.042322,3.042322,-3.042322,3.042322,-2233.4394,-7785.779)"
         id="g8760-5-9-8-2-9-1-8-5-0">
        <rect
           style="fill:#808080;fill-opacity:1"
           id="rect8762-4-9-4-2-9-5-1-3-0"
           height="4.8060002"
           width="0.96100003"
           y="888.966"
           x="1920.853" />
        <rect
           style="fill:#808080;fill-opacity:1"
           id="rect8764-2-0-0-9-2-8-7-3-1"
           height="0.95999998"
           width="4.8070002"
           y="890.94501"
           x="1918.9871" />
      </g>
      <path
         transform="matrix(1.0541735,0,0,1.0541735,-48.389795,-884.73805)"
         d="m 894.67946,1564.3402 c 0,1.0809 -0.87625,1.9572 -1.95717,1.9572 -1.08092,0 -1.95717,-0.8763 -1.95717,-1.9572 0,-1.0809 0.87625,-1.9572 1.95717,-1.9572 1.08092,0 1.95717,0.8763 1.95717,1.9572 z"
         sodipodi:ry="1.9571706"
         sodipodi:rx="1.9571706"
         sodipodi:cy="1564.3402"
         sodipodi:cx="892.72229"
         id="path5482"
         style="fill:#808080;fill-opacity:1;stroke:none"
         sodipodi:type="arc" />
      <path
         transform="matrix(1.0541735,0,0,1.0541735,-33.730437,-885.02771)"
         d="m 894.67946,1564.3402 c 0,1.0809 -0.87625,1.9572 -1.95717,1.9572 -1.08092,0 -1.95717,-0.8763 -1.95717,-1.9572 0,-1.0809 0.87625,-1.9572 1.95717,-1.9572 1.08092,0 1.95717,0.8763 1.95717,1.9572 z"
         sodipodi:ry="1.9571706"
         sodipodi:rx="1.9571706"
         sodipodi:cy="1564.3402"
         sodipodi:cx="892.72229"
         id="path5482-9"
         style="fill:#808080;fill-opacity:1;stroke:none"
         sodipodi:type="arc" />
      <path
         transform="matrix(1.0541735,0,0,1.0541735,-33.856705,-870.20688)"
         d="m 894.67946,1564.3402 c 0,1.0809 -0.87625,1.9572 -1.95717,1.9572 -1.08092,0 -1.95717,-0.8763 -1.95717,-1.9572 0,-1.0809 0.87625,-1.9572 1.95717,-1.9572 1.08092,0 1.95717,0.8763 1.95717,1.9572 z"
         sodipodi:ry="1.9571706"
         sodipodi:rx="1.9571706"
         sodipodi:cy="1564.3402"
         sodipodi:cx="892.72229"
         id="path5482-9-3"
         style="fill:#808080;fill-opacity:1;stroke:none"
         sodipodi:type="arc" />
      <path
         transform="matrix(1.0541735,0,0,1.0541735,-48.267162,-870.4752)"
         d="m 894.67946,1564.3402 c 0,1.0809 -0.87625,1.9572 -1.95717,1.9572 -1.08092,0 -1.95717,-0.8763 -1.95717,-1.9572 0,-1.0809 0.87625,-1.9572 1.95717,-1.9572 1.08092,0 1.95717,0.8763 1.95717,1.9572 z"
         sodipodi:ry="1.9571706"
         sodipodi:rx="1.9571706"
         sodipodi:cy="1564.3402"
         sodipodi:cx="892.72229"
         id="path5482-9-3-0"
         style="fill:#808080;fill-opacity:1;stroke:none"
         sodipodi:type="arc" />
    </g>
  </g>
</svg>
