<?xml version="1.0" encoding="UTF-8" standalone="no"?>
<!-- Created with Inkscape (http://www.inkscape.org/) -->

<svg
   xmlns:dc="http://purl.org/dc/elements/1.1/"
   xmlns:cc="http://creativecommons.org/ns#"
   xmlns:rdf="http://www.w3.org/1999/02/22-rdf-syntax-ns#"
   xmlns:svg="http://www.w3.org/2000/svg"
   xmlns="http://www.w3.org/2000/svg"
   xmlns:sodipodi="http://sodipodi.sourceforge.net/DTD/sodipodi-0.dtd"
   xmlns:inkscape="http://www.inkscape.org/namespaces/inkscape"
   width="150"
   height="150"
   id="svg7496"
   version="1.1"
   inkscape:version="0.48.4 r9939"
   sodipodi:docname="ail.svg">
  <defs
     id="defs7498">
    <clipPath
       id="clipPath11459"
       clipPathUnits="userSpaceOnUse">
      <path
         id="path11461"
         d="m 850.859,6831.69 c 0,0 -187.066,-1.97 -265.832,-137.84 -78.761,-135.87 -106.332,-393.82 92.551,-484.4 198.883,-90.58 226.449,-66.96 226.449,-66.96 0,0 -21.66,-49.22 0,-86.64 21.661,-37.41 47.258,-179.19 112.243,-200.85 64.98,-21.66 82.7,19.69 84.67,31.51 1.97,11.81 -33.47,-5.91 -49.23,-1.97 -15.75,3.94 -25.6,43.32 -37.41,68.92 -11.82,25.6 -21.663,47.26 -13.79,70.89 7.88,23.63 49.23,84.67 45.29,102.39 0,0 269.78,66.95 326.88,194.95 57.1,127.99 66.95,295.36 -27.57,391.85 -94.52,96.49 -218.57,137.84 -277.64,135.87 0,0 15.75,39.38 27.56,53.17 0,0 -76.79,-23.63 -102.393,-49.23 0,0 -5.907,39.38 -1.969,61.04 0,0 -68.918,-39.38 -68.918,-74.82 0,0 -63.012,78.76 -131.934,53.16 0,0 51.2,-33.47 61.043,-61.04 z"
         inkscape:connector-curvature="0" />
    </clipPath>
    <clipPath
       id="clipPath11797"
       clipPathUnits="userSpaceOnUse">
      <path
         id="path11799"
         d="m 2281.39,7271.13 c 0,0 29.48,32.66 57.68,43.52 28.2,10.87 17.33,55.36 97.76,52.68 80.42,-2.69 48.04,-78.76 48.04,-78.76 0,0 44.96,18.84 99.53,5.07 54.57,-13.76 65.44,-64.46 43.7,-116.27 -21.74,-51.82 -71.21,-140.02 -160.59,-127.44 -89.37,12.59 -206.79,158.11 -186.12,221.2 z"
         inkscape:connector-curvature="0" />
    </clipPath>
    <clipPath
       id="clipPath11811"
       clipPathUnits="userSpaceOnUse">
      <path
         id="path11813"
         d="m 2467.51,7049.93 c 0,0 19.31,95.19 73.65,101.71 54.34,6.52 89.11,32.6 86.94,69.55 -2.17,36.95 2.46,67.38 -53.11,73.9 0,0 -9.92,8.7 20.51,21.74 30.43,13.04 71.38,22 94.34,-3.41 22.95,-25.41 62.15,-67.81 49.11,-114.8 -13.04,-46.98 -119.33,-119.69 -163.96,-148.69 -44.63,-28.99 -78.75,-99.24 -107.48,0 z"
         inkscape:connector-curvature="0" />
    </clipPath>
    <clipPath
       id="clipPath11825"
       clipPathUnits="userSpaceOnUse">
      <path
         id="path11827"
         d="m 2467.51,6783.07 c 0,0 67.13,155.56 45.39,246.85 -21.73,91.29 -65.21,119.54 -158.67,171.71 -93.46,52.16 -150.46,126.07 -257.81,0 -107.35,-126.07 -20.41,-219.53 38.28,-278.22 58.69,-58.69 220.05,-152.45 332.81,-140.34 z"
         inkscape:connector-curvature="0" />
    </clipPath>
    <clipPath
       id="clipPath11843"
       clipPathUnits="userSpaceOnUse">
      <path
         id="path11845"
         d="m 2793.29,7198.62 c 0,0 23.91,-131.75 63.04,-188.26 39.12,-56.52 139.1,-343.43 0,-462.98 -139.11,-119.54 -354.74,-160.75 -433.19,-143.45 -78.45,17.3 -26.52,365.23 13.15,473.87 39.66,108.64 217.89,296.08 357,320.82 z"
         inkscape:connector-curvature="0" />
    </clipPath>
    <clipPath
       id="clipPath11859"
       clipPathUnits="userSpaceOnUse">
      <path
         id="path11861"
         d="m 2384.66,6393.06 c 0,0 65.21,-21.74 128.24,32.6 63.03,54.34 93.46,123.9 93.46,178.24 0,54.34 -32.6,215.18 -110.85,267.35 -78.25,52.16 -443.41,239.09 -473.84,289.08 -30.43,49.99 -45.64,-21.74 -56.51,-65.2 -10.87,-43.48 -37.59,-164.69 -67.7,-218.2 -30.11,-53.5 -85.09,-129.58 0,-251.3 85.09,-121.72 263.32,-234.74 487.2,-232.57 z"
         inkscape:connector-curvature="0" />
    </clipPath>
    <clipPath
       id="clipPath11493"
       clipPathUnits="userSpaceOnUse">
      <path
         id="path11495"
         d="m 4003.03,7499.29 c -169.8,4.36 -332.79,-105.57 -362.63,-190.49 -29.84,-84.92 -94.1,-330.5 -117.05,-381 -22.95,-50.49 -169.84,-234.1 -183.61,-348.86 -13.77,-114.75 34.42,-410.82 403.94,-456.73 369.52,-45.9 599.03,71.15 647.23,289.19 48.2,218.04 -89.51,507.22 -100.99,562.31 -11.47,55.08 71.15,516.4 -286.89,525.58 z"
         inkscape:connector-curvature="0" />
    </clipPath>
    <clipPath
       id="clipPath11565"
       clipPathUnits="userSpaceOnUse">
      <path
         id="path11567"
         d="m 5470.49,6976.77 c -107.65,26.44 -398.48,47.21 -500.46,-234.18 -101.98,-281.39 136.59,-508.95 258.73,-559.01 153.6,-62.95 394.7,-98.2 638.32,37.77 243.62,135.98 288.95,460.81 166.19,602.45 -122.75,141.64 -251.17,228.51 -562.78,152.97 z"
         inkscape:connector-curvature="0" />
    </clipPath>
    <clipPath
       id="clipPath11889"
       clipPathUnits="userSpaceOnUse">
      <path
         id="path11891"
         d="m 7358.51,6565.15 c -1.91,-11.65 -4.42,-23.57 -7.91,-35.55 -22.63,-77.81 -64.54,-5.94 -109.7,-23.7 -45.16,-17.76 -18.64,-74.88 -95.02,-100.19 -76.37,-25.32 -106.85,88.06 -189.34,55.24 -73.74,-29.34 -74.39,34.08 -120.61,32.38 -46.21,-1.69 -56.22,-28.94 -84.26,-61.72 -28.04,-32.78 -92.32,5.1 -134.92,38.19 -27.53,21.38 -32.3,63.5 -32.25,90.71 -15.21,-99.32 25.77,-275.33 160.49,-347.35 153.45,-82.04 190.11,-73.56 190.11,-73.56 0,0 57.04,-88.35 43.61,-118.08 -13.44,-29.74 -65.56,-138.33 -13.81,-192.28 51.75,-53.95 96.66,-14.93 96.66,-14.93 0,0 -69.06,-12.31 -74.86,41.61 -5.81,53.92 14.24,57.89 14.24,57.89 0,0 53.5,-31.24 73.96,-13.2 0,0 -48.46,18.09 -53.35,43.59 -4.9,25.5 -0.1,56.57 6.68,66.13 6.78,9.56 62.05,46.97 41.39,142.06 0,0 176.48,39.37 250.01,131.03 55.11,68.71 62.13,190.21 38.88,281.73 z"
         inkscape:connector-curvature="0" />
    </clipPath>
    <clipPath
       id="clipPath11763"
       clipPathUnits="userSpaceOnUse">
      <path
         id="path11765"
         d="m 925.598,5230.68 c -82.36,-2.22 -420.496,-128.97 -420.684,-442.94 -0.168,-281.56 200.324,-469.65 471.875,-489.68 271.551,-20.03 581.621,194.31 583.171,505.26 1.69,340.56 -378.39,420.69 -438.49,427.36 0,0 28.93,75.68 82.35,117.97 0,0 -55.64,6.68 -93.48,-11.13 0,0 -2.23,55.65 -24.48,120.2 0,0 -91.262,-62.33 -106.844,-84.58 0,0 -51.196,35.61 -84.582,51.19 0,0 42.293,-155.81 31.164,-193.65 z"
         inkscape:connector-curvature="0" />
    </clipPath>
    <clipPath
       id="clipPath11597"
       clipPathUnits="userSpaceOnUse">
      <path
         id="path11599"
         d="m 4172.82,5122.8 c -27.71,-1.85 -61.7,30.85 -64.07,47.46 -2.37,16.61 21.36,80.68 47.46,111.53 26.1,30.85 116.28,90.18 116.28,102.04 0,11.87 -40.34,42.71 -59.33,36.78 -18.98,-5.93 -54.58,-36.78 -54.58,-36.78 0,0 35.6,66.44 47.46,78.31 11.87,11.86 -64.4,49.83 -97.45,47.46 0,0 -113.74,-106.79 -137.47,-168.48 -23.73,-61.7 -23.73,-144.16 -40.35,-156.33 -16.61,-12.16 -73.56,-50.13 -116.27,-61.99 -42.72,-11.87 -154.25,-27.29 -237.3,-77.72 -83.06,-50.42 -161.37,-131.52 -170.86,-200.13 -9.49,-68.61 23.73,-213.36 121.02,-296.42 97.3,-83.06 277.64,-147.13 353.58,-144.75 75.94,2.37 123.4,37.96 123.4,37.96 0,0 80.68,-35.59 144.75,-4.74 0,0 59.33,-23.73 140.01,14.24 80.68,37.96 287.13,189.84 246.79,439 -40.34,249.17 -161.36,261.41 -187.47,263.6 -26.1,2.18 -140,-28.67 -175.6,-31.04 z"
         inkscape:connector-curvature="0" />
    </clipPath>
    <clipPath
       id="clipPath12061"
       clipPathUnits="userSpaceOnUse">
      <path
         id="path12063"
         d="m 5357,5573.74 c 0,0 -47.6,9.52 -55.21,-28.55 0,0 -38.08,-7.62 -30.46,-55.21 0,0 -11.54,-95.19 -1.01,-159.92 10.53,-64.73 52.41,-220.83 54.31,-258.91 0,0 -9.52,-34.27 1.91,-45.69 0,0 7.61,-108.52 -1.91,-190.38 -9.52,-81.86 -1.9,-197.99 5.71,-218.93 0,0 3.81,-43.79 26.66,-53.31 0,0 -26.66,-51.4 19.03,-60.92 0,0 38.08,-47.59 60.92,-53.3 22.85,-5.71 53.31,-36.17 66.64,-34.27 13.32,1.9 89.47,-11.42 127.55,36.17 38.07,47.6 62.82,62.83 60.92,83.77 -1.9,20.94 0,36.17 9.52,45.69 9.52,9.52 13.32,39.98 0,62.82 0,0 26.65,9.52 26.65,60.92 0,51.4 22.93,98.71 23.52,156.11 0.74,72.34 -16.39,138.37 -25.42,197.99 -13,85.72 -116.13,352.2 -194.19,441.68 -78.05,89.47 -114.22,62.82 -114.22,62.82 0,0 -32.37,36.17 -60.92,11.42 z"
         inkscape:connector-curvature="0" />
    </clipPath>
  </defs>
  <sodipodi:namedview
     id="base"
     pagecolor="#ffffff"
     bordercolor="#666666"
     borderopacity="1.0"
     inkscape:pageopacity="0.0"
     inkscape:pageshadow="2"
     inkscape:zoom="1.9445436"
     inkscape:cx="27.293245"
     inkscape:cy="81.981215"
     inkscape:current-layer="layer1"
     showgrid="true"
     inkscape:document-units="px"
     inkscape:grid-bbox="true"
     inkscape:window-width="1280"
     inkscape:window-height="748"
     inkscape:window-x="0"
     inkscape:window-y="0"
     inkscape:window-maximized="1" />
  <metadata
     id="metadata7501">
    <rdf:RDF>
      <cc:Work
         rdf:about="">
        <dc:format>image/svg+xml</dc:format>
        <dc:type
           rdf:resource="http://purl.org/dc/dcmitype/StillImage" />
        <dc:title></dc:title>
      </cc:Work>
    </rdf:RDF>
  </metadata>
  <g
     id="layer1"
     inkscape:label="Layer 1"
     inkscape:groupmode="layer"
     transform="translate(0,86)">
    <g
       transform="matrix(0.74645516,0.66543572,-0.66543572,0.74645516,262.73331,754.04371)"
       id="g8656">
      <path
         inkscape:connector-curvature="0"
         d="m -663.06993,-519.34878 c 0,0 -5.95,-1.19 -6.9012,3.5688 0,0 -4.7601,0.9525 -3.8076,6.9012 0,0 -1.4424,11.8988 -0.1262,19.99 1.3162,8.0913 6.5512,27.6038 6.7888,32.3638 0,0 -1.19,4.2837 0.2387,5.7112 0,0 0.9512,13.565 -0.2387,23.7975 -1.19,10.2325 -0.2376,24.7488 0.7137,27.3663 0,0 0.4763,5.4737 3.3325,6.6637 0,0 -3.3325,6.425 2.3787,7.615 0,0 4.7601,5.9488 7.6151,6.6625 2.8562,0.7138 6.6637,4.5213 8.3299,4.2838 1.665,-0.2375 11.1838,1.4275 15.9438,-4.5213 4.7587,-5.95 7.8525,-7.8537 7.615,-10.4712 -0.2375,-2.6175 0,-4.5213 1.19,-5.7113 1.19,-1.19 1.665,-4.9975 0,-7.8525 0,0 3.3312,-1.19 3.3312,-7.615 0,-6.425 2.8663,-12.3387 2.94,-19.5137 0.093,-9.0425 -2.0487,-17.2963 -3.1774,-24.7488 -1.625,-10.715 -14.5163,-44.025 -24.2738,-55.21 -9.7563,-11.1837 -14.2775,-7.8525 -14.2775,-7.8525 0,0 -4.0462,-4.5212 -7.615,-1.4275"
         style="fill:#3a5421;fill-opacity:1;fill-rule:nonzero;stroke:none"
         id="path12055" />
      <g
         transform="matrix(0.125,0,0,-0.125,-1332.6949,177.36876)"
         id="g12057">
        <g
           id="g12059"
           clip-path="url(#clipPath12061)">
          <path
             inkscape:connector-curvature="0"
             d="m 5270.52,5373.85 c 0,0 124.41,-307.4 107.42,-401.35 -10.88,-60.13 -20.73,-229.11 0,-293.31 20.72,-64.19 37.99,-104.92 37.99,-104.92 0,0 61.81,-39.14 106.27,32.04 0,0 19.47,-49.24 68.22,-42.78 48.75,6.47 76.84,14.1 86.55,42.78 9.7,28.69 -5.3,95.19 9.7,109.44 15,14.25 44.63,10.7 54.51,70 9.88,59.3 65.49,-123.99 22.99,-218.62 -42.5,-94.63 -51.35,-284.63 -209.42,-232.13 -158.08,52.5 -211.28,86.58 -250.93,174.54 -39.65,87.96 -87.15,280.38 -87.15,340.42 0,60.04 53.85,523.89 53.85,523.89"
             style="fill:#2d3e1a;fill-opacity:1;fill-rule:nonzero;stroke:none"
             id="path12065" />
        </g>
      </g>
      <path
         inkscape:connector-curvature="0"
         d="m -663.78363,-516.96998 c 0,0 -2.3801,4.76 -2.6188,7.615 -0.2375,2.8562 0,9.0437 0,9.0437 0,0 -3.0938,-15.945 2.6188,-16.6587"
         style="fill:#62843f;fill-opacity:1;fill-rule:nonzero;stroke:none"
         id="path12067" />
      <path
         inkscape:connector-curvature="0"
         d="m -655.69373,-515.54128 c 0,0 3.8076,3.5688 3.8076,4.9975 0,1.4275 -4.045,-2.6187 -3.8076,-4.9975"
         style="fill:#62843f;fill-opacity:1;fill-rule:nonzero;stroke:none"
         id="path12069" />
      <path
         inkscape:connector-curvature="0"
         d="m -660.45243,-418.21128 c 0,0.7138 1.4075,15.705 4.7487,23.7963 3.3425,8.0912 7.15,11.185 7.15,11.185 0,0 -5.95,-3.57 -8.5675,-10.9463 -2.6175,-7.3775 -3.3312,-24.035 -3.3312,-24.035"
         style="fill:#62843f;fill-opacity:1;fill-rule:nonzero;stroke:none"
         id="path12071" />
      <path
         inkscape:connector-curvature="0"
         d="m -644.09123,-386.32378 c 0,0 1.2488,-10.9462 1.01,-14.3975 0,0 2.0251,9.8763 -1.01,14.3975"
         style="fill:#62843f;fill-opacity:1;fill-rule:nonzero;stroke:none"
         id="path12073" />
      <path
         inkscape:connector-curvature="0"
         d="m -642.41993,-372.99748 c -3.235,0.5312 -6.2387,-4.9975 0,-5.9488 6.24,-0.9525 11.6087,4.045 0,5.9488"
         style="fill:#86bd4a;fill-opacity:1;fill-rule:nonzero;stroke:none"
         id="path12075" />
      <path
         inkscape:connector-curvature="0"
         d="m -651.01363,-498.24878 c 1.5874,-0.635 5.0774,3.6488 2.46,4.9175 -2.6188,1.2688 -4.0463,-4.2837 -2.46,-4.9175"
         style="fill:#62843f;fill-opacity:1;fill-rule:nonzero;stroke:none"
         id="path12077" />
      <path
         inkscape:connector-curvature="0"
         d="m -655.70373,-472.86628 c -1.4687,-0.3275 -2.6075,5.87 -1.3375,6.1875 1.2688,0.3175 3.4701,-5.7112 1.3375,-6.1875"
         style="fill:#62843f;fill-opacity:1;fill-rule:nonzero;stroke:none"
         id="path12079" />
      <path
         inkscape:connector-curvature="0"
         d="m -634.83123,-484.28878 c 1.1101,-0.6337 3.3313,2.5388 1.745,3.3325 -1.5862,0.7925 -2.855,-2.6975 -1.745,-3.3325"
         style="fill:#62843f;fill-opacity:1;fill-rule:nonzero;stroke:none"
         id="path12081" />
      <path
         inkscape:connector-curvature="0"
         d="m -652.75873,-426.54128 c -1.745,0.4763 -1.4275,3.9663 0,3.3325 1.4288,-0.635 1.7451,-3.8075 0,-3.3325"
         style="fill:#62843f;fill-opacity:1;fill-rule:nonzero;stroke:none"
         id="path12083" />
      <path
         inkscape:connector-curvature="0"
         d="m -630.07123,-431.14128 c -1.4287,0.4763 -0.4762,4.8213 0.7925,4.5525 1.2688,-0.2687 0.635,-5.0287 -0.7925,-4.5525"
         style="fill:#62843f;fill-opacity:1;fill-rule:nonzero;stroke:none"
         id="path12085" />
      <path
         inkscape:connector-curvature="0"
         d="m -635.58123,-416.70498 c -1.9475,0 -0.9087,4.4425 0,4.6012 0.9088,0.1588 1.9463,-4.6012 0,-4.6012"
         style="fill:#62843f;fill-opacity:1;fill-rule:nonzero;stroke:none"
         id="path12087" />
      <path
         inkscape:connector-curvature="0"
         d="m -663.78363,-495.72748 c -1.9838,0.175 -1.1901,3.8237 0,3.9825 1.1887,0.1587 1.9824,-4.1588 0,-3.9825"
         style="fill:#62843f;fill-opacity:1;fill-rule:nonzero;stroke:none"
         id="path12089" />
      <path
         inkscape:connector-curvature="0"
         d="m -672.35123,-508.63998 c 0,0 -1.19,14.04 0,19.275 1.19,5.235 9.9175,27.01 9.7751,43.7862 0,0 -3.4888,-22.8175 -7.6401,-34.3737 -1.1537,-3.2088 -3.7425,-8.98 -3.6637,-14.41 0.086,-5.9488 1.5287,-14.2775 1.5287,-14.2775"
         style="fill:#3a5421;fill-opacity:1;fill-rule:nonzero;stroke:none"
         id="path12091" />
      <path
         inkscape:connector-curvature="0"
         d="m -631.61493,-457.35128 c 2.1775,2.0363 -2.4812,6.4038 -6.7363,7.1125 -4.2562,0.7075 -9.5112,-0.3837 -8.5137,-3.57 1.1162,-3.5625 3.6512,0.6325 7.9075,-0.075 4.255,-0.7087 4.9038,-5.7462 7.3425,-3.4675"
         style="fill:#ffffff;fill-opacity:1;fill-rule:nonzero;stroke:none"
         id="path12093" />
      <path
         inkscape:connector-curvature="0"
         d="m -631.61493,-457.35128 c 2.1775,2.0363 -2.4812,6.4038 -6.7363,7.1125 -4.2562,0.7075 -9.5112,-0.3837 -8.5137,-3.57 1.1162,-3.5625 3.6512,0.6325 7.9075,-0.075 4.255,-0.7087 4.9038,-5.7462 7.3425,-3.4675 z"
         style="fill:none;stroke:#171717;stroke-width:1.25;stroke-linecap:butt;stroke-linejoin:miter;stroke-miterlimit:10;stroke-opacity:1;stroke-dasharray:none"
         id="path12095" />
      <path
         inkscape:connector-curvature="0"
         d="m -643.37993,-454.62878 0,4.5963"
         style="fill:none;stroke:#171717;stroke-width:1.25;stroke-linecap:butt;stroke-linejoin:miter;stroke-miterlimit:10;stroke-opacity:1;stroke-dasharray:none"
         id="path12097" />
      <path
         inkscape:connector-curvature="0"
         d="m -639.35373,-453.83998 1.0025,3.6012"
         style="fill:none;stroke:#171717;stroke-width:1.25;stroke-linecap:butt;stroke-linejoin:miter;stroke-miterlimit:10;stroke-opacity:1;stroke-dasharray:none"
         id="path12099" />
      <path
         inkscape:connector-curvature="0"
         d="m -635.25123,-456.05498 2.2801,3.1312"
         style="fill:none;stroke:#171717;stroke-width:1.25;stroke-linecap:butt;stroke-linejoin:miter;stroke-miterlimit:10;stroke-opacity:1;stroke-dasharray:none"
         id="path12101" />
      <path
         inkscape:connector-curvature="0"
         d="m -634.86123,-465.24128 c 0.2763,1.1788 -0.2,2.2988 -1.0612,2.5 -0.8625,0.2013 -1.7838,-0.5912 -2.06,-1.7712 -0.275,-1.18 0.2,-2.2988 1.0625,-2.5 0.8612,-0.2013 1.7838,0.5912 2.0588,1.7712"
         style="fill:#171717;fill-opacity:1;fill-rule:nonzero;stroke:none"
         id="path12103" />
      <path
         inkscape:connector-curvature="0"
         d="m -645.42743,-462.57498 c 0.2762,1.18 -0.2,2.2987 -1.0612,2.5 -0.8626,0.2012 -1.785,-0.5913 -2.06,-1.7713 -0.275,-1.1787 0.1999,-2.2987 1.0625,-2.5 0.8612,-0.2012 1.7837,0.5925 2.0587,1.7713"
         style="fill:#171717;fill-opacity:1;fill-rule:nonzero;stroke:none"
         id="path12105" />
    </g>
  </g>
</svg>
