<?xml version="1.0" encoding="UTF-8" standalone="no"?>
<!-- Created with Inkscape (http://www.inkscape.org/) -->

<svg
   xmlns:dc="http://purl.org/dc/elements/1.1/"
   xmlns:cc="http://creativecommons.org/ns#"
   xmlns:rdf="http://www.w3.org/1999/02/22-rdf-syntax-ns#"
   xmlns:svg="http://www.w3.org/2000/svg"
   xmlns="http://www.w3.org/2000/svg"
   xmlns:sodipodi="http://sodipodi.sourceforge.net/DTD/sodipodi-0.dtd"
   xmlns:inkscape="http://www.inkscape.org/namespaces/inkscape"
   width="64px"
   height="64px"
   id="svg5689"
   version="1.1"
   inkscape:version="0.48.4 r9939"
   sodipodi:docname="friends.svg">
  <defs
     id="defs5691" />
  <sodipodi:namedview
     id="base"
     pagecolor="#ffffff"
     bordercolor="#666666"
     borderopacity="1.0"
     inkscape:pageopacity="0.0"
     inkscape:pageshadow="2"
     inkscape:zoom="1.9445436"
     inkscape:cx="-41.450242"
     inkscape:cy="45.37442"
     inkscape:current-layer="layer1"
     showgrid="true"
     inkscape:document-units="px"
     inkscape:grid-bbox="true"
     inkscape:window-width="1280"
     inkscape:window-height="748"
     inkscape:window-x="0"
     inkscape:window-y="0"
     inkscape:window-maximized="1" />
  <metadata
     id="metadata5694">
    <rdf:RDF>
      <cc:Work
         rdf:about="">
        <dc:format>image/svg+xml</dc:format>
        <dc:type
           rdf:resource="http://purl.org/dc/dcmitype/StillImage" />
        <dc:title></dc:title>
      </cc:Work>
    </rdf:RDF>
  </metadata>
  <g
     id="layer1"
     inkscape:label="Layer 1"
     inkscape:groupmode="layer">
    <path
       inkscape:connector-curvature="0"
       d="M 33.421708,21.008048 43.102693,31.458749 59.542413,16.225958 60.060384,4.4538751 48.283483,4.9694099 33.421708,21.008048 z m -12.639392,13.640339 -6.257625,6.753946 -4.815811,-4.818219 -2.9836841,2.983684 6.6997371,6.704527 -9.7135156,9.715924 4.8085571,4.810993 9.7159245,-9.715924 6.706963,6.698519 2.981248,-2.987283 -4.815783,-4.808585 7.109263,-6.587693 -9.435274,-8.749889 z M 57.049014,39.572615 54.054477,36.59134 49.243512,41.411968 15.48231,4.9670012 3.7077906,4.4586924 4.2281704,16.230776 40.661066,49.988378 l -4.815811,4.818219 2.978867,2.981248 6.706936,-6.702118 9.713515,9.720741 4.815811,-4.820628 -9.713516,-9.711107 6.702146,-6.702118 z"
       id="path25880-0"
       style="fill:#808080;fill-opacity:1" />
  </g>
</svg>
