<?xml version="1.0" encoding="UTF-8" standalone="no"?>
<!-- Created with Inkscape (http://www.inkscape.org/) -->

<svg
   xmlns:dc="http://purl.org/dc/elements/1.1/"
   xmlns:cc="http://creativecommons.org/ns#"
   xmlns:rdf="http://www.w3.org/1999/02/22-rdf-syntax-ns#"
   xmlns:svg="http://www.w3.org/2000/svg"
   xmlns="http://www.w3.org/2000/svg"
   xmlns:sodipodi="http://sodipodi.sourceforge.net/DTD/sodipodi-0.dtd"
   xmlns:inkscape="http://www.inkscape.org/namespaces/inkscape"
   width="150"
   height="150"
   id="svg7496"
   version="1.1"
   inkscape:version="0.48.4 r9939"
   sodipodi:docname="navet.svg">
  <defs
     id="defs7498">
    <clipPath
       id="clipPath11459"
       clipPathUnits="userSpaceOnUse">
      <path
         id="path11461"
         d="m 850.859,6831.69 c 0,0 -187.066,-1.97 -265.832,-137.84 -78.761,-135.87 -106.332,-393.82 92.551,-484.4 198.883,-90.58 226.449,-66.96 226.449,-66.96 0,0 -21.66,-49.22 0,-86.64 21.661,-37.41 47.258,-179.19 112.243,-200.85 64.98,-21.66 82.7,19.69 84.67,31.51 1.97,11.81 -33.47,-5.91 -49.23,-1.97 -15.75,3.94 -25.6,43.32 -37.41,68.92 -11.82,25.6 -21.663,47.26 -13.79,70.89 7.88,23.63 49.23,84.67 45.29,102.39 0,0 269.78,66.95 326.88,194.95 57.1,127.99 66.95,295.36 -27.57,391.85 -94.52,96.49 -218.57,137.84 -277.64,135.87 0,0 15.75,39.38 27.56,53.17 0,0 -76.79,-23.63 -102.393,-49.23 0,0 -5.907,39.38 -1.969,61.04 0,0 -68.918,-39.38 -68.918,-74.82 0,0 -63.012,78.76 -131.934,53.16 0,0 51.2,-33.47 61.043,-61.04 z"
         inkscape:connector-curvature="0" />
    </clipPath>
    <clipPath
       id="clipPath11797"
       clipPathUnits="userSpaceOnUse">
      <path
         id="path11799"
         d="m 2281.39,7271.13 c 0,0 29.48,32.66 57.68,43.52 28.2,10.87 17.33,55.36 97.76,52.68 80.42,-2.69 48.04,-78.76 48.04,-78.76 0,0 44.96,18.84 99.53,5.07 54.57,-13.76 65.44,-64.46 43.7,-116.27 -21.74,-51.82 -71.21,-140.02 -160.59,-127.44 -89.37,12.59 -206.79,158.11 -186.12,221.2 z"
         inkscape:connector-curvature="0" />
    </clipPath>
    <clipPath
       id="clipPath11811"
       clipPathUnits="userSpaceOnUse">
      <path
         id="path11813"
         d="m 2467.51,7049.93 c 0,0 19.31,95.19 73.65,101.71 54.34,6.52 89.11,32.6 86.94,69.55 -2.17,36.95 2.46,67.38 -53.11,73.9 0,0 -9.92,8.7 20.51,21.74 30.43,13.04 71.38,22 94.34,-3.41 22.95,-25.41 62.15,-67.81 49.11,-114.8 -13.04,-46.98 -119.33,-119.69 -163.96,-148.69 -44.63,-28.99 -78.75,-99.24 -107.48,0 z"
         inkscape:connector-curvature="0" />
    </clipPath>
    <clipPath
       id="clipPath11825"
       clipPathUnits="userSpaceOnUse">
      <path
         id="path11827"
         d="m 2467.51,6783.07 c 0,0 67.13,155.56 45.39,246.85 -21.73,91.29 -65.21,119.54 -158.67,171.71 -93.46,52.16 -150.46,126.07 -257.81,0 -107.35,-126.07 -20.41,-219.53 38.28,-278.22 58.69,-58.69 220.05,-152.45 332.81,-140.34 z"
         inkscape:connector-curvature="0" />
    </clipPath>
    <clipPath
       id="clipPath11843"
       clipPathUnits="userSpaceOnUse">
      <path
         id="path11845"
         d="m 2793.29,7198.62 c 0,0 23.91,-131.75 63.04,-188.26 39.12,-56.52 139.1,-343.43 0,-462.98 -139.11,-119.54 -354.74,-160.75 -433.19,-143.45 -78.45,17.3 -26.52,365.23 13.15,473.87 39.66,108.64 217.89,296.08 357,320.82 z"
         inkscape:connector-curvature="0" />
    </clipPath>
    <clipPath
       id="clipPath11859"
       clipPathUnits="userSpaceOnUse">
      <path
         id="path11861"
         d="m 2384.66,6393.06 c 0,0 65.21,-21.74 128.24,32.6 63.03,54.34 93.46,123.9 93.46,178.24 0,54.34 -32.6,215.18 -110.85,267.35 -78.25,52.16 -443.41,239.09 -473.84,289.08 -30.43,49.99 -45.64,-21.74 -56.51,-65.2 -10.87,-43.48 -37.59,-164.69 -67.7,-218.2 -30.11,-53.5 -85.09,-129.58 0,-251.3 85.09,-121.72 263.32,-234.74 487.2,-232.57 z"
         inkscape:connector-curvature="0" />
    </clipPath>
  </defs>
  <sodipodi:namedview
     id="base"
     pagecolor="#ffffff"
     bordercolor="#666666"
     borderopacity="1.0"
     inkscape:pageopacity="0.0"
     inkscape:pageshadow="2"
     inkscape:zoom="1.9445436"
     inkscape:cx="27.293245"
     inkscape:cy="81.981215"
     inkscape:current-layer="layer1"
     showgrid="true"
     inkscape:document-units="px"
     inkscape:grid-bbox="true"
     inkscape:window-width="1280"
     inkscape:window-height="748"
     inkscape:window-x="0"
     inkscape:window-y="0"
     inkscape:window-maximized="1" />
  <metadata
     id="metadata7501">
    <rdf:RDF>
      <cc:Work
         rdf:about="">
        <dc:format>image/svg+xml</dc:format>
        <dc:type
           rdf:resource="http://purl.org/dc/dcmitype/StillImage" />
        <dc:title></dc:title>
      </cc:Work>
    </rdf:RDF>
  </metadata>
  <g
     id="layer1"
     inkscape:label="Layer 1"
     inkscape:groupmode="layer"
     transform="translate(0,86)">
    <g
       id="g7901">
      <path
         inkscape:connector-curvature="0"
         d="m 60.734062,-58.126109 c 0,0 3.685,-4.0825 7.21,-5.44 3.525,-1.3588 2.1663,-6.92 12.22,-6.585 10.0525,0.3362 6.005,9.845 6.005,9.845 0,0 5.62,-2.355 12.4413,-0.6338 6.821298,1.72 8.179998,8.0575 5.462498,14.5338 -2.7175,6.4775 -8.901298,17.5025 -20.073798,15.93 -11.1712,-1.5738 -25.8487,-19.7638 -23.265,-27.65"
         style="fill:#54bf36;fill-opacity:1;fill-rule:nonzero;stroke:none"
         id="path11791" />
      <g
         transform="matrix(0.125,0,0,-0.125,-224.43964,850.76516)"
         id="g11793">
        <g
           id="g11795"
           clip-path="url(#clipPath11797)">
          <path
             inkscape:connector-curvature="0"
             d="m 2352.47,7324.75 c 0,0 -23.92,-54.66 0,-86.8 23.92,-32.15 111.3,-74.91 147.83,-77.54 36.53,-2.64 138.29,29.02 113.03,124.2 0,0 36.01,-37.15 41.75,-58.25 5.74,-21.11 29.88,-102.89 0,-139.82 -29.88,-36.94 -115.7,-131.91 -149.3,-121.36 -33.59,10.55 -212.05,207.85 -224.39,272.77 -12.34,64.92 -7.75,80.99 71.08,86.8"
             style="fill:#49b239;fill-opacity:1;fill-rule:nonzero;stroke:none"
             id="path11801" />
        </g>
      </g>
      <path
         inkscape:connector-curvature="0"
         d="m 85.054162,-58.126109 c 0,0 -2.1738,6.9937 3.5324,9.0637 0,0 -9.5099,-0.3625 -3.5324,-9.0637"
         style="fill:#318136;fill-opacity:1;fill-rule:nonzero;stroke:none"
         id="path11803" />
      <path
         inkscape:connector-curvature="0"
         d="m 83.999062,-30.476109 c 0,0 2.4138,-11.8988 9.2063,-12.7138 6.7925,-0.815 11.138698,-4.075 10.867498,-8.6937 -0.2713,-4.6188 0.3075,-8.4225 -6.638698,-9.2375 0,0 -1.2401,-1.0875 2.5637,-2.7175 3.803698,-1.63 8.922468,-2.75 11.792468,0.4262 2.8688,3.1763 7.7688,8.4763 6.1388,14.35 -1.6301,5.8725 -14.91627,14.9613 -20.494968,18.5863 -5.5788,3.6237 -9.8438,12.405 -13.435,0"
         style="fill:#54bf36;fill-opacity:1;fill-rule:nonzero;stroke:none"
         id="path11805" />
      <g
         transform="matrix(0.125,0,0,-0.125,-224.43964,850.76516)"
         id="g11807">
        <g
           id="g11809"
           clip-path="url(#clipPath11811)">
          <path
             inkscape:connector-curvature="0"
             d="m 2513.95,7024.95 c 0,0 -0.87,42.35 37.39,67.14 38.25,24.79 129.26,72.2 139.82,106.53 10.55,34.33 2.5,98.27 -15.24,120.38 -17.74,22.12 24.99,12.35 65.62,-24.32 40.63,-36.66 60.42,-138.23 -13.45,-187.04 -73.87,-48.8 -175.11,-73.57 -191.1,-110.65 -15.99,-37.08 -29.39,-1.72 -23.04,27.96"
             style="fill:#49b239;fill-opacity:1;fill-rule:nonzero;stroke:none"
             id="path11815" />
        </g>
      </g>
      <path
         inkscape:connector-curvature="0"
         d="m 88.617862,-40.713609 c 0,0 0.8862,-3.0475 6.05,-3.4675 5.1638,-0.42 9.362498,-4.1988 9.254998,-7.2988 -0.1075,-3.1012 1.0437,-7.53 -6.288798,-9.5437 0,0 -1.8862,-3.3525 0,-4.09 1.8851,-0.7375 4.541298,3.4812 4.541298,3.4812 0,0 6.55367,0.565 5.9375,3.5438 0,0 5.53247,1.6937 0.31247,6.6125 0,0 -2.39627,7.6562 -9.549968,8.125 0,0 -7.5662,0.2762 -10.2575,2.6375"
         style="fill:#7ecd4a;fill-opacity:1;fill-rule:nonzero;stroke:none"
         id="path11817" />
      <path
         inkscape:connector-curvature="0"
         d="m 83.999062,2.8814205 c 0,0 8.3913,-19.4450295 5.6738,-30.8563295 -2.7162,-11.4112 -8.1513,-14.9425 -19.8338,-21.4637 -11.6825,-6.52 -18.8075,-15.7588 -32.2262,0 -13.4188,15.7587 -2.5513,27.4412 4.785,34.7775 7.3362,7.3362295 27.5062,19.0562295 41.6012,17.5425295"
         style="fill:#54bf36;fill-opacity:1;fill-rule:nonzero;stroke:none"
         id="path11819" />
      <g
         transform="matrix(0.125,0,0,-0.125,-224.43964,850.76516)"
         id="g11821">
        <g
           id="g11823"
           clip-path="url(#clipPath11825)">
          <path
             inkscape:connector-curvature="0"
             d="m 2096.42,7201.63 c 0,0 185.56,-177.83 285.94,-195.93 100.38,-18.09 121.85,54.11 121.85,54.11 0,0 17.94,-4.13 32.78,-57.02 14.83,-52.89 73.75,-191.12 17.66,-203.4 -56.08,-12.28 -449.16,144.6 -475.54,252.15 -26.38,107.55 17.31,150.09 17.31,150.09"
             style="fill:#49b239;fill-opacity:1;fill-rule:nonzero;stroke:none"
             id="path11829" />
          <path
             inkscape:connector-curvature="0"
             d="m 2179.85,7270.31 c 0,0 -24.24,-20.15 15.34,-81.52 39.57,-61.36 266.53,-61.57 303.43,-123.46 36.89,-61.9 5.59,-5.52 5.59,-5.52 0,0 -50.75,75.79 -121.85,106 -71.1,30.21 -202.51,104.5 -202.51,104.5"
             style="fill:#49b239;fill-opacity:1;fill-rule:nonzero;stroke:none"
             id="path11831" />
        </g>
      </g>
      <path
         inkscape:connector-curvature="0"
         d="m 54.210362,-70.087409 c -5.8225,-0.67 -11.8125,4.0763 -5.2913,9.2375 0,0 -4.8587,7.8788 7.7588,13.0413 12.6175,5.1625 30.0063,6.7925 32.995,19.8337 0,0 1.0875,-10.0525 -2.9887,-13.0412 -4.0751,-2.9888 -15.2151,-9.3513 -20.105,-12.9625 -4.8913,-3.6113 -0.5576,-14.75 -12.3688,-16.1088"
         style="fill:#7ecd4a;fill-opacity:1;fill-rule:nonzero;stroke:none"
         id="path11833" />
      <path
         inkscape:connector-curvature="0"
         d="m 124.72163,-49.062409 c 0,0 2.9887,16.4688 7.8799,23.5325 4.8901,7.065 17.3875,42.92883 0,57.87253 -17.3887,14.9425 -44.342468,20.0938 -54.148668,17.9313 -9.8063,-2.1625 -3.315,-45.6538005 1.6438,-59.2338005 4.9575,-13.5800295 27.236198,-37.0100295 44.624968,-40.1025295"
         style="fill:#54bf36;fill-opacity:1;fill-rule:nonzero;stroke:none"
         id="path11837" />
      <g
         transform="matrix(0.125,0,0,-0.125,-224.43964,850.76516)"
         id="g11839">
        <g
           id="g11841"
           clip-path="url(#clipPath11843)">
          <path
             inkscape:connector-curvature="0"
             d="m 2606.36,6541.17 c 0,0 319.5,25.99 303.72,329.87 0,0 52.81,-57.48 52.81,-119.51 0,-62.03 23.76,-218.42 -197.86,-297.82 -221.63,-79.39 -319.71,-82.09 -341.89,-49.78 -22.18,32.3 183.22,137.24 183.22,137.24"
             style="fill:#49b239;fill-opacity:1;fill-rule:nonzero;stroke:none"
             id="path11847" />
          <path
             inkscape:connector-curvature="0"
             d="m 2517.23,6878.69 c 0,0 80.71,121.36 151.06,127.01 70.35,5.65 110.81,19.72 121.36,33.79 0,0 38.69,1.76 47.48,35.17 8.8,33.42 19.35,66.47 -22.86,102.71 -42.21,36.24 -96.71,-69.62 -135.42,-85.28 -38.7,-15.66 -180.77,-119.18 -161.62,-213.4"
             style="fill:#49b239;fill-opacity:1;fill-rule:nonzero;stroke:none"
             id="path11849" />
        </g>
      </g>
      <path
         inkscape:connector-curvature="0"
         d="m 86.956662,-17.106109 c 0,0 2.4799,-13.3138 10.4775,-18.2038 7.997498,-4.8912 18.049868,-7.88 17.506168,-15.7587 -0.5425,-7.8788 -2.1737,-11.6825 -4.89,-13.0413 0,0 4.89,-8.9662 12.4975,-2.9887 0,0 7.6075,3.545 5.4337,8.9725 0,0 8.695,0.5362 6.25,6.2425 -2.4462,5.705 -8.4224,8.6937 -8.9662,10.5962 0,0 3.5325,4.6188 -4.3475,8.1513 0,0 -0.925,3.5312 -10.1075,4.075 -9.18247,0.5437 -20.602468,13.2837 -21.006168,22.8075295 -0.4026,9.5237 -5.5651,0.015 -2.8476,-10.8525295"
         style="fill:#7ecd4a;fill-opacity:1;fill-rule:nonzero;stroke:none"
         id="path11851" />
      <path
         inkscape:connector-curvature="0"
         d="m 73.642862,51.632621 c 0,0 8.1512,2.7175 16.03,-4.075 7.8787,-6.7925 11.682498,-15.4875 11.682498,-22.28 0,-6.7925 -4.074998,-26.8975005 -13.856298,-33.4187005 -9.7812,-6.5200295 -55.4262,-29.8863295 -59.23,-36.1350295 -3.8037,-6.2488 -5.705,2.7175 -7.0637,8.15 -1.3587,5.435 -4.6988,20.5862 -8.4625,27.2750295 -3.7637999,6.6875 -10.6362999,16.1975 0,31.4125005 10.6362,15.215 32.915,29.3425 60.9,29.0712"
         style="fill:#54bf36;fill-opacity:1;fill-rule:nonzero;stroke:none"
         id="path11853" />
      <g
         transform="matrix(0.125,0,0,-0.125,-224.43964,850.76516)"
         id="g11855">
        <g
           id="g11857"
           clip-path="url(#clipPath11859)">
          <path
             inkscape:connector-curvature="0"
             d="m 1953.86,7048.72 c 0,0 -31.53,-159.79 -30.97,-223.89 0.57,-64.1 100.82,-278.18 338.25,-320.2 237.43,-42.02 345.22,121.12 345.22,121.12 0,0 51.31,-77.51 -106.06,-240.36 -157.38,-162.85 -459.27,-109.8 -577.41,101.11 -118.15,210.91 -86.36,433.38 30.97,562.22"
             style="fill:#49b239;fill-opacity:1;fill-rule:nonzero;stroke:none"
             id="path11863" />
          <path
             inkscape:connector-curvature="0"
             d="m 1964.79,7099.29 c 0,0 -17.59,-52.77 28.14,-93.22 45.73,-40.45 126.63,-33.41 160.05,-65.07 33.41,-31.66 86.65,-94.49 186.66,-93.86 100.01,0.64 188.41,-14.85 220.72,-65.14 32.31,-50.29 -32.77,79.85 -166.43,136.13 -133.67,56.29 -388.75,268.63 -429.14,181.16"
             style="fill:#49b239;fill-opacity:1;fill-rule:nonzero;stroke:none"
             id="path11865" />
        </g>
      </g>
      <path
         inkscape:connector-curvature="0"
         d="m 38.594062,-50.524909 c -2.1737,-2.1737 -6.7925,-4.0762 -13.3137,-3.2612 -6.52,0.815 -11.1387,4.6187 -8.6938,8.695 2.445,4.075 5.38,5.895 5,7.43 -0.3812,1.535 -0.3812,8.0562 6.955,9.1437 7.335,1.0863 13.585,4.3463 17.6601,7.6075 4.0749,3.26 8.6937,7.8225 15.7587,9.2088 7.0637,1.38753 10.5963,0.57253 16.5725,2.2025295 5.9775,1.63 16.8475,10.38620002 18.4188,14.8562 1.5724,4.47 -0.7576,-8.8787 -6.1913,-12.955 -5.435,-4.0750295 -47.2763,-29.0712295 -51.6225,-34.7775295 -4.3475,-5.705 -0.5438,-8.15 -0.5438,-8.15"
         style="fill:#7ecd4a;fill-opacity:1;fill-rule:nonzero;stroke:none"
         id="path11869" />
      <path
         inkscape:connector-curvature="0"
         d="m 98.272862,9.0189205 c 0,0 5.767498,13.3575005 4.448798,21.9900005 -1.3188,8.6312 -14.623798,17.78 -14.623798,17.78 0,0 11.875,-10.6875 12.663798,-18.6638 0.75,-7.595 -2.488798,-21.1062005 -2.488798,-21.1062005"
         style="fill:#368436;fill-opacity:1;fill-rule:nonzero;stroke:none"
         id="path11871" />
      <path
         inkscape:connector-curvature="0"
         d="m 89.701662,9.0189205 c 0,1.2125005 -0.7188,2.1950005 -1.6038,2.1950005 -0.8863,0 -1.605,-0.9825 -1.605,-2.1950005 0,-1.2125 0.7187,-2.195 1.605,-2.195 0.885,0 1.6038,0.9825 1.6038,2.195"
         style="fill:#171717;fill-opacity:1;fill-rule:nonzero;stroke:none"
         id="path11873" />
      <path
         inkscape:connector-curvature="0"
         d="m 71.222862,9.0189205 c 0,1.2125005 -0.7175,2.1950005 -1.6037,2.1950005 -0.8863,0 -1.6038,-0.9825 -1.6038,-2.1950005 0,-1.2125 0.7175,-2.195 1.6038,-2.195 0.8862,0 1.6037,0.9825 1.6037,2.195"
         style="fill:#171717;fill-opacity:1;fill-rule:nonzero;stroke:none"
         id="path11875" />
      <path
         inkscape:connector-curvature="0"
         d="m 78.409162,23.171421 c -9.2738,0 -11.7188,-5.0525 -11.8176,-5.2675 -0.145,-0.3138 -0.01,-0.685 0.305,-0.83 0.3113,-0.145 0.6813,-0.01 0.8276,0.3025 0.089,0.1862 2.2649,4.545 10.685,4.545 9.8249,0 10.9274,-4.3663 10.9375,-4.4113 0.075,-0.3337 0.4012,-0.5475 0.7412,-0.4762 0.3337,0.071 0.55,0.395 0.4825,0.7312 -0.045,0.22 -1.2138,5.4063 -12.1612,5.4063"
         style="fill:#28682f;fill-opacity:1;fill-rule:nonzero;stroke:none"
         id="path11877" />
      <path
         inkscape:connector-curvature="0"
         d="m 91.376562,18.423921 c -0.91,0 -1.6299,-0.2488 -2.1512,-0.7463 -1.0575,-1.0075 -0.7988,-2.6075 -0.7875,-2.675 0.057,-0.3387 0.3863,-0.565 0.7213,-0.5112 0.3387,0.058 0.5674,0.38 0.5112,0.7187 0,0.024 -0.1512,1.0263 0.4212,1.5675 0.5638,0.5325 1.6488,0.4325 2.4575,0.2538 0.335,-0.074 0.67,0.1387 0.745,0.4762 0.074,0.3363 -0.14,0.67 -0.4762,0.7438 -0.5238,0.1162 -1.0038,0.1725 -1.4413,0.1725"
         style="fill:#28682f;fill-opacity:1;fill-rule:nonzero;stroke:none"
         id="path11879" />
      <path
         inkscape:connector-curvature="0"
         d="m 64.687862,18.851421 c -0.3125,0 -0.5813,-0.235 -0.6188,-0.5525 -0.04,-0.3425 0.2063,-0.6525 0.5476,-0.6925 0.015,0 1.4837,-0.1863 2.1725,-1.12 0.3325,-0.45 0.4325,-1.0038 0.3062,-1.6925 -0.062,-0.34 0.1625,-0.665 0.5025,-0.7275 0.34,-0.061 0.665,0.1637 0.7263,0.5025 0.19,1.0362 0.01,1.9337 -0.5351,2.6662 -1.0175,1.3713 -2.9487,1.6025 -3.03,1.6125 -0.024,0 -0.048,0 -0.071,0"
         style="fill:#28682f;fill-opacity:1;fill-rule:nonzero;stroke:none"
         id="path11881" />
    </g>
  </g>
</svg>
