<?xml version="1.0" encoding="UTF-8" standalone="no"?>
<!-- Created with Inkscape (http://www.inkscape.org/) -->

<svg
   xmlns:dc="http://purl.org/dc/elements/1.1/"
   xmlns:cc="http://creativecommons.org/ns#"
   xmlns:rdf="http://www.w3.org/1999/02/22-rdf-syntax-ns#"
   xmlns:svg="http://www.w3.org/2000/svg"
   xmlns="http://www.w3.org/2000/svg"
   xmlns:sodipodi="http://sodipodi.sourceforge.net/DTD/sodipodi-0.dtd"
   xmlns:inkscape="http://www.inkscape.org/namespaces/inkscape"
   width="150"
   height="150"
   id="svg7496"
   version="1.1"
   inkscape:version="0.48.4 r9939"
   sodipodi:docname="concombre.svg">
  <defs
     id="defs7498">
    <clipPath
       id="clipPath11459"
       clipPathUnits="userSpaceOnUse">
      <path
         id="path11461"
         d="m 850.859,6831.69 c 0,0 -187.066,-1.97 -265.832,-137.84 -78.761,-135.87 -106.332,-393.82 92.551,-484.4 198.883,-90.58 226.449,-66.96 226.449,-66.96 0,0 -21.66,-49.22 0,-86.64 21.661,-37.41 47.258,-179.19 112.243,-200.85 64.98,-21.66 82.7,19.69 84.67,31.51 1.97,11.81 -33.47,-5.91 -49.23,-1.97 -15.75,3.94 -25.6,43.32 -37.41,68.92 -11.82,25.6 -21.663,47.26 -13.79,70.89 7.88,23.63 49.23,84.67 45.29,102.39 0,0 269.78,66.95 326.88,194.95 57.1,127.99 66.95,295.36 -27.57,391.85 -94.52,96.49 -218.57,137.84 -277.64,135.87 0,0 15.75,39.38 27.56,53.17 0,0 -76.79,-23.63 -102.393,-49.23 0,0 -5.907,39.38 -1.969,61.04 0,0 -68.918,-39.38 -68.918,-74.82 0,0 -63.012,78.76 -131.934,53.16 0,0 51.2,-33.47 61.043,-61.04 z"
         inkscape:connector-curvature="0" />
    </clipPath>
    <clipPath
       id="clipPath11797"
       clipPathUnits="userSpaceOnUse">
      <path
         id="path11799"
         d="m 2281.39,7271.13 c 0,0 29.48,32.66 57.68,43.52 28.2,10.87 17.33,55.36 97.76,52.68 80.42,-2.69 48.04,-78.76 48.04,-78.76 0,0 44.96,18.84 99.53,5.07 54.57,-13.76 65.44,-64.46 43.7,-116.27 -21.74,-51.82 -71.21,-140.02 -160.59,-127.44 -89.37,12.59 -206.79,158.11 -186.12,221.2 z"
         inkscape:connector-curvature="0" />
    </clipPath>
    <clipPath
       id="clipPath11811"
       clipPathUnits="userSpaceOnUse">
      <path
         id="path11813"
         d="m 2467.51,7049.93 c 0,0 19.31,95.19 73.65,101.71 54.34,6.52 89.11,32.6 86.94,69.55 -2.17,36.95 2.46,67.38 -53.11,73.9 0,0 -9.92,8.7 20.51,21.74 30.43,13.04 71.38,22 94.34,-3.41 22.95,-25.41 62.15,-67.81 49.11,-114.8 -13.04,-46.98 -119.33,-119.69 -163.96,-148.69 -44.63,-28.99 -78.75,-99.24 -107.48,0 z"
         inkscape:connector-curvature="0" />
    </clipPath>
    <clipPath
       id="clipPath11825"
       clipPathUnits="userSpaceOnUse">
      <path
         id="path11827"
         d="m 2467.51,6783.07 c 0,0 67.13,155.56 45.39,246.85 -21.73,91.29 -65.21,119.54 -158.67,171.71 -93.46,52.16 -150.46,126.07 -257.81,0 -107.35,-126.07 -20.41,-219.53 38.28,-278.22 58.69,-58.69 220.05,-152.45 332.81,-140.34 z"
         inkscape:connector-curvature="0" />
    </clipPath>
    <clipPath
       id="clipPath11843"
       clipPathUnits="userSpaceOnUse">
      <path
         id="path11845"
         d="m 2793.29,7198.62 c 0,0 23.91,-131.75 63.04,-188.26 39.12,-56.52 139.1,-343.43 0,-462.98 -139.11,-119.54 -354.74,-160.75 -433.19,-143.45 -78.45,17.3 -26.52,365.23 13.15,473.87 39.66,108.64 217.89,296.08 357,320.82 z"
         inkscape:connector-curvature="0" />
    </clipPath>
    <clipPath
       id="clipPath11859"
       clipPathUnits="userSpaceOnUse">
      <path
         id="path11861"
         d="m 2384.66,6393.06 c 0,0 65.21,-21.74 128.24,32.6 63.03,54.34 93.46,123.9 93.46,178.24 0,54.34 -32.6,215.18 -110.85,267.35 -78.25,52.16 -443.41,239.09 -473.84,289.08 -30.43,49.99 -45.64,-21.74 -56.51,-65.2 -10.87,-43.48 -37.59,-164.69 -67.7,-218.2 -30.11,-53.5 -85.09,-129.58 0,-251.3 85.09,-121.72 263.32,-234.74 487.2,-232.57 z"
         inkscape:connector-curvature="0" />
    </clipPath>
    <clipPath
       id="clipPath11493"
       clipPathUnits="userSpaceOnUse">
      <path
         id="path11495"
         d="m 4003.03,7499.29 c -169.8,4.36 -332.79,-105.57 -362.63,-190.49 -29.84,-84.92 -94.1,-330.5 -117.05,-381 -22.95,-50.49 -169.84,-234.1 -183.61,-348.86 -13.77,-114.75 34.42,-410.82 403.94,-456.73 369.52,-45.9 599.03,71.15 647.23,289.19 48.2,218.04 -89.51,507.22 -100.99,562.31 -11.47,55.08 71.15,516.4 -286.89,525.58 z"
         inkscape:connector-curvature="0" />
    </clipPath>
    <clipPath
       id="clipPath11565"
       clipPathUnits="userSpaceOnUse">
      <path
         id="path11567"
         d="m 5470.49,6976.77 c -107.65,26.44 -398.48,47.21 -500.46,-234.18 -101.98,-281.39 136.59,-508.95 258.73,-559.01 153.6,-62.95 394.7,-98.2 638.32,37.77 243.62,135.98 288.95,460.81 166.19,602.45 -122.75,141.64 -251.17,228.51 -562.78,152.97 z"
         inkscape:connector-curvature="0" />
    </clipPath>
    <clipPath
       id="clipPath11889"
       clipPathUnits="userSpaceOnUse">
      <path
         id="path11891"
         d="m 7358.51,6565.15 c -1.91,-11.65 -4.42,-23.57 -7.91,-35.55 -22.63,-77.81 -64.54,-5.94 -109.7,-23.7 -45.16,-17.76 -18.64,-74.88 -95.02,-100.19 -76.37,-25.32 -106.85,88.06 -189.34,55.24 -73.74,-29.34 -74.39,34.08 -120.61,32.38 -46.21,-1.69 -56.22,-28.94 -84.26,-61.72 -28.04,-32.78 -92.32,5.1 -134.92,38.19 -27.53,21.38 -32.3,63.5 -32.25,90.71 -15.21,-99.32 25.77,-275.33 160.49,-347.35 153.45,-82.04 190.11,-73.56 190.11,-73.56 0,0 57.04,-88.35 43.61,-118.08 -13.44,-29.74 -65.56,-138.33 -13.81,-192.28 51.75,-53.95 96.66,-14.93 96.66,-14.93 0,0 -69.06,-12.31 -74.86,41.61 -5.81,53.92 14.24,57.89 14.24,57.89 0,0 53.5,-31.24 73.96,-13.2 0,0 -48.46,18.09 -53.35,43.59 -4.9,25.5 -0.1,56.57 6.68,66.13 6.78,9.56 62.05,46.97 41.39,142.06 0,0 176.48,39.37 250.01,131.03 55.11,68.71 62.13,190.21 38.88,281.73 z"
         inkscape:connector-curvature="0" />
    </clipPath>
    <clipPath
       id="clipPath11763"
       clipPathUnits="userSpaceOnUse">
      <path
         id="path11765"
         d="m 925.598,5230.68 c -82.36,-2.22 -420.496,-128.97 -420.684,-442.94 -0.168,-281.56 200.324,-469.65 471.875,-489.68 271.551,-20.03 581.621,194.31 583.171,505.26 1.69,340.56 -378.39,420.69 -438.49,427.36 0,0 28.93,75.68 82.35,117.97 0,0 -55.64,6.68 -93.48,-11.13 0,0 -2.23,55.65 -24.48,120.2 0,0 -91.262,-62.33 -106.844,-84.58 0,0 -51.196,35.61 -84.582,51.19 0,0 42.293,-155.81 31.164,-193.65 z"
         inkscape:connector-curvature="0" />
    </clipPath>
    <clipPath
       id="clipPath11597"
       clipPathUnits="userSpaceOnUse">
      <path
         id="path11599"
         d="m 4172.82,5122.8 c -27.71,-1.85 -61.7,30.85 -64.07,47.46 -2.37,16.61 21.36,80.68 47.46,111.53 26.1,30.85 116.28,90.18 116.28,102.04 0,11.87 -40.34,42.71 -59.33,36.78 -18.98,-5.93 -54.58,-36.78 -54.58,-36.78 0,0 35.6,66.44 47.46,78.31 11.87,11.86 -64.4,49.83 -97.45,47.46 0,0 -113.74,-106.79 -137.47,-168.48 -23.73,-61.7 -23.73,-144.16 -40.35,-156.33 -16.61,-12.16 -73.56,-50.13 -116.27,-61.99 -42.72,-11.87 -154.25,-27.29 -237.3,-77.72 -83.06,-50.42 -161.37,-131.52 -170.86,-200.13 -9.49,-68.61 23.73,-213.36 121.02,-296.42 97.3,-83.06 277.64,-147.13 353.58,-144.75 75.94,2.37 123.4,37.96 123.4,37.96 0,0 80.68,-35.59 144.75,-4.74 0,0 59.33,-23.73 140.01,14.24 80.68,37.96 287.13,189.84 246.79,439 -40.34,249.17 -161.36,261.41 -187.47,263.6 -26.1,2.18 -140,-28.67 -175.6,-31.04 z"
         inkscape:connector-curvature="0" />
    </clipPath>
    <clipPath
       id="clipPath12061"
       clipPathUnits="userSpaceOnUse">
      <path
         id="path12063"
         d="m 5357,5573.74 c 0,0 -47.6,9.52 -55.21,-28.55 0,0 -38.08,-7.62 -30.46,-55.21 0,0 -11.54,-95.19 -1.01,-159.92 10.53,-64.73 52.41,-220.83 54.31,-258.91 0,0 -9.52,-34.27 1.91,-45.69 0,0 7.61,-108.52 -1.91,-190.38 -9.52,-81.86 -1.9,-197.99 5.71,-218.93 0,0 3.81,-43.79 26.66,-53.31 0,0 -26.66,-51.4 19.03,-60.92 0,0 38.08,-47.59 60.92,-53.3 22.85,-5.71 53.31,-36.17 66.64,-34.27 13.32,1.9 89.47,-11.42 127.55,36.17 38.07,47.6 62.82,62.83 60.92,83.77 -1.9,20.94 0,36.17 9.52,45.69 9.52,9.52 13.32,39.98 0,62.82 0,0 26.65,9.52 26.65,60.92 0,51.4 22.93,98.71 23.52,156.11 0.74,72.34 -16.39,138.37 -25.42,197.99 -13,85.72 -116.13,352.2 -194.19,441.68 -78.05,89.47 -114.22,62.82 -114.22,62.82 0,0 -32.37,36.17 -60.92,11.42 z"
         inkscape:connector-curvature="0" />
    </clipPath>
    <clipPath
       id="clipPath11933"
       clipPathUnits="userSpaceOnUse">
      <path
         id="path11935"
         d="m 6632.27,4588.65 c 0,0 -25.37,72.71 20.29,93 0,0 -20.29,43.97 16.91,67.64 0,0 -16.91,50.73 13.53,59.19 0,0 -23.68,32.13 8.45,52.42 0,0 -15.22,45.66 18.6,64.26 0,0 -18.6,52.42 18.6,64.26 0,0 -20.29,39.94 13.53,57.17 0,0 -16.91,42.6 15.22,57.81 0,0 -21.98,37.21 25.37,59.19 0,0 -11.84,33.82 21.98,50.73 0,0 -11.84,42.28 30.44,55.8 0,0 1.69,30.44 28.74,35.52 0,0 -10.14,55.8 45.66,69.33 0,0 -13.53,28.74 49.04,42.27 0,0 -27.05,32.13 -27.05,57.5 l 52.42,-43.97 c 0,0 6.76,23.67 13.53,43.97 0,0 13.52,-45.66 18.6,-49.04 5.07,-3.38 18.6,16.91 32.13,-1.69 0,0 32.12,40.58 42.27,50.73 0,0 -1.69,-45.66 -20.29,-62.57 0,0 38.89,-3.38 50.73,1.69 0,0 -21.98,-20.29 -32.13,-25.36 0,0 33.82,-8.46 11.84,-38.9 0,0 40.58,-25.36 11.83,-59.18 0,0 47.65,-38.9 10.3,-67.64 0,0 21.83,-38.9 -8.61,-64.26 0,0 28.75,-35.51 -1.69,-69.33 0,0 33.82,-30.44 0,-57.5 0,0 35.51,-45.66 -13.52,-84.55 0,0 27.05,-42.27 -13.53,-71.02 0,0 33.82,-32.13 -6.77,-60.88 0,0 23.68,-42.27 -15.22,-65.95 0,0 27.06,-50.73 -28.74,-67.64 0,0 49.04,-81.17 -13.53,-93 0,0 -20.29,-74.41 -79.48,-65.95 0,0 -19.64,-71.03 -60.55,-54.12 0,0 -56.13,-65.95 -95.02,-18.6 0,0 -86.24,-18.6 -101.46,50.73 0,0 -84.55,27.06 -52.42,87.94 z"
         inkscape:connector-curvature="0" />
    </clipPath>
  </defs>
  <sodipodi:namedview
     id="base"
     pagecolor="#ffffff"
     bordercolor="#666666"
     borderopacity="1.0"
     inkscape:pageopacity="0.0"
     inkscape:pageshadow="2"
     inkscape:zoom="1.9445436"
     inkscape:cx="27.293245"
     inkscape:cy="81.981215"
     inkscape:current-layer="layer1"
     showgrid="true"
     inkscape:document-units="px"
     inkscape:grid-bbox="true"
     inkscape:window-width="1280"
     inkscape:window-height="748"
     inkscape:window-x="0"
     inkscape:window-y="0"
     inkscape:window-maximized="1" />
  <metadata
     id="metadata7501">
    <rdf:RDF>
      <cc:Work
         rdf:about="">
        <dc:format>image/svg+xml</dc:format>
        <dc:type
           rdf:resource="http://purl.org/dc/dcmitype/StillImage" />
        <dc:title></dc:title>
      </cc:Work>
    </rdf:RDF>
  </metadata>
  <g
     id="layer1"
     inkscape:label="Layer 1"
     inkscape:groupmode="layer"
     transform="translate(0,86)">
    <g
       id="g8905"
       transform="translate(-9.7709301,-1.028519)">
      <path
         inkscape:connector-curvature="0"
         d="m 46.419798,2.7934209 c 0,0 -12.163997,-43.4191299 13.100377,-71.1171519 0,0 11.415849,39.86317 2.058513,65.5027682 C 52.221263,22.818547 48.959782,18.271048 46.419798,2.7934209"
         style="fill:#65c64e;fill-opacity:1;fill-rule:nonzero;stroke:none"
         id="path11921" />
      <path
         inkscape:connector-curvature="0"
         d="m 53.531629,7.4716018 c 0,0 -6.291702,-7.85997793 -9.040812,-14.2225979 -2.749111,-6.3636829 -8.176503,-16.4691659 -13.603894,-17.9666129 0,0 4.304107,5.988546 4.304107,14.036668 0,8.0469709 -0.374162,26.325681 7.017715,31.440975 7.392939,5.114232 14.772597,-2.057362 11.322972,-13.2884322"
         style="fill:#50bd3c;fill-opacity:1;fill-rule:nonzero;stroke:none"
         id="path11923" />
      <path
         inkscape:connector-curvature="0"
         d="m 91.710439,-6.9379888 c 0,0 11.602931,-11.2853432 25.077301,-15.1876642 0,0 -3.5039,17.8504504 -10.10549,25.6672215 -6.60274,7.8179225 -20.960348,21.5225725 -23.955064,22.2707205 -2.994893,0.74921 -17.03041,-5.052255 8.983253,-32.7502778"
         style="fill:#65c64e;fill-opacity:1;fill-rule:nonzero;stroke:none"
         id="path11925" />
      <path
         inkscape:connector-curvature="0"
         d="m 45.297577,24.12785 c 0,0 -2.807724,-8.04706 2.245594,-10.292566 0,0 -2.245594,-4.8663243 1.87152,-7.4859038 0,0 -1.87152,-5.61447228 1.497358,-6.55076367 0,0 -2.620731,-3.55587073 0.935229,-5.80146493 0,0 -1.684528,-5.0533176 2.058424,-7.1118306 0,0 -2.058424,-5.801465 2.058602,-7.11183 0,0 -2.245594,-4.420269 1.497358,-6.327116 0,0 -1.871521,-4.714659 1.684439,-6.398036 0,0 -2.432587,-4.118088 2.807723,-6.550675 0,0 -1.310365,-3.742952 2.432587,-5.614473 0,0 -1.310365,-4.679243 3.368878,-6.175539 0,0 0.187081,-3.368878 3.180735,-3.931095 0,0 -1.122222,-6.175539 5.053317,-7.672897 0,0 -1.497358,-3.180735 5.427391,-4.678181 0,0 -2.993653,-3.555871 -2.993653,-6.363683 l 5.801465,4.866325 c 0,0 0.748148,-2.619668 1.497358,-4.866325 0,0 1.496295,5.053318 2.058513,5.427391 0.561155,0.374074 2.058504,-1.871431 3.555951,0.187082 0,0 3.554806,-4.4911 4.67809,-5.614473 0,0 -0.186992,5.053318 -2.245505,6.924838 0,0 4.304107,0.374074 5.614384,-0.187081 0,0 -2.432587,2.245594 -3.555871,2.80666 0,0 3.742952,0.936292 1.310365,4.30517 0,0 4.491101,2.806661 1.309214,6.549613 0,0 5.273597,4.305169 1.139929,7.485904 0,0 2.416028,4.30517 -0.952848,7.11183 0,0 3.181886,3.930034 -0.187081,7.672986 0,0 3.742957,3.368878 0,6.363682 0,0 3.930037,5.053318 -1.496295,9.357336 0,0 2.993742,4.678181 -1.497358,7.8599785 0,0 3.742952,3.5559594 -0.749299,6.7377563 0,0 2.620731,4.6781809 -1.684439,7.2989114 0,0 2.994804,5.6143838 -3.180733,7.4859038 0,0 5.42739,8.983263 -1.497349,10.292566 0,0 -2.245594,8.235114 -8.796269,7.298823 0,0 -2.173613,7.861129 -6.701279,5.989608 0,0 -6.212017,7.298912 -10.516124,2.058513 0,0 -9.544417,2.058513 -11.228856,-5.614383 0,0 -9.357336,-2.994805 -5.801465,-9.732561"
         style="fill:#e5eb21;fill-opacity:1;fill-rule:nonzero;stroke:none"
         id="path11927" />
      <g
         transform="matrix(0.11067274,0,0,-0.11067274,-688.71385,531.96632)"
         id="g11929">
        <g
           id="g11931"
           clip-path="url(#clipPath11933)">
          <path
             inkscape:connector-curvature="0"
             d="m 7024.34,5396.57 c 0,0 45.4,-17.33 13.92,-47.43 0,0 36.95,-16.42 4.88,-43.79 0,0 52,-28.73 5.95,-60.2 0,0 34.33,-38.31 -8.2,-60.21 0,0 43.9,-39.57 0,-69.02 0,0 34.32,-54.12 -16.55,-70.2 0,0 33.99,-22.9 -6.14,-55.86 0,0 33.75,-41.63 -23.72,-58.51 0,0 28.91,-38.31 -9.26,-67.5 0,0 46.55,-41.96 -23.18,-82.1 0,0 32.8,-29.37 -23.94,-61.21 0,0 47.12,-46.87 -26.05,-62.85 0,0 16.75,-70.69 -58.05,-62.03 0,0 27.04,-79.81 -67.5,-62.03 0,0 -29.19,-41.96 -96.7,-18.24 0,0 -31.01,-49.26 34.67,-72.98 65.68,-23.71 75.97,-82.09 156.57,-18.24 80.6,63.85 243.62,184.26 256.06,328.39 12.45,144.13 21.57,363.36 21.57,363.36 l 16.42,266.06 -37.99,30.06 c 0,0 -46.4,24.67 -112.76,-15.47"
             style="fill:#c8ca1b;fill-opacity:1;fill-rule:nonzero;stroke:none"
             id="path11937" />
          <path
             inkscape:connector-curvature="0"
             d="m 6720.82,4855.22 c -22.25,7.92 -46.52,-27.24 -15.05,-38.27 31.47,-11.03 53.36,24.62 15.05,38.27"
             style="fill:#f7f795;fill-opacity:1;fill-rule:nonzero;stroke:none"
             id="path11939" />
          <path
             inkscape:connector-curvature="0"
             d="m 6761.87,4888.06 c -22.25,7.92 -46.52,-27.24 -15.05,-38.27 31.47,-11.03 53.36,24.62 15.05,38.27"
             style="fill:#f7f795;fill-opacity:1;fill-rule:nonzero;stroke:none"
             id="path11941" />
          <path
             inkscape:connector-curvature="0"
             d="m 6736.64,4937.55 c -22.25,7.92 -46.53,-27.25 -15.06,-38.27 31.47,-11.03 53.37,24.62 15.06,38.27"
             style="fill:#f7f795;fill-opacity:1;fill-rule:nonzero;stroke:none"
             id="path11943" />
          <path
             inkscape:connector-curvature="0"
             d="m 6906.97,5361.76 c -21.46,7.65 -44.89,-26.29 -14.52,-36.93 30.37,-10.64 51.49,23.76 14.52,36.93"
             style="fill:#f7f795;fill-opacity:1;fill-rule:nonzero;stroke:none"
             id="path11945" />
          <path
             inkscape:connector-curvature="0"
             d="m 6931.32,5321.71 c -21.46,7.64 -44.89,-26.29 -14.52,-36.93 30.37,-10.64 51.49,23.76 14.52,36.93"
             style="fill:#f7f795;fill-opacity:1;fill-rule:nonzero;stroke:none"
             id="path11947" />
          <path
             inkscape:connector-curvature="0"
             d="m 6882.63,5309.39 c -21.47,7.65 -44.9,-26.29 -14.53,-36.93 30.37,-10.64 51.5,23.76 14.53,36.93"
             style="fill:#f7f795;fill-opacity:1;fill-rule:nonzero;stroke:none"
             id="path11949" />
          <path
             inkscape:connector-curvature="0"
             d="m 6916.74,5236.87 c -21.47,7.65 -44.89,-26.29 -14.52,-36.93 30.36,-10.64 51.49,23.77 14.52,36.93"
             style="fill:#f7f795;fill-opacity:1;fill-rule:nonzero;stroke:none"
             id="path11951" />
          <path
             inkscape:connector-curvature="0"
             d="m 6770.23,5091.51 c -21.47,7.65 -44.89,-26.28 -14.53,-36.92 30.37,-10.64 51.5,23.76 14.53,36.92"
             style="fill:#f7f795;fill-opacity:1;fill-rule:nonzero;stroke:none"
             id="path11953" />
          <path
             inkscape:connector-curvature="0"
             d="m 6761.7,5041.25 c -21.47,7.65 -44.9,-26.28 -14.53,-36.92 30.37,-10.64 51.5,23.76 14.53,36.92"
             style="fill:#f7f795;fill-opacity:1;fill-rule:nonzero;stroke:none"
             id="path11955" />
          <path
             inkscape:connector-curvature="0"
             d="m 6711.23,4793.74 c -21.46,7.64 -44.89,-26.29 -14.52,-36.93 30.37,-10.64 51.49,23.76 14.52,36.93"
             style="fill:#f7f795;fill-opacity:1;fill-rule:nonzero;stroke:none"
             id="path11957" />
          <path
             inkscape:connector-curvature="0"
             d="m 6761.7,4813.76 c -21.47,7.65 -44.9,-26.29 -14.53,-36.93 30.37,-10.64 51.5,23.76 14.53,36.93"
             style="fill:#f7f795;fill-opacity:1;fill-rule:nonzero;stroke:none"
             id="path11959" />
          <path
             inkscape:connector-curvature="0"
             d="m 6700.81,4706.85 c -25.45,9.07 -53.23,-31.16 -17.22,-43.78 36,-12.61 61.05,28.17 17.22,43.78"
             style="fill:#f7f795;fill-opacity:1;fill-rule:nonzero;stroke:none"
             id="path11961" />
          <path
             inkscape:connector-curvature="0"
             d="m 6949.05,5410.65 c -21.47,7.64 -44.89,-26.29 -14.52,-36.93 30.36,-10.64 51.49,23.76 14.52,36.93"
             style="fill:#f7f795;fill-opacity:1;fill-rule:nonzero;stroke:none"
             id="path11963" />
        </g>
      </g>
      <path
         inkscape:connector-curvature="0"
         d="m 84.252168,-28.406287 c -0.338659,1.30036 -1.383409,2.153691 -2.334044,1.905784 -0.949572,-0.247906 -1.445386,-1.502935 -1.106727,-2.803384 0.339721,-1.299298 1.384471,-2.152541 2.335195,-1.905785 0.949572,0.247907 1.445386,1.502936 1.105576,2.803385"
         style="fill:#171717;fill-opacity:1;fill-rule:nonzero;stroke:none"
         id="path11965" />
      <path
         inkscape:connector-curvature="0"
         d="m 74.206448,-31.38117 c -0.338659,1.30036 -1.38341,2.153691 -2.334133,1.905784 -0.949572,-0.247907 -1.445386,-1.501873 -1.106727,-2.802234 0.339809,-1.300449 1.38456,-2.153691 2.334132,-1.905784 0.950635,0.247907 1.445386,1.502936 1.106728,2.802234"
         style="fill:#171717;fill-opacity:1;fill-rule:nonzero;stroke:none"
         id="path11967" />
      <path
         inkscape:connector-curvature="0"
         d="m 70.928321,-27.464506 c 0,0 8.992204,2.10836 10.86585,2.832159 0,0 -1.895869,5.443948 -6.887121,4.162358 -4.591856,-1.179772 -3.978729,-6.994517 -3.978729,-6.994517"
         style="fill:#54501a;fill-opacity:1;fill-rule:nonzero;stroke:none"
         id="path11969" />
      <path
         inkscape:connector-curvature="0"
         d="m 65.944683,39.055389 c 0,0 -13.474362,-0.318737 -18.152543,-2.310847 -0.154942,1.717641 -0.154942,1.717641 -0.154942,1.717641 0,0 0.716097,11.073915 1.651238,12.38428 0,0 2.433737,5.801465 14.597734,5.427391 12.165148,-0.375225 15.347033,-2.058513 16.469255,-3.368878 1.123284,-1.310365 2.994804,-11.978155 2.432587,-13.849587 -0.561067,-1.87152 -11.992498,0.229048 -16.843329,0"
         style="fill:#409538;fill-opacity:1;fill-rule:nonzero;stroke:none"
         id="path11971" />
      <path
         inkscape:connector-curvature="0"
         d="m 102.75221,37.790355 c 0,0 -8.983259,7.298912 -18.527666,8.421133 -9.544417,1.123285 -19.089985,-1.122221 -20.025126,-2.432586 -0.936291,-1.310366 10.854783,-20.446834 21.709565,-27.067277 10.85371,-6.619293 27.322887,-7.1804478 27.322887,-7.1804478 0,0 -7.85998,11.0418638 -9.35744,16.2811118 -1.49735,5.24031 0,9.732561 -1.12222,11.978066"
         style="fill:#409538;fill-opacity:1;fill-rule:nonzero;stroke:none"
         id="path11973" />
      <path
         inkscape:connector-curvature="0"
         d="M 117.1619,-5.066557 C 108.57255,-2.6361836 95.827464,5.2260076 89.838919,9.5311772 83.849408,13.835284 73.635376,28.068862 71.348877,31.268455 c 0,0 6.704555,-10.751901 19.378789,-15.669047 12.675394,-4.917234 31.300474,-3.606869 37.288934,-2.498991 5.98969,1.108941 17.77962,8.96892 17.77962,8.96892 0,0 -8.30161,-18.5332579 -11.67049,-21.90107351 C 130.75694,-3.2006146 121.84778,-6.3934789 117.1619,-5.066557"
         style="fill:#5ac247;fill-opacity:1;fill-rule:nonzero;stroke:none"
         id="path11975" />
      <path
         inkscape:connector-curvature="0"
         d="m 65.26409,40.687768 c 0,0 -1.574829,3.520544 1.233957,4.217782 2.808874,0.698301 9.516793,2.02416 14.207104,1.57598 0,0 -13.019541,1.393325 -15.881538,0.03542 -2.860935,-1.359061 0.440477,-5.829177 0.440477,-5.829177"
         style="fill:#317331;fill-opacity:1;fill-rule:nonzero;stroke:none"
         id="path11977" />
      <path
         inkscape:connector-curvature="0"
         d="m 57.274581,42.281455 c 0,0 -1.123284,-11.854113 -7.672897,-16.407189 C 43.051008,21.321189 37.062462,2.5533053 37.062462,-5.3742272 c 0,-7.9274438 -2.619668,-16.7237138 -6.175539,-19.3433818 0,0 5.614384,11.228856 1.871432,25.45251692 C 29.015403,14.958568 30.699842,25.999281 33.506503,30.117458 c 2.807811,4.117026 15.721107,16.5168 19.276978,16.399487 3.555959,-0.117313 4.4911,-4.23549 4.4911,-4.23549"
         style="fill:#409538;fill-opacity:1;fill-rule:nonzero;stroke:none"
         id="path11979" />
      <path
         inkscape:connector-curvature="0"
         d="m 49.072668,44.855703 c 0,0 8.665676,3.989797 7.749305,-5.425178 0,0 -0.649604,6.939181 -7.749305,5.425178"
         style="fill:#317331;fill-opacity:1;fill-rule:nonzero;stroke:none"
         id="path11981" />
    </g>
  </g>
</svg>
