<?xml version="1.0" encoding="UTF-8" standalone="no"?>
<!-- Created with Inkscape (http://www.inkscape.org/) -->

<svg
   xmlns:dc="http://purl.org/dc/elements/1.1/"
   xmlns:cc="http://creativecommons.org/ns#"
   xmlns:rdf="http://www.w3.org/1999/02/22-rdf-syntax-ns#"
   xmlns:svg="http://www.w3.org/2000/svg"
   xmlns="http://www.w3.org/2000/svg"
   xmlns:sodipodi="http://sodipodi.sourceforge.net/DTD/sodipodi-0.dtd"
   xmlns:inkscape="http://www.inkscape.org/namespaces/inkscape"
   width="150"
   height="150"
   id="svg7496"
   version="1.1"
   inkscape:version="0.48.4 r9939"
   sodipodi:docname="radis.svg">
  <defs
     id="defs7498">
    <clipPath
       id="clipPath11459"
       clipPathUnits="userSpaceOnUse">
      <path
         id="path11461"
         d="m 850.859,6831.69 c 0,0 -187.066,-1.97 -265.832,-137.84 -78.761,-135.87 -106.332,-393.82 92.551,-484.4 198.883,-90.58 226.449,-66.96 226.449,-66.96 0,0 -21.66,-49.22 0,-86.64 21.661,-37.41 47.258,-179.19 112.243,-200.85 64.98,-21.66 82.7,19.69 84.67,31.51 1.97,11.81 -33.47,-5.91 -49.23,-1.97 -15.75,3.94 -25.6,43.32 -37.41,68.92 -11.82,25.6 -21.663,47.26 -13.79,70.89 7.88,23.63 49.23,84.67 45.29,102.39 0,0 269.78,66.95 326.88,194.95 57.1,127.99 66.95,295.36 -27.57,391.85 -94.52,96.49 -218.57,137.84 -277.64,135.87 0,0 15.75,39.38 27.56,53.17 0,0 -76.79,-23.63 -102.393,-49.23 0,0 -5.907,39.38 -1.969,61.04 0,0 -68.918,-39.38 -68.918,-74.82 0,0 -63.012,78.76 -131.934,53.16 0,0 51.2,-33.47 61.043,-61.04 z"
         inkscape:connector-curvature="0" />
    </clipPath>
  </defs>
  <sodipodi:namedview
     id="base"
     pagecolor="#ffffff"
     bordercolor="#666666"
     borderopacity="1.0"
     inkscape:pageopacity="0.0"
     inkscape:pageshadow="2"
     inkscape:zoom="0.97227183"
     inkscape:cx="-50.176884"
     inkscape:cy="93.075955"
     inkscape:current-layer="layer1"
     showgrid="true"
     inkscape:document-units="px"
     inkscape:grid-bbox="true"
     inkscape:window-width="1280"
     inkscape:window-height="748"
     inkscape:window-x="0"
     inkscape:window-y="0"
     inkscape:window-maximized="1" />
  <metadata
     id="metadata7501">
    <rdf:RDF>
      <cc:Work
         rdf:about="">
        <dc:format>image/svg+xml</dc:format>
        <dc:type
           rdf:resource="http://purl.org/dc/dcmitype/StillImage" />
        <dc:title></dc:title>
      </cc:Work>
    </rdf:RDF>
  </metadata>
  <g
     id="layer1"
     inkscape:label="Layer 1"
     inkscape:groupmode="layer"
     transform="translate(0,86)">
    <g
       transform="matrix(0.56564775,0.39966802,-0.39966802,0.56564775,492.83252,851.25513)"
       id="g7504">
      <path
         inkscape:connector-curvature="0"
         d="m -1213.5376,-680.77628 c 0,0 -4.4307,-39.13753 -4.6768,-47.75253 -0.2466,-8.6137 15.2607,-43.935 15.2607,-43.935 0,0 9.8275,-2.0425 9.0938,0.11 -2.94,8.6275 -10.9088,27.845 -12.76,43.3375 -1.8504,15.4925 -1.9954,49.71633 -1.9954,49.71633 l -4.9223,-1.4763"
         style="fill:#7a1132;fill-opacity:1;fill-rule:nonzero;stroke:none"
         id="path11443" />
      <path
         inkscape:connector-curvature="0"
         d="m -1223.6295,-689.88381 c -0.3062,-0.7162 -21.1684,-53.1675 -23.8759,-79.2575 0,0 5.415,-3.4462 7.2611,-3.2 0,0 8.4918,29.5363 10.461,39.1363 1.9693,9.6 11.5689,51.73623 13.0454,58.23623 l -1.9693,0.5913 c 0,0 -2.2621,-9.28 -4.9223,-15.50633"
         style="fill:#7a1132;fill-opacity:1;fill-rule:nonzero;stroke:none"
         id="path11445" />
      <path
         inkscape:connector-curvature="0"
         d="m -1216.7379,-671.66998 c 0,0 -1.4316,-17.62383 -7.831,-28.94633 -6.3999,-11.3225 -21.2134,-43.4187 -24.167,-53.265 0,0 -12.3071,2.9538 -15.0146,5.17 0,0 7.3842,21.1675 13.5375,28.06 6.1538,6.8913 25.3121,27.5675 29.7627,47.75133 l 3.7124,1.23"
         style="fill:#a9134d;fill-opacity:1;fill-rule:nonzero;stroke:none"
         id="path11447" />
      <path
         inkscape:connector-curvature="0"
         d="m -1211.3404,-674.37748 c 0,0 2.7251,-50.95133 6.1717,-61.53503 3.445,-10.5838 12.79,-23.875 12.79,-23.875 l 15.9988,9.3525 c 0,0 -15.2513,13.7837 -18.205,21.6612 -2.9538,7.8763 -10.83,54.39633 -10.83,54.39633 l -5.9255,0"
         style="fill:#a9134d;fill-opacity:1;fill-rule:nonzero;stroke:none"
         id="path11449" />
      <path
         inkscape:connector-curvature="0"
         d="m -1218.7072,-674.37748 c 0,0 -8.8607,-38.89003 -11.8143,-54.64253 -2.9536,-15.7538 0,-46.0288 1.2303,-48.49 0,0 15.5069,0.2462 20.1837,1.23 0,0 -5.9073,39.1375 -6.3994,47.0137 -0.4923,7.8763 4.1665,52.67383 4.1665,52.67383 l -7.3668,2.215"
         style="fill:#c0105e;fill-opacity:1;fill-rule:nonzero;stroke:none"
         id="path11451" />
      <path
         inkscape:connector-curvature="0"
         d="m -1226.3375,-676.59248 c 0,0 -23.3833,0.2462 -33.229,17.23 -9.8452,16.9837 -13.2915,49.2275 11.5689,60.55 24.8603,11.3225 28.3061,8.37 28.3061,8.37 0,0 -2.7075,6.1525 0,10.83 2.7076,4.6762 5.9072,22.3987 14.0303,25.1062 8.1225,2.7075 10.3376,-2.4612 10.5838,-3.9387 0.2462,-1.4763 -4.1837,0.7387 -6.1538,0.2462 -1.9687,-0.4925 -3.1999,-5.415 -4.6762,-8.615 -1.4775,-3.2 -2.7079,-5.9075 -1.7238,-8.8612 0.985,-2.9538 6.1538,-10.5838 5.6613,-12.7988 0,0 33.7225,-8.3687 40.86,-24.3687 7.1375,-15.9988 8.3688,-36.92 -3.4462,-48.9813 -11.8151,-12.0612 -27.3213,-17.23 -34.705,-16.9837 0,0 1.9687,-4.9225 3.4449,-6.64633 0,0 -9.5987,2.95383 -12.7991,6.15383 0,0 -0.7384,-4.9225 -0.2461,-7.63003 0,0 -8.6148,4.92253 -8.6148,9.35253 0,0 -7.8764,-9.84503 -16.4917,-6.645 0,0 6.4,4.1837 7.6304,7.63"
         style="fill:#a61444;fill-opacity:1;fill-rule:nonzero;stroke:none"
         id="path11453" />
      <g
         transform="matrix(0.125,0,0,-0.125,-1332.6949,177.36876)"
         id="g11455">
        <g
           id="g11457"
           clip-path="url(#clipPath11459)">
          <path
             inkscape:connector-curvature="0"
             d="m 526.363,6490.81 c 0,0 10.203,-177.28 68.91,-190.75 58.711,-13.47 181.387,6.04 220.145,14.24 38.754,8.2 96.254,10.39 121.254,6.8 25,-3.6 -63.914,-37.17 -129.457,-51.64 -65.543,-14.46 -124.676,-37.99 -67.61,-34.97 57.067,3.01 203.7,47.75 310.385,29.13 106.68,-18.62 211.31,-9.49 255.25,22.19 43.93,31.69 -53.57,18.61 -86.07,22.65 -32.5,4.04 91.39,15.41 130,33.28 38.62,17.88 66.78,95.47 66.78,95.47 0,0 -2.15,-172.47 -110.71,-253.59 -108.57,-81.12 -218.57,-71.29 -218.57,-71.29 0,0 -78.92,-107.33 -50.71,-152.33 28.21,-45 95.71,-45 88.21,-75 -7.5,-30 -54.59,-77.5 -114.79,-52.5 -60.208,25 -92.638,130 -111.423,165 -18.785,35 -14.027,114.83 -14.027,114.83 0,0 -397.875,36.79 -357.567,378.48"
             style="fill:#8c1432;fill-opacity:1;fill-rule:nonzero;stroke:none"
             id="path11463" />
        </g>
      </g>
      <path
         inkscape:connector-curvature="0"
         d="m -1201.4461,-650.68628 c 0,1.325 -0.7851,2.4 -1.7538,2.4 -0.9688,0 -1.7538,-1.075 -1.7538,-2.4 0,-1.325 0.785,-2.4 1.7538,-2.4 0.9687,0 1.7538,1.075 1.7538,2.4"
         style="fill:#040606;fill-opacity:1;fill-rule:nonzero;stroke:none"
         id="path11465" />
      <path
         inkscape:connector-curvature="0"
         d="m -1218.6964,-650.68628 c 0,1.325 -0.7851,2.4 -1.7539,2.4 -0.9682,0 -1.7534,-1.075 -1.7534,-2.4 0,-1.325 0.7852,-2.4 1.7534,-2.4 0.9688,0 1.7539,1.075 1.7539,2.4"
         style="fill:#040606;fill-opacity:1;fill-rule:nonzero;stroke:none"
         id="path11467" />
      <path
         inkscape:connector-curvature="0"
         d="m -1217.5992,-646.19378 c 0,0 9.1069,-0.37 11.0768,0 0,0 -0.455,9.3238 -5.5388,9.3525 -4.6767,0.027 -5.538,-9.3525 -5.538,-9.3525"
         style="fill:#430a21;fill-opacity:1;fill-rule:nonzero;stroke:none"
         id="path11469" />
      <path
         inkscape:connector-curvature="0"
         d="m -1260.6739,-611.91878 c 0,0 7.938,2.03 11.0761,1.1075 3.1388,-0.9225 14.9531,0 18.8302,-1.1075 0,0 -4.9844,2.215 -10.7071,2.215 -5.7231,0 -9.0458,1.6613 -11.4458,1.2925 -2.3999,-0.3687 -6.2764,-1.6612 -7.7534,-3.5075"
         style="fill:#4e0b23;fill-opacity:1;fill-rule:nonzero;stroke:none"
         id="path11471" />
      <path
         inkscape:connector-curvature="0"
         d="m -1249.2287,-602.87378 c 0,0 7.9386,1.6625 14.9532,-1.1075 0,0 -7.9379,4.4313 -14.9532,1.1075"
         style="fill:#4e0b23;fill-opacity:1;fill-rule:nonzero;stroke:none"
         id="path11473" />
      <path
         inkscape:connector-curvature="0"
         d="m -1222.2037,-592.90498 c 0,0 4.6661,-3.8763 10.1425,-3.5075 5.4763,0.37 10.2151,4.8 10.6151,5.17 0.3999,0.3687 -6.2026,-3.3288 -11.4148,-3.6925 -5.2129,-0.365 -9.3428,2.03 -9.3428,2.03"
         style="fill:#4e0b23;fill-opacity:1;fill-rule:nonzero;stroke:none"
         id="path11475" />
      <path
         inkscape:connector-curvature="0"
         d="m -1203.1999,-602.80878 c 0,0 13.5987,-2.1875 20.9837,-2.1875 7.3838,0 15.3225,-2.57 15.8763,-3.3612 -2.2125,1.0525 -7.385,4.3762 -16.2463,4.3762 -8.8612,0 -20.6137,1.1725 -20.6137,1.1725"
         style="fill:#4e0b23;fill-opacity:1;fill-rule:nonzero;stroke:none"
         id="path11477" />
      <path
         inkscape:connector-curvature="0"
         d="m -1263.7505,-648.28628 c 0,0 3.4457,-1.1075 7.6304,-1.6 4.1839,-0.4925 11.3222,-2.215 15.2607,-0.8 0,0 -4.9229,-0.1775 -11.4459,0.9263 -6.5224,1.105 -9.5996,0.735 -11.4452,1.4737"
         style="fill:#4e0b23;fill-opacity:1;fill-rule:nonzero;stroke:none"
         id="path11479" />
      <path
         inkscape:connector-curvature="0"
         d="m -1157.0486,-641.59878 c 0,0 -7.8763,-1.1487 -11.1988,-2.0112 -3.3237,-0.8613 -9.6,-0.7375 -13.785,0 0,0 8.8612,-0.3138 13.415,0.705 4.5537,1.0187 11.5688,1.3062 11.5688,1.3062"
         style="fill:#4e0b23;fill-opacity:1;fill-rule:nonzero;stroke:none"
         id="path11481" />
      <path
         inkscape:connector-curvature="0"
         d="m -1159.6336,-650.68628 c 0,0 -4.3076,-3.3837 -11.1988,-4 0,0 7.63,2.215 11.1988,4"
         style="fill:#4e0b23;fill-opacity:1;fill-rule:nonzero;stroke:none"
         id="path11483" />
      <path
         inkscape:connector-curvature="0"
         d="m -1234.2755,-666.93128 c 0,0 15.3224,0.5538 20.3067,0 4.9844,-0.5537 12.3689,-0.5537 14.0301,1.1075 0,0 -9.5994,-1.4762 -14.5838,0 -4.9844,1.4763 -19.753,-1.1075 -19.753,-1.1075"
         style="fill:#4e0b23;fill-opacity:1;fill-rule:nonzero;stroke:none"
         id="path11485" />
    </g>
  </g>
</svg>
