<?xml version="1.0" encoding="UTF-8" standalone="no"?>
<!-- Created with Inkscape (http://www.inkscape.org/) -->

<svg
   xmlns:dc="http://purl.org/dc/elements/1.1/"
   xmlns:cc="http://creativecommons.org/ns#"
   xmlns:rdf="http://www.w3.org/1999/02/22-rdf-syntax-ns#"
   xmlns:svg="http://www.w3.org/2000/svg"
   xmlns="http://www.w3.org/2000/svg"
   xmlns:sodipodi="http://sodipodi.sourceforge.net/DTD/sodipodi-0.dtd"
   xmlns:inkscape="http://www.inkscape.org/namespaces/inkscape"
   width="150"
   height="150"
   id="svg7496"
   version="1.1"
   inkscape:version="0.48.4 r9939"
   sodipodi:docname="radis.svg">
  <defs
     id="defs7498">
    <clipPath
       id="clipPath11459"
       clipPathUnits="userSpaceOnUse">
      <path
         id="path11461"
         d="m 850.859,6831.69 c 0,0 -187.066,-1.97 -265.832,-137.84 -78.761,-135.87 -106.332,-393.82 92.551,-484.4 198.883,-90.58 226.449,-66.96 226.449,-66.96 0,0 -21.66,-49.22 0,-86.64 21.661,-37.41 47.258,-179.19 112.243,-200.85 64.98,-21.66 82.7,19.69 84.67,31.51 1.97,11.81 -33.47,-5.91 -49.23,-1.97 -15.75,3.94 -25.6,43.32 -37.41,68.92 -11.82,25.6 -21.663,47.26 -13.79,70.89 7.88,23.63 49.23,84.67 45.29,102.39 0,0 269.78,66.95 326.88,194.95 57.1,127.99 66.95,295.36 -27.57,391.85 -94.52,96.49 -218.57,137.84 -277.64,135.87 0,0 15.75,39.38 27.56,53.17 0,0 -76.79,-23.63 -102.393,-49.23 0,0 -5.907,39.38 -1.969,61.04 0,0 -68.918,-39.38 -68.918,-74.82 0,0 -63.012,78.76 -131.934,53.16 0,0 51.2,-33.47 61.043,-61.04 z"
         inkscape:connector-curvature="0" />
    </clipPath>
    <clipPath
       id="clipPath11797"
       clipPathUnits="userSpaceOnUse">
      <path
         id="path11799"
         d="m 2281.39,7271.13 c 0,0 29.48,32.66 57.68,43.52 28.2,10.87 17.33,55.36 97.76,52.68 80.42,-2.69 48.04,-78.76 48.04,-78.76 0,0 44.96,18.84 99.53,5.07 54.57,-13.76 65.44,-64.46 43.7,-116.27 -21.74,-51.82 -71.21,-140.02 -160.59,-127.44 -89.37,12.59 -206.79,158.11 -186.12,221.2 z"
         inkscape:connector-curvature="0" />
    </clipPath>
    <clipPath
       id="clipPath11811"
       clipPathUnits="userSpaceOnUse">
      <path
         id="path11813"
         d="m 2467.51,7049.93 c 0,0 19.31,95.19 73.65,101.71 54.34,6.52 89.11,32.6 86.94,69.55 -2.17,36.95 2.46,67.38 -53.11,73.9 0,0 -9.92,8.7 20.51,21.74 30.43,13.04 71.38,22 94.34,-3.41 22.95,-25.41 62.15,-67.81 49.11,-114.8 -13.04,-46.98 -119.33,-119.69 -163.96,-148.69 -44.63,-28.99 -78.75,-99.24 -107.48,0 z"
         inkscape:connector-curvature="0" />
    </clipPath>
    <clipPath
       id="clipPath11825"
       clipPathUnits="userSpaceOnUse">
      <path
         id="path11827"
         d="m 2467.51,6783.07 c 0,0 67.13,155.56 45.39,246.85 -21.73,91.29 -65.21,119.54 -158.67,171.71 -93.46,52.16 -150.46,126.07 -257.81,0 -107.35,-126.07 -20.41,-219.53 38.28,-278.22 58.69,-58.69 220.05,-152.45 332.81,-140.34 z"
         inkscape:connector-curvature="0" />
    </clipPath>
    <clipPath
       id="clipPath11843"
       clipPathUnits="userSpaceOnUse">
      <path
         id="path11845"
         d="m 2793.29,7198.62 c 0,0 23.91,-131.75 63.04,-188.26 39.12,-56.52 139.1,-343.43 0,-462.98 -139.11,-119.54 -354.74,-160.75 -433.19,-143.45 -78.45,17.3 -26.52,365.23 13.15,473.87 39.66,108.64 217.89,296.08 357,320.82 z"
         inkscape:connector-curvature="0" />
    </clipPath>
    <clipPath
       id="clipPath11859"
       clipPathUnits="userSpaceOnUse">
      <path
         id="path11861"
         d="m 2384.66,6393.06 c 0,0 65.21,-21.74 128.24,32.6 63.03,54.34 93.46,123.9 93.46,178.24 0,54.34 -32.6,215.18 -110.85,267.35 -78.25,52.16 -443.41,239.09 -473.84,289.08 -30.43,49.99 -45.64,-21.74 -56.51,-65.2 -10.87,-43.48 -37.59,-164.69 -67.7,-218.2 -30.11,-53.5 -85.09,-129.58 0,-251.3 85.09,-121.72 263.32,-234.74 487.2,-232.57 z"
         inkscape:connector-curvature="0" />
    </clipPath>
    <clipPath
       id="clipPath11493"
       clipPathUnits="userSpaceOnUse">
      <path
         id="path11495"
         d="m 4003.03,7499.29 c -169.8,4.36 -332.79,-105.57 -362.63,-190.49 -29.84,-84.92 -94.1,-330.5 -117.05,-381 -22.95,-50.49 -169.84,-234.1 -183.61,-348.86 -13.77,-114.75 34.42,-410.82 403.94,-456.73 369.52,-45.9 599.03,71.15 647.23,289.19 48.2,218.04 -89.51,507.22 -100.99,562.31 -11.47,55.08 71.15,516.4 -286.89,525.58 z"
         inkscape:connector-curvature="0" />
    </clipPath>
    <clipPath
       id="clipPath11565"
       clipPathUnits="userSpaceOnUse">
      <path
         id="path11567"
         d="m 5470.49,6976.77 c -107.65,26.44 -398.48,47.21 -500.46,-234.18 -101.98,-281.39 136.59,-508.95 258.73,-559.01 153.6,-62.95 394.7,-98.2 638.32,37.77 243.62,135.98 288.95,460.81 166.19,602.45 -122.75,141.64 -251.17,228.51 -562.78,152.97 z"
         inkscape:connector-curvature="0" />
    </clipPath>
    <clipPath
       id="clipPath11889"
       clipPathUnits="userSpaceOnUse">
      <path
         id="path11891"
         d="m 7358.51,6565.15 c -1.91,-11.65 -4.42,-23.57 -7.91,-35.55 -22.63,-77.81 -64.54,-5.94 -109.7,-23.7 -45.16,-17.76 -18.64,-74.88 -95.02,-100.19 -76.37,-25.32 -106.85,88.06 -189.34,55.24 -73.74,-29.34 -74.39,34.08 -120.61,32.38 -46.21,-1.69 -56.22,-28.94 -84.26,-61.72 -28.04,-32.78 -92.32,5.1 -134.92,38.19 -27.53,21.38 -32.3,63.5 -32.25,90.71 -15.21,-99.32 25.77,-275.33 160.49,-347.35 153.45,-82.04 190.11,-73.56 190.11,-73.56 0,0 57.04,-88.35 43.61,-118.08 -13.44,-29.74 -65.56,-138.33 -13.81,-192.28 51.75,-53.95 96.66,-14.93 96.66,-14.93 0,0 -69.06,-12.31 -74.86,41.61 -5.81,53.92 14.24,57.89 14.24,57.89 0,0 53.5,-31.24 73.96,-13.2 0,0 -48.46,18.09 -53.35,43.59 -4.9,25.5 -0.1,56.57 6.68,66.13 6.78,9.56 62.05,46.97 41.39,142.06 0,0 176.48,39.37 250.01,131.03 55.11,68.71 62.13,190.21 38.88,281.73 z"
         inkscape:connector-curvature="0" />
    </clipPath>
    <clipPath
       id="clipPath11763"
       clipPathUnits="userSpaceOnUse">
      <path
         id="path11765"
         d="m 925.598,5230.68 c -82.36,-2.22 -420.496,-128.97 -420.684,-442.94 -0.168,-281.56 200.324,-469.65 471.875,-489.68 271.551,-20.03 581.621,194.31 583.171,505.26 1.69,340.56 -378.39,420.69 -438.49,427.36 0,0 28.93,75.68 82.35,117.97 0,0 -55.64,6.68 -93.48,-11.13 0,0 -2.23,55.65 -24.48,120.2 0,0 -91.262,-62.33 -106.844,-84.58 0,0 -51.196,35.61 -84.582,51.19 0,0 42.293,-155.81 31.164,-193.65 z"
         inkscape:connector-curvature="0" />
    </clipPath>
  </defs>
  <sodipodi:namedview
     id="base"
     pagecolor="#ffffff"
     bordercolor="#666666"
     borderopacity="1.0"
     inkscape:pageopacity="0.0"
     inkscape:pageshadow="2"
     inkscape:zoom="1.9445436"
     inkscape:cx="27.293245"
     inkscape:cy="81.981215"
     inkscape:current-layer="layer1"
     showgrid="true"
     inkscape:document-units="px"
     inkscape:grid-bbox="true"
     inkscape:window-width="1280"
     inkscape:window-height="748"
     inkscape:window-x="0"
     inkscape:window-y="0"
     inkscape:window-maximized="1" />
  <metadata
     id="metadata7501">
    <rdf:RDF>
      <cc:Work
         rdf:about="">
        <dc:format>image/svg+xml</dc:format>
        <dc:type
           rdf:resource="http://purl.org/dc/dcmitype/StillImage" />
        <dc:title></dc:title>
      </cc:Work>
    </rdf:RDF>
  </metadata>
  <g
     id="layer1"
     inkscape:label="Layer 1"
     inkscape:groupmode="layer"
     transform="translate(0,86)">
    <g
       transform="matrix(0.90824499,0,0,0.90824499,1169.3673,378.97838)"
       id="g8422">
      <g
         transform="translate(-735.39103,315.16759)"
         id="g25435">
        <path
           id="path11755"
           style="fill:#4f452b;fill-opacity:1;fill-rule:nonzero;stroke:none"
           d="m -492.80288,-679.57757 c 0,0 -5.2169,2.2687 -5.0084,4.6825 0.2085,2.4125 7.9298,0 7.9298,0 0,0 1.043,5.96 3.3383,6.1687 2.2954,0.2088 5.4952,-3.5475 5.4952,-3.5475 0,0 3.0605,3.9813 5.1475,3.555 2.0864,-0.425 4.7991,-3.555 4.7991,-3.555 0,0 2.52,5.1413 5.0087,1.0425 0,0 3.755,4.3825 5.0075,-1.0425 0,0 4.5088,4.9813 5.2801,-2.6212 0,0 11.2737,1.7387 6.1262,-3.6638 -5.1463,-5.4012 -43.124,-1.0187 -43.124,-1.0187"
           inkscape:connector-curvature="0" />
        <path
           id="path11757"
           style="fill:#f8dfe1;fill-opacity:1;fill-rule:nonzero;stroke:none"
           d="m -481.60408,-791.63387 c -10.295,0.2775 -52.5621,16.1213 -52.5855,55.3675 -0.021,35.195 25.0405,58.7063 58.9843,61.21 33.9439,2.5038 72.7026,-24.2887 72.8964,-63.1575 0.2113,-42.57 -47.2988,-52.5862 -54.8112,-53.42 0,0 3.6162,-9.46 10.2937,-14.7462 0,0 -6.955,-0.835 -11.685,1.3912 0,0 -0.2787,-6.9562 -3.06,-15.025 0,0 -11.4077,7.7913 -13.3555,10.5725 0,0 -6.3995,-4.4512 -10.5727,-6.3987 0,0 5.2866,19.4762 3.8954,24.2062"
           inkscape:connector-curvature="0" />
        <g
           id="g11759"
           transform="matrix(0.125,0,0,-0.125,-597.30388,-137.79883)">
          <g
             clip-path="url(#clipPath11763)"
             id="g11761">
            <path
               id="path11767"
               style="fill:#cab3b6;fill-opacity:1;fill-rule:nonzero;stroke:none"
               d="m 525.723,4952.51 c 0,0 -42.223,-249.65 142.007,-440.85 184.235,-191.21 608.39,-72.57 733.57,24.74 125.18,97.31 191.92,335.84 158.66,382.49 0,0 138.44,-634.38 -425.76,-675.81 -564.192,-41.42 -739.427,393.61 -608.477,709.43"
               inkscape:connector-curvature="0" />
          </g>
        </g>
        <path
           id="path11769"
           style="fill:#ce9ea3;fill-opacity:1;fill-rule:nonzero;stroke:none"
           d="m -485.22138,-786.07007 c 0,0 -32.831,14.4687 -36.1699,45.9087 -2.6928,25.36 18.9194,53.9763 18.9194,53.9763 0,0 -21.0483,-32.1038 -17.25,-55.3675 4.4517,-27.2663 34.5005,-44.5175 34.5005,-44.5175"
           inkscape:connector-curvature="0" />
        <path
           id="path11771"
           style="fill:#ce9ea3;fill-opacity:1;fill-rule:nonzero;stroke:none"
           d="m -481.04798,-780.78387 c 0,0 -21.7016,23.0938 -21.98,47.5775 -0.2784,24.4838 17.8066,49.1875 17.8066,49.1875 0,0 -16.9721,-29.6237 -16.1371,-48.3825 1.1127,-25.0112 20.3105,-48.3825 20.3105,-48.3825"
           inkscape:connector-curvature="0" />
        <path
           id="path11773"
           style="fill:#ce9ea3;fill-opacity:1;fill-rule:nonzero;stroke:none"
           d="m -459.62388,-783.00887 c 0,0 29.6313,55.645 -3.8963,98.99 0,0 30.0488,-37.5012 3.8963,-98.99"
           inkscape:connector-curvature="0" />
        <path
           id="path11775"
           style="fill:#ce9ea3;fill-opacity:1;fill-rule:nonzero;stroke:none"
           d="m -446.54768,-783.00887 c 0,0 28.1013,18.9188 27.2663,46.8813 -0.835,27.9625 -28.1013,51.6112 -28.1013,51.6112 0,0 25.5976,-26.4312 26.4325,-51.6112 0.8338,-25.18 -25.5975,-46.8813 -25.5975,-46.8813"
           inkscape:connector-curvature="0" />
        <path
           id="path11777"
           style="fill:#ce9ea3;fill-opacity:1;fill-rule:nonzero;stroke:none"
           d="m -477.43088,-792.19007 c 0,0 10.5408,-1.3888 17.5282,0 0,0 -11.4074,0.8337 -17.5282,0"
           inkscape:connector-curvature="0" />
        <path
           id="path11779"
           style="fill:#ce9ea3;fill-opacity:1;fill-rule:nonzero;stroke:none"
           d="m -461.57138,-794.97257 c 0,0 2.7813,-3.6175 1.6687,-8.625 l -1.6687,8.625"
           inkscape:connector-curvature="0" />
        <path
           id="path11781"
           style="fill:#ce9ea3;fill-opacity:1;fill-rule:nonzero;stroke:none"
           d="m -467.13638,-794.97257 c 0,0 1.6687,-16.1375 3.6162,-20.5888 0,0 -6.3987,13.6325 -3.6162,20.5888"
           inkscape:connector-curvature="0" />
        <path
           id="path11783"
           style="fill:#ce9ea3;fill-opacity:1;fill-rule:nonzero;stroke:none"
           d="m -470.84518,-784.25637 c 0,0 -3.1076,46.0163 -2.2297,101.41 0,0 5.6235,-67.7437 2.2297,-101.41"
           inkscape:connector-curvature="0" />
        <path
           id="path11785"
           style="fill:#171717;fill-opacity:1;fill-rule:nonzero;stroke:none"
           d="m -459.80888,-754.08257 c 0,1.535 -0.9088,2.78 -2.0313,2.78 -1.1212,0 -2.0312,-1.245 -2.0312,-2.78 0,-1.535 0.91,-2.78 2.0312,-2.78 1.1225,0 2.0313,1.245 2.0313,2.78"
           inkscape:connector-curvature="0" />
        <path
           id="path11787"
           style="fill:#171717;fill-opacity:1;fill-rule:nonzero;stroke:none"
           d="m -479.78828,-754.08257 c 0,1.535 -0.9096,2.78 -2.0312,2.78 -1.1221,0 -2.0313,-1.245 -2.0313,-2.78 0,-1.535 0.9092,-2.78 2.0313,-2.78 1.1216,0 2.0312,1.245 2.0312,2.78"
           inkscape:connector-curvature="0" />
        <path
           id="path11789"
           style="fill:#442c2f;fill-opacity:1;fill-rule:nonzero;stroke:none"
           d="m -478.51778,-748.88007 c 0,0 10.5489,-0.4275 12.8289,0 0,0 -0.5263,10.8 -6.4137,10.8337 -5.4172,0.033 -6.4152,-10.8337 -6.4152,-10.8337"
           inkscape:connector-curvature="0" />
      </g>
    </g>
  </g>
</svg>
