<?xml version="1.0" encoding="UTF-8" standalone="no"?>
<!-- Created with Inkscape (http://www.inkscape.org/) -->

<svg
   xmlns:dc="http://purl.org/dc/elements/1.1/"
   xmlns:cc="http://creativecommons.org/ns#"
   xmlns:rdf="http://www.w3.org/1999/02/22-rdf-syntax-ns#"
   xmlns:svg="http://www.w3.org/2000/svg"
   xmlns="http://www.w3.org/2000/svg"
   xmlns:sodipodi="http://sodipodi.sourceforge.net/DTD/sodipodi-0.dtd"
   xmlns:inkscape="http://www.inkscape.org/namespaces/inkscape"
   width="150"
   height="150"
   id="svg7496"
   version="1.1"
   inkscape:version="0.48.4 r9939"
   sodipodi:docname="salade.svg">
  <defs
     id="defs7498">
    <clipPath
       id="clipPath11459"
       clipPathUnits="userSpaceOnUse">
      <path
         id="path11461"
         d="m 850.859,6831.69 c 0,0 -187.066,-1.97 -265.832,-137.84 -78.761,-135.87 -106.332,-393.82 92.551,-484.4 198.883,-90.58 226.449,-66.96 226.449,-66.96 0,0 -21.66,-49.22 0,-86.64 21.661,-37.41 47.258,-179.19 112.243,-200.85 64.98,-21.66 82.7,19.69 84.67,31.51 1.97,11.81 -33.47,-5.91 -49.23,-1.97 -15.75,3.94 -25.6,43.32 -37.41,68.92 -11.82,25.6 -21.663,47.26 -13.79,70.89 7.88,23.63 49.23,84.67 45.29,102.39 0,0 269.78,66.95 326.88,194.95 57.1,127.99 66.95,295.36 -27.57,391.85 -94.52,96.49 -218.57,137.84 -277.64,135.87 0,0 15.75,39.38 27.56,53.17 0,0 -76.79,-23.63 -102.393,-49.23 0,0 -5.907,39.38 -1.969,61.04 0,0 -68.918,-39.38 -68.918,-74.82 0,0 -63.012,78.76 -131.934,53.16 0,0 51.2,-33.47 61.043,-61.04 z"
         inkscape:connector-curvature="0" />
    </clipPath>
    <clipPath
       id="clipPath11797"
       clipPathUnits="userSpaceOnUse">
      <path
         id="path11799"
         d="m 2281.39,7271.13 c 0,0 29.48,32.66 57.68,43.52 28.2,10.87 17.33,55.36 97.76,52.68 80.42,-2.69 48.04,-78.76 48.04,-78.76 0,0 44.96,18.84 99.53,5.07 54.57,-13.76 65.44,-64.46 43.7,-116.27 -21.74,-51.82 -71.21,-140.02 -160.59,-127.44 -89.37,12.59 -206.79,158.11 -186.12,221.2 z"
         inkscape:connector-curvature="0" />
    </clipPath>
    <clipPath
       id="clipPath11811"
       clipPathUnits="userSpaceOnUse">
      <path
         id="path11813"
         d="m 2467.51,7049.93 c 0,0 19.31,95.19 73.65,101.71 54.34,6.52 89.11,32.6 86.94,69.55 -2.17,36.95 2.46,67.38 -53.11,73.9 0,0 -9.92,8.7 20.51,21.74 30.43,13.04 71.38,22 94.34,-3.41 22.95,-25.41 62.15,-67.81 49.11,-114.8 -13.04,-46.98 -119.33,-119.69 -163.96,-148.69 -44.63,-28.99 -78.75,-99.24 -107.48,0 z"
         inkscape:connector-curvature="0" />
    </clipPath>
    <clipPath
       id="clipPath11825"
       clipPathUnits="userSpaceOnUse">
      <path
         id="path11827"
         d="m 2467.51,6783.07 c 0,0 67.13,155.56 45.39,246.85 -21.73,91.29 -65.21,119.54 -158.67,171.71 -93.46,52.16 -150.46,126.07 -257.81,0 -107.35,-126.07 -20.41,-219.53 38.28,-278.22 58.69,-58.69 220.05,-152.45 332.81,-140.34 z"
         inkscape:connector-curvature="0" />
    </clipPath>
    <clipPath
       id="clipPath11843"
       clipPathUnits="userSpaceOnUse">
      <path
         id="path11845"
         d="m 2793.29,7198.62 c 0,0 23.91,-131.75 63.04,-188.26 39.12,-56.52 139.1,-343.43 0,-462.98 -139.11,-119.54 -354.74,-160.75 -433.19,-143.45 -78.45,17.3 -26.52,365.23 13.15,473.87 39.66,108.64 217.89,296.08 357,320.82 z"
         inkscape:connector-curvature="0" />
    </clipPath>
    <clipPath
       id="clipPath11859"
       clipPathUnits="userSpaceOnUse">
      <path
         id="path11861"
         d="m 2384.66,6393.06 c 0,0 65.21,-21.74 128.24,32.6 63.03,54.34 93.46,123.9 93.46,178.24 0,54.34 -32.6,215.18 -110.85,267.35 -78.25,52.16 -443.41,239.09 -473.84,289.08 -30.43,49.99 -45.64,-21.74 -56.51,-65.2 -10.87,-43.48 -37.59,-164.69 -67.7,-218.2 -30.11,-53.5 -85.09,-129.58 0,-251.3 85.09,-121.72 263.32,-234.74 487.2,-232.57 z"
         inkscape:connector-curvature="0" />
    </clipPath>
    <clipPath
       id="clipPath11493"
       clipPathUnits="userSpaceOnUse">
      <path
         id="path11495"
         d="m 4003.03,7499.29 c -169.8,4.36 -332.79,-105.57 -362.63,-190.49 -29.84,-84.92 -94.1,-330.5 -117.05,-381 -22.95,-50.49 -169.84,-234.1 -183.61,-348.86 -13.77,-114.75 34.42,-410.82 403.94,-456.73 369.52,-45.9 599.03,71.15 647.23,289.19 48.2,218.04 -89.51,507.22 -100.99,562.31 -11.47,55.08 71.15,516.4 -286.89,525.58 z"
         inkscape:connector-curvature="0" />
    </clipPath>
  </defs>
  <sodipodi:namedview
     id="base"
     pagecolor="#ffffff"
     bordercolor="#666666"
     borderopacity="1.0"
     inkscape:pageopacity="0.0"
     inkscape:pageshadow="2"
     inkscape:zoom="1.9445436"
     inkscape:cx="27.293245"
     inkscape:cy="81.981215"
     inkscape:current-layer="layer1"
     showgrid="true"
     inkscape:document-units="px"
     inkscape:grid-bbox="true"
     inkscape:window-width="1280"
     inkscape:window-height="748"
     inkscape:window-x="0"
     inkscape:window-y="0"
     inkscape:window-maximized="1" />
  <metadata
     id="metadata7501">
    <rdf:RDF>
      <cc:Work
         rdf:about="">
        <dc:format>image/svg+xml</dc:format>
        <dc:type
           rdf:resource="http://purl.org/dc/dcmitype/StillImage" />
        <dc:title></dc:title>
      </cc:Work>
    </rdf:RDF>
  </metadata>
  <g
     id="layer1"
     inkscape:label="Layer 1"
     inkscape:groupmode="layer"
     transform="translate(0,86)">
    <g
       transform="matrix(0.79627443,0.30007311,-0.30007311,0.79627443,552.70715,776.33238)"
       id="g7956">
      <path
         inkscape:connector-curvature="0"
         d="m -832.31623,-760.04251 c -21.225,-0.545 -41.5987,13.1962 -45.3287,23.8112 -3.73,10.615 -11.7625,41.3125 -14.6313,47.625 -2.8687,6.31133 -21.23,29.26253 -22.9512,43.60753 -1.7212,14.3438 4.3025,51.3525 50.4925,57.0913 46.19,5.7375 74.8787,-8.8938 80.9037,-36.1488 6.0251,-27.255 -11.1887,-63.40253 -12.6237,-70.28873 -1.4337,-6.885 8.8937,-64.55 -35.8613,-65.6975"
         style="fill:#c79651;fill-opacity:1;fill-rule:nonzero;stroke:none"
         id="path11487" />
      <g
         transform="matrix(0.125,0,0,-0.125,-1332.6949,177.36876)"
         id="g11489">
        <g
           id="g11491"
           clip-path="url(#clipPath11493)">
          <path
             inkscape:connector-curvature="0"
             d="m 3513.34,6909.44 c 0,0 -140.73,-242.96 -140.7,-292.41 0.03,-49.45 90.95,-260.21 308.31,-361.14 217.36,-100.92 512.88,22.62 611.42,89.06 98.54,66.45 38.1,513.89 38.1,513.89 0,0 131.2,-258.05 146.2,-360.95 15,-102.89 22.18,-442.89 -566.41,-522.89 -588.59,-80 -823.59,371.91 -698.59,635.96 125,264.04 301.67,298.48 301.67,298.48"
             style="fill:#b58649;fill-opacity:1;fill-rule:nonzero;stroke:none"
             id="path11497" />
        </g>
      </g>
      <path
         inkscape:connector-curvature="0"
         d="m -834.00123,-699.23631 c 0,1.545 -0.915,2.7975 -2.0437,2.7975 -1.1287,0 -2.045,-1.2525 -2.045,-2.7975 0,-1.545 0.9163,-2.7962 2.045,-2.7962 1.1287,0 2.0437,1.2512 2.0437,2.7962"
         style="fill:#171717;fill-opacity:1;fill-rule:nonzero;stroke:none"
         id="path11499" />
      <path
         inkscape:connector-curvature="0"
         d="m -857.54993,-699.23631 c 0,1.545 -0.915,2.7975 -2.045,2.7975 -1.1288,0 -2.0437,-1.2525 -2.0437,-2.7975 0,-1.545 0.9149,-2.7962 2.0437,-2.7962 1.13,0 2.045,1.2512 2.045,2.7962"
         style="fill:#171717;fill-opacity:1;fill-rule:nonzero;stroke:none"
         id="path11501" />
      <path
         inkscape:connector-curvature="0"
         d="m -848.39123,-681.37128 c -11.7112,0 -14.7825,-6.34373 -14.9062,-6.61373 -0.145,-0.3138 -0.01,-0.685 0.3038,-0.83 0.3125,-0.1463 0.6837,-0.01 0.8287,0.3025 0.1187,0.2487 2.9225,5.89123 13.7737,5.89123 12.7988,0 14.0925,-5.69253 14.1038,-5.75003 0.068,-0.3387 0.4,-0.56 0.7362,-0.4887 0.3388,0.068 0.5576,0.3975 0.49,0.735 -0.056,0.2762 -1.5187,6.75373 -15.33,6.75373"
         style="fill:#040606;fill-opacity:1;fill-rule:nonzero;stroke:none"
         id="path11503" />
      <path
         inkscape:connector-curvature="0"
         d="m -831.86493,-687.42131 c -1.1138,0 -1.9938,-0.3025 -2.625,-0.9037 -1.2825,-1.2225 -0.9663,-3.1738 -0.9525,-3.2563 0.059,-0.3387 0.385,-0.565 0.7213,-0.51 0.3399,0.057 0.5674,0.3788 0.5112,0.7188 -0.01,0.044 -0.2063,1.3975 0.5875,2.1475 0.6125,0.5787 1.75,0.7075 3.2875,0.3675 0.3413,-0.076 0.67,0.14 0.745,0.475 0.075,0.3375 -0.1388,0.6712 -0.4763,0.745 -0.6537,0.1437 -1.2549,0.2162 -1.7987,0.2162"
         style="fill:#040606;fill-opacity:1;fill-rule:nonzero;stroke:none"
         id="path11505" />
      <path
         inkscape:connector-curvature="0"
         d="m -865.48863,-685.68631 c -0.2688,0 -0.5163,-0.175 -0.5976,-0.4462 -0.1,-0.33 0.089,-0.6788 0.4188,-0.7775 0.04,-0.013 4.095,-1.265 3.425,-3.7588 -0.089,-0.3325 0.1088,-0.6762 0.4425,-0.765 0.3362,-0.09 0.6762,0.1075 0.765,0.4425 0.7875,2.9313 -2.4525,4.735 -4.275,5.2788 -0.059,0.017 -0.1187,0.026 -0.1787,0.026"
         style="fill:#040606;fill-opacity:1;fill-rule:nonzero;stroke:none"
         id="path11507" />
      <path
         inkscape:connector-curvature="0"
         d="m -827.51113,-733.86381 c -5.0776,0 -3.0126,8.3913 -1.0751,10.7575 1.9363,2.3675 9.4676,2.7975 10.9738,1.2913 1.5062,-1.5063 -1.7213,-12.0488 -9.8987,-12.0488"
         style="fill:#b08145;fill-opacity:1;fill-rule:nonzero;stroke:none"
         id="path11509" />
      <path
         inkscape:connector-curvature="0"
         d="m -809.73873,-751.93131 c -8.8912,-4.1537 -12.3925,3.1688 -10.6712,8.2513 1.7212,5.0825 8.6063,14.335 13.34,13.0437 4.7337,-1.2912 5.6375,-17.415 -2.6688,-21.295"
         style="fill:#b08145;fill-opacity:1;fill-rule:nonzero;stroke:none"
         id="path11511" />
      <path
         inkscape:connector-curvature="0"
         d="m -895.28873,-665.87128 c -4.6987,-0.7825 -11.1887,20.6563 0,21.3025 11.1888,0.645 6.455,-20.2262 0,-21.3025"
         style="fill:#b08145;fill-opacity:1;fill-rule:nonzero;stroke:none"
         id="path11513" />
      <path
         inkscape:connector-curvature="0"
         d="m -876.99993,-627.13998 c -5.1013,2.7462 -2.7963,15.7075 7.5313,18.2887 10.3287,2.5825 13.2937,-12.695 7.83,-16.1375 -5.4626,-3.4425 -9.7663,-5.1637 -15.3613,-2.1512"
         style="fill:#b08145;fill-opacity:1;fill-rule:nonzero;stroke:none"
         id="path11515" />
      <path
         inkscape:connector-curvature="0"
         d="m -795.66623,-642.63248 c -3.965,-1.0813 -9.8975,8.8225 -10.5425,12.91 -0.6462,4.0887 3.2275,8.1762 7.315,7.9612 4.0888,-0.215 12.6951,-18.2887 3.2275,-20.8712"
         style="fill:#b08145;fill-opacity:1;fill-rule:nonzero;stroke:none"
         id="path11517" />
      <path
         inkscape:connector-curvature="0"
         d="m -806.12623,-694.22381 c -2.8674,-2.8325 -6.4737,-3.1275 -10.1825,-1.8962 -0.6787,0.225 -0.38,1.135 0.2538,1.145 1.7425,0.029 3.3825,-0.3738 5.1275,-0.069 1.5663,0.2738 2.6275,1.7388 4.1463,2.19 0.815,0.2425 1.1549,-0.8762 0.6549,-1.37"
         style="fill:#75471f;fill-opacity:1;fill-rule:nonzero;stroke:none"
         id="path11519" />
      <path
         inkscape:connector-curvature="0"
         d="m -803.55743,-710.80751 c -0.2575,-0.5475 -1.0375,-0.3888 -1.0288,0.2287 0.011,0.8238 0.01,1.6513 -0.2949,2.4325 -0.2626,0.68 -0.6625,1.2563 -0.8575,1.9675 -0.072,0.2663 0.1887,0.4688 0.4249,0.4675 2.505,-0.025 2.5225,-3.46 1.7563,-5.0962"
         style="fill:#75471f;fill-opacity:1;fill-rule:nonzero;stroke:none"
         id="path11521" />
      <path
         inkscape:connector-curvature="0"
         d="m -811.63243,-722.11131 c -0.2,-0.5425 -0.8375,-0.715 -1.31,-0.4175 -1.1213,0.7038 -1.4325,1.4238 -1.4012,2.7225 0.01,0.2425 0.1337,0.4338 0.3112,0.5638 0.15,0.335 0.395,0.5975 0.765,0.8137 0.3175,0.1863 0.85,0.082 1.065,-0.2225 0.7875,-1.1162 1.0537,-2.1475 0.57,-3.46"
         style="fill:#75471f;fill-opacity:1;fill-rule:nonzero;stroke:none"
         id="path11523" />
      <path
         inkscape:connector-curvature="0"
         d="m -810.26623,-665.55378 c -0.2175,-0.7025 -0.7199,-0.9375 -1.2737,-0.9212 -0.215,-0.1513 -0.465,-0.085 -0.6175,0.11 -0.5337,0.1775 -1.045,0.5237 -1.3425,0.9062 -0.4225,0.5425 -0.655,1.3088 -0.345,1.9613 0.4213,0.8875 1.4088,1.1787 2.3163,1.2762 0.5524,0.059 1.0712,-0.335 1.0187,-0.9287 -0.016,-0.1875 -0.039,-0.37 -0.059,-0.5538 0.425,-0.4187 0.4513,-1.3687 0.3025,-1.85"
         style="fill:#75471f;fill-opacity:1;fill-rule:nonzero;stroke:none"
         id="path11525" />
      <path
         inkscape:connector-curvature="0"
         d="m -844.04373,-646.58128 c -0.7087,-0.5362 -1.275,-1.1075 -1.1974,-2.0525 0.077,-0.96 0.5312,-1.955 1.1037,-2.7162 0.3187,-0.4225 -0.1975,-1.0963 -0.65,-0.7238 -1.1412,0.9388 -2.0575,2.2413 -2.1975,3.745 -0.1563,1.695 1.1788,2.8875 2.8212,2.3988 0.2688,-0.08 0.3438,-0.4813 0.12,-0.6513"
         style="fill:#75471f;fill-opacity:1;fill-rule:nonzero;stroke:none"
         id="path11527" />
      <path
         inkscape:connector-curvature="0"
         d="m -817.67123,-640.24128 c -0.2012,-0.305 -0.2749,-0.57 -0.3475,-0.925 -0.089,-0.4412 -0.6637,-0.535 -0.845,-0.1437 -0.1312,-0.071 -0.2662,-0.1275 -0.4087,-0.1538 -0.1363,-0.025 -0.3225,0.046 -0.3713,0.1888 -0.2675,0.78 0.405,1.4575 0.92,1.9812 0.5863,0.5963 1.485,-0.2912 1.0525,-0.9475"
         style="fill:#75471f;fill-opacity:1;fill-rule:nonzero;stroke:none"
         id="path11529" />
      <path
         inkscape:connector-curvature="0"
         d="m -894.80743,-617.07878 c -2.4312,-3.1637 -7.3413,-3.2725 -10.585,-5.4687 -3.4125,-2.31 -4.6713,-6.19 -7.1063,-9.2625 -0.2712,-0.3438 -0.7137,0.1812 -0.335,0.3912 0.15,0.1013 0.3001,0.2013 0.4501,0.3025 0.01,0.01 0.015,0 0.023,0.01 0.069,0.6363 0.5862,2.1275 0.6037,2.1613 0.5275,1.04 1.01,2.07 1.435,3.1562 0.63,1.615 1.5875,3.2263 2.815,4.455 2.8113,2.8163 8.0775,5.685 12.0775,5.5863 0.6263,-0.016 1,-0.8363 0.6225,-1.3263"
         style="fill:#75471f;fill-opacity:1;fill-rule:nonzero;stroke:none"
         id="path11531" />
      <path
         inkscape:connector-curvature="0"
         d="m -809.72873,-621.96748 c -0.3237,-0.695 -1.4187,-0.33 -1.1374,0.4125 0.3812,1.0075 0.6037,2.015 0.71,3.085 0.1062,1.0712 -0.3663,2.1675 -0.1463,3.2025 0.066,0.31 0.3875,0.525 0.6838,0.3212 1.9912,-1.3725 0.6887,-5.3087 -0.1101,-7.0212"
         style="fill:#75471f;fill-opacity:1;fill-rule:nonzero;stroke:none"
         id="path11533" />
      <path
         inkscape:connector-curvature="0"
         d="m -882.98993,-613.21248 c -0.016,-0.14 -0.032,-0.2788 -0.056,-0.4088 -0.061,-0.3512 -0.4624,-0.5 -0.72,-0.2312 -1.3125,1.3762 -0.7125,3.8312 0.9538,4.6087 0.6412,0.3 1.2212,-0.1062 1.4137,-0.7187 0.4051,-1.2875 -0.2675,-3.025 -1.5912,-3.25"
         style="fill:#75471f;fill-opacity:1;fill-rule:nonzero;stroke:none"
         id="path11535" />
      <path
         inkscape:connector-curvature="0"
         d="m -880.78113,-638.61628 c -0.2801,-0.06 -0.5338,0.145 -0.5938,0.41 -0.085,0.3725 -0.025,0.7463 0.014,1.12 -0.036,-0.05 -0.081,-0.11 -0.1088,-0.155 -0.23,-0.3737 -0.054,-0.9425 -0.1313,-1.3525 -0.071,-0.3825 -0.5212,-0.7062 -0.8837,-0.415 -1.5213,1.2188 -0.6275,3.81 1.1962,4.1113 2.3763,0.3937 2.6625,-3.2613 0.5076,-3.7188"
         style="fill:#75471f;fill-opacity:1;fill-rule:nonzero;stroke:none"
         id="path11537" />
      <path
         inkscape:connector-curvature="0"
         d="m -883.31873,-672.43248 c -0.1074,-0.3688 -0.4512,-0.475 -0.7699,-0.41 -0.049,-0.2475 -0.1051,-0.4938 -0.1826,-0.7313 -0.1737,-0.5287 -0.8287,-0.3537 -0.9699,0.081 -0.2976,0.9137 -0.6225,2.1175 0.4924,2.57 0.9676,0.3912 1.6838,-0.6388 1.43,-1.51"
         style="fill:#75471f;fill-opacity:1;fill-rule:nonzero;stroke:none"
         id="path11539" />
      <path
         inkscape:connector-curvature="0"
         d="m -823.39243,-597.08748 c -3.0162,-2.3988 -8.4025,-6.1075 -12.5325,-4.5538 -4.6937,1.7663 -5.5138,6.99 -9.4812,9.6388 -0.3713,0.2475 -0.1488,0.8487 0.29,0.8075 2.875,-0.2725 4.3274,-2.8625 5.8237,-5.0513 4.5475,-6.6525 9.79,-1.2725 15.5875,-0.185 0.36,0.068 0.61,-0.42 0.3125,-0.6562"
         style="fill:#75471f;fill-opacity:1;fill-rule:nonzero;stroke:none"
         id="path11541" />
      <path
         inkscape:connector-curvature="0"
         d="m -873.22493,-738.70751 c -0.99,0.4312 -1.685,1.4225 -1.695,2.5162 -0.01,1.0463 1.7625,1.1313 1.8463,0.085 0.054,-0.6762 0.2449,-1.2775 0.4674,-1.9162 0.1275,-0.3713 -0.1725,-0.8788 -0.6187,-0.685"
         style="fill:#75471f;fill-opacity:1;fill-rule:nonzero;stroke:none"
         id="path11543" />
      <path
         inkscape:connector-curvature="0"
         d="m -867.32873,-741.59881 c -0.1162,-0.3212 -0.5525,-0.5075 -0.8537,-0.31 0,0 0,0 0,-0.01 0.074,-0.2763 -0.3337,-0.4638 -0.5038,-0.24 -0.88,1.1537 -1.6162,2.2725 -1.8325,3.7525 -0.1375,0.9437 0.9588,1.3987 1.6013,0.765 0.9038,-0.8925 2.0725,-2.6325 1.5862,-3.9588"
         style="fill:#75471f;fill-opacity:1;fill-rule:nonzero;stroke:none"
         id="path11545" />
      <path
         inkscape:connector-curvature="0"
         d="m -880.16623,-637.82248 c -0.064,-0.135 -0.15,-0.2625 -0.2512,-0.38 -0.1075,-0.385 -0.4087,-0.6313 -0.7988,-0.8038 -0.013,-0.01 -0.025,-0.024 -0.036,-0.034 -0.385,-0.3013 -0.8187,-0.2263 -1.16,0.088 l -0.016,0.015 c -0.2275,0.21 -0.2138,0.5487 -0.1501,0.8175 0.014,0.055 0.049,0.1075 0.068,0.1625 0,0.1462 0.047,0.2987 0.1774,0.4512 0.056,0.066 0.1013,0.1413 0.1513,0.2125 0.01,0.016 0.02,0.034 0.03,0.05 0.01,0.059 0.012,0.1275 0.015,0.1763 0.016,0.2537 0.2063,0.3925 0.4225,0.4175 0.4975,0.5575 1.3313,0.2062 1.4162,-0.3613 0.1988,-0.195 0.2863,-0.4812 0.1325,-0.8112"
         style="fill:#75471f;fill-opacity:1;fill-rule:nonzero;stroke:none"
         id="path11547" />
      <path
         inkscape:connector-curvature="0"
         d="m -882.83993,-672.41128 c -0.1138,-0.4537 -0.275,-0.815 -0.5313,-1.2062 -0.01,-0.01 -0.017,-0.011 -0.024,-0.02 -0.048,-0.085 -0.08,-0.1738 -0.1338,-0.2575 -0.4937,-0.765 -1.6137,-0.2625 -1.58,0.57 l 0.011,0.2825 c -0.01,0.046 -0.044,0.075 -0.041,0.125 0.01,0.1387 0.027,0.2587 0.057,0.3775 0,0.026 -0.01,0.054 -0.01,0.08 -0.027,0.065 -0.035,0.1462 -0.029,0.2325 0,0.062 -0.021,0.12 -0.024,0.1837 -0.011,0.2975 0.125,0.4813 0.3188,0.5763 l 0,0 c 0.1812,0.3088 0.5713,0.4113 0.9075,0.3475 0.59,0.2288 1.1013,-0.3425 1.1037,-0.9125 0.011,-0.1262 0.01,-0.255 -0.026,-0.38"
         style="fill:#75471f;fill-opacity:1;fill-rule:nonzero;stroke:none"
         id="path11549" />
      <path
         inkscape:connector-curvature="0"
         d="m -816.92123,-640.45128 c -0.065,-0.1287 -0.1324,-0.245 -0.2025,-0.36 -0.088,-0.3025 -0.2487,-0.5975 -0.4587,-0.8525 -0.1238,-0.2 -0.2975,-0.36 -0.5125,-0.4662 -0.062,-0.043 -0.1237,-0.092 -0.1862,-0.1263 -0.4476,-0.235 -0.9526,-0.014 -1.1951,0.385 -0.06,0.057 -0.11,0.1238 -0.15,0.1963 -0.2862,0.3975 -0.445,0.9162 -0.4337,1.325 0.015,0.5425 0.3675,0.8962 0.82,1.0762 0.016,0.01 0.034,0.016 0.051,0.024 0.045,0.016 0.09,0.029 0.1375,0.041 0.3525,0.1263 0.7413,0.1163 1.1388,0.03 0.6137,-0.021 1.3475,-0.5687 0.9912,-1.2725"
         style="fill:#75471f;fill-opacity:1;fill-rule:nonzero;stroke:none"
         id="path11551" />
      <path
         inkscape:connector-curvature="0"
         d="m -809.63613,-665.36748 c -0.3063,-0.6988 -0.935,-0.9663 -1.6588,-0.9825 -0.3113,-0.01 -0.595,0.079 -0.8513,0.2137 -0.031,0.011 -0.06,0.024 -0.089,0.039 -0.024,0.014 -0.045,0.029 -0.068,0.044 -0.084,0.05 -0.1575,0.1088 -0.225,0.1813 -0.6588,0.5837 -0.94,1.595 -0.44,2.3925 0.7875,1.2537 2.5462,1.5137 3.235,0.027 0.13,-0.2813 0.1725,-0.5475 0.1788,-0.8038 0.095,-0.3575 0.074,-0.7562 -0.083,-1.1112"
         style="fill:#75471f;fill-opacity:1;fill-rule:nonzero;stroke:none"
         id="path11553" />
      <path
         inkscape:connector-curvature="0"
         d="m -881.07243,-611.21248 c 0.34,-0.8513 -0.1075,-1.6575 -0.8175,-2.1488 -0.1113,-0.1275 -0.2287,-0.2462 -0.3462,-0.34 -0.4,-0.315 -0.9963,-0.3387 -1.3938,-0.01 -1.1488,0.6362 -1.195,2.5912 -0.3837,3.4662 0.3337,0.3613 0.7624,0.4563 1.1912,0.3925 0.1075,0.074 0.2088,0.1525 0.3412,0.2088 0.1913,0.08 0.3626,-0.092 0.315,-0.2738 0.6126,-0.1075 1.1688,-0.6675 1.0938,-1.2962"
         style="fill:#75471f;fill-opacity:1;fill-rule:nonzero;stroke:none"
         id="path11555" />
      <path
         inkscape:connector-curvature="0"
         d="m -910.22743,-646.49498 c -0.13,-0.75 -1.2412,-0.8813 -1.385,-0.065 -0.068,0.3837 -0.1075,0.77 -0.185,1.1512 -0.071,0.345 -0.2663,0.6388 -0.3063,0.9913 -0.06,0.5337 0.4338,1.07 0.9926,0.8387 1.1512,-0.4737 1.06,-1.8912 0.8837,-2.9162"
         style="fill:#75471f;fill-opacity:1;fill-rule:nonzero;stroke:none"
         id="path11557" />
    </g>
  </g>
</svg>
