<?xml version="1.0" encoding="UTF-8" standalone="no"?>
<!-- Created with Inkscape (http://www.inkscape.org/) -->

<svg
   xmlns:dc="http://purl.org/dc/elements/1.1/"
   xmlns:cc="http://creativecommons.org/ns#"
   xmlns:rdf="http://www.w3.org/1999/02/22-rdf-syntax-ns#"
   xmlns:svg="http://www.w3.org/2000/svg"
   xmlns="http://www.w3.org/2000/svg"
   xmlns:sodipodi="http://sodipodi.sourceforge.net/DTD/sodipodi-0.dtd"
   xmlns:inkscape="http://www.inkscape.org/namespaces/inkscape"
   width="150"
   height="150"
   id="svg7496"
   version="1.1"
   inkscape:version="0.48.4 r9939"
   sodipodi:docname="haricot.svg">
  <defs
     id="defs7498">
    <clipPath
       id="clipPath11459"
       clipPathUnits="userSpaceOnUse">
      <path
         id="path11461"
         d="m 850.859,6831.69 c 0,0 -187.066,-1.97 -265.832,-137.84 -78.761,-135.87 -106.332,-393.82 92.551,-484.4 198.883,-90.58 226.449,-66.96 226.449,-66.96 0,0 -21.66,-49.22 0,-86.64 21.661,-37.41 47.258,-179.19 112.243,-200.85 64.98,-21.66 82.7,19.69 84.67,31.51 1.97,11.81 -33.47,-5.91 -49.23,-1.97 -15.75,3.94 -25.6,43.32 -37.41,68.92 -11.82,25.6 -21.663,47.26 -13.79,70.89 7.88,23.63 49.23,84.67 45.29,102.39 0,0 269.78,66.95 326.88,194.95 57.1,127.99 66.95,295.36 -27.57,391.85 -94.52,96.49 -218.57,137.84 -277.64,135.87 0,0 15.75,39.38 27.56,53.17 0,0 -76.79,-23.63 -102.393,-49.23 0,0 -5.907,39.38 -1.969,61.04 0,0 -68.918,-39.38 -68.918,-74.82 0,0 -63.012,78.76 -131.934,53.16 0,0 51.2,-33.47 61.043,-61.04 z"
         inkscape:connector-curvature="0" />
    </clipPath>
    <clipPath
       id="clipPath11797"
       clipPathUnits="userSpaceOnUse">
      <path
         id="path11799"
         d="m 2281.39,7271.13 c 0,0 29.48,32.66 57.68,43.52 28.2,10.87 17.33,55.36 97.76,52.68 80.42,-2.69 48.04,-78.76 48.04,-78.76 0,0 44.96,18.84 99.53,5.07 54.57,-13.76 65.44,-64.46 43.7,-116.27 -21.74,-51.82 -71.21,-140.02 -160.59,-127.44 -89.37,12.59 -206.79,158.11 -186.12,221.2 z"
         inkscape:connector-curvature="0" />
    </clipPath>
    <clipPath
       id="clipPath11811"
       clipPathUnits="userSpaceOnUse">
      <path
         id="path11813"
         d="m 2467.51,7049.93 c 0,0 19.31,95.19 73.65,101.71 54.34,6.52 89.11,32.6 86.94,69.55 -2.17,36.95 2.46,67.38 -53.11,73.9 0,0 -9.92,8.7 20.51,21.74 30.43,13.04 71.38,22 94.34,-3.41 22.95,-25.41 62.15,-67.81 49.11,-114.8 -13.04,-46.98 -119.33,-119.69 -163.96,-148.69 -44.63,-28.99 -78.75,-99.24 -107.48,0 z"
         inkscape:connector-curvature="0" />
    </clipPath>
    <clipPath
       id="clipPath11825"
       clipPathUnits="userSpaceOnUse">
      <path
         id="path11827"
         d="m 2467.51,6783.07 c 0,0 67.13,155.56 45.39,246.85 -21.73,91.29 -65.21,119.54 -158.67,171.71 -93.46,52.16 -150.46,126.07 -257.81,0 -107.35,-126.07 -20.41,-219.53 38.28,-278.22 58.69,-58.69 220.05,-152.45 332.81,-140.34 z"
         inkscape:connector-curvature="0" />
    </clipPath>
    <clipPath
       id="clipPath11843"
       clipPathUnits="userSpaceOnUse">
      <path
         id="path11845"
         d="m 2793.29,7198.62 c 0,0 23.91,-131.75 63.04,-188.26 39.12,-56.52 139.1,-343.43 0,-462.98 -139.11,-119.54 -354.74,-160.75 -433.19,-143.45 -78.45,17.3 -26.52,365.23 13.15,473.87 39.66,108.64 217.89,296.08 357,320.82 z"
         inkscape:connector-curvature="0" />
    </clipPath>
    <clipPath
       id="clipPath11859"
       clipPathUnits="userSpaceOnUse">
      <path
         id="path11861"
         d="m 2384.66,6393.06 c 0,0 65.21,-21.74 128.24,32.6 63.03,54.34 93.46,123.9 93.46,178.24 0,54.34 -32.6,215.18 -110.85,267.35 -78.25,52.16 -443.41,239.09 -473.84,289.08 -30.43,49.99 -45.64,-21.74 -56.51,-65.2 -10.87,-43.48 -37.59,-164.69 -67.7,-218.2 -30.11,-53.5 -85.09,-129.58 0,-251.3 85.09,-121.72 263.32,-234.74 487.2,-232.57 z"
         inkscape:connector-curvature="0" />
    </clipPath>
    <clipPath
       id="clipPath11493"
       clipPathUnits="userSpaceOnUse">
      <path
         id="path11495"
         d="m 4003.03,7499.29 c -169.8,4.36 -332.79,-105.57 -362.63,-190.49 -29.84,-84.92 -94.1,-330.5 -117.05,-381 -22.95,-50.49 -169.84,-234.1 -183.61,-348.86 -13.77,-114.75 34.42,-410.82 403.94,-456.73 369.52,-45.9 599.03,71.15 647.23,289.19 48.2,218.04 -89.51,507.22 -100.99,562.31 -11.47,55.08 71.15,516.4 -286.89,525.58 z"
         inkscape:connector-curvature="0" />
    </clipPath>
    <clipPath
       id="clipPath11565"
       clipPathUnits="userSpaceOnUse">
      <path
         id="path11567"
         d="m 5470.49,6976.77 c -107.65,26.44 -398.48,47.21 -500.46,-234.18 -101.98,-281.39 136.59,-508.95 258.73,-559.01 153.6,-62.95 394.7,-98.2 638.32,37.77 243.62,135.98 288.95,460.81 166.19,602.45 -122.75,141.64 -251.17,228.51 -562.78,152.97 z"
         inkscape:connector-curvature="0" />
    </clipPath>
    <clipPath
       id="clipPath11565-4"
       clipPathUnits="userSpaceOnUse">
      <path
         id="path11567-5"
         d="m 5470.49,6976.77 c -107.65,26.44 -398.48,47.21 -500.46,-234.18 -101.98,-281.39 136.59,-508.95 258.73,-559.01 153.6,-62.95 394.7,-98.2 638.32,37.77 243.62,135.98 288.95,460.81 166.19,602.45 -122.75,141.64 -251.17,228.51 -562.78,152.97 z"
         inkscape:connector-curvature="0" />
    </clipPath>
    <clipPath
       id="clipPath11565-4-0-0-4"
       clipPathUnits="userSpaceOnUse">
      <path
         id="path11567-5-9-0-3"
         d="m 5470.49,6976.77 c -107.65,26.44 -398.48,47.21 -500.46,-234.18 -101.98,-281.39 136.59,-508.95 258.73,-559.01 153.6,-62.95 394.7,-98.2 638.32,37.77 243.62,135.98 288.95,460.81 166.19,602.45 -122.75,141.64 -251.17,228.51 -562.78,152.97 z"
         inkscape:connector-curvature="0" />
    </clipPath>
    <clipPath
       id="clipPath11565-4-0-0"
       clipPathUnits="userSpaceOnUse">
      <path
         id="path11567-5-9-0"
         d="m 5470.49,6976.77 c -107.65,26.44 -398.48,47.21 -500.46,-234.18 -101.98,-281.39 136.59,-508.95 258.73,-559.01 153.6,-62.95 394.7,-98.2 638.32,37.77 243.62,135.98 288.95,460.81 166.19,602.45 -122.75,141.64 -251.17,228.51 -562.78,152.97 z"
         inkscape:connector-curvature="0" />
    </clipPath>
    <clipPath
       id="clipPath11565-4-0"
       clipPathUnits="userSpaceOnUse">
      <path
         id="path11567-5-9"
         d="m 5470.49,6976.77 c -107.65,26.44 -398.48,47.21 -500.46,-234.18 -101.98,-281.39 136.59,-508.95 258.73,-559.01 153.6,-62.95 394.7,-98.2 638.32,37.77 243.62,135.98 288.95,460.81 166.19,602.45 -122.75,141.64 -251.17,228.51 -562.78,152.97 z"
         inkscape:connector-curvature="0" />
    </clipPath>
  </defs>
  <sodipodi:namedview
     id="base"
     pagecolor="#ffffff"
     bordercolor="#666666"
     borderopacity="1.0"
     inkscape:pageopacity="0.0"
     inkscape:pageshadow="2"
     inkscape:zoom="0.9722718"
     inkscape:cx="-66.765839"
     inkscape:cy="31.419912"
     inkscape:current-layer="layer1"
     showgrid="true"
     inkscape:document-units="px"
     inkscape:grid-bbox="true"
     inkscape:window-width="1280"
     inkscape:window-height="748"
     inkscape:window-x="0"
     inkscape:window-y="0"
     inkscape:window-maximized="1" />
  <metadata
     id="metadata7501">
    <rdf:RDF>
      <cc:Work
         rdf:about="">
        <dc:format>image/svg+xml</dc:format>
        <dc:type
           rdf:resource="http://purl.org/dc/dcmitype/StillImage" />
        <dc:title></dc:title>
      </cc:Work>
    </rdf:RDF>
  </metadata>
  <g
     id="layer1"
     inkscape:label="Layer 1"
     inkscape:groupmode="layer"
     transform="translate(0,86)">
    <g
       transform="translate(1705.6367,26.4135)"
       id="g21128">
      <path
         inkscape:connector-curvature="0"
         d="m -1595.4534,-72.947164 c 0.6325,-12.5787 -18.76,-11.7212 -26.7525,-8.625 1.1812,-8.2325 1.5275,-15.04 -5.51,-20.903696 -3.9275,-3.2713 -19.6675,-5.0525 -14.885,3.849996 4.9613,1.17 7.5263,2.5787 10.0975,7.2112 1.5187,2.7338 3.9937,9.0438 1.275,10.6225 l -3.3988,0.565 c -9.4837,-1.1025 -22.3224,-8.1712 -27.8712,4.4625 -23.365,-6.2137 -18.8925,29.8113 -17.4488,41.99 1.1038,9.3113 3.9688,18.63 6.355,27.7587997 1.8663,7.135 4.395,19.4150003 11.0513,23.9475003 1.8137,1.235 3.8587,0.7875 5.82,1.5437 2.6625,1.0225 2.7237,1.475 4.375,4.1225 1.9762,3.175 4.2987,6.3013 7.6625,8.2013 8.645,4.8825 14.945,1.9975 21.3588,-3.9488 4.5437,-4.215 5.9874,-2.0375 11.3574,-2.1437 4.2188,-0.081 7.3575,-2.325 10.7463,-4.6725 7.4475,-5.1588 10.8375,-11.6075003 14.0212,-19.6875003 5.3263,-13.5174997 10.375,-27.1562997 10.355,-41.9187997 -0.019,-12.9575 -2.0537,-31.5937 -18.6087,-32.375"
         style="fill:#db351d;fill-opacity:1;fill-rule:nonzero;stroke:none"
         id="path10100-8" />
      <path
         inkscape:connector-curvature="0"
         d="m -1622.0534,-81.627164 c -0.05,0.019 -0.1038,0.036 -0.1525,0.055 0.039,-0.2612 0.071,-0.52 0.1075,-0.78 0,-0.7525 0.1125,-1.54 0.2938,-2.3462 0.7449,-6.8525 0.2149,-12.6763 -5.9113,-17.777496 -3.9275,-3.2713 -19.6675,-5.0525 -14.885,3.849996 4.9613,1.17 7.5263,2.5787 10.0975,7.2112 1.5187,2.7338 3.9937,9.0438 1.275,10.6225 l -1.2663,0.2113 c -0.1962,0.5037 -0.4212,1.02 -0.7,1.5625 -2.5862,5.0212 -5.3,1.4025 -9.76,2.415 -0.59,4.0512 -5.8625,8.19 -9.7537,8.7375 5.4937,1.7125 10.075,4.8 14.1012,9.345 6.8525,-7.9163 19.0875,-10.5475 27.0788,-2.3513 0.1975,-2.775 -0.665,-4.7212 0.745,-7.305 1.3763,-2.5225 3.4737,-3.3362 5.64,-4.34 -3.7713,0.016 -10.6875,-3.3512 -13.9263,-5.0662 -2.0074,-1.065 -2.8062,-2.4638 -2.9837,-4.0437"
         style="fill:#577517;fill-opacity:1;fill-rule:nonzero;stroke:none"
         id="path10102-5" />
      <path
         inkscape:connector-curvature="0"
         d="m -1661.0184,-74.203364 c 0.9825,1.1725 2.2963,1.7225 3.5637,2.5162 1.4688,0.9225 2.4575,2.4763 3.8625,3.49 0.1575,0.1138 0.3813,-0.1112 0.2688,-0.2675 -2.0012,-2.7662 -4.7188,-4.195 -7.5538,-5.9212 -0.1187,-0.072 -0.2225,0.085 -0.1412,0.1825 l 0,0"
         style="fill:#e19016;fill-opacity:1;fill-rule:nonzero;stroke:none"
         id="path10138-4" />
      <path
         inkscape:connector-curvature="0"
         d="m -1603.3809,-71.924664 c 0.8962,-0.2962 2.1475,-0.1525 3.085,-0.2412 0.9375,-0.086 1.8525,-0.034 2.7912,-0.043 0.1725,0 0.31,-0.2475 0.1538,-0.3713 -0.7725,-0.605 -2.0425,-0.3762 -2.945,-0.2737 -0.9625,0.1087 -2.4613,0.017 -3.2475,0.65 -0.1313,0.105 0.01,0.3287 0.1625,0.2787 l 0,0"
         style="fill:#e19016;fill-opacity:1;fill-rule:nonzero;stroke:none"
         id="path10140-2" />
      <path
         inkscape:connector-curvature="0"
         d="m -1612.9709,-79.303364 c 0.4187,-0.9288 1.8175,-1.1575 2.7012,-1.3913 1.0725,-0.2825 2.0363,-0.25 3.1238,-0.1737 0.1862,0.012 0.24,-0.2525 0.091,-0.34 -1.1975,-0.705 -2.8512,-0.2525 -4.0775,0.1575 -0.78,0.2612 -2.0312,0.6987 -2.0462,1.6912 0,0.105 0.16,0.16 0.2075,0.056 l 0,0"
         style="fill:#e19016;fill-opacity:1;fill-rule:nonzero;stroke:none"
         id="path10160-8" />
      <path
         inkscape:connector-curvature="0"
         d="m -1652.4009,-80.412164 c 0.9725,-0.6462 2.3937,-0.565 3.525,-0.6087 1.3112,-0.051 2.4175,0.2137 3.5725,0.815 0.16,0.082 0.3925,-0.098 0.2688,-0.2675 -0.7751,-1.0625 -2.2101,-1.1625 -3.4276,-1.1813 -1.2475,-0.02 -3.2387,-0.034 -4.1237,1.0013 -0.1075,0.1262 0.031,0.3437 0.185,0.2412 l 0,0"
         style="fill:#e19016;fill-opacity:1;fill-rule:nonzero;stroke:none"
         id="path10164-5" />
      <path
         inkscape:connector-curvature="0"
         d="m -1649.7434,-80.100864 c 0.8487,-0.2038 1.665,0.215 2.5087,0.2212 0.145,0 0.2275,-0.2275 0.079,-0.2912 -0.795,-0.3425 -1.88,-0.605 -2.67,-0.1288 -0.1063,0.064 -0.036,0.2263 0.082,0.1988 l 0,0"
         style="fill:#e19016;fill-opacity:1;fill-rule:nonzero;stroke:none"
         id="path10166-0" />
      <path
         inkscape:connector-curvature="0"
         d="m -1603.8734,-13.422164 c -0.084,0.495 -0.425,0.865 -0.3575,1.3825 0.018,0.1375 0.21,0.185 0.2537,0.034 0.1375,-0.4613 0.3325,-0.8975 0.3275,-1.3863 0,-0.125 -0.2012,-0.16 -0.2237,-0.03 l 0,0"
         style="fill:#e19016;fill-opacity:1;fill-rule:nonzero;stroke:none"
         id="path10188-2" />
      <g
         transform="translate(119.23467,630.19952)"
         id="g15526">
        <path
           id="path11651-0"
           style="fill:#171717;fill-opacity:1;fill-rule:nonzero;stroke:none"
           d="m -1733.0055,-660.54542 c 0,1.5975 -0.9462,2.8925 -2.1137,2.8925 -1.1675,0 -2.1138,-1.295 -2.1138,-2.8925 0,-1.5975 0.9463,-2.8912 2.1138,-2.8912 1.1675,0 2.1137,1.2937 2.1137,2.8912"
           inkscape:connector-curvature="0" />
        <path
           id="path11653-7"
           style="fill:#171717;fill-opacity:1;fill-rule:nonzero;stroke:none"
           d="m -1757.3529,-660.54542 c 0,1.5975 -0.9463,2.8925 -2.1138,2.8925 -1.1675,0 -2.1137,-1.295 -2.1137,-2.8925 0,-1.5975 0.9462,-2.8912 2.1137,-2.8912 1.1675,0 2.1138,1.2937 2.1138,2.8912"
           inkscape:connector-curvature="0" />
        <path
           id="path11655-0"
           style="fill:#171717;fill-opacity:1;fill-rule:nonzero;stroke:none"
           d="m -1748.7342,-642.11412 c -10.4962,0 -12.2925,-6.635 -12.365,-6.9175 -0.084,-0.335 0.1188,-0.6738 0.4538,-0.7588 0.3337,-0.086 0.6725,0.1188 0.7587,0.45 l 0,0 c 0.062,0.2438 1.675,5.9763 11.1525,5.9763 11.3225,0 13.3413,-5.95 13.3613,-6.01 0.1037,-0.3275 0.4537,-0.5088 0.7837,-0.4063 0.33,0.105 0.5112,0.4563 0.4075,0.785 -0.09,0.2813 -2.325,6.8813 -14.5525,6.8813"
           inkscape:connector-curvature="0" />
        <path
           id="path11657-3"
           style="fill:#171717;fill-opacity:1;fill-rule:nonzero;stroke:none"
           d="m -1733.1792,-648.35042 c -0.9,0 -1.635,-0.2525 -2.195,-0.7562 -1.3575,-1.2188 -1.055,-3.4125 -1.0412,-3.505 0.05,-0.3425 0.3687,-0.5825 0.7062,-0.5275 0.3412,0.049 0.5787,0.365 0.5312,0.7062 0,0.016 -0.2187,1.6313 0.6413,2.4 0.5388,0.4788 1.4375,0.5613 2.6775,0.2425 0.3325,-0.084 0.675,0.115 0.7613,0.45 0.086,0.3338 -0.1151,0.675 -0.4501,0.7613 -0.5924,0.1525 -1.1374,0.2287 -1.6312,0.2287"
           inkscape:connector-curvature="0" />
        <path
           id="path11659-1"
           style="fill:#171717;fill-opacity:1;fill-rule:nonzero;stroke:none"
           d="m -1763.3805,-647.78792 c -0.034,0 -0.055,0 -0.064,0 -0.3438,-0.01 -0.6137,-0.2962 -0.605,-0.6412 0.01,-0.3438 0.2937,-0.6375 0.64,-0.6088 0.023,0 1.8387,0.031 2.6487,-1.04 0.48,-0.6362 0.5288,-1.5862 0.145,-2.8212 -0.1025,-0.3288 0.083,-0.68 0.4113,-0.7825 0.3325,-0.1038 0.6812,0.084 0.7825,0.4112 0.5112,1.6475 0.395,2.9763 -0.3462,3.9513 -1.1075,1.46 -3.2113,1.5312 -3.6126,1.5312"
           inkscape:connector-curvature="0" />
      </g>
      <path
         inkscape:connector-curvature="0"
         d="m -1709.1253,11.641925 c -0.13,-0.75 -1.2412,-0.8813 -1.385,-0.065 -0.068,0.38371 -0.1075,0.77 -0.185,1.15121 -0.071,0.345 -0.2663,0.6388 -0.3063,0.9913 -0.06,0.53369 0.4338,1.07 0.9926,0.8387 1.1512,-0.4737 1.06,-1.8912 0.8837,-2.9162"
         style="fill:#75471f;fill-opacity:1;fill-rule:nonzero;stroke:none"
         id="path11557-4" />
    </g>
  </g>
</svg>
