<?xml version="1.0" encoding="UTF-8" standalone="no"?>
<!-- Created with Inkscape (http://www.inkscape.org/) -->

<svg
   xmlns:dc="http://purl.org/dc/elements/1.1/"
   xmlns:cc="http://creativecommons.org/ns#"
   xmlns:rdf="http://www.w3.org/1999/02/22-rdf-syntax-ns#"
   xmlns:svg="http://www.w3.org/2000/svg"
   xmlns="http://www.w3.org/2000/svg"
   xmlns:sodipodi="http://sodipodi.sourceforge.net/DTD/sodipodi-0.dtd"
   xmlns:inkscape="http://www.inkscape.org/namespaces/inkscape"
   width="150"
   height="150"
   id="svg7496"
   version="1.1"
   inkscape:version="0.48.4 r9939"
   sodipodi:docname="carotte.svg">
  <defs
     id="defs7498">
    <clipPath
       id="clipPath11459"
       clipPathUnits="userSpaceOnUse">
      <path
         id="path11461"
         d="m 850.859,6831.69 c 0,0 -187.066,-1.97 -265.832,-137.84 -78.761,-135.87 -106.332,-393.82 92.551,-484.4 198.883,-90.58 226.449,-66.96 226.449,-66.96 0,0 -21.66,-49.22 0,-86.64 21.661,-37.41 47.258,-179.19 112.243,-200.85 64.98,-21.66 82.7,19.69 84.67,31.51 1.97,11.81 -33.47,-5.91 -49.23,-1.97 -15.75,3.94 -25.6,43.32 -37.41,68.92 -11.82,25.6 -21.663,47.26 -13.79,70.89 7.88,23.63 49.23,84.67 45.29,102.39 0,0 269.78,66.95 326.88,194.95 57.1,127.99 66.95,295.36 -27.57,391.85 -94.52,96.49 -218.57,137.84 -277.64,135.87 0,0 15.75,39.38 27.56,53.17 0,0 -76.79,-23.63 -102.393,-49.23 0,0 -5.907,39.38 -1.969,61.04 0,0 -68.918,-39.38 -68.918,-74.82 0,0 -63.012,78.76 -131.934,53.16 0,0 51.2,-33.47 61.043,-61.04 z"
         inkscape:connector-curvature="0" />
    </clipPath>
    <clipPath
       id="clipPath11797"
       clipPathUnits="userSpaceOnUse">
      <path
         id="path11799"
         d="m 2281.39,7271.13 c 0,0 29.48,32.66 57.68,43.52 28.2,10.87 17.33,55.36 97.76,52.68 80.42,-2.69 48.04,-78.76 48.04,-78.76 0,0 44.96,18.84 99.53,5.07 54.57,-13.76 65.44,-64.46 43.7,-116.27 -21.74,-51.82 -71.21,-140.02 -160.59,-127.44 -89.37,12.59 -206.79,158.11 -186.12,221.2 z"
         inkscape:connector-curvature="0" />
    </clipPath>
    <clipPath
       id="clipPath11811"
       clipPathUnits="userSpaceOnUse">
      <path
         id="path11813"
         d="m 2467.51,7049.93 c 0,0 19.31,95.19 73.65,101.71 54.34,6.52 89.11,32.6 86.94,69.55 -2.17,36.95 2.46,67.38 -53.11,73.9 0,0 -9.92,8.7 20.51,21.74 30.43,13.04 71.38,22 94.34,-3.41 22.95,-25.41 62.15,-67.81 49.11,-114.8 -13.04,-46.98 -119.33,-119.69 -163.96,-148.69 -44.63,-28.99 -78.75,-99.24 -107.48,0 z"
         inkscape:connector-curvature="0" />
    </clipPath>
    <clipPath
       id="clipPath11825"
       clipPathUnits="userSpaceOnUse">
      <path
         id="path11827"
         d="m 2467.51,6783.07 c 0,0 67.13,155.56 45.39,246.85 -21.73,91.29 -65.21,119.54 -158.67,171.71 -93.46,52.16 -150.46,126.07 -257.81,0 -107.35,-126.07 -20.41,-219.53 38.28,-278.22 58.69,-58.69 220.05,-152.45 332.81,-140.34 z"
         inkscape:connector-curvature="0" />
    </clipPath>
    <clipPath
       id="clipPath11843"
       clipPathUnits="userSpaceOnUse">
      <path
         id="path11845"
         d="m 2793.29,7198.62 c 0,0 23.91,-131.75 63.04,-188.26 39.12,-56.52 139.1,-343.43 0,-462.98 -139.11,-119.54 -354.74,-160.75 -433.19,-143.45 -78.45,17.3 -26.52,365.23 13.15,473.87 39.66,108.64 217.89,296.08 357,320.82 z"
         inkscape:connector-curvature="0" />
    </clipPath>
    <clipPath
       id="clipPath11859"
       clipPathUnits="userSpaceOnUse">
      <path
         id="path11861"
         d="m 2384.66,6393.06 c 0,0 65.21,-21.74 128.24,32.6 63.03,54.34 93.46,123.9 93.46,178.24 0,54.34 -32.6,215.18 -110.85,267.35 -78.25,52.16 -443.41,239.09 -473.84,289.08 -30.43,49.99 -45.64,-21.74 -56.51,-65.2 -10.87,-43.48 -37.59,-164.69 -67.7,-218.2 -30.11,-53.5 -85.09,-129.58 0,-251.3 85.09,-121.72 263.32,-234.74 487.2,-232.57 z"
         inkscape:connector-curvature="0" />
    </clipPath>
    <clipPath
       id="clipPath11493"
       clipPathUnits="userSpaceOnUse">
      <path
         id="path11495"
         d="m 4003.03,7499.29 c -169.8,4.36 -332.79,-105.57 -362.63,-190.49 -29.84,-84.92 -94.1,-330.5 -117.05,-381 -22.95,-50.49 -169.84,-234.1 -183.61,-348.86 -13.77,-114.75 34.42,-410.82 403.94,-456.73 369.52,-45.9 599.03,71.15 647.23,289.19 48.2,218.04 -89.51,507.22 -100.99,562.31 -11.47,55.08 71.15,516.4 -286.89,525.58 z"
         inkscape:connector-curvature="0" />
    </clipPath>
    <clipPath
       id="clipPath11565"
       clipPathUnits="userSpaceOnUse">
      <path
         id="path11567"
         d="m 5470.49,6976.77 c -107.65,26.44 -398.48,47.21 -500.46,-234.18 -101.98,-281.39 136.59,-508.95 258.73,-559.01 153.6,-62.95 394.7,-98.2 638.32,37.77 243.62,135.98 288.95,460.81 166.19,602.45 -122.75,141.64 -251.17,228.51 -562.78,152.97 z"
         inkscape:connector-curvature="0" />
    </clipPath>
    <clipPath
       id="clipPath11889"
       clipPathUnits="userSpaceOnUse">
      <path
         id="path11891"
         d="m 7358.51,6565.15 c -1.91,-11.65 -4.42,-23.57 -7.91,-35.55 -22.63,-77.81 -64.54,-5.94 -109.7,-23.7 -45.16,-17.76 -18.64,-74.88 -95.02,-100.19 -76.37,-25.32 -106.85,88.06 -189.34,55.24 -73.74,-29.34 -74.39,34.08 -120.61,32.38 -46.21,-1.69 -56.22,-28.94 -84.26,-61.72 -28.04,-32.78 -92.32,5.1 -134.92,38.19 -27.53,21.38 -32.3,63.5 -32.25,90.71 -15.21,-99.32 25.77,-275.33 160.49,-347.35 153.45,-82.04 190.11,-73.56 190.11,-73.56 0,0 57.04,-88.35 43.61,-118.08 -13.44,-29.74 -65.56,-138.33 -13.81,-192.28 51.75,-53.95 96.66,-14.93 96.66,-14.93 0,0 -69.06,-12.31 -74.86,41.61 -5.81,53.92 14.24,57.89 14.24,57.89 0,0 53.5,-31.24 73.96,-13.2 0,0 -48.46,18.09 -53.35,43.59 -4.9,25.5 -0.1,56.57 6.68,66.13 6.78,9.56 62.05,46.97 41.39,142.06 0,0 176.48,39.37 250.01,131.03 55.11,68.71 62.13,190.21 38.88,281.73 z"
         inkscape:connector-curvature="0" />
    </clipPath>
    <clipPath
       id="clipPath11763"
       clipPathUnits="userSpaceOnUse">
      <path
         id="path11765"
         d="m 925.598,5230.68 c -82.36,-2.22 -420.496,-128.97 -420.684,-442.94 -0.168,-281.56 200.324,-469.65 471.875,-489.68 271.551,-20.03 581.621,194.31 583.171,505.26 1.69,340.56 -378.39,420.69 -438.49,427.36 0,0 28.93,75.68 82.35,117.97 0,0 -55.64,6.68 -93.48,-11.13 0,0 -2.23,55.65 -24.48,120.2 0,0 -91.262,-62.33 -106.844,-84.58 0,0 -51.196,35.61 -84.582,51.19 0,0 42.293,-155.81 31.164,-193.65 z"
         inkscape:connector-curvature="0" />
    </clipPath>
    <clipPath
       id="clipPath11597"
       clipPathUnits="userSpaceOnUse">
      <path
         id="path11599"
         d="m 4172.82,5122.8 c -27.71,-1.85 -61.7,30.85 -64.07,47.46 -2.37,16.61 21.36,80.68 47.46,111.53 26.1,30.85 116.28,90.18 116.28,102.04 0,11.87 -40.34,42.71 -59.33,36.78 -18.98,-5.93 -54.58,-36.78 -54.58,-36.78 0,0 35.6,66.44 47.46,78.31 11.87,11.86 -64.4,49.83 -97.45,47.46 0,0 -113.74,-106.79 -137.47,-168.48 -23.73,-61.7 -23.73,-144.16 -40.35,-156.33 -16.61,-12.16 -73.56,-50.13 -116.27,-61.99 -42.72,-11.87 -154.25,-27.29 -237.3,-77.72 -83.06,-50.42 -161.37,-131.52 -170.86,-200.13 -9.49,-68.61 23.73,-213.36 121.02,-296.42 97.3,-83.06 277.64,-147.13 353.58,-144.75 75.94,2.37 123.4,37.96 123.4,37.96 0,0 80.68,-35.59 144.75,-4.74 0,0 59.33,-23.73 140.01,14.24 80.68,37.96 287.13,189.84 246.79,439 -40.34,249.17 -161.36,261.41 -187.47,263.6 -26.1,2.18 -140,-28.67 -175.6,-31.04 z"
         inkscape:connector-curvature="0" />
    </clipPath>
    <clipPath
       id="clipPath12061"
       clipPathUnits="userSpaceOnUse">
      <path
         id="path12063"
         d="m 5357,5573.74 c 0,0 -47.6,9.52 -55.21,-28.55 0,0 -38.08,-7.62 -30.46,-55.21 0,0 -11.54,-95.19 -1.01,-159.92 10.53,-64.73 52.41,-220.83 54.31,-258.91 0,0 -9.52,-34.27 1.91,-45.69 0,0 7.61,-108.52 -1.91,-190.38 -9.52,-81.86 -1.9,-197.99 5.71,-218.93 0,0 3.81,-43.79 26.66,-53.31 0,0 -26.66,-51.4 19.03,-60.92 0,0 38.08,-47.59 60.92,-53.3 22.85,-5.71 53.31,-36.17 66.64,-34.27 13.32,1.9 89.47,-11.42 127.55,36.17 38.07,47.6 62.82,62.83 60.92,83.77 -1.9,20.94 0,36.17 9.52,45.69 9.52,9.52 13.32,39.98 0,62.82 0,0 26.65,9.52 26.65,60.92 0,51.4 22.93,98.71 23.52,156.11 0.74,72.34 -16.39,138.37 -25.42,197.99 -13,85.72 -116.13,352.2 -194.19,441.68 -78.05,89.47 -114.22,62.82 -114.22,62.82 0,0 -32.37,36.17 -60.92,11.42 z"
         inkscape:connector-curvature="0" />
    </clipPath>
    <clipPath
       id="clipPath11933"
       clipPathUnits="userSpaceOnUse">
      <path
         id="path11935"
         d="m 6632.27,4588.65 c 0,0 -25.37,72.71 20.29,93 0,0 -20.29,43.97 16.91,67.64 0,0 -16.91,50.73 13.53,59.19 0,0 -23.68,32.13 8.45,52.42 0,0 -15.22,45.66 18.6,64.26 0,0 -18.6,52.42 18.6,64.26 0,0 -20.29,39.94 13.53,57.17 0,0 -16.91,42.6 15.22,57.81 0,0 -21.98,37.21 25.37,59.19 0,0 -11.84,33.82 21.98,50.73 0,0 -11.84,42.28 30.44,55.8 0,0 1.69,30.44 28.74,35.52 0,0 -10.14,55.8 45.66,69.33 0,0 -13.53,28.74 49.04,42.27 0,0 -27.05,32.13 -27.05,57.5 l 52.42,-43.97 c 0,0 6.76,23.67 13.53,43.97 0,0 13.52,-45.66 18.6,-49.04 5.07,-3.38 18.6,16.91 32.13,-1.69 0,0 32.12,40.58 42.27,50.73 0,0 -1.69,-45.66 -20.29,-62.57 0,0 38.89,-3.38 50.73,1.69 0,0 -21.98,-20.29 -32.13,-25.36 0,0 33.82,-8.46 11.84,-38.9 0,0 40.58,-25.36 11.83,-59.18 0,0 47.65,-38.9 10.3,-67.64 0,0 21.83,-38.9 -8.61,-64.26 0,0 28.75,-35.51 -1.69,-69.33 0,0 33.82,-30.44 0,-57.5 0,0 35.51,-45.66 -13.52,-84.55 0,0 27.05,-42.27 -13.53,-71.02 0,0 33.82,-32.13 -6.77,-60.88 0,0 23.68,-42.27 -15.22,-65.95 0,0 27.06,-50.73 -28.74,-67.64 0,0 49.04,-81.17 -13.53,-93 0,0 -20.29,-74.41 -79.48,-65.95 0,0 -19.64,-71.03 -60.55,-54.12 0,0 -56.13,-65.95 -95.02,-18.6 0,0 -86.24,-18.6 -101.46,50.73 0,0 -84.55,27.06 -52.42,87.94 z"
         inkscape:connector-curvature="0" />
    </clipPath>
    <clipPath
       id="clipPath11627"
       clipPathUnits="userSpaceOnUse">
      <path
         id="path11629"
         d="m 2223.84,3484.33 c 0,0 246.71,55.6 288.41,90.35 42.03,35.02 121.28,171.52 93.81,274.5 0,0 180.69,34.75 205.01,0 0,0 -79.92,-170.26 -132.04,-218.91 -52.12,-48.64 0,-90.74 48.65,-95.75 48.65,-5.01 114.67,-50.19 114.67,-50.19 0,0 -441.29,-215.43 -618.51,0 z"
         inkscape:connector-curvature="0" />
    </clipPath>
    <clipPath
       id="clipPath11639"
       clipPathUnits="userSpaceOnUse">
      <path
         id="path11641"
         d="m 2314.19,3484.33 c 0,0 -166.79,145.94 -406.55,-86.86 -239.75,-232.81 -236.28,-451.72 -208.48,-521.21 27.8,-69.5 180.69,-271.03 271.03,-208.49 0,0 277.98,-211.95 531.63,0 0,0 135.52,-113.5 333.58,37.07 0,0 170.26,-44.02 298.82,199.22 128.57,243.23 -52.12,531.63 -128.56,590.7 -76.45,59.07 -191.11,0 -205.01,-31.27 0,0 -104.24,138.98 -211.96,-17.38 0,0 -79.92,170.26 -274.5,38.22 z"
         inkscape:connector-curvature="0" />
    </clipPath>
    <clipPath
       id="clipPath11991"
       clipPathUnits="userSpaceOnUse">
      <path
         id="path11993"
         d="m 5662.36,3891.14 c -86.84,-12.36 -238.23,-43.25 -346.36,-247.17 -108.14,-203.91 -228.64,-308.96 -253.35,-528.32 -24.72,-219.37 -6.18,-559.23 274.97,-549.96 281.16,9.27 343.6,169.93 324.74,336.77 -18.86,166.84 -201.15,342.95 -219.69,407.83 -18.54,64.88 -24.72,135.95 -12.36,163.75 12.36,27.81 299.7,166.84 293.52,302.79 -6.18,135.94 -61.47,114.31 -61.47,114.31 z"
         inkscape:connector-curvature="0" />
    </clipPath>
    <clipPath
       id="clipPath12017"
       clipPathUnits="userSpaceOnUse">
      <path
         id="path12019"
         d="m 6678.13,3172.89 c 0,0 92.8,-126.71 139.2,-137.42 46.4,-10.71 73.17,39.26 78.53,78.53 5.35,39.26 57.11,64.25 64.25,37.48 7.14,-26.77 -14.28,-122.52 33.91,-117.48 48.18,5.04 101.73,101.41 105.29,110.34 3.57,8.92 112.44,-17.73 91.02,-40.99 -21.41,-23.26 -58.89,-51.82 -53.54,-78.59 5.36,-26.77 73.18,-24.98 139.21,33.91 66.03,58.9 15.75,-45.63 0,-50.51 -15.75,-4.87 -139.21,-58.35 -153.48,-108.33 -14.28,-49.97 55.32,-160.62 48.18,-176.68 -7.14,-16.06 -94.59,-73.17 -192.75,-76.74 -98.15,-3.57 -192.74,33.91 -198.1,64.25 -5.35,30.34 44.62,149.67 19.63,198.87 -24.98,49.2 -139.2,175.91 -194.53,193.76 -55.32,17.85 46.4,66.03 73.18,69.6 z"
         inkscape:connector-curvature="0" />
    </clipPath>
    <clipPath
       id="clipPath12219"
       clipPathUnits="userSpaceOnUse">
      <path
         id="path12221"
         d="m 2198.71,1333.97 c 0,0 41.77,-105.05 0,-151.39 -41.77,-46.34 -196.25,-308.959 222.67,-308.959 352.34,0 228.12,256.439 182.67,302.779 -45.46,46.35 -10.16,145.21 0,176.11 10.15,30.9 -406.82,216.27 -405.34,-18.54 z"
         inkscape:connector-curvature="0" />
    </clipPath>
    <clipPath
       id="clipPath12231"
       clipPathUnits="userSpaceOnUse">
      <path
         id="path12233"
         d="m 2424.19,1921 c -310.65,-8.05 -557.68,-239.11 -548.41,-394.53 9.27,-155.42 92.81,-260.47 322.93,-238.84 230.12,21.63 591.6,-58.16 705.92,-2.82 114.31,55.34 234.81,654.73 -480.44,636.19 z"
         inkscape:connector-curvature="0" />
    </clipPath>
    <clipPath
       id="clipPath12191"
       clipPathUnits="userSpaceOnUse">
      <path
         id="path12193"
         d="m 5673.69,2058.33 c -139.36,85.04 -272.8,14.07 -384.55,-88.72 -111.75,-102.8 -374.7,-516.94 -276.09,-756.87 98.6,-239.939 266.23,-302.388 285.95,-308.959 19.72,-6.582 78.88,-65.742 128.18,-55.883 49.31,9.864 95.32,65.743 95.32,65.743 0,0 207.07,115.039 213.64,256.369 6.58,141.33 -72.31,395.47 -52.59,472.18 19.73,76.71 162.15,311.19 -9.86,416.14 z"
         inkscape:connector-curvature="0" />
    </clipPath>
    <clipPath
       id="clipPath11667"
       clipPathUnits="userSpaceOnUse">
      <path
         id="path11669"
         d="m 6976.1,1570.56 c -99.83,-11.09 -161.95,-119.8 -175.26,-170.82 -13.31,-51.03 -8.87,-228.5 87.63,-334.99 0,0 -9.98,-130.891 29.95,-177.48 0,0 -8.87,-84.301 28.84,-139.758 0,0 -6.66,-108.711 37.71,-119.801 44.37,-11.09 62.12,31.059 68.78,110.93 0,0 42.15,39.929 24.4,126.449 0,0 62.12,109.172 46.59,233.17 0,0 88.35,137.27 63.95,316.97 -24.4,179.69 -212.59,155.33 -212.59,155.33 z"
         inkscape:connector-curvature="0" />
    </clipPath>
    <clipPath
       id="clipPath12297"
       clipPathUnits="userSpaceOnUse">
      <path
         id="path12299"
         d="m 2370.97,5151.15 c -106.09,2.11 -285.31,-45.39 -328.53,-220.46 -41.46,-167.89 159.49,-323.78 233.24,-368.7 -6.78,8.56 -6.13,14.45 2.35,13.15 14.05,-2.16 42.15,-21.56 58.36,-13.48 16.21,8.07 64.84,23.26 63.76,0 -1.08,-23.27 41.06,-0.57 58.36,6.99 13.32,5.83 36,1.96 29.2,-13.54 60.72,38.97 152.92,99.64 186.94,197.26 49.71,142.65 21.61,392.3 -303.68,398.78 z"
         inkscape:connector-curvature="0" />
    </clipPath>
  </defs>
  <sodipodi:namedview
     id="base"
     pagecolor="#ffffff"
     bordercolor="#666666"
     borderopacity="1.0"
     inkscape:pageopacity="0.0"
     inkscape:pageshadow="2"
     inkscape:zoom="1.9445436"
     inkscape:cx="27.293245"
     inkscape:cy="79.335803"
     inkscape:current-layer="layer1"
     showgrid="true"
     inkscape:document-units="px"
     inkscape:grid-bbox="true"
     inkscape:window-width="1280"
     inkscape:window-height="748"
     inkscape:window-x="0"
     inkscape:window-y="0"
     inkscape:window-maximized="1" />
  <metadata
     id="metadata7501">
    <rdf:RDF>
      <cc:Work
         rdf:about="">
        <dc:format>image/svg+xml</dc:format>
        <dc:type
           rdf:resource="http://purl.org/dc/dcmitype/StillImage" />
        <dc:title></dc:title>
      </cc:Work>
    </rdf:RDF>
  </metadata>
  <g
     id="layer1"
     inkscape:label="Layer 1"
     inkscape:groupmode="layer"
     transform="translate(0,86)">
    <g
       id="g9941"
       transform="matrix(0.49480689,0.45252497,-0.45252497,0.49480689,375.96244,680.92682)">
      <path
         inkscape:connector-curvature="0"
         d="m -1036.3236,-466.52498 c -13.2613,-0.2638 -35.6638,5.6737 -41.0663,27.5575 -5.1825,20.9862 19.9362,40.4725 29.155,46.0875 -0.8475,-1.07 -0.7663,-1.8063 0.2937,-1.6438 1.7563,0.27 5.2688,2.695 7.295,1.685 2.0263,-1.0087 8.105,-2.9075 7.9701,0 -0.1351,2.9088 5.1324,0.071 7.2949,-0.8737 1.6651,-0.7288 4.5,-0.245 3.65,1.6925 7.59,-4.8713 19.1151,-12.455 23.36757,-24.6575 6.2137,-17.8313 2.7012,-49.0375 -37.95997,-49.8475"
         style="fill:#e31744;fill-opacity:1;fill-rule:nonzero;stroke:none"
         id="path12291" />
      <g
         transform="matrix(0.125,0,0,-0.125,-1332.6949,177.36876)"
         id="g12293">
        <g
           id="g12295"
           clip-path="url(#clipPath12297)">
          <path
             inkscape:connector-curvature="0"
             d="m 2042.44,4930.69 c 0,0 9.65,-158.42 146.07,-250.24 136.41,-91.82 212.49,-72.6 270.21,-45.48 57.71,27.12 78.41,38.92 78.41,38.92 0,0 -63.99,-14.43 -66.61,-6.56 -2.62,7.87 141.33,54.38 182.33,124.22 40.99,69.85 22.09,185.08 22.09,185.08 0,0 94.24,-193.87 19.02,-285.69 -75.22,-91.81 -182.63,-209.21 -328.3,-188.55 -145.67,20.66 -364.36,185.34 -323.22,428.3"
             style="fill:#bf1646;fill-opacity:1;fill-rule:nonzero;stroke:none"
             id="path12301" />
        </g>
      </g>
      <path
         inkscape:connector-curvature="0"
         d="m -1033.5212,-361.52878 c 0,0 1.0138,1.7225 2.4325,2.1288 1.4175,0.405 2.6338,1.5187 2.5326,2.2287 -0.1013,0.7088 -4.2551,0.6075 -4.9651,0 -0.7087,-0.6087 0,-4.3575 0,-4.3575"
         style="fill:#f4a9b2;fill-opacity:1;fill-rule:nonzero;stroke:none"
         id="path12303" />
      <path
         inkscape:connector-curvature="0"
         d="m -1040.2074,-371.05248 c 0,0 -3.7488,4.56 -4.7625,5.5725 -1.0125,1.0137 1.2162,1.115 2.3813,0.9125 1.165,-0.2025 1.9762,-0.2025 2.3812,-0.71 0.405,-0.5063 0,-5.775 0,-5.775"
         style="fill:#f4a9b2;fill-opacity:1;fill-rule:nonzero;stroke:none"
         id="path12305" />
      <path
         inkscape:connector-curvature="0"
         d="m -1025.3812,-393.71248 c -2.1625,0.945 -7.43,3.7825 -7.2949,0.8737 0.1349,-2.9075 -5.9438,-1.0087 -7.9701,0 -2.0262,1.01 -5.5387,-1.415 -7.295,-1.685 -1.06,-0.1625 -1.1412,0.5738 -0.2937,1.6438 0.395,0.24 0.7712,0.465 1.1037,0.6537 8.1063,4.5925 7.025,9.455 6.485,12.9675 -0.5412,3.5125 -0.27,17.325 0.54,22.02 0.5976,3.46 3.6475,12.2925 10.6713,18.1013 7.025,5.8087 14.86,0.675 16.2112,-2.9725 1.18,-3.1875 2.1538,-2.97 2.3813,-2.865 -0.2487,-0.1413 -1.9713,-1.0075 -3.5975,1.245 -1.7562,2.4312 -5.9437,4.7275 -7.7,4.0525 -1.7563,-0.6763 -1.35,-2.4325 -3.9175,-2.7025 -2.5663,-0.27 -6.8887,-10.1313 -6.8887,-17.02 0,-6.89 1.4849,-22.425 4.3224,-27.4238 0.7263,-1.2787 3.3913,-2.95 6.8925,-5.1962 0.85,-1.9375 -1.985,-2.4213 -3.65,-1.6925"
         style="fill:#f4a9b2;fill-opacity:1;fill-rule:nonzero;stroke:none"
         id="path12309" />
      <path
         inkscape:connector-curvature="0"
         d="m -1018.9274,-403.84248 c -0.7375,0.2212 -1.3513,0.8187 -2.05,1.1512 -0.3462,0.1638 -0.2713,0.7313 0.1525,0.6863 0.8963,-0.095 1.9363,-0.5238 2.2513,-1.445 0.081,-0.235 -0.096,-0.4688 -0.3538,-0.3925"
         style="fill:#9f1735;fill-opacity:1;fill-rule:nonzero;stroke:none"
         id="path12311" />
      <path
         inkscape:connector-curvature="0"
         d="m -1030.2112,-405.16878 c -0.4987,0.07 -0.8737,0.38 -1.2987,0.6363 -0.6575,0.3975 -1.4275,0.4787 -2.13,0.1712 -0.4275,-0.1875 -0.855,0.4 -0.4613,0.7038 0.71,0.5475 1.4626,0.72 2.3413,0.5337 0.7875,-0.1662 1.7975,-0.755 1.9563,-1.5975 0.044,-0.2337 -0.1613,-0.4825 -0.4076,-0.4475"
         style="fill:#9f1735;fill-opacity:1;fill-rule:nonzero;stroke:none"
         id="path12313" />
      <path
         inkscape:connector-curvature="0"
         d="m -1015.8137,-418.15498 c -1.0312,1.215 -1.4587,2.9237 -3.2574,3.2037 -0.4575,0.071 -0.5588,0.8288 -0.04,0.865 2.0787,0.1463 3.7574,-1.92 3.8199,-3.9012 0.01,-0.2675 -0.37,-0.3475 -0.5225,-0.1675"
         style="fill:#9f1735;fill-opacity:1;fill-rule:nonzero;stroke:none"
         id="path12315" />
      <path
         inkscape:connector-curvature="0"
         d="m -1006.4112,-419.18248 c -0.3512,0.2137 -0.5762,0.57 -0.9925,0.68 -0.4087,0.1075 -0.2387,0.72 0.155,0.6987 0.6776,-0.037 1.21,-0.505 1.2338,-1.1925 0.01,-0.205 -0.2513,-0.2737 -0.3963,-0.1862"
         style="fill:#9f1735;fill-opacity:1;fill-rule:nonzero;stroke:none"
         id="path12317" />
      <path
         inkscape:connector-curvature="0"
         d="m -1018.5224,-430.38628 c -0.8763,0.3613 -1.4025,1.2475 -2.3,1.6263 -0.505,0.2137 -0.3625,1.0125 0.2125,0.9575 1.1413,-0.11 2.3325,-1.0763 2.465,-2.265 0.024,-0.2025 -0.1638,-0.4075 -0.3775,-0.3188"
         style="fill:#9f1735;fill-opacity:1;fill-rule:nonzero;stroke:none"
         id="path12319" />
      <path
         inkscape:connector-curvature="0"
         d="m -1029.1924,-414.64128 c -0.3538,0.075 -0.67,0.2413 -1.005,0.375 -0.4612,0.1838 -1.0313,0.1338 -1.5113,0.069 -0.6549,-0.09 -0.7812,0.795 -0.1799,0.9837 0.92,0.2888 2.9649,0.3238 3.0487,-1.04 0.011,-0.1887 -0.1213,-0.4375 -0.3525,-0.3875"
         style="fill:#9f1735;fill-opacity:1;fill-rule:nonzero;stroke:none"
         id="path12321" />
      <path
         inkscape:connector-curvature="0"
         d="m -1042.4024,-400.00378 c -0.3112,-0.1512 -0.64,-0.1637 -0.98,-0.2162 -0.525,-0.08 -0.9837,-0.3638 -1.455,-0.5888 -0.2875,-0.1375 -0.5325,0.1925 -0.3825,0.4463 0.5025,0.8475 2.0912,1.7012 2.9175,0.84 0.14,-0.145 0.073,-0.3975 -0.1,-0.4813"
         style="fill:#9f1735;fill-opacity:1;fill-rule:nonzero;stroke:none"
         id="path12323" />
      <path
         inkscape:connector-curvature="0"
         d="m -1005.2237,-438.06878 c -0.7049,0.4775 -1.1849,1.1163 -2.0325,1.3763 -0.6512,0.2012 -0.2887,1.1712 0.3575,0.9887 1.0213,-0.2887 2.0976,-0.9912 2.15,-2.1412 0.011,-0.2388 -0.3049,-0.3388 -0.475,-0.2238"
         style="fill:#9f1735;fill-opacity:1;fill-rule:nonzero;stroke:none"
         id="path12325" />
      <path
         inkscape:connector-curvature="0"
         d="m -1011.8712,-449.96628 c -0.6125,0.37 -0.9437,0.95 -1.7249,1.0163 -0.5051,0.044 -0.4363,0.815 0.069,0.7825 0.89,-0.056 1.835,-0.6375 2.02,-1.565 0.043,-0.21 -0.195,-0.3363 -0.3638,-0.2338"
         style="fill:#9f1735;fill-opacity:1;fill-rule:nonzero;stroke:none"
         id="path12327" />
      <path
         inkscape:connector-curvature="0"
         d="m -1028.9962,-439.64248 c 0,1.455 -0.8612,2.6337 -1.925,2.6337 -1.0625,0 -1.9249,-1.1787 -1.9249,-2.6337 0,-1.455 0.8624,-2.6338 1.9249,-2.6338 1.0638,0 1.925,1.1788 1.925,2.6338"
         style="fill:#171717;fill-opacity:1;fill-rule:nonzero;stroke:none"
         id="path12329" />
      <path
         inkscape:connector-curvature="0"
         d="m -1043.4387,-439.64248 c 0,1.455 -0.8612,2.6337 -1.9249,2.6337 -1.0625,0 -1.9251,-1.1787 -1.9251,-2.6337 0,-1.455 0.8626,-2.6338 1.9251,-2.6338 1.0637,0 1.9249,1.1788 1.9249,2.6338"
         style="fill:#171717;fill-opacity:1;fill-rule:nonzero;stroke:none"
         id="path12331" />
      <path
         inkscape:connector-curvature="0"
         d="m -1038.5862,-429.89878 c -2.8087,0 -4.1412,-2.1575 -4.4537,-3.2975 -0.09,-0.3325 0.105,-0.6762 0.4387,-0.7675 0.3263,-0.091 0.6738,0.1038 0.7663,0.435 l 0,0 c 0.029,0.096 0.7062,2.38 3.2487,2.38 3.0238,0 3.32,-2.1925 3.33,-2.2862 0.041,-0.3425 0.3513,-0.5888 0.695,-0.5475 0.3426,0.041 0.5875,0.3525 0.5463,0.695 -0.1388,1.1725 -1.275,3.3887 -4.5713,3.3887"
         style="fill:#171717;fill-opacity:1;fill-rule:nonzero;stroke:none"
         id="path12333" />
      <path
         inkscape:connector-curvature="0"
         d="m -1034.9724,-465.57878 c -6.2125,-0.1675 -13.5088,2.1613 -7.565,4.1875 5.9438,2.0263 21.0738,1.6213 20.5325,0 -0.54,-1.6212 -2.745,-3.9137 -12.9675,-4.1875"
         style="fill:#9f1735;fill-opacity:1;fill-rule:nonzero;stroke:none"
         id="path12335" />
      <path
         inkscape:connector-curvature="0"
         d="m -1037.4562,-462.80378 c 0,0 -3.0549,-26.2812 -11.7687,-38.8437 -8.7125,-12.5638 -18.6412,-43.9713 -10.9413,-48.6313 7.7,-4.6612 11.955,15.1975 11.955,15.1975 0,0 -8.5112,-43.9712 17.4263,-47.8212 25.9362,-3.85 -1.3112,47.01 -2.58,52.6837 0,0 6.7962,-7.7 11.375,-4.66 4.5787,3.0388 -6.7688,20.6675 -8.39,27.9625 -1.6213,7.295 1.1862,36.4988 -0.2025,40.7288 -1.39,4.23 -1.9788,5.2412 -6.8738,3.3837"
         style="fill:#459c38;fill-opacity:1;fill-rule:nonzero;stroke:none"
         id="path12337" />
      <path
         inkscape:connector-curvature="0"
         d="m -1035.0287,-464.25378 c 0,0 -2.01,-24.1025 -6.2512,-40.17 -4.2425,-16.0687 -6.21,-52.14 8.8738,-73.9462 0,0 -12.1813,24.1687 -9.6738,54.5987 2.0137,24.42 7.215,41.4813 7.0512,59.5175"
         style="fill:#3b8334;fill-opacity:1;fill-rule:nonzero;stroke:none"
         id="path12339" />
      <path
         inkscape:connector-curvature="0"
         d="m -1055.8524,-540.65998 c 0,0 4.0562,17.8725 13.4238,31.0712 l 1.1487,5.165 c 0,0 -11.9488,-16.2325 -14.5725,-36.2362"
         style="fill:#3b8334;fill-opacity:1;fill-rule:nonzero;stroke:none"
         id="path12341" />
      <path
         inkscape:connector-curvature="0"
         d="m -1041.2799,-513.93378 c 0,0 6.7425,-11.805 14.285,-17.0525 0,0 -7.425,9.9563 -13.7212,19.8538 l -0.5638,-2.8013"
         style="fill:#3b8334;fill-opacity:1;fill-rule:nonzero;stroke:none"
         id="path12343" />
      <path
         inkscape:connector-curvature="0"
         d="m -1039.2962,-462.80378 c 0,0 -7.0912,-19.3912 -17.6287,-21.4175 -10.5363,-2.0262 -21.8838,5.0663 -25.9363,-1.6212 -4.0525,-6.6863 3.445,-17.2238 18.845,-12.5625 0,0 -13.1712,-10.9425 -9.1187,-19.0475 4.0525,-8.105 22.7463,9.3212 28.3938,19.8575 5.6475,10.5362 8.0574,28.84 7.7224,33.0287 -0.335,4.1888 -2.2775,1.7625 -2.2775,1.7625"
         style="fill:#51b837;fill-opacity:1;fill-rule:nonzero;stroke:none"
         id="path12345" />
      <path
         inkscape:connector-curvature="0"
         d="m -1037.9799,-464.25378 c 0,0 0,-28.2012 -27.8738,-48.5325 0,0 23.2826,16.2325 27.8738,48.5325"
         style="fill:#3b8334;fill-opacity:1;fill-rule:nonzero;stroke:none"
         id="path12347" />
      <path
         inkscape:connector-curvature="0"
         d="m -1077.3312,-493.26248 c 0,0 15.325,-5.15 30.0425,1.435 l 0.8363,2.055 c 0,0 -6.94,-6.1013 -30.8788,-3.49"
         style="fill:#3b8334;fill-opacity:1;fill-rule:nonzero;stroke:none"
         id="path12349" />
      <path
         inkscape:connector-curvature="0"
         d="m -1032.4061,-462.80378 c 0,0 3.85,-9.5975 0,-18.04 -3.8501,-8.4437 -9.1188,-33.3675 0,-36.4062 9.1187,-3.04 6.4837,15.1975 6.4837,15.1975 0,0 5.8762,-24.1138 22.695,-23.3025 16.81877,0.81 -8.3075,22.8962 -9.1187,23.3025 -0.81,0.405 19.85867,-6.485 18.64237,6.0787 -1.2162,12.5625 -27.15247,20.2625 -30.39497,24.1125 -3.2412,3.85 -3.8499,10.335 -3.8499,10.335 0,0 -3.6638,1.4263 -4.4575,-1.2775"
         style="fill:#51b837;fill-opacity:1;fill-rule:nonzero;stroke:none"
         id="path12351" />
      <path
         inkscape:connector-curvature="0"
         d="m -1029.8261,-462.80378 c 0,0 3.5962,-16.2725 4.4712,-28.0175 0.8737,-11.745 9.1687,-26.67 19.34,-30.0287 0,0 -15.16,10.9325 -17.455,26.6737 -2.295,15.74 -4.3512,27.0838 -6.3562,31.3725"
         style="fill:#3b8334;fill-opacity:1;fill-rule:nonzero;stroke:none"
         id="path12353" />
      <path
         inkscape:connector-curvature="0"
         d="m -1031.0936,-509.58878 c 0,0 2.0487,17.9638 5.1237,24.7625 l -0.2925,2.2075 c 0,0 -5.16,-12.6237 -4.8312,-26.97"
         style="fill:#3b8334;fill-opacity:1;fill-rule:nonzero;stroke:none"
         id="path12355" />
      <path
         inkscape:connector-curvature="0"
         d="m -1023.9662,-490.82128 c 0,0 11.3175,-7.865 23.0413,-7.865 0,0 -15.9612,3.8575 -23.3525,9.9225 0,0 -0.6363,-1.44 0.3112,-2.0575"
         style="fill:#3b8334;fill-opacity:1;fill-rule:nonzero;stroke:none"
         id="path12357" />
    </g>
  </g>
</svg>
