<?xml version="1.0" encoding="UTF-8" standalone="no"?>
<!-- Created with Inkscape (http://www.inkscape.org/) -->

<svg
   xmlns:dc="http://purl.org/dc/elements/1.1/"
   xmlns:cc="http://creativecommons.org/ns#"
   xmlns:rdf="http://www.w3.org/1999/02/22-rdf-syntax-ns#"
   xmlns:svg="http://www.w3.org/2000/svg"
   xmlns="http://www.w3.org/2000/svg"
   xmlns:sodipodi="http://sodipodi.sourceforge.net/DTD/sodipodi-0.dtd"
   xmlns:inkscape="http://www.inkscape.org/namespaces/inkscape"
   width="150"
   height="150"
   id="svg7496"
   version="1.1"
   inkscape:version="0.48.4 r9939"
   sodipodi:docname="patate.svg">
  <defs
     id="defs7498">
    <clipPath
       id="clipPath11459"
       clipPathUnits="userSpaceOnUse">
      <path
         id="path11461"
         d="m 850.859,6831.69 c 0,0 -187.066,-1.97 -265.832,-137.84 -78.761,-135.87 -106.332,-393.82 92.551,-484.4 198.883,-90.58 226.449,-66.96 226.449,-66.96 0,0 -21.66,-49.22 0,-86.64 21.661,-37.41 47.258,-179.19 112.243,-200.85 64.98,-21.66 82.7,19.69 84.67,31.51 1.97,11.81 -33.47,-5.91 -49.23,-1.97 -15.75,3.94 -25.6,43.32 -37.41,68.92 -11.82,25.6 -21.663,47.26 -13.79,70.89 7.88,23.63 49.23,84.67 45.29,102.39 0,0 269.78,66.95 326.88,194.95 57.1,127.99 66.95,295.36 -27.57,391.85 -94.52,96.49 -218.57,137.84 -277.64,135.87 0,0 15.75,39.38 27.56,53.17 0,0 -76.79,-23.63 -102.393,-49.23 0,0 -5.907,39.38 -1.969,61.04 0,0 -68.918,-39.38 -68.918,-74.82 0,0 -63.012,78.76 -131.934,53.16 0,0 51.2,-33.47 61.043,-61.04 z"
         inkscape:connector-curvature="0" />
    </clipPath>
    <clipPath
       id="clipPath11797"
       clipPathUnits="userSpaceOnUse">
      <path
         id="path11799"
         d="m 2281.39,7271.13 c 0,0 29.48,32.66 57.68,43.52 28.2,10.87 17.33,55.36 97.76,52.68 80.42,-2.69 48.04,-78.76 48.04,-78.76 0,0 44.96,18.84 99.53,5.07 54.57,-13.76 65.44,-64.46 43.7,-116.27 -21.74,-51.82 -71.21,-140.02 -160.59,-127.44 -89.37,12.59 -206.79,158.11 -186.12,221.2 z"
         inkscape:connector-curvature="0" />
    </clipPath>
    <clipPath
       id="clipPath11811"
       clipPathUnits="userSpaceOnUse">
      <path
         id="path11813"
         d="m 2467.51,7049.93 c 0,0 19.31,95.19 73.65,101.71 54.34,6.52 89.11,32.6 86.94,69.55 -2.17,36.95 2.46,67.38 -53.11,73.9 0,0 -9.92,8.7 20.51,21.74 30.43,13.04 71.38,22 94.34,-3.41 22.95,-25.41 62.15,-67.81 49.11,-114.8 -13.04,-46.98 -119.33,-119.69 -163.96,-148.69 -44.63,-28.99 -78.75,-99.24 -107.48,0 z"
         inkscape:connector-curvature="0" />
    </clipPath>
    <clipPath
       id="clipPath11825"
       clipPathUnits="userSpaceOnUse">
      <path
         id="path11827"
         d="m 2467.51,6783.07 c 0,0 67.13,155.56 45.39,246.85 -21.73,91.29 -65.21,119.54 -158.67,171.71 -93.46,52.16 -150.46,126.07 -257.81,0 -107.35,-126.07 -20.41,-219.53 38.28,-278.22 58.69,-58.69 220.05,-152.45 332.81,-140.34 z"
         inkscape:connector-curvature="0" />
    </clipPath>
    <clipPath
       id="clipPath11843"
       clipPathUnits="userSpaceOnUse">
      <path
         id="path11845"
         d="m 2793.29,7198.62 c 0,0 23.91,-131.75 63.04,-188.26 39.12,-56.52 139.1,-343.43 0,-462.98 -139.11,-119.54 -354.74,-160.75 -433.19,-143.45 -78.45,17.3 -26.52,365.23 13.15,473.87 39.66,108.64 217.89,296.08 357,320.82 z"
         inkscape:connector-curvature="0" />
    </clipPath>
    <clipPath
       id="clipPath11859"
       clipPathUnits="userSpaceOnUse">
      <path
         id="path11861"
         d="m 2384.66,6393.06 c 0,0 65.21,-21.74 128.24,32.6 63.03,54.34 93.46,123.9 93.46,178.24 0,54.34 -32.6,215.18 -110.85,267.35 -78.25,52.16 -443.41,239.09 -473.84,289.08 -30.43,49.99 -45.64,-21.74 -56.51,-65.2 -10.87,-43.48 -37.59,-164.69 -67.7,-218.2 -30.11,-53.5 -85.09,-129.58 0,-251.3 85.09,-121.72 263.32,-234.74 487.2,-232.57 z"
         inkscape:connector-curvature="0" />
    </clipPath>
    <clipPath
       id="clipPath11493"
       clipPathUnits="userSpaceOnUse">
      <path
         id="path11495"
         d="m 4003.03,7499.29 c -169.8,4.36 -332.79,-105.57 -362.63,-190.49 -29.84,-84.92 -94.1,-330.5 -117.05,-381 -22.95,-50.49 -169.84,-234.1 -183.61,-348.86 -13.77,-114.75 34.42,-410.82 403.94,-456.73 369.52,-45.9 599.03,71.15 647.23,289.19 48.2,218.04 -89.51,507.22 -100.99,562.31 -11.47,55.08 71.15,516.4 -286.89,525.58 z"
         inkscape:connector-curvature="0" />
    </clipPath>
    <clipPath
       id="clipPath11565"
       clipPathUnits="userSpaceOnUse">
      <path
         id="path11567"
         d="m 5470.49,6976.77 c -107.65,26.44 -398.48,47.21 -500.46,-234.18 -101.98,-281.39 136.59,-508.95 258.73,-559.01 153.6,-62.95 394.7,-98.2 638.32,37.77 243.62,135.98 288.95,460.81 166.19,602.45 -122.75,141.64 -251.17,228.51 -562.78,152.97 z"
         inkscape:connector-curvature="0" />
    </clipPath>
  </defs>
  <sodipodi:namedview
     id="base"
     pagecolor="#ffffff"
     bordercolor="#666666"
     borderopacity="1.0"
     inkscape:pageopacity="0.0"
     inkscape:pageshadow="2"
     inkscape:zoom="1.9445436"
     inkscape:cx="27.293245"
     inkscape:cy="81.981215"
     inkscape:current-layer="layer1"
     showgrid="true"
     inkscape:document-units="px"
     inkscape:grid-bbox="true"
     inkscape:window-width="1280"
     inkscape:window-height="748"
     inkscape:window-x="0"
     inkscape:window-y="0"
     inkscape:window-maximized="1" />
  <metadata
     id="metadata7501">
    <rdf:RDF>
      <cc:Work
         rdf:about="">
        <dc:format>image/svg+xml</dc:format>
        <dc:type
           rdf:resource="http://purl.org/dc/dcmitype/StillImage" />
        <dc:title></dc:title>
      </cc:Work>
    </rdf:RDF>
  </metadata>
  <g
     id="layer1"
     inkscape:label="Layer 1"
     inkscape:groupmode="layer"
     transform="translate(0,86)">
    <g
       transform="matrix(0.91442448,0,0,0.91442448,663.49742,590.7947)"
       id="g8184">
      <path
         inkscape:connector-curvature="0"
         d="m -648.88373,-694.72751 c -13.4562,-3.305 -49.81,-5.9013 -62.5575,29.27253 -12.7475,35.1737 17.0738,63.6187 32.3413,69.8762 19.2,7.8688 49.3375,12.275 79.79,-4.7212 30.4525,-16.9975 36.1187,-57.6013 20.7737,-75.3063 -15.3437,-17.70503 -31.3962,-28.56373 -70.3475,-19.12123"
         style="fill:#f04223;fill-opacity:1;fill-rule:nonzero;stroke:none"
         id="path11559" />
      <g
         transform="matrix(0.125,0,0,-0.125,-1332.6949,177.36876)"
         id="g11561">
        <g
           id="g11563"
           clip-path="url(#clipPath11565)">
          <path
             inkscape:connector-curvature="0"
             d="m 4945.3,6751.42 c 0,0 41.51,-268.83 214.71,-428.46 211.66,-195.09 622.09,-115.46 773.33,45 120.61,127.96 165.77,348.71 153.33,417.04 -12.44,68.32 310,-236.23 -116.66,-544.78 -426.67,-308.55 -733.34,-204.26 -886.67,-28.07 -153.33,176.18 -259,381.25 -138.04,539.27"
             style="fill:#d63023;fill-opacity:1;fill-rule:nonzero;stroke:none"
             id="path11569" />
        </g>
      </g>
      <path
         inkscape:connector-curvature="0"
         d="m -624.33243,-689.96001 c 0,0 21.01,-1.935 28.8,14.35373 0,0 -3.4013,-17.21373 -28.8,-14.35373"
         style="fill:#ab2921;fill-opacity:1;fill-rule:nonzero;stroke:none"
         id="path11571" />
      <path
         inkscape:connector-curvature="0"
         d="m -676.26743,-686.93751 c 0.945,-0.2325 -16.5025,0.8275 -26.675,13.92873 0,0 9.4425,-9.6787 26.675,-13.92873"
         style="fill:#ab2921;fill-opacity:1;fill-rule:nonzero;stroke:none"
         id="path11573" />
      <path
         inkscape:connector-curvature="0"
         d="m -659.89993,-634.29378 c 0,3.65 -2.96,6.6088 -6.61,6.6088 -3.65,0 -6.61,-2.9588 -6.61,-6.6088 0,-3.6512 2.96,-6.61 6.61,-6.61 3.65,0 6.61,2.9588 6.61,6.61"
         style="fill:#f57a6a;fill-opacity:1;fill-rule:nonzero;stroke:none"
         id="path11575" />
      <path
         inkscape:connector-curvature="0"
         d="m -609.93243,-633.19248 c 0,3.65 -2.96,6.61 -6.61,6.61 -3.65,0 -6.61,-2.96 -6.61,-6.61 0,-3.6513 2.96,-6.61 6.61,-6.61 3.65,0 6.61,2.9587 6.61,6.61"
         style="fill:#f57a6a;fill-opacity:1;fill-rule:nonzero;stroke:none"
         id="path11577" />
      <path
         inkscape:connector-curvature="0"
         d="m -646.67993,-645.47748 c -0.6775,0 -1.2338,-0.54 -1.25,-1.22 -0.06,-2.5425 -1.8,-3.4463 -3.4275,-3.4463 -0.016,0 -0.034,0 -0.051,0 -1.8463,0.021 -3.7138,1.2025 -3.7138,3.4163 0,0.6912 -0.5587,1.25 -1.25,1.25 -0.6913,0 -1.25,-0.5588 -1.25,-1.25 0,-3.795 3.1862,-5.88 6.1837,-5.9163 0.026,0 0.051,0 0.077,0 2.8038,0 5.835,1.8313 5.9313,5.8863 0.015,0.6912 -0.53,1.2637 -1.2213,1.28 -0.01,0 -0.019,0 -0.029,0"
         style="fill:#171717;fill-opacity:1;fill-rule:nonzero;stroke:none"
         id="path11579" />
      <path
         inkscape:connector-curvature="0"
         d="m -640.45113,-632.32128 c -0.024,0 -0.049,0 -0.073,0 -2.8037,-0.034 -5.7812,-1.9863 -5.7812,-5.5363 0,-0.6912 0.5613,-1.25 1.25,-1.25 l 0,0 c 0.6912,0 1.25,0.5588 1.25,1.25 0,1.9675 1.6663,3.0175 3.3113,3.0375 0.016,0 0.031,0 0.047,0 1.4463,0 2.9938,-0.8037 3.0475,-3.0675 0.016,-0.69 0.57,-1.2937 1.2788,-1.22 0.6912,0.016 1.2362,0.5888 1.2212,1.2788 -0.092,3.795 -2.9274,5.5087 -5.5524,5.5087"
         style="fill:#171717;fill-opacity:1;fill-rule:nonzero;stroke:none"
         id="path11581" />
      <path
         inkscape:connector-curvature="0"
         d="m -624.33243,-645.47748 c -0.6775,0 -1.2338,-0.54 -1.25,-1.22 -0.06,-2.57 -1.7913,-3.4538 -3.48,-3.4463 -1.845,0.021 -3.7125,1.2025 -3.7125,3.4163 0,0.6912 -0.56,1.25 -1.25,1.25 -0.6913,0 -1.25,-0.5588 -1.25,-1.25 0,-3.795 3.1862,-5.88 6.1837,-5.9163 2.7938,0 5.9113,1.7938 6.0088,5.8863 0.015,0.6912 -0.53,1.2637 -1.2213,1.28 -0.01,0 -0.019,0 -0.029,0"
         style="fill:#171717;fill-opacity:1;fill-rule:nonzero;stroke:none"
         id="path11583" />
      <path
         inkscape:connector-curvature="0"
         d="m -654.07743,-687.88131 c 0,0 -9.915,14.63633 -20.065,16.99633 -10.1513,2.3612 -24.7875,-0.7075 -32.5775,-11.095 0,0 19.83,9.915 27.3837,5.1937 7.5538,-4.7212 10.6225,-11.09503 10.6225,-11.09503 0,0 -1.6525,-12.2762 -13.22,-15.345 -11.5662,-3.0687 -20.5375,1.4163 -24.7862,3.0688 0,0 7.79,-12.0388 21.4825,-12.9838 13.6912,-0.9437 26.6387,12.6725 28.0912,14.9275 0,0 1.4163,-15.3987 -2.36,-18.7037 -3.7775,-3.305 -15.8175,-7.0825 -15.8175,-7.0825 0,0 16.525,-1.6525 22.6625,2.5962 6.1388,4.25 7.0825,21.7188 7.0825,21.7188 0,0 8.735,-8.9713 18.4138,-10.6225 9.6787,-1.6525 25.0225,1.6512 31.6325,-15.1088 0,0 -0.2363,13.22 -6.8463,19.1213 -6.61,5.9025 -29.2725,7.3175 -32.3412,15.1087 0,0 15.8162,2.36 22.6625,11.56753 6.8462,9.2063 7.555,16.76 7.555,16.76 0,0 -7.3188,-13.455 -17.9413,-14.8725 -10.6237,-1.4162 -27.1487,-5.1925 -31.6337,-10.15003"
         style="fill:#328f3a;fill-opacity:1;fill-rule:nonzero;stroke:none"
         id="path11585" />
      <path
         inkscape:connector-curvature="0"
         d="m -648.88373,-698.21381 c -7.315,-1.1425 -11.3312,7.5 -2.2425,8.2075 9.0888,0.7088 10.41,-6.9325 2.2425,-8.2075"
         style="fill:#47bb3a;fill-opacity:1;fill-rule:nonzero;stroke:none"
         id="path11587" />
    </g>
  </g>
</svg>
